<svg xmlns="http://www.w3.org/2000/svg" viewBox="0 0 65.27 64.84"><defs><style>.cls-1{fill:#5e8c70;}</style></defs><g id="Layer_2" data-name="Layer 2"><g id="Layer_1-2" data-name="Layer 1"><path class="cls-1" d="M2.21,59.23a.23.23,0,0,1,.2.1.25.25,0,0,1,.09.2.33.33,0,0,1-.09.22.28.28,0,0,1-.2.08A.33.33,0,0,1,2,59.75a.37.37,0,0,1-.08-.22.28.28,0,0,1,.08-.2.27.27,0,0,1,.22-.1m-.82,0a.23.23,0,0,1,.2.1.25.25,0,0,1,.09.2.33.33,0,0,1-.09.22.28.28,0,0,1-.2.08.33.33,0,0,1-.22-.08.37.37,0,0,1-.08-.22.28.28,0,0,1,.08-.2.27.27,0,0,1,.22-.1m.43,1.59a1.24,1.24,0,0,0-.88.35A1.11,1.11,0,0,0,.57,62a1.13,1.13,0,0,0,.37.85,1.28,1.28,0,0,0,.88.36H3.11V62a1.15,1.15,0,0,0-.39-.85,1.32,1.32,0,0,0-.9-.35m-1.24,0a1.75,1.75,0,0,1,1.24-.5,1.75,1.75,0,0,1,1.25.5,1.54,1.54,0,0,1,.54,1.05v1.35H4.1v.46H1.82a1.75,1.75,0,0,1-1.24-.48,1.62,1.62,0,0,1,0-2.38"/><path class="cls-1" d="M4.15,63.75H1.82a1.82,1.82,0,0,1-1.28-.5A1.6,1.6,0,0,1,0,62a1.65,1.65,0,0,1,.54-1.24h0a1.84,1.84,0,0,1,1.28-.5,1.85,1.85,0,0,1,1.29.5,1.66,1.66,0,0,1,.56,1.09v1.3h.48ZM.62,60.87a1.55,1.55,0,0,0,0,2.3,1.69,1.69,0,0,0,1.2.47H4v-.35H3.55V61.88a1.5,1.5,0,0,0-.51-1,1.72,1.72,0,0,0-1.22-.48,1.68,1.68,0,0,0-1.2.48Zm2.55,2.42H1.82a1.37,1.37,0,0,1-.92-.38A1.21,1.21,0,0,1,.51,62a1.17,1.17,0,0,1,.39-.89,1.31,1.31,0,0,1,.92-.37,1.33,1.33,0,0,1,.93.37,1.16,1.16,0,0,1,.42.89ZM1.82,60.88a1.19,1.19,0,0,0-.84.33A1.06,1.06,0,0,0,.62,62a1.13,1.13,0,0,0,.36.81,1.22,1.22,0,0,0,.84.34H3.05V62a1.08,1.08,0,0,0-.37-.81A1.23,1.23,0,0,0,1.82,60.88Zm.39-1a.4.4,0,0,1-.26-.1.44.44,0,0,1-.1-.26.35.35,0,0,1,.1-.24.33.33,0,0,1,.26-.11.32.32,0,0,1,.24.11.3.3,0,0,1,.11.24.34.34,0,0,1-.11.25A.32.32,0,0,1,2.21,59.89Zm0-.6a.19.19,0,0,0-.17.07.25.25,0,0,0-.08.17.29.29,0,0,0,.08.18.25.25,0,0,0,.33,0,.27.27,0,0,0,.08-.18.22.22,0,0,0-.07-.16A.25.25,0,0,0,2.21,59.29Zm-.82.6a.4.4,0,0,1-.26-.1.44.44,0,0,1-.1-.26.35.35,0,0,1,.1-.24.36.36,0,0,1,.26-.11.34.34,0,0,1,.25.11.33.33,0,0,1,.1.24.38.38,0,0,1-.11.26A.35.35,0,0,1,1.39,59.89Zm0-.6a.29.29,0,0,0-.18.07.27.27,0,0,0-.06.17.26.26,0,0,0,.07.18.25.25,0,0,0,.33,0,.25.25,0,0,0,.08-.18.22.22,0,0,0-.07-.16A.2.2,0,0,0,1.39,59.29Z"/><rect class="cls-1" x="3.85" y="63.23" width="1.99" height="0.46"/><path class="cls-1" d="M5.9,63.75H3.8v-.58H5.9Zm-2-.11H5.79v-.35H3.91Z"/><rect class="cls-1" x="5.6" y="63.23" width="1.99" height="0.46"/><path class="cls-1" d="M7.65,63.75H5.54v-.58H7.65Zm-2-.11H7.54v-.35H5.66Z"/><rect class="cls-1" x="7.35" y="63.23" width="1.99" height="0.46"/><path class="cls-1" d="M9.4,63.75H7.29v-.58H9.4Zm-2-.11H9.29v-.35H7.41Z"/><rect class="cls-1" x="9.1" y="63.23" width="1.99" height="0.46"/><path class="cls-1" d="M11.15,63.75H9v-.58h2.11Zm-2-.11H11v-.35H9.16Z"/><path class="cls-1" d="M13,61.79a1.25,1.25,0,0,0-.89.34,1.14,1.14,0,0,0,0,1.69,1.34,1.34,0,0,0,1.76,0,1.11,1.11,0,0,0,.38-.84,1.13,1.13,0,0,0-.37-.85,1.27,1.27,0,0,0-.89-.34m0-.49a1.76,1.76,0,0,1,1.25.49,1.6,1.6,0,0,1,0,2.38,1.8,1.8,0,0,1-1.25.48,1.77,1.77,0,0,1-1.24-.48,1.48,1.48,0,0,1-.36-.48h-.57v-.46h.42a2,2,0,0,1,0-.25,1.56,1.56,0,0,1,.53-1.19A1.74,1.74,0,0,1,13,61.3"/><path class="cls-1" d="M13,64.71a1.84,1.84,0,0,1-1.28-.5,1.74,1.74,0,0,1-.36-.46h-.59v-.58h.42a1.15,1.15,0,0,1,0-.19,1.65,1.65,0,0,1,.54-1.24,1.82,1.82,0,0,1,1.28-.5,1.85,1.85,0,0,1,1.29.5A1.65,1.65,0,0,1,14.85,63a1.63,1.63,0,0,1-.54,1.23A1.87,1.87,0,0,1,13,64.71ZM10.9,63.64h.55l0,0a1.48,1.48,0,0,0,.35.45,1.68,1.68,0,0,0,1.2.48,1.72,1.72,0,0,0,1.21-.48A1.48,1.48,0,0,0,14.74,63a1.5,1.5,0,0,0-.51-1.15A1.69,1.69,0,0,0,13,61.36a1.65,1.65,0,0,0-1.2.47A1.5,1.5,0,0,0,11.31,63a1.79,1.79,0,0,0,0,.24v.07H10.9Zm2.12.57a1.32,1.32,0,0,1-.92-.35,1.19,1.19,0,0,1,0-1.77,1.32,1.32,0,0,1,.93-.36,1.34,1.34,0,0,1,.93.36,1.2,1.2,0,0,1,.39.89,1.21,1.21,0,0,1-.4.88A1.35,1.35,0,0,1,13,64.21Zm0-2.37a1.19,1.19,0,0,0-.85.33,1.1,1.1,0,0,0,0,1.61,1.25,1.25,0,0,0,.85.32,1.22,1.22,0,0,0,.84-.32,1,1,0,0,0,.36-.8,1,1,0,0,0-.35-.81A1.23,1.23,0,0,0,13,61.84Z"/><polygon class="cls-1" points="15.78 63.23 16.27 63.23 16.27 63.69 15.28 63.69 15.28 58.73 15.78 58.73 15.78 63.23"/><path class="cls-1" d="M16.32,63.75H15.23V58.67h.61v4.5h.48Zm-1-.11h.87v-.35h-.49v-4.5h-.38Z"/><path class="cls-1" d="M18.19,61.79a1.27,1.27,0,0,0-.89.34,1.14,1.14,0,0,0,0,1.69,1.28,1.28,0,0,0,.88.33,1.31,1.31,0,0,0,.89-.33,1.15,1.15,0,0,0,0-1.69,1.27,1.27,0,0,0-.89-.34m0-.49a1.74,1.74,0,0,1,1.25.49A1.55,1.55,0,0,1,20,63a2,2,0,0,1,0,.25h.41v.46H19.8a1.83,1.83,0,0,1-.36.48,1.8,1.8,0,0,1-1.25.48A1.77,1.77,0,0,1,17,64.17a1.83,1.83,0,0,1-.36-.48H16v-.46h.43a1,1,0,0,1,0-.25A1.55,1.55,0,0,1,17,61.79a1.74,1.74,0,0,1,1.24-.49"/><path class="cls-1" d="M18.19,64.71a1.84,1.84,0,0,1-1.28-.5,1.7,1.7,0,0,1-.35-.46H16v-.58h.41c0-.06,0-.12,0-.19a1.65,1.65,0,0,1,.54-1.24,1.9,1.9,0,0,1,2.57,0A1.64,1.64,0,0,1,20,63a1.15,1.15,0,0,1,0,.19h.41v.58h-.59a1.52,1.52,0,0,1-.35.46A1.88,1.88,0,0,1,18.19,64.71Zm-2.11-1.07h.55v0a1.52,1.52,0,0,0,.35.45,1.69,1.69,0,0,0,1.2.48,1.72,1.72,0,0,0,1.21-.48,1.48,1.48,0,0,0,.35-.45v0h.54v-.35h-.42v-.07a1.94,1.94,0,0,0,0-.24,1.5,1.5,0,0,0-.51-1.15,1.78,1.78,0,0,0-2.41,0,1.53,1.53,0,0,0-.5,1.15,1.77,1.77,0,0,0,0,.24v.07h-.43Zm2.11.57a1.35,1.35,0,0,1-.92-.35,1.17,1.17,0,0,1-.39-.88,1.19,1.19,0,0,1,.38-.89,1.38,1.38,0,0,1,1.86,0,1.2,1.2,0,0,1,.39.89,1.18,1.18,0,0,1-.4.88A1.32,1.32,0,0,1,18.19,64.21Zm0-2.37a1.21,1.21,0,0,0-.85.33,1.09,1.09,0,0,0,0,1.61,1.22,1.22,0,0,0,.84.32,1.25,1.25,0,0,0,.85-.32,1.08,1.08,0,0,0,0-1.61A1.19,1.19,0,0,0,18.19,61.84Z"/><rect class="cls-1" x="20.12" y="63.23" width="1.99" height="0.46"/><path class="cls-1" d="M22.16,63.75h-2.1v-.58h2.1Zm-2-.11h1.88v-.35H20.17Z"/><rect class="cls-1" x="21.86" y="63.23" width="1.99" height="0.46"/><path class="cls-1" d="M23.91,63.75h-2.1v-.58h2.1Zm-2-.11H23.8v-.35H21.92Z"/><path class="cls-1" d="M25.19,59.23a.3.3,0,0,1,.21.1.25.25,0,0,1,.09.2.3.3,0,0,1-.6,0,.25.25,0,0,1,.09-.2.27.27,0,0,1,.21-.1m-.42-.74a.25.25,0,0,1,.2.09.27.27,0,0,1,.09.21A.29.29,0,0,1,25,59a.28.28,0,0,1-.2.08.33.33,0,0,1-.22-.08.37.37,0,0,1-.08-.21.3.3,0,0,1,.08-.21.29.29,0,0,1,.22-.09m-.4.74a.27.27,0,0,1,.21.1.25.25,0,0,1,.09.2.3.3,0,0,1-.6,0,.25.25,0,0,1,.09-.2.3.3,0,0,1,.21-.1M25,60.5v2.14a.6.6,0,0,0,.16.43.81.81,0,0,0,.58.16h.62v.46h-.62a1.2,1.2,0,0,1-1-.39,1.28,1.28,0,0,1-1.06.39h-.12v-.46h.12a.94.94,0,0,0,.64-.15.64.64,0,0,0,.17-.44V60.5Z"/><path class="cls-1" d="M26.46,63.75h-.68a1.26,1.26,0,0,1-1-.37,1.35,1.35,0,0,1-1.06.37h-.17v-.58h.17a.91.91,0,0,0,.6-.13.57.57,0,0,0,.15-.4V60.45h.62v2.19a.53.53,0,0,0,.14.39.76.76,0,0,0,.54.14h.68Zm-1.68-.54,0,0a1.16,1.16,0,0,0,1,.38h.56v-.35h-.56a.85.85,0,0,1-.62-.18.65.65,0,0,1-.18-.47V60.56h-.39v2.08a.68.68,0,0,1-.18.48,1,1,0,0,1-.68.17h-.06v.35h.06a1.2,1.2,0,0,0,1-.38Zm.41-3.32a.34.34,0,0,1-.25-.11.35.35,0,0,1-.1-.25.31.31,0,0,1,.1-.24.33.33,0,0,1,.25-.11.31.31,0,0,1,.25.11.3.3,0,0,1,.11.24.38.38,0,0,1-.36.36Zm0-.6a.21.21,0,0,0-.17.07.23.23,0,0,0-.07.17.26.26,0,0,0,.07.18.25.25,0,0,0,.34,0,.22.22,0,0,0,.07-.17.19.19,0,0,0-.07-.16A.23.23,0,0,0,25.19,59.29Zm-.82.6a.34.34,0,0,1-.25-.11.35.35,0,0,1-.1-.25.36.36,0,0,1,.35-.35.33.33,0,0,1,.25.11.3.3,0,0,1,.11.24.38.38,0,0,1-.36.36Zm0-.6a.26.26,0,0,0-.17.07.23.23,0,0,0-.07.17.34.34,0,0,0,.07.18.25.25,0,0,0,.34,0,.22.22,0,0,0,.07-.17.19.19,0,0,0-.07-.16A.2.2,0,0,0,24.37,59.29Zm.4-.15a.35.35,0,0,1-.26-.1.42.42,0,0,1-.1-.25.37.37,0,0,1,.1-.25.35.35,0,0,1,.26-.11.32.32,0,0,1,.24.11.33.33,0,0,1,.11.25A.32.32,0,0,1,25,59,.31.31,0,0,1,24.77,59.14Zm0-.6a.21.21,0,0,0-.17.08.21.21,0,0,0-.07.17.23.23,0,0,0,.07.17.25.25,0,0,0,.41-.17.26.26,0,0,0-.07-.17A.25.25,0,0,0,24.77,58.54Z"/><path class="cls-1" d="M27.86,58.73v4a1,1,0,0,1-.19.61.69.69,0,0,1-.5.33,9.57,9.57,0,0,1-1,0v-.46h.59a.69.69,0,0,0,.49-.23.56.56,0,0,0,.12-.33V58.73Z"/><path class="cls-1" d="M26.16,63.75H26.1v-.58h.64a.68.68,0,0,0,.45-.2.47.47,0,0,0,.11-.3v-4h.62v4.06a1.08,1.08,0,0,1-.2.64.79.79,0,0,1-.54.36A9.6,9.6,0,0,1,26.16,63.75Zm.05-.46v.35c.56,0,.88,0,.95,0a.64.64,0,0,0,.46-.31,1,1,0,0,0,.18-.58V58.79h-.38v3.87a.63.63,0,0,1-.14.37.72.72,0,0,1-.53.24A5.17,5.17,0,0,1,26.21,63.29Z"/><rect class="cls-1" x="28.34" y="58.73" width="0.5" height="4.96"/><path class="cls-1" d="M28.9,63.75h-.61V58.67h.61Zm-.5-.11h.39V58.79H28.4Z"/><path class="cls-1" d="M32.61,59.23a.35.35,0,0,1,.3.3.3.3,0,0,1-.1.22.28.28,0,0,1-.2.08.29.29,0,0,1-.21-.08.33.33,0,0,1-.09-.22.25.25,0,0,1,.09-.2.24.24,0,0,1,.21-.1m-.82,0a.35.35,0,0,1,.3.3.3.3,0,0,1-.1.22.28.28,0,0,1-.2.08.29.29,0,0,1-.21-.08.33.33,0,0,1-.09-.22.25.25,0,0,1,.09-.2.24.24,0,0,1,.21-.1m.44,1.59a1.26,1.26,0,0,0-.89.35A1.11,1.11,0,0,0,31,62a1.17,1.17,0,0,0,.37.85,1.3,1.3,0,0,0,.89.36h1.28V62a1.15,1.15,0,0,0-.39-.85,1.3,1.3,0,0,0-.89-.35m-1.25,0a1.75,1.75,0,0,1,1.25-.5,1.79,1.79,0,0,1,1.25.5A1.53,1.53,0,0,1,34,61.88v1.35h.49v.46H32.23A1.76,1.76,0,0,1,31,63.21a1.62,1.62,0,0,1,0-2.38"/><path class="cls-1" d="M34.55,63.75H32.23a1.85,1.85,0,0,1-1.29-.5A1.6,1.6,0,0,1,30.4,62a1.65,1.65,0,0,1,.54-1.24h0a1.9,1.9,0,0,1,2.57,0,1.66,1.66,0,0,1,.56,1.09v1.3h.48ZM31,60.87a1.55,1.55,0,0,0,0,2.3,1.72,1.72,0,0,0,1.21.47h2.21v-.35H34V61.88a1.46,1.46,0,0,0-.51-1,1.72,1.72,0,0,0-1.21-.48,1.68,1.68,0,0,0-1.21.48Zm2.55,2.42H32.23a1.37,1.37,0,0,1-.93-.38,1.21,1.21,0,0,1-.39-.89,1.17,1.17,0,0,1,.39-.89,1.33,1.33,0,0,1,.93-.37,1.37,1.37,0,0,1,.93.37,1.18,1.18,0,0,1,.41.89Zm-1.34-2.41a1.19,1.19,0,0,0-.85.33A1.06,1.06,0,0,0,31,62a1.13,1.13,0,0,0,.36.81,1.23,1.23,0,0,0,.85.34h1.23V62a1.09,1.09,0,0,0-.38-.81A1.23,1.23,0,0,0,32.23,60.88Zm.38-1a.36.36,0,0,1-.25-.1.4.4,0,0,1-.11-.26.32.32,0,0,1,.11-.24.31.31,0,0,1,.25-.11.36.36,0,0,1,.25.11.33.33,0,0,1,.1.24.34.34,0,0,1-.11.26A.35.35,0,0,1,32.61,59.89Zm0-.6a.21.21,0,0,0-.17.07.23.23,0,0,0-.07.17.26.26,0,0,0,.07.18.25.25,0,0,0,.33,0,.25.25,0,0,0,.08-.18.19.19,0,0,0-.07-.16A.25.25,0,0,0,32.61,59.29Zm-.82.6a.33.33,0,0,1-.25-.11.36.36,0,0,1-.11-.25.32.32,0,0,1,.11-.24.33.33,0,0,1,.25-.11.34.34,0,0,1,.25.11.33.33,0,0,1,.1.24.34.34,0,0,1-.11.26A.35.35,0,0,1,31.79,59.89Zm0-.6a.24.24,0,0,0-.17.07.23.23,0,0,0-.07.17.26.26,0,0,0,.07.18.25.25,0,0,0,.33,0,.25.25,0,0,0,.08-.18.19.19,0,0,0-.07-.16A.2.2,0,0,0,31.79,59.29Z"/><rect class="cls-1" x="34.25" y="63.23" width="1.99" height="0.46"/><path class="cls-1" d="M36.3,63.75H34.2v-.58h2.1Zm-2-.11h1.88v-.35H34.31Z"/><rect class="cls-1" x="36" y="63.23" width="1.99" height="0.46"/><path class="cls-1" d="M38.05,63.75H36v-.58h2.1Zm-2-.11h1.88v-.35H36.06Z"/><path class="cls-1" d="M39.45,64.16a.25.25,0,0,1,.2.09.29.29,0,0,1,0,.42.25.25,0,0,1-.2.09.29.29,0,0,1-.22-.09.34.34,0,0,1-.08-.21.32.32,0,0,1,.08-.21.29.29,0,0,1,.22-.09m-.82,0a.25.25,0,0,1,.2.09.29.29,0,0,1,0,.42.25.25,0,0,1-.2.09.29.29,0,0,1-.22-.09.34.34,0,0,1-.08-.21.32.32,0,0,1,.08-.21.29.29,0,0,1,.22-.09M39.8,60.5v2.14a1,1,0,0,1-.26.66,1.25,1.25,0,0,1-1,.39h-.74v-.46h.74a.94.94,0,0,0,.64-.15.6.6,0,0,0,.16-.44V60.5Z"/><path class="cls-1" d="M39.45,64.81a.35.35,0,0,1-.26-.1.42.42,0,0,1-.1-.25.37.37,0,0,1,.1-.25.36.36,0,0,1,.26-.11.34.34,0,0,1,.25.11.37.37,0,0,1,.1.25.36.36,0,0,1-.11.25A.31.31,0,0,1,39.45,64.81Zm0-.59a.24.24,0,0,0-.18.07.25.25,0,0,0-.06.17.23.23,0,0,0,.07.17.23.23,0,0,0,.33,0,.25.25,0,0,0,.08-.17.23.23,0,0,0-.08-.17A.2.2,0,0,0,39.45,64.22Zm-.82.59a.35.35,0,0,1-.26-.1.42.42,0,0,1-.1-.25.37.37,0,0,1,.1-.25.33.33,0,0,1,.26-.11.32.32,0,0,1,.24.11.34.34,0,0,1,.11.25.36.36,0,0,1-.11.25A.31.31,0,0,1,38.63,64.81Zm0-.59a.19.19,0,0,0-.17.07.22.22,0,0,0-.07.17.24.24,0,0,0,.4.17.25.25,0,0,0,.08-.17.23.23,0,0,0-.08-.17A.2.2,0,0,0,38.63,64.22Zm-.14-.47H37.7v-.58h.79a.91.91,0,0,0,.6-.13.53.53,0,0,0,.14-.4V60.45h.62v2.19a1.08,1.08,0,0,1-.26.69A1.32,1.32,0,0,1,38.49,63.75Zm-.68-.11h.68a1.21,1.21,0,0,0,1-.38,1,1,0,0,0,.24-.62V60.56h-.4v2.08a.64.64,0,0,1-.17.48,1,1,0,0,1-.68.17h-.68Z"/><path class="cls-1" d="M41.88,63.23h.38v.46h-.38v.09a1.16,1.16,0,0,1-.17.56.86.86,0,0,1-.65.4,5.7,5.7,0,0,1-.9,0v-.46h.39a1,1,0,0,0,.55-.14.55.55,0,0,0,.28-.47V60.46h.5Z"/><path class="cls-1" d="M40.16,64.84h0v-.58h.44a1,1,0,0,0,.52-.14.46.46,0,0,0,.25-.42V60.4h.61v2.77h.38v.58h-.38v0a1.23,1.23,0,0,1-.17.58.92.92,0,0,1-.69.44A7.57,7.57,0,0,1,40.16,64.84Zm.06-.46v.34a7.66,7.66,0,0,0,.83,0,.83.83,0,0,0,.61-.38,1.07,1.07,0,0,0,.16-.53v-.14h.38v-.35h-.38V60.51h-.39v3.2a.59.59,0,0,1-.3.52,1.14,1.14,0,0,1-.58.15h-.33Z"/><path class="cls-1" d="M44.57,59.23a.27.27,0,0,1,.21.1.25.25,0,0,1,.09.2.3.3,0,0,1-.6,0,.25.25,0,0,1,.09-.2.3.3,0,0,1,.21-.1m-.82,0a.3.3,0,0,1,.21.1.25.25,0,0,1,.09.2.3.3,0,0,1-.6,0,.25.25,0,0,1,.09-.2.27.27,0,0,1,.21-.1m.43,1.61a1.25,1.25,0,0,0-.9.36,1.14,1.14,0,0,0,0,1.69,1.27,1.27,0,0,0,.89.34,1.25,1.25,0,0,0,.88-.34,1.12,1.12,0,0,0,0-1.69,1.23,1.23,0,0,0-.89-.36m0-.48a1.76,1.76,0,0,1,1.25.49,1.59,1.59,0,0,1,.53,1.2,1.53,1.53,0,0,1-.53,1.19,1.83,1.83,0,0,1-1.25.45H42v-.46h.91a1.56,1.56,0,0,1-.52-1.18,1.59,1.59,0,0,1,.53-1.2,1.76,1.76,0,0,1,1.25-.49"/><path class="cls-1" d="M44.18,63.75H42v-.58h.82a1.59,1.59,0,0,1-.43-1.12,1.64,1.64,0,0,1,.54-1.24,1.81,1.81,0,0,1,1.29-.51,1.85,1.85,0,0,1,1.29.51A1.64,1.64,0,0,1,46,62.05a1.59,1.59,0,0,1-.54,1.23A1.9,1.9,0,0,1,44.18,63.75Zm-2.11-.11h2.11a1.77,1.77,0,0,0,1.21-.44,1.47,1.47,0,0,0,.51-1.15,1.54,1.54,0,0,0-.51-1.16,1.78,1.78,0,0,0-2.43,0,1.57,1.57,0,0,0-.5,1.16,1.51,1.51,0,0,0,.5,1.14l.1.1h-1Zm2.11-.35a1.32,1.32,0,0,1-.93-.36,1.2,1.2,0,0,1-.39-.88,1.17,1.17,0,0,1,.39-.89,1.27,1.27,0,0,1,.93-.37,1.29,1.29,0,0,1,.93.37,1.13,1.13,0,0,1,.39.89,1.18,1.18,0,0,1-.4.88A1.32,1.32,0,0,1,44.18,63.29Zm0-2.39a1.2,1.2,0,0,0-.86.34,1.09,1.09,0,0,0,0,1.61,1.2,1.2,0,0,0,.85.32,1.22,1.22,0,0,0,.85-.32,1.09,1.09,0,0,0,.36-.8,1,1,0,0,0-.36-.81A1.16,1.16,0,0,0,44.18,60.9Zm.39-1a.34.34,0,0,1-.25-.11.35.35,0,0,1-.1-.25.31.31,0,0,1,.1-.24.34.34,0,0,1,.5,0,.3.3,0,0,1,.11.24.38.38,0,0,1-.36.36Zm0-.6a.26.26,0,0,0-.17.07.23.23,0,0,0-.07.17.26.26,0,0,0,.07.18.24.24,0,0,0,.17.06.25.25,0,0,0,.17-.06.26.26,0,0,0,.07-.18.19.19,0,0,0-.07-.16A.2.2,0,0,0,44.57,59.29Zm-.82.6a.34.34,0,0,1-.25-.11.35.35,0,0,1-.1-.25.31.31,0,0,1,.1-.24.33.33,0,0,1,.25-.11.31.31,0,0,1,.25.11.3.3,0,0,1,.11.24.38.38,0,0,1-.36.36Zm0-.6a.21.21,0,0,0-.17.07.23.23,0,0,0-.07.17.27.27,0,0,0,.07.18.25.25,0,0,0,.34,0,.22.22,0,0,0,.07-.17.19.19,0,0,0-.07-.16A.23.23,0,0,0,43.75,59.29Z"/><path class="cls-1" d="M49.73,59.23a.23.23,0,0,1,.2.1.26.26,0,0,1,.1.2.34.34,0,0,1-.1.22.28.28,0,0,1-.2.08.29.29,0,0,1-.21-.08.33.33,0,0,1-.09-.22.25.25,0,0,1,.09-.2.24.24,0,0,1,.21-.1m-.82,0a.23.23,0,0,1,.2.1.22.22,0,0,1,.09.2.29.29,0,0,1-.09.22.28.28,0,0,1-.2.08.29.29,0,0,1-.21-.08.33.33,0,0,1-.09-.22.25.25,0,0,1,.09-.2.24.24,0,0,1,.21-.1m.43,1.59a1.26,1.26,0,0,0-.88.35,1.11,1.11,0,0,0-.37.85,1.17,1.17,0,0,0,.37.85,1.29,1.29,0,0,0,.88.36h1.29V62a1.15,1.15,0,0,0-.39-.85,1.32,1.32,0,0,0-.9-.35m-1.24,0a1.75,1.75,0,0,1,1.24-.5,1.79,1.79,0,0,1,1.26.5,1.53,1.53,0,0,1,.53,1.05v1.35h.49v.46H49.34a1.75,1.75,0,0,1-1.24-.48,1.62,1.62,0,0,1,0-2.38"/><path class="cls-1" d="M51.67,63.75H49.34a1.84,1.84,0,0,1-1.28-.5A1.6,1.6,0,0,1,47.52,62a1.65,1.65,0,0,1,.54-1.24h0a1.9,1.9,0,0,1,2.57,0,1.66,1.66,0,0,1,.56,1.09v1.3h.48Zm-3.53-2.88a1.55,1.55,0,0,0,0,2.3,1.71,1.71,0,0,0,1.2.47h2.22v-.35h-.49V61.88a1.46,1.46,0,0,0-.51-1,1.72,1.72,0,0,0-1.22-.48,1.68,1.68,0,0,0-1.2.48Zm2.55,2.42H49.34a1.37,1.37,0,0,1-.92-.38A1.22,1.22,0,0,1,48,62a1.17,1.17,0,0,1,.39-.89,1.33,1.33,0,0,1,.92-.37,1.38,1.38,0,0,1,.94.37,1.18,1.18,0,0,1,.41.89Zm-1.35-2.41a1.19,1.19,0,0,0-.84.33,1.06,1.06,0,0,0-.36.81,1.13,1.13,0,0,0,.36.81,1.22,1.22,0,0,0,.84.34h1.24V62a1.09,1.09,0,0,0-.38-.81A1.23,1.23,0,0,0,49.34,60.88Zm.39-1a.4.4,0,0,1-.26-.1.44.44,0,0,1-.1-.26.36.36,0,0,1,.36-.35.36.36,0,0,1,.25.11.3.3,0,0,1,.1.24.31.31,0,0,1-.11.25A.32.32,0,0,1,49.73,59.89Zm0-.6a.21.21,0,0,0-.17.07.23.23,0,0,0-.07.17.26.26,0,0,0,.07.18.25.25,0,0,0,.33,0,.27.27,0,0,0,.08-.18.19.19,0,0,0-.07-.16A.25.25,0,0,0,49.73,59.29Zm-.82.6a.4.4,0,0,1-.26-.1.44.44,0,0,1-.1-.26.35.35,0,0,1,.1-.24.36.36,0,0,1,.26-.11.34.34,0,0,1,.25.11.33.33,0,0,1,.1.24.34.34,0,0,1-.11.26A.35.35,0,0,1,48.91,59.89Zm0-.6a.24.24,0,0,0-.17.07.23.23,0,0,0-.07.17.26.26,0,0,0,.07.18.24.24,0,0,0,.17.06.23.23,0,0,0,.16-.06.25.25,0,0,0,.08-.18.19.19,0,0,0-.07-.16A.2.2,0,0,0,48.91,59.29Z"/><rect class="cls-1" x="51.37" y="63.23" width="1.99" height="0.46"/><path class="cls-1" d="M53.42,63.75h-2.1v-.58h2.1Zm-2-.11h1.88v-.35H51.43Z"/><rect class="cls-1" x="53.12" y="63.23" width="1.99" height="0.46"/><path class="cls-1" d="M55.17,63.75h-2.1v-.58h2.1Zm-2-.11h1.88v-.35H53.18Z"/><path class="cls-1" d="M57.77,59.25H56.15a.37.37,0,0,0-.27.11.33.33,0,0,0-.11.26,4.79,4.79,0,0,0,.07,1.27.39.39,0,0,0,.27.11h1.35a1,1,0,0,1,.69.24.79.79,0,0,1,.23.54c0,.27,0,.59,0,.95a1,1,0,0,1-.29.76,1.09,1.09,0,0,1-.72.2H54.87v-.46H57.4a.48.48,0,0,0,.46-.51,2.71,2.71,0,0,0-.1-1.09.48.48,0,0,0-.33-.12H56.1a.84.84,0,0,1-.77-.44,6.43,6.43,0,0,1-.08-1.46.89.89,0,0,1,.26-.62.86.86,0,0,1,.63-.26h1.63Z"/><path class="cls-1" d="M57.4,63.75H54.81v-.58H57.4a.41.41,0,0,0,.4-.45c0-.89-.06-1-.08-1a.42.42,0,0,0-.29-.11H56.1a.89.89,0,0,1-.82-.46,5.12,5.12,0,0,1-.08-1.49.94.94,0,0,1,.94-.94h1.68v.64H56.15a.32.32,0,0,0-.23.09.27.27,0,0,0-.09.22,5.37,5.37,0,0,0,.05,1.23.32.32,0,0,0,.23.09h1.35a1,1,0,0,1,.72.26.85.85,0,0,1,.26.58c0,.28,0,.6,0,.95a1.08,1.08,0,0,1-.31.8A1.15,1.15,0,0,1,57.4,63.75Zm-2.47-.11H57.4a1,1,0,0,0,.68-.2.94.94,0,0,0,.28-.71c0-.35,0-.67,0-.95a.75.75,0,0,0-.22-.49.9.9,0,0,0-.65-.24H56.11a.45.45,0,0,1-.31-.12s-.09-.09-.09-1.31a.42.42,0,0,1,.13-.31.47.47,0,0,1,.31-.11h1.56v-.41H56.14a.81.81,0,0,0-.59.24.82.82,0,0,0-.24.58A6.23,6.23,0,0,0,55.38,61a.77.77,0,0,0,.72.41h1.33a.53.53,0,0,1,.37.14c.06.06.12.23.12,1.13a.53.53,0,0,1-.16.41.5.5,0,0,1-.36.16H54.93Z"/><path class="cls-1" d="M60.49,63.23h.38v.46h-.38v.09a1.26,1.26,0,0,1-.16.56.9.9,0,0,1-.65.4,5.7,5.7,0,0,1-.9,0v-.46h.38a1,1,0,0,0,.55-.14.53.53,0,0,0,.28-.47V60.46h.5Z"/><path class="cls-1" d="M58.78,64.84h-.06v-.58h.44a1,1,0,0,0,.52-.14.47.47,0,0,0,.26-.42V60.4h.61v2.77h.38v.58h-.38v0a1.15,1.15,0,0,1-.18.58.91.91,0,0,1-.69.44A7.36,7.36,0,0,1,58.78,64.84Zm0-.46v.34a7.94,7.94,0,0,0,.84,0,.83.83,0,0,0,.61-.38,1.16,1.16,0,0,0,.15-.53v-.14h.39v-.35h-.39V60.51h-.38v3.2a.6.6,0,0,1-.31.52,1.11,1.11,0,0,1-.58.15h-.33Z"/><path class="cls-1" d="M63.7,59.23a.26.26,0,0,1,.2.1.25.25,0,0,1,.09.2.29.29,0,0,1-.09.21.25.25,0,0,1-.2.09.29.29,0,0,1-.22-.09.32.32,0,0,1-.08-.21.28.28,0,0,1,.08-.2.3.3,0,0,1,.22-.1m-.43-.74a.31.31,0,0,1,.3.3.29.29,0,0,1-.09.21.32.32,0,0,1-.21.08.3.3,0,0,1-.21-.08.32.32,0,0,1-.09-.21.31.31,0,0,1,.3-.3m-.39.74a.26.26,0,0,1,.2.1.25.25,0,0,1,.09.2.29.29,0,0,1-.09.21.25.25,0,0,1-.2.09.29.29,0,0,1-.22-.09.32.32,0,0,1-.08-.21.28.28,0,0,1,.08-.2.3.3,0,0,1,.22-.1m2.33,1.21v2.12a1.09,1.09,0,0,1-1.1,1.13,1,1,0,0,1-.85-.42,1,1,0,0,1-.85.42,1,1,0,0,1-.78-.33l-.06-.06a1,1,0,0,1-.79.39h-.15v-.46h.15a.49.49,0,0,0,.38-.18.57.57,0,0,0,.16-.4V60.44h.51v1.81a2,2,0,0,0,.07.65.49.49,0,0,0,.51.33.57.57,0,0,0,.43-.18.64.64,0,0,0,.17-.44V60.44h.51v2.17a.6.6,0,0,0,.16.44.54.54,0,0,0,.42.18.55.55,0,0,0,.43-.18.64.64,0,0,0,.16-.44V60.44Z"/><path class="cls-1" d="M64.11,63.75a1.07,1.07,0,0,1-.85-.39,1.07,1.07,0,0,1-.85.39,1,1,0,0,1-.82-.35l0,0a1,1,0,0,1-.79.37h-.21v-.58h.21a.44.44,0,0,0,.34-.16.5.5,0,0,0,.14-.36V60.39h.63v1.86a2.16,2.16,0,0,0,.06.63.43.43,0,0,0,.46.29A.51.51,0,0,0,62.8,63a.57.57,0,0,0,.15-.4V60.39h.63v2.22a.54.54,0,0,0,.14.4.49.49,0,0,0,.38.16.51.51,0,0,0,.39-.15.64.64,0,0,0,.14-.41V60.39h.64v2.17a1.14,1.14,0,0,1-.33.84A1.13,1.13,0,0,1,64.11,63.75Zm-.85-.57,0,.06a1,1,0,0,0,.81.4,1,1,0,0,0,.75-.32,1,1,0,0,0,.3-.76V60.5h-.42v2.11a.72.72,0,0,1-.17.48.6.6,0,0,1-.47.2.61.61,0,0,1-.46-.2.68.68,0,0,1-.18-.48V60.5h-.39v2.11a.71.71,0,0,1-.19.48.62.62,0,0,1-.47.2.55.55,0,0,1-.57-.37,2.55,2.55,0,0,1-.06-.67V60.5h-.4v2.15a.67.67,0,0,1-.17.44.58.58,0,0,1-.43.2h-.09v.35h.09a1,1,0,0,0,.75-.38l0,0,.1.12a1,1,0,0,0,.74.31,1,1,0,0,0,.8-.4Zm.44-3.29a.36.36,0,0,1-.26-.11.39.39,0,0,1-.1-.25.35.35,0,0,1,.1-.24.33.33,0,0,1,.26-.11.34.34,0,0,1,.25.11.33.33,0,0,1,.1.24.34.34,0,0,1-.11.25A.32.32,0,0,1,63.7,59.89Zm0-.6a.24.24,0,0,0-.18.07.28.28,0,0,0-.07.17.27.27,0,0,0,.08.18.24.24,0,0,0,.33,0,.23.23,0,0,0,.08-.17.22.22,0,0,0-.07-.16A.21.21,0,0,0,63.7,59.29Zm-.82.6a.36.36,0,0,1-.26-.11.39.39,0,0,1-.1-.25.35.35,0,0,1,.1-.24.33.33,0,0,1,.26-.11.29.29,0,0,1,.24.11.3.3,0,0,1,.11.24.34.34,0,0,1-.11.25A.32.32,0,0,1,62.88,59.89Zm0-.6a.19.19,0,0,0-.17.07.25.25,0,0,0-.08.17.29.29,0,0,0,.08.18.25.25,0,0,0,.33,0,.27.27,0,0,0,.08-.18.22.22,0,0,0-.07-.16A.21.21,0,0,0,62.88,59.29Zm.39-.15A.33.33,0,0,1,63,59a.36.36,0,0,1-.1-.25.33.33,0,0,1,.1-.25.34.34,0,0,1,.25-.11.33.33,0,0,1,.25.11.32.32,0,0,1,.1.25.35.35,0,0,1-.1.25A.33.33,0,0,1,63.27,59.14Zm0-.6a.23.23,0,0,0-.17.08.21.21,0,0,0-.07.17.23.23,0,0,0,.07.17.25.25,0,0,0,.34,0,.23.23,0,0,0,.07-.17.22.22,0,0,0-.07-.17A.23.23,0,0,0,63.27,58.54Z"/><path class="cls-1" d="M33.28,25h0v0h0"/><path class="cls-1" d="M33.31,25h0Z"/><path class="cls-1" d="M34.92,32.7l-1.61-3.24h0L31.67,32.7,23.33,49.52a3,3,0,0,0,4.07-1.37l5.89-11.89,5.9,11.89a3,3,0,0,0,4.07,1.37Z"/><path class="cls-1" d="M34.31,48.06l-1-2.41h0l-1,2.41a2.56,2.56,0,0,0,.17.6l.87,2,.87-2a3.15,3.15,0,0,0,.17-.6"/><rect class="cls-1" x="26.99" y="28.47" width="13.7" height="0.17" transform="translate(-6.87 45.96) rotate(-63.3)"/><rect class="cls-1" x="32.75" y="21.74" width="0.17" height="13.62" transform="translate(-9.21 17.35) rotate(-26.09)"/><rect class="cls-1" x="33.21" y="32.31" width="0.17" height="18.06"/><path class="cls-1" d="M26,6.27a.26.26,0,0,0-.42,0l-6.78,8a.26.26,0,0,0,.37.37l4.91-4.17a.27.27,0,0,1,.44.17c.1,1,.21,2.08.31,3.12a.26.26,0,0,0,.4.2l2-1.2a.26.26,0,0,1,.38.14,1.59,1.59,0,0,1,.07.2l1.53-2.2L26,6.27"/><path class="cls-1" d="M43.76,13.25,35.09,3a.33.33,0,0,0-.53,0l-5.4,7.79-1.53,2.2L18.17,26.71a.34.34,0,0,0,.54.41C20.47,25.05,22.23,23,24,20.9a.32.32,0,0,1,.46,0L25.84,22a.34.34,0,0,0,.53-.16c.7-2.08,1.39-4.16,2.09-6.25l0-.07a.34.34,0,0,1,.57,0l.77,1.21L30,17a.33.33,0,0,0,.6-.07c.08-.21.15-.42.22-.62.24-.67.48-1.33.71-2l1-2.79a.34.34,0,0,1,.49-.18l2.52,1.54a.34.34,0,0,0,.51-.26c.14-1.33.27-2.66.4-4A.33.33,0,0,1,37,8.39l6.28,5.33a.34.34,0,0,0,.48-.47"/><path class="cls-1" d="M33.29,1c-7.84,0-14.22,6-14.22,13.35V41c0,7.36,6.38,13.35,14.22,13.35s14.23-6,14.23-13.35V14.3C47.52,6.93,41.14,1,33.29,1m0,54.34c-8.4,0-15.23-6.41-15.23-14.3V14.3C18.06,6.41,24.89,0,33.29,0S48.53,6.41,48.53,14.3V41c0,7.89-6.84,14.3-15.24,14.3"/><path class="cls-1" d="M33,19.89a.23.23,0,0,0,.31.33l0,0,.14-.12.72-.63.24-.21.88-.78a.23.23,0,0,0-.15-.4l-.94,0a.23.23,0,0,1-.17-.38l3-3.44a.23.23,0,0,0-.18-.38h0a.23.23,0,0,1-.17-.39l2-2.18a.24.24,0,0,1,.34,0l2.45,2.64a.23.23,0,0,1-.17.38h-.5a.23.23,0,0,0-.16.39L44,18.11a.23.23,0,0,1-.17.39h-1a.23.23,0,0,0-.16.4L48.13,24l-4.39-4.52a.23.23,0,0,1,.17-.39H45a.23.23,0,0,0,.17-.39l-3.1-3.2-.27-.27a.24.24,0,0,1,.17-.4h.47a.23.23,0,0,0,.16-.39l-3.84-4a.24.24,0,0,0-.33,0l-3.85,4a.23.23,0,0,0,.17.39h.47a.24.24,0,0,1,.16.4l-.26.27-1.57,1.61-.27.28-.3.31-.21.22-.75.78a.23.23,0,0,0,.16.39H33.3a.23.23,0,0,1,.16.39Z"/></g></g></svg>