<svg id="Group_8526" data-name="Group 8526" xmlns="http://www.w3.org/2000/svg" width="305.277" height="83.223" viewBox="0 0 305.277 83.223">
  <path id="Path_2575" data-name="Path 2575" d="M-605.363,305.487a3.516,3.516,0,0,0-.012-.893c-.18-.652.642-1.784-.98-1.772-1.36.012-1.9.57-1.813,1.847.048.712.026,1.432.034,2.147.009.644.373.948,1,1.071,2.446.484,1.658-1.27,1.771-2.4m-6.423-3.37c2.238-3.488,5.831-2.764,9.184-2.8.985-.01.837.669.839,1.257,0,2.05.051,4.1-.021,6.15-.034.96.282,1.212,1.246,1.2,5.44-.074,4.714.51,4.75-4.458.005-.663,0-1.327,0-1.991,0-2.345,0-2.3,2.484-2.182.9.041,1.176.345,1.16,1.183-.041,2.111.053,4.226-.031,6.334-.11,2.827-1.922,4.552-4.866,4.611-3.285.065-6.573-.019-9.86.026-2.252.033-3.62-1.282-4.887-2.813a7.021,7.021,0,0,1,0-6.516" transform="translate(612.588 -259.351)" fill="#5c8b72"/>
  <path id="Path_2576" data-name="Path 2576" d="M-612.2,318.333a3.043,3.043,0,0,1,.577-1.207,8.056,8.056,0,0,1,9.8-2.01c1.361.79.124,1.926.1,2.875-.024.857-.8.364-1.289.213a7.782,7.782,0,0,0-3.821-.453,1.421,1.421,0,0,0-1.282,1.143,1.256,1.256,0,0,0,.838,1.284c1.317.654,2.7,1.191,3.988,1.893a4.862,4.862,0,0,1,2.655,5.912c-.645,2.389-2.47,3.708-5.165,3.835a18.756,18.756,0,0,1-6.2-.738V329.27c.438-1.27.726-1.538,2.547-1.09a5.961,5.961,0,0,0,1.251.283c1.425.029,3.25.609,3.788-1.258.534-1.842-1.286-2.183-2.534-2.729-2.029-.887-4.073-1.729-5.054-3.895a3.979,3.979,0,0,1-.192-2.249" transform="translate(612.807 -248.618)" fill="#5c8b72"/>
  <path id="Path_2577" data-name="Path 2577" d="M-570.931,307.986c.384-1.035,2.683-1.061,1.639-2.571a2,2,0,0,0-3.224.012c-1.09,1.507,1.4,1.423,1.585,2.559m-13.585-.613a3.64,3.64,0,0,0-.014-.9c-.158-.609.582-1.66-.917-1.643-1.214.014-1.883.384-1.8,1.662.045.717.014,1.44.028,2.159.02,1.188.848,1.224,1.787,1.277,1.164.065.894-.685.915-1.3.014-.421,0-.841,0-1.262m-5.522,9.213c1.746-.112,3.165-.177,4.384-.949.649-.412,1.248-.956,1.1-1.737-.17-.882-1.016-.391-1.55-.443-3.2-.306-4.756-1.935-4.767-5.071-.022-6.039,1.046-7.064,7.366-7.064,2.664,0,2.664,0,2.664,2.559,0,1.507.1,3.023-.031,4.52-.118,1.341.412,1.626,1.662,1.533,1.48-.11,2.973-.036,4.461-.048.041,0,.084-.064.273-.218a10.056,10.056,0,0,0-1.584-1.6c-1.492-.958-1.289-2.147-.706-3.452a6.4,6.4,0,0,1,6.24-3.387,6.23,6.23,0,0,1,5.721,3.885c.405,1.116.486,2.053-.754,2.779a14.763,14.763,0,0,0-1.921,1.591c.079.141.16.282.239.424,3.315,0,6.628-.027,9.941.017.932.012.951-.458.942-1.121-.022-1.807.062-3.62-.024-5.424-.11-2.276,1.811-1.572,2.877-1.765,1.329-.24.651,1.013.68,1.547a49.207,49.207,0,0,1,.01,5.6c-.074,1.241.628,1.15,1.474,1.157.862.007,1.547.079,1.471-1.16-.113-1.863-.07-3.739-.017-5.606.057-2.012,1.844-1.342,2.9-1.553,1.456-.292.685.98.712,1.469a54.641,54.641,0,0,1,.017,5.785c-.057,1.148.594,1.073,1.378,1.063.76-.01,1.457.12,1.4-1.047-.093-1.866-.005-3.739-.029-5.606-.026-2.13,1.8-1.4,2.849-1.643,1.416-.328.719.937.748,1.437.1,1.8.086,3.617.019,5.424-.036,1,.074,1.631,1.354,1.44,1.179-.178,2.8.488,2.783-1.634-.024-3.256.1-6.516-.046-9.766-.07-1.648.4-2.173,2.1-2.06,1.162.076,1.6.264,1.571,1.5-.089,3.435-.019,6.873-.034,10.311-.017,3.342-1.826,5.151-5.268,5.16-10.227.024-20.462.179-30.684-.081-3.787-.1-7.55.438-11.321.082-.939-.088-1.342.1-1.486,1.186a5.62,5.62,0,0,1-5.994,5.016c-1.864-.021-1.911-1.868-3.126-3.052" transform="translate(628.147 -261.357)" fill="#5c8b72"/>
  <path id="Path_2578" data-name="Path 2578" d="M-486.963,308.766c0,.9.007,1.808,0,2.712a1.2,1.2,0,0,0,1.315,1.384c.973.041,1.6-.342,1.622-1.306.046-1.807.034-3.617.009-5.424-.014-.949-.542-1.409-1.545-1.382-1.018.027-1.44.517-1.4,1.485.029.843.005,1.687.007,2.532m14.112-5.553c0,1.689.009,3.376,0,5.066-.021,3.334-1.828,5.139-5.263,5.139-1.507,0-2.64.122-3.734,1.543-1.8,2.343-6.166,1.926-7.913-.573a2.014,2.014,0,0,0-1.95-.965c-4.031.031-8.061-.069-12.088.053-1.631.05-1.452-.819-1.414-1.794.034-.891-.384-1.99,1.349-1.809,1.469.153,2.973-.007,4.458.045.879.031,1.292-.1,1.3-1.14.021-2.935-.688-3.876-3.728-3.888-1.983-.009-1.083-1.294-1.236-2.1-.182-.965.039-1.512,1.327-1.507,4.664.022,7.156,2.4,7.258,7.048.01.517-.443,1.4.427,1.516a7.116,7.116,0,0,0,3.286-.125c.16-.055.156-.642.173-.985a22.891,22.891,0,0,1,.2-3.964c.549-2.467,2.439-3.728,5.409-3.54a4.4,4.4,0,0,1,4.448,4.219,9.494,9.494,0,0,1-.01,2.347c-.388,2,.652,2.245,2.345,2.142,1.281-.079,1.727-.524,1.7-1.758-.058-3.315.062-6.635-.057-9.946-.053-1.442.386-1.838,1.832-1.768,1.248.06,2.091.055,1.917,1.684a47.814,47.814,0,0,0-.04,5.06" transform="translate(689.51 -261.351)" fill="#5c8b72"/>
  <path id="Path_2579" data-name="Path 2579" d="M-514.636,305.37c0-.479.015-.96-.005-1.438-.021-.5.194-1.167-.73-1.106-.767.053-1.78-.178-1.926.893a13.132,13.132,0,0,0,0,3.231c.127,1.085,1.1.887,1.888.937.9.057.764-.553.771-1.076.007-.479,0-.96,0-1.44m13.7-.573c-.652-.376.867-1.691-.7-1.943-.743-.12-1.761-.24-1.984.795a6.637,6.637,0,0,0,.108,4.161c.036.081.347.05.529.07,1.681.2,2.045-.311,2.045-3.083m-19.219,9.74c1.816-.069,3.239-.158,4.477-.965.651-.426,1.195-1.009.985-1.787-.191-.709-.946-.319-1.442-.359-3.254-.259-4.884-1.957-4.9-5.16,0-.482,0-.965,0-1.447,0-3.8,1.713-5.476,5.644-5.526,4.386-.055,4.386-.055,4.386,4.288a16.16,16.16,0,0,1-.022,2.53c-.258,1.6.475,1.832,1.936,1.825,1.377-.005,1.881-.318,1.717-1.693a13.409,13.409,0,0,1,.088-2.884,4.1,4.1,0,0,1,3.7-3.879,36.279,36.279,0,0,1,5.375-.189c.731-.034.966.29.958.973-.033,2.292.077,4.587-.057,6.871-.156,2.659-2.036,4.211-5,4.267q-3.718.07-7.438-.007c-.912-.019-1.215.187-1.315,1.16a5.578,5.578,0,0,1-6.111,5.043c-1.638-.137-1.847-1.837-2.982-3.064" transform="translate(678.191 -259.328)" fill="#5c8b72"/>
  <path id="Path_2580" data-name="Path 2580" d="M-517.623,320.158c-.9,3.227-1.876,6.435-2.654,9.688-.312,1.308-.822,1.8-2.214,1.7-1.346-.1-2.566.182-2.973-1.725a77.524,77.524,0,0,0-3-10.178c0,3.452-.07,6.906.034,10.356.041,1.363-.491,1.586-1.713,1.547-1.1-.036-1.809-.005-1.777-1.476.1-4.763.062-9.532.021-14.3-.009-.91.208-1.212,1.215-1.234,4.5-.1,4.487-.136,5.55,4.113.714,2.85,1.473,5.687,2.336,9.014,1.174-4.169,2.242-7.84,3.229-11.532.3-1.121.7-1.651,2.072-1.612,3.826.108,3.83.022,3.83,3.787,0,3.921-.072,7.845.036,11.764.041,1.488-.723,1.475-1.814,1.461-1.059-.014-1.9.088-1.849-1.44.115-3.31.034-6.626.034-9.941l-.359.009" transform="translate(670.389 -248.418)" fill="#5c8b72"/>
  <path id="Path_2581" data-name="Path 2581" d="M-522.632,313.43c-2.168,0-4.338.034-6.506-.009-3.018-.06-4.712-1.7-4.746-4.623-.041-3.675.076-7.355-.048-11.027-.057-1.7,1.042-1.188,1.921-1.272,1.049-.1,1.677,0,1.627,1.365-.122,3.311-.039,6.629-.041,9.944,0,.728-.084,1.567.723,1.907a6.439,6.439,0,0,0,3.117.118c.412-.038.232-.616.237-.954.019-1.085-.026-2.172.016-3.255a4.19,4.19,0,0,1,3.507-4.077,19.376,19.376,0,0,1,5.735-.185c1.608.108.558,1.509.785,2.3.2.7.057,1.277-1,1.2-1.233-.087-2.477-.007-3.716-.024-1.118-.015-1.665.386-1.715,1.583-.141,3.479-.185,3.478,3.433,3.478a18.256,18.256,0,0,0,2.6-.021c1.779-.258,2.362.338,2.238,2.118-.088,1.258-.522,1.5-1.665,1.456-2.166-.072-4.338-.021-6.506-.021" transform="translate(668.949 -261.344)" fill="#5c8b72"/>
  <path id="Path_2582" data-name="Path 2582" d="M-505.4,321.053c0,3.346-.082,6.161.034,8.969.058,1.392-.548,1.6-1.735,1.521-1.049-.069-2.029.2-1.983-1.483.118-4.455.009-8.914.072-13.37.01-.7-.651-1.933.64-2.044,1.207-.1,2.6-.6,3.569,1.006,1.656,2.74,3.589,5.323,5.424,7.961.223.321.3.809,1.009.9,0-2.886.108-5.747-.041-8.6-.087-1.638.91-1.3,1.851-1.344,1-.048,1.7-.081,1.66,1.341-.112,4.576-.019,9.156-.067,13.734-.007.618.5,1.692-.52,1.8-1.107.118-2.4.575-3.3-.838-1.756-2.757-3.674-5.418-5.527-8.116-.237-.342-.5-.666-1.083-1.439" transform="translate(686.696 -248.43)" fill="#5c8b72"/>
  <path id="Path_2583" data-name="Path 2583" d="M-577.635,322.861v1.085c0,4.285,0,4.271,4.423,3.924,1.657-.129,2.69-.872,2.8-2.539.087-1.32.134-2.649.089-3.97-.1-2.932-1.076-3.442-5.766-3.431-2.911.007-1.085,2.07-1.511,3.136a5.131,5.131,0,0,0-.036,1.8m-3.476.163c0-2.352.05-4.705-.022-7.055-.033-1.037.139-1.5,1.38-1.444,2.35.113,4.71.014,7.067.048a5.606,5.606,0,0,1,5.72,4.674,20.1,20.1,0,0,1,.007,7.369,5.649,5.649,0,0,1-4.971,4.664c-2.712.422-5.447.106-8.166.235-1.057.052-1.025-.547-1.02-1.255.014-2.412.005-4.825.005-7.237" transform="translate(635.125 -248.41)" fill="#5c8b72"/>
  <path id="Path_2584" data-name="Path 2584" d="M-588.561,314.506c0,3.68-.043,7.161.014,10.641a3.1,3.1,0,0,0,4.609,2.892,3.09,3.09,0,0,0,1.708-3.153c.041-2.594,0-5.188.019-7.781.005-.877,2.92-2.765,3.716-2.441.4.161.28.5.273.767-.079,3.673.254,7.357-.172,11.02a5.717,5.717,0,0,1-5.72,5.145c-.8.043-1.614.039-2.419.005-3.421-.146-5.835-2.36-5.977-5.7-.125-2.951-.014-5.91-.039-8.864-.005-.6.108-1.049.736-1.282,1.025-.379,2.039-.781,3.251-1.248" transform="translate(626.933 -248.42)" fill="#5c8b72"/>
  <path id="Path_2585" data-name="Path 2585" d="M-596.028,319.592c-.57,1.82-1.008,3.109-1.365,4.42-.1.364-.529,1.023.342,1.087a4.492,4.492,0,0,0,2.348-.129c.64-.374-.1-1.174-.222-1.773-.209-1.035-.609-2.034-1.1-3.6m-.088,8.778c-1.974-.508-2.942.314-3.174,2.139-.076.592-.287,1.064-1.023,1.011-1.038-.074-2.1.22-3.1-.191-.108-.045-.038-.681.07-1.006,1.653-4.954,3.375-9.887,4.965-14.859.444-1.389,1.463-.891,2.233-.836.826.057,1.96-.7,2.446.8,1.61,4.968,3.306,9.908,5.007,14.847.333.968.11,1.25-.948,1.272-1.725.04-3.234.161-3.524-2.185-.228-1.854-1.986-.688-2.954-1" transform="translate(619.126 -248.431)" fill="#5c8b72"/>
  <path id="Path_2586" data-name="Path 2586" d="M-544.254,319.485c-.64,2.161-1.136,3.843-1.661,5.615h3.284c-.517-1.785-1.008-3.488-1.622-5.615m0-4.788c1.591-.415,2.173.182,2.6,1.547,1.45,4.647,3.047,9.254,4.671,13.849.438,1.239.129,1.435-1.135,1.5-1.835.1-3.134-.2-3.289-2.266-.057-.755-.5-1.033-1.25-.977a7.068,7.068,0,0,1-1.488,0c-1.864-.264-3.255.046-3.4,2.266a.917.917,0,0,1-1.1.939c-1.025-.124-2.129.28-3.066-.232-.364-.2.1-.776.225-1.159,1.485-4.515,3.025-9.014,4.472-13.54.472-1.473.937-2.712,2.757-1.928" transform="translate(656.118 -248.457)" fill="#5c8b72"/>
  <path id="Path_2587" data-name="Path 2587" d="M-554.068,322.928c2.707,0,2.707,0,2.71-2.286,0-2.63-.079-2.561-3-2.745-1.919-.122-2.383.469-2.276,2.252.165,2.772.043,2.779,2.563,2.779m-6.192-.041c0-2.352.053-4.705-.024-7.055-.034-1.039.309-1.335,1.353-1.3,2.168.072,4.339,0,6.509.028a4.341,4.341,0,0,1,4.683,4.321c.062.839.019,1.687.012,2.532-.026,3.394-1.758,5.076-5.256,5.119-3.289.038-3.385.043-3.263,3.141.062,1.569-.494,1.917-1.993,1.873-1.353-.04-2.2-.065-2.063-1.785.174-2.278.043-4.58.043-6.871" transform="translate(650.045 -248.404)" fill="#5c8b72"/>
  <path id="Path_2588" data-name="Path 2588" d="M-518.224,322.917c0-2.353.048-4.707-.022-7.057-.031-1,.233-1.347,1.315-1.318,2.789.074,5.582,0,8.372.05.469.009,1.583-.41,1.306.541-.261.9.575,2.58-1.413,2.616-1.487.029-2.98.077-4.463-.012-1.531-.093-1.135.944-1.105,1.684.029.7-.542,1.82,1.044,1.725a36.8,36.8,0,0,1,3.72,0c.452.019,1.469-.268,1.143.578-.338.879.578,2.419-1.15,2.616a20.38,20.38,0,0,1-3.531.01c-.942-.057-1.267.2-1.279,1.181-.033,2.7-.089,2.7,2.735,2.7h2.232c2.329,0,2.285-.007,1.893,2.2-.149.836-.508,1.1-1.342,1.088-2.789-.034-5.582-.05-8.372.007-.98.021-1.105-.408-1.094-1.195.034-2.472.012-4.945.012-7.419" transform="translate(680.189 -248.419)" fill="#5c8b72"/>
  <path id="Path_2589" data-name="Path 2589" d="M-484.038,331.735a10.409,10.409,0,0,1-3.636-.47c-.76-.209-1.039-.548-.853-1.432.453-2.156.385-2.2,2.628-1.656a8.5,8.5,0,0,0,3.308.23,1.738,1.738,0,0,0,1.571-1.342,1.586,1.586,0,0,0-.884-1.828c-1.078-.575-2.223-1.03-3.337-1.54-2.74-1.251-3.95-3.284-3.416-5.725.464-2.115,2.553-3.524,5.364-3.622a12.763,12.763,0,0,1,4.226.426c.886.269,1.16.663,1.03,1.691-.225,1.775-.915,2.189-2.541,1.454a5.057,5.057,0,0,0-2.743-.276c-.709.089-1.361.39-1.481,1.152-.108.681.381,1.105.968,1.382,1,.47,2.022.894,3.013,1.38,3.03,1.488,4.183,3.51,3.56,6.192-.611,2.64-2.623,3.976-6.006,3.986h-.771" transform="translate(701.305 -248.543)" fill="#5c8b72"/>
  <path id="Path_2590" data-name="Path 2590" d="M-544.08,301.505c0,1.876.038,3.378-.014,4.877-.036,1.1.47,1.517,1.545,1.512,3.342-.015,6.684-.034,10.027.009,1.293.015,1.778-.549,1.76-1.744-.029-1.866.084-3.737-.034-5.6-.106-1.7,1.078-1.186,1.96-1.262,1.021-.088,1.77-.036,1.679,1.363-.132,2.038,0,4.091-.043,6.137a4.3,4.3,0,0,1-4.592,4.594c-3.71.1-7.429.12-11.137,0-3.753-.124-6.434-4.374-4.686-7.455.634-1.119,2.125-1.514,3.536-2.432" transform="translate(658.754 -259.334)" fill="#5c8b72"/>
  <path id="Path_2591" data-name="Path 2591" d="M-542.607,314.738a2.916,2.916,0,0,1,.383-.118c3.613-.208,3.611-.206,5.129,2.966.5,1.057,1.023,2.11,1.667,3.438a46.012,46.012,0,0,0,2.209-4.6c.531-1.5,1.358-2.144,2.978-1.871a14.269,14.269,0,0,0,2.094.015c-1.064,2.038-1.914,3.957-3.023,5.723a13.792,13.792,0,0,0-2.3,9.585c.245,1.653-.673,1.672-1.93,1.669s-2.192-.009-1.948-1.672a13.735,13.735,0,0,0-2.415-9.73c-1.075-1.66-1.854-3.5-2.844-5.411" transform="translate(662.734 -248.427)" fill="#5c8b72"/>
  <path id="Path_2592" data-name="Path 2592" d="M-493.974,324.544c0-1.806-.074-3.615.026-5.414.064-1.135-.323-1.545-1.454-1.387-.362.051-.748-.041-1.111.017-1.377.218-1.591-.439-1.61-1.626-.022-1.224.257-1.651,1.6-1.607,3.152.1,6.31.015,9.465.051.537.005,1.591-.415,1.289.8-.215.863.324,2.182-1.265,2.365-.968.112-2.36-.452-2.812.273-.5.8-.225,2.082-.232,3.153-.017,3.009-.091,6.022.026,9.026.07,1.845-1.2,1.224-2.11,1.3-1,.084-1.967.218-1.849-1.359.139-1.856.033-3.728.033-5.594" transform="translate(694.61 -248.414)" fill="#5c8b72"/>
  <path id="Path_2593" data-name="Path 2593" d="M-595.28,311.407c-.372,0-.743,0-1.116,0-2.268,0-2.774-.69-2.288-2.925.131-.6.448-.609.9-.608,1.177,0,2.355.015,3.531,0,1.08-.019,2.31.264,2.53-1.365a2.906,2.906,0,0,0-1.957-3.449c-.35-.112-.723-.156-1.085-.233-.577-.122-1.483.331-1.686-.294a8.355,8.355,0,0,1-.11-2.674c.007-.453.385-.56.79-.565,2.468-.031,4.932.115,6.475,2.329a7.185,7.185,0,0,1,.613,7.544c-.743,1.56-2.323,2.087-4,2.226-.86.07-1.734.012-2.6.014" transform="translate(622.431 -259.323)" fill="#5c8b72"/>
  <path id="Path_2594" data-name="Path 2594" d="M-554.819,315.013c0-5.958.019-11.616-.019-17.274-.005-.908.2-1.243,1.219-1.262,2.793-.05,2.793-.1,2.793,2.577,0,4.034-.089,8.071.041,12.1.055,1.674-.336,2.733-2.115,3.112a13.443,13.443,0,0,0-1.919.747" transform="translate(653.97 -261.348)" fill="#5c8b72"/>
  <path id="Path_2595" data-name="Path 2595" d="M-484.6,315c0-5.975.017-11.692-.019-17.409-.005-.874.266-1.191,1.154-1.105a10.283,10.283,0,0,0,1.854,0c.851-.07,1.026.319,1.023,1.066q-.039,7.405,0,14.809a1.264,1.264,0,0,1-.891,1.377c-.966.369-1.917.774-3.122,1.263" transform="translate(704.285 -261.34)" fill="#5c8b72"/>
  <path id="Path_2596" data-name="Path 2596" d="M-565.566,314.494c0,5.457-.051,10.634.031,15.81.026,1.557-.968,1.279-1.816,1.191s-2.247.7-2.223-1.19c.053-4.394.034-8.792,0-13.188a1.271,1.271,0,0,1,.886-1.378c.963-.374,1.919-.764,3.122-1.245" transform="translate(643.411 -248.428)" fill="#5c8b72"/>
  <path id="Path_2597" data-name="Path 2597" d="M-605.392,297.919a1.873,1.873,0,0,1-1.9,1.854,1.658,1.658,0,0,1-1.765-1.71,1.563,1.563,0,0,1,1.62-1.782c1.227-.081,1.763.625,2.045,1.638" transform="translate(615.117 -261.483)" fill="#5c8b72"/>
  <path id="Path_2598" data-name="Path 2598" d="M-601.646,309.818a1.631,1.631,0,0,1-1.67,1.626,1.631,1.631,0,0,1-1.905-1.71,1.7,1.7,0,0,1,1.849-1.814c1.081,0,1.621.724,1.727,1.9" transform="translate(617.866 -253.14)" fill="#5c8b72"/>
  <path id="Path_2599" data-name="Path 2599" d="M-602.805,309.525a1.69,1.69,0,0,1,1.9-1.6,1.692,1.692,0,0,1,1.687,1.808,1.646,1.646,0,0,1-1.916,1.722c-1.063-.064-1.67-.673-1.667-1.926" transform="translate(619.598 -253.139)" fill="#5c8b72"/>
  <path id="Path_2600" data-name="Path 2600" d="M-509.388,296.266c1.135.1,1.773.642,1.76,1.722a1.676,1.676,0,0,1-1.859,1.787,1.682,1.682,0,0,1-1.739-1.749,1.679,1.679,0,0,1,1.839-1.759" transform="translate(685.221 -261.49)" fill="#5c8b72"/>
  <path id="Path_2601" data-name="Path 2601" d="M-542.354,296.264c1.152.115,1.785.649,1.768,1.734a1.67,1.67,0,0,1-1.862,1.773,1.673,1.673,0,0,1-1.73-1.749c.005-1.143.754-1.684,1.825-1.758" transform="translate(661.608 -261.491)" fill="#5c8b72"/>
  <path id="Path_2602" data-name="Path 2602" d="M-609.574,296.272a1.624,1.624,0,0,1,1.7,1.715,1.679,1.679,0,0,1-1.878,1.777,1.666,1.666,0,0,1-1.708-1.926c.082-1.092.778-1.552,1.89-1.565" transform="translate(613.388 -261.486)" fill="#5c8b72"/>
  <path id="Path_2603" data-name="Path 2603" d="M-540,296.27c1.171.024,1.785.589,1.82,1.65a1.651,1.651,0,0,1-1.777,1.856,1.7,1.7,0,0,1-1.811-1.682A1.679,1.679,0,0,1-540,296.27" transform="translate(663.333 -261.487)" fill="#5c8b72"/>
  <path id="Path_2604" data-name="Path 2604" d="M-431.662,276.007c-.014,1.957-.154,3.924,0,5.871.156,2.017-.469,2.712-2.669,2.686-9.661-.117-19.327.027-28.988-.11-2.22-.031-2.616.625-2.6,2.62q.144,18.209,0,36.42c-.012,1.854.5,2.338,2.393,2.319,9.824-.094,19.65.012,29.472-.089,1.978-.021,2.412.6,2.4,2.4-.053,6.238.012,6.238-6.454,6.238-11.355,0-22.71-.045-34.064.043-1.991.015-2.582-.5-2.575-2.474.081-18.64.055-37.282.06-55.922Z" transform="translate(711.357 -276.007)" fill="#5c8b72"/>
  <path id="Path_2605" data-name="Path 2605" d="M-416.877,319.662c0,9.007-.034,18.014.031,27.02.012,1.588-.383,2.171-2.134,2.163q-19.206-.1-38.412,0c-1.814.01-2.336-.551-2.347-2.283-.034-6.171-.094-6.171,6.188-6.171,8.617,0,17.233-.034,25.85.033,1.615.012,2.23-.333,2.219-2.05q-.108-18.681,0-37.359c.009-1.682-.554-2.094-2.2-2.084-9.824.065-19.648-.019-29.472.076-2.031.019-2.6-.6-2.585-2.534.053-5.927-.022-5.929,5.958-5.929,11.515,0,23.031.046,34.546-.043,1.945-.015,2.42.553,2.4,2.377-.091,8.928-.041,17.857-.041,26.785" transform="translate(722.112 -265.623)" fill="#5c8b72"/>
</svg>
