<svg id="Layer_1" data-name="Layer 1" xmlns="http://www.w3.org/2000/svg" viewBox="0 0 580.27 573.29"><defs><style>.cls-1{fill:#fff;}.cls-2{fill:#f59c00;}.cls-3{fill:#0c505d;}.cls-4{fill:#00a19b;}.cls-5{fill:#008dd1;}.cls-6{fill:#968b83;}.cls-7{fill:#b6a999;}.cls-8{fill:#b16d03;}.cls-9{fill:#6f6259;}</style></defs><path class="cls-1" d="M13.33,471H18v5.16H13.33Zm-7.64,0h4.65v5.16H5.69Zm-.86,21.19a8.86,8.86,0,0,0,2.67,6.91c1.77,1.6,4.35,2.41,7.72,2.41h3.62V493q0-4.59-1.64-6.68T12,484.27a6.85,6.85,0,0,0-5.32,2.05,8.38,8.38,0,0,0-1.86,5.83m18.83,9.32h6.61v4.27H16.08q-7.69,0-11.88-3.52t-4.2-10a11.65,11.65,0,0,1,3.3-8.71,12.16,12.16,0,0,1,8.87-3.22q5.58,0,8.54,3.08t2.95,9Z"/><path class="cls-1" d="M36.87,509.73h4.65v5.16H36.87Zm-7.64,0h4.66v5.16H29.23Zm-.69-8.26h8.1V481.22h4.83v20.25h8.15v4.27H28.54Z"/><path class="cls-1" d="M71.9,495.2A13.76,13.76,0,0,0,70.78,489a6.15,6.15,0,0,0-3.59-3,20.93,20.93,0,0,0-6.72-.86H50.07v-3.72l19.36-15.31h6.43l-19.06,15h4.59q8.1,0,11.72,3.19t3.61,10.29v6.83h7.76v4.27H47.89v-4.27h24Z"/><polygon class="cls-1" points="82.75 501.47 90.85 501.47 90.85 466.13 95.67 466.13 95.67 501.47 103.82 501.47 103.82 505.74 82.75 505.74 82.75 501.47"/><path class="cls-1" d="M117.44,501.47c3.22,0,5.7-.82,7.46-2.45a8.87,8.87,0,0,0,2.64-6.87,8.47,8.47,0,0,0-1.83-5.83,6.69,6.69,0,0,0-5.23-2.05q-6.95,0-7,8.1v9.1Zm-15.34,0h6.61v-9.1c0-3.77,1.05-6.72,3.13-8.85s5-3.19,8.7-3.19a11.94,11.94,0,0,1,8.64,3.13,11.09,11.09,0,0,1,3.24,8.35,11.64,11.64,0,0,1-1.37,5.58,10.5,10.5,0,0,1-3.85,4.08h10.62v4.27H102.1Z"/><polygon class="cls-1" points="136.1 501.47 144.19 501.47 144.19 466.13 149.02 466.13 149.02 505.74 136.1 505.74 136.1 501.47"/><rect class="cls-1" x="156.94" y="466.13" width="4.83" height="39.61"/><path class="cls-1" d="M200.3,501.47V496.8c0-4.24-.76-7.35-2.3-9.31s-3.94-2.94-7.23-2.94a17.51,17.51,0,0,0-6.15,1.11l-1.15-4.11a24,24,0,0,1,7.7-1.22q6.95,0,10.48,4t3.53,11.92v5.22h7.41v4.27H180.2v-4.27Z"/><polygon class="cls-1" points="210.86 501.47 218.96 501.47 218.96 466.13 223.79 466.13 223.79 505.74 210.86 505.74 210.86 501.47"/><polygon class="cls-1" points="244.63 505.74 231.71 505.74 231.71 466.13 236.53 466.13 236.53 501.47 244.63 501.47 244.63 505.74"/><path class="cls-1" d="M254.8,471h4.76v5.16H254.8Zm-11.89,30.51h21.3V492.7q0-4.6-1.6-6.46T257,484.38a11.62,11.62,0,0,0-3.76.5,4.81,4.81,0,0,0-2.24,1.58,8.57,8.57,0,0,0-1.34,3L245,489a9.79,9.79,0,0,1,3.76-6.54c2-1.4,4.76-2.11,8.36-2.11,4.1,0,7.1.94,9,2.83S269,488,269,492.09v9.38h4.13v4.27H242.91Z"/><path class="cls-1" d="M319.11,483v2.11h-10V483h1.32v-3a3.93,3.93,0,0,1,1.12-3,5.39,5.39,0,0,1,6.12-.19,4.11,4.11,0,0,1,1.31,2.63l-2.23.28a2.38,2.38,0,0,0-.64-1.36,1.92,1.92,0,0,0-1.32-.42,1.85,1.85,0,0,0-1.43.56,2.22,2.22,0,0,0-.52,1.55V483Zm7.06,18.48v-35.4H331v35.4h7.86v4.27h-34.1q-6.84,0-10.57-3.22c-2.49-2.14-3.74-5.2-3.74-9.15a11.94,11.94,0,0,1,3.08-8.57,12.55,12.55,0,0,1,8.47-3.69l.63,4.16a8.58,8.58,0,0,0-5.6,2.33,8,8,0,0,0-1.81,5.66,7.53,7.53,0,0,0,2.5,6.07c1.66,1.42,4,2.14,7.09,2.14Z"/><polygon class="cls-1" points="337.14 501.47 345.24 501.47 345.24 466.13 350.06 466.13 350.06 501.47 358.21 501.47 358.21 505.74 337.14 505.74 337.14 501.47"/><path class="cls-1" d="M371.83,501.47q4.82,0,7.46-2.45a8.87,8.87,0,0,0,2.64-6.87,8.42,8.42,0,0,0-1.83-5.83,6.69,6.69,0,0,0-5.23-2.05q-6.94,0-6.95,8.1v9.1Zm-15.34,0h6.61v-9.1q0-5.65,3.13-8.85c2.08-2.12,5-3.19,8.69-3.19a12,12,0,0,1,8.65,3.13,11.06,11.06,0,0,1,3.24,8.35,11.75,11.75,0,0,1-1.37,5.58,10.43,10.43,0,0,1-3.85,4.08h10.62v4.27H356.49Z"/><polygon class="cls-1" points="390.49 501.47 398.58 501.47 398.58 466.13 403.41 466.13 403.41 505.74 390.49 505.74 390.49 501.47"/><rect class="cls-1" x="411.34" y="466.13" width="4.83" height="39.61"/><path class="cls-1" d="M449,471h4.65v5.16H449Zm-7.64,0H446v5.16h-4.65Zm-.86,21.19a8.86,8.86,0,0,0,2.67,6.91c1.78,1.6,4.35,2.41,7.72,2.41h3.62V493c0-3.06-.54-5.29-1.64-6.68s-2.82-2.08-5.19-2.08a6.86,6.86,0,0,0-5.32,2.05,8.38,8.38,0,0,0-1.86,5.83m18.83,9.32h6.61v4.27H451.7q-7.69,0-11.88-3.52t-4.2-10a11.65,11.65,0,0,1,3.3-8.71,12.17,12.17,0,0,1,8.88-3.22q5.56,0,8.53,3.08t2.95,9Z"/><path class="cls-1" d="M472.49,509.73h4.65v5.16h-4.65Zm-7.64,0h4.66v5.16h-4.66Zm-.69-8.26h8.1V481.22h4.83v20.25h8.15v4.27H464.16Z"/><path class="cls-1" d="M498.85,501.47c3.22,0,5.7-.82,7.46-2.45a8.87,8.87,0,0,0,2.64-6.87,8.42,8.42,0,0,0-1.83-5.83,6.69,6.69,0,0,0-5.23-2.05q-6.94,0-6.95,8.1v9.1Zm-15.34,0h6.61v-9.1c0-3.77,1.05-6.72,3.13-8.85s5-3.19,8.7-3.19a12,12,0,0,1,8.64,3.13,11.06,11.06,0,0,1,3.24,8.35,11.64,11.64,0,0,1-1.37,5.58,10.43,10.43,0,0,1-3.85,4.08h10.62v4.27H483.51Z"/><path class="cls-1" d="M538.93,492.7c0-3.07-.54-5.22-1.6-6.46s-2.92-1.86-5.52-1.86a8.85,8.85,0,0,0-5,1.14,6.66,6.66,0,0,0-2.39,4l-4.65-.5a9.77,9.77,0,0,1,3.76-6.55c2-1.41,4.76-2.11,8.36-2.11,4.09,0,7.11.95,9,2.83s2.9,4.86,2.9,8.93v9.38h7.87v4.27H517.51v-4.27h21.42Z"/><path class="cls-1" d="M575.39,492.15a8.57,8.57,0,0,0-1.8-5.83,6.56,6.56,0,0,0-5.2-2.05q-7,0-7,8.15v9h3.67q5,0,7.67-2.4a8.88,8.88,0,0,0,2.66-6.91m-18.83.27q0-5.78,3.1-8.93t8.73-3.16a11.74,11.74,0,0,1,8.67,3.19,11.62,11.62,0,0,1,3.21,8.63q0,6.38-4.24,10t-11.78,3.6H550v-4.27h6.61Z"/><polygon class="cls-1" points="60.41 536.88 62.91 536.88 62.91 551.66 78.3 536.88 81.29 536.88 70.42 547.46 82.4 565.17 79.36 565.17 68.53 549.04 62.91 554.39 62.91 565.17 60.41 565.17 60.41 536.88"/><path class="cls-1" d="M86.13,565.17h2.38V544.76H86.13ZM86,540.33h2.7v-3.45H86Z"/><path class="cls-1" d="M94.37,544.76h2.38v3.34a10.84,10.84,0,0,1,3.67-3,9.56,9.56,0,0,1,4.17-.93q3.6,0,5.33,1.94a8,8,0,0,1,1.72,5.51v13.59h-2.38V552.22c0-2.14-.39-3.68-1.19-4.62a4.66,4.66,0,0,0-3.77-1.41,8.17,8.17,0,0,0-2.61.46,6.78,6.78,0,0,0-2.48,1.45,7.82,7.82,0,0,0-1.84,2.11,6,6,0,0,0-.62,3v12H94.37Z"/><path class="cls-1" d="M133,554.16a18.25,18.25,0,0,0-.14-2.4,7,7,0,0,0-.5-1.79,5,5,0,0,0-.88-1.36,8,8,0,0,0-1.27-1.15,7.48,7.48,0,0,0-2-1,6.84,6.84,0,0,0-2.17-.32,7.82,7.82,0,0,0-2.79.48,5.57,5.57,0,0,0-2.22,1.51,7.31,7.31,0,0,0-1.47,2.63,12.18,12.18,0,0,0-.54,3.86,10.83,10.83,0,0,0,.6,3.86A7.33,7.33,0,0,0,121.2,561a5.59,5.59,0,0,0,2.13,1.41,7,7,0,0,0,2.42.43,8.13,8.13,0,0,0,2.3-.28,7,7,0,0,0,2-1,6.53,6.53,0,0,0,2.2-2.63,9.33,9.33,0,0,0,.76-4Zm-13.45,13.23a4.45,4.45,0,0,0,2,3,8.7,8.7,0,0,0,4.63,1q3.5,0,5.13-1.64t1.64-5.53v-3a9.39,9.39,0,0,1-3.1,2.75,8.72,8.72,0,0,1-4.25,1,9.12,9.12,0,0,1-4-.84,8.12,8.12,0,0,1-2.84-2.29,9.76,9.76,0,0,1-1.64-3.27,13.82,13.82,0,0,1-.53-3.82,13.41,13.41,0,0,1,.66-4.32,9.41,9.41,0,0,1,1.88-3.31,8.39,8.39,0,0,1,3-2.12,10.09,10.09,0,0,1,4-.75,9.65,9.65,0,0,1,3.57.73,8.29,8.29,0,0,1,3.32,2.68v-2.78h2.38v19.66a9.25,9.25,0,0,1-2.2,6.5q-2.19,2.37-6.91,2.37a16.64,16.64,0,0,1-3.34-.31,8.73,8.73,0,0,1-2.71-1,5.63,5.63,0,0,1-1.91-1.82,6.49,6.49,0,0,1-.94-2.75Z"/><polygon class="cls-1" points="150.69 536.88 153.2 536.88 153.2 551.66 168.58 536.88 171.57 536.88 160.7 547.46 172.68 565.17 169.64 565.17 158.82 549.04 153.2 554.39 153.2 565.17 150.69 565.17 150.69 536.88"/><path class="cls-1" d="M176.28,536.88h2.38v11.21a11,11,0,0,1,3.67-3,9.56,9.56,0,0,1,4.17-.93q3.6,0,5.33,1.94a8,8,0,0,1,1.72,5.51v13.59h-2.38v-13c0-2.13-.39-3.68-1.19-4.61a4.66,4.66,0,0,0-3.77-1.41,8.35,8.35,0,0,0-2.6.46,6.94,6.94,0,0,0-2.49,1.44,8,8,0,0,0-1.84,2.12,6.13,6.13,0,0,0-.62,3v12h-2.38Z"/><path class="cls-1" d="M212.59,554.31l-3.9.16a24.81,24.81,0,0,0-4,.42,8,8,0,0,0-2.58,1,3.72,3.72,0,0,0-1.42,1.51,4.9,4.9,0,0,0-.43,2.11,4.17,4.17,0,0,0,1.09,3c.72.75,2,1.12,3.79,1.12a12.18,12.18,0,0,0,2.69-.29,5.39,5.39,0,0,0,2.19-1,7.75,7.75,0,0,0,1.21-1,4.34,4.34,0,0,0,.78-1.05,4.47,4.47,0,0,0,.44-1.29,11.46,11.46,0,0,0,.12-1.67Zm0,8a10.77,10.77,0,0,1-1.27,1.25,9.16,9.16,0,0,1-1.68,1.09,9.82,9.82,0,0,1-2.08.75,10.63,10.63,0,0,1-2.48.28,8.46,8.46,0,0,1-5.33-1.55,5.44,5.44,0,0,1-2-4.59,5.81,5.81,0,0,1,.9-3.37,6.25,6.25,0,0,1,2.4-2.06,11.86,11.86,0,0,1,3.41-1.06,35.48,35.48,0,0,1,4-.37l4.09-.16v-.63a6.63,6.63,0,0,0-1.2-4.4c-.81-.92-2.25-1.39-4.33-1.39a11.59,11.59,0,0,0-2.56.24,5.51,5.51,0,0,0-1.75.69,4.06,4.06,0,0,0-1.11,1.07,4.85,4.85,0,0,0-.61,1.37l-2.17-.31q1.14-5,8.28-5a11.59,11.59,0,0,1,3.74.52,5.56,5.56,0,0,1,3.77,3.86,11.68,11.68,0,0,1,.41,3.23v13.43h-2.38Z"/><rect class="cls-1" x="220.83" y="536.88" width="2.38" height="28.29"/><path class="cls-1" d="M229.2,565.17h2.37V544.76H229.2ZM229,540.33h2.71v-3.45H229Z"/><path class="cls-1" d="M253.28,554.15a15,15,0,0,0-.17-2.39,7.66,7.66,0,0,0-.49-1.78,4.73,4.73,0,0,0-.88-1.37,9.26,9.26,0,0,0-1.3-1.15,7.18,7.18,0,0,0-1.94-1,7.09,7.09,0,0,0-2.2-.31,7.64,7.64,0,0,0-2.79.49,5.52,5.52,0,0,0-2.19,1.56,7.54,7.54,0,0,0-1.46,2.78,14.22,14.22,0,0,0-.53,4.16,12.8,12.8,0,0,0,.59,4.17,7.58,7.58,0,0,0,1.54,2.7,5.36,5.36,0,0,0,2.11,1.43,7,7,0,0,0,2.36.42,8.78,8.78,0,0,0,2.28-.28,7.08,7.08,0,0,0,4.28-3.65,8.76,8.76,0,0,0,.79-4Zm-.13,8a10.78,10.78,0,0,1-3.09,2.7,8.62,8.62,0,0,1-4.25,1,8.79,8.79,0,0,1-4-.88,8.11,8.11,0,0,1-2.81-2.34,9.94,9.94,0,0,1-1.64-3.38,14.78,14.78,0,0,1-.54-4c0-3.49.85-6.2,2.53-8.15a8.71,8.71,0,0,1,6.95-2.91,9.48,9.48,0,0,1,3.53.72,8.19,8.19,0,0,1,3.36,2.69V536.88h2.38v28.29h-2.38Z"/><path class="cls-1" d="M280.43,550.67a13.52,13.52,0,0,0,3.67-.42,5.55,5.55,0,0,0,2.32-1.21,4.17,4.17,0,0,0,1.21-1.9,8.52,8.52,0,0,0,.35-2.54,7.48,7.48,0,0,0-.37-2.43,3.8,3.8,0,0,0-1.29-1.76,6.35,6.35,0,0,0-2.46-1.07A17.47,17.47,0,0,0,280,539h-6.61v11.69Zm-9.52-13.79h9.19a17,17,0,0,1,5.19.67,8.8,8.8,0,0,1,3.2,1.75,5.45,5.45,0,0,1,1.6,2.45,9.37,9.37,0,0,1,.43,2.82,8.16,8.16,0,0,1-1.25,4.6,7.82,7.82,0,0,1-4.08,2.89l6.32,13.11h-2.92l-5.86-12.56-1.44.14q-.74.06-1.56.06h-6.36v12.36h-2.46Z"/><path class="cls-1" d="M303.93,563.83a7.65,7.65,0,0,0,3.41-.7,6.47,6.47,0,0,0,2.29-1.88,7.85,7.85,0,0,0,1.32-2.81,14.61,14.61,0,0,0,.41-3.53,14,14,0,0,0-.41-3.43,7.83,7.83,0,0,0-1.32-2.79,6.61,6.61,0,0,0-2.29-1.89,8.7,8.7,0,0,0-6.79,0,6.21,6.21,0,0,0-2.3,1.89,7.79,7.79,0,0,0-1.29,2.79,13.65,13.65,0,0,0-.41,3.47,14,14,0,0,0,.41,3.49,7.81,7.81,0,0,0,1.29,2.81,6.1,6.1,0,0,0,2.3,1.88,7.63,7.63,0,0,0,3.38.7m-.08,2a10.83,10.83,0,0,1-4.16-.75,8.18,8.18,0,0,1-3.08-2.16,9.67,9.67,0,0,1-1.93-3.38,13.75,13.75,0,0,1-.68-4.44,13.39,13.39,0,0,1,.72-4.52,10.12,10.12,0,0,1,2-3.45,8.79,8.79,0,0,1,3.14-2.2,10.72,10.72,0,0,1,4.14-.77,11,11,0,0,1,4.15.75,8.49,8.49,0,0,1,3.11,2.16,9.6,9.6,0,0,1,2,3.39,14.76,14.76,0,0,1,0,8.92,10.16,10.16,0,0,1-2,3.46,8.39,8.39,0,0,1-3.16,2.22,10.77,10.77,0,0,1-4.2.77"/><path class="cls-1" d="M318.12,570.36a5.83,5.83,0,0,0,1.05.32,5.52,5.52,0,0,0,1.17.12,4.27,4.27,0,0,0,1.23-.16,2.21,2.21,0,0,0,.9-.58,4.31,4.31,0,0,0,.76-1.07c.24-.44.5-1,.8-1.69l1-2.43L316,544.76h2.75l7.67,17.46,6.85-17.46h2.67l-9.6,23.1c-.33.77-.67,1.46-1,2.09a7.26,7.26,0,0,1-1.16,1.58,4.32,4.32,0,0,1-1.49,1,5.77,5.77,0,0,1-2.06.34,11.28,11.28,0,0,1-1.57-.1,9.77,9.77,0,0,1-1.46-.37Z"/><path class="cls-1" d="M351.8,554.31l-3.9.16a24.67,24.67,0,0,0-4,.42,7.94,7.94,0,0,0-2.59,1,3.63,3.63,0,0,0-1.41,1.51,4.76,4.76,0,0,0-.44,2.11,4.17,4.17,0,0,0,1.09,3c.73.75,2,1.12,3.8,1.12a12.15,12.15,0,0,0,2.68-.29,5.43,5.43,0,0,0,2.2-1,8.81,8.81,0,0,0,1.21-1,4.94,4.94,0,0,0,.78-1.05,4.78,4.78,0,0,0,.43-1.29,10.21,10.21,0,0,0,.12-1.67Zm0,8a10.05,10.05,0,0,1-1.27,1.25,8.83,8.83,0,0,1-1.68,1.09,9.82,9.82,0,0,1-2.08.75,10.57,10.57,0,0,1-2.48.28A8.46,8.46,0,0,1,339,564.1a5.44,5.44,0,0,1-2-4.59,5.73,5.73,0,0,1,.91-3.37,6.18,6.18,0,0,1,2.4-2.06,11.79,11.79,0,0,1,3.4-1.06,35.48,35.48,0,0,1,4-.37l4.1-.16v-.63a6.57,6.57,0,0,0-1.21-4.4c-.8-.92-2.25-1.39-4.33-1.39a11.59,11.59,0,0,0-2.56.24,5.36,5.36,0,0,0-1.74.69,3.79,3.79,0,0,0-1.11,1.07,4.87,4.87,0,0,0-.62,1.37l-2.17-.31q1.14-5,8.29-5a11.57,11.57,0,0,1,3.73.52,5.8,5.8,0,0,1,2.44,1.49,5.63,5.63,0,0,1,1.33,2.37,11.68,11.68,0,0,1,.41,3.23v13.43h-2.38Z"/><rect class="cls-1" x="360.05" y="536.88" width="2.38" height="28.29"/><path class="cls-1" d="M387.44,550.67a13.47,13.47,0,0,0,3.67-.42,5.61,5.61,0,0,0,2.32-1.21,4.17,4.17,0,0,0,1.21-1.9,8.52,8.52,0,0,0,.35-2.54,7.48,7.48,0,0,0-.37-2.43,3.8,3.8,0,0,0-1.29-1.76,6.35,6.35,0,0,0-2.46-1.07A17.47,17.47,0,0,0,387,539h-6.6v11.69Zm-9.51-13.79h9.18a17,17,0,0,1,5.19.67,8.93,8.93,0,0,1,3.21,1.75,5.51,5.51,0,0,1,1.59,2.45,9.37,9.37,0,0,1,.43,2.82,8.16,8.16,0,0,1-1.25,4.6,7.78,7.78,0,0,1-4.08,2.89l6.32,13.11h-2.91l-5.87-12.56-1.44.14c-.49,0-1,.06-1.55.06h-6.36v12.36h-2.46Z"/><path class="cls-1" d="M417.23,553.56a11.68,11.68,0,0,0-.38-3,6.41,6.41,0,0,0-1.15-2.39,5.06,5.06,0,0,0-2.05-1.57,7.56,7.56,0,0,0-3-.55,6.64,6.64,0,0,0-4.93,1.85,9.17,9.17,0,0,0-2.21,5.71Zm2.08,6.26a6.87,6.87,0,0,1-2.62,4.32,9.68,9.68,0,0,1-6.07,1.67,9,9,0,0,1-7.08-2.84,11.29,11.29,0,0,1-2.52-7.78,14.67,14.67,0,0,1,.71-4.76,10,10,0,0,1,2-3.46,8.41,8.41,0,0,1,3-2.12,10,10,0,0,1,3.84-.72,10.26,10.26,0,0,1,4.18.77,7.53,7.53,0,0,1,2.81,2.11,8.24,8.24,0,0,1,1.58,3.14,15,15,0,0,1,.49,3.93v1.47H403.44a11.47,11.47,0,0,0,.45,3.26,7.77,7.77,0,0,0,1.35,2.66,6.48,6.48,0,0,0,2.26,1.78,7,7,0,0,0,3.12.65,11.07,11.07,0,0,0,2.71-.29,5.41,5.41,0,0,0,1.84-.86,4.29,4.29,0,0,0,1.17-1.28,6.8,6.8,0,0,0,.68-1.65Z"/><path class="cls-1" d="M425.92,559.51a4.68,4.68,0,0,0,2.08,3.36,9.06,9.06,0,0,0,4.69,1c2.05,0,3.5-.37,4.34-1.12A3.5,3.5,0,0,0,438.3,560a5.16,5.16,0,0,0-.16-1.33,2.74,2.74,0,0,0-.63-1.12,3.77,3.77,0,0,0-1.36-.88,12,12,0,0,0-2.28-.59l-2.58-.4a22.61,22.61,0,0,1-3-.67,7.39,7.39,0,0,1-2.26-1,4.29,4.29,0,0,1-1.4-1.63,5.54,5.54,0,0,1-.46-2.39,4.88,4.88,0,0,1,.61-2.44,5.32,5.32,0,0,1,1.68-1.82,8.09,8.09,0,0,1,2.52-1.13,11.69,11.69,0,0,1,3.14-.4,13.31,13.31,0,0,1,3.63.42,6.94,6.94,0,0,1,2.38,1.13,5.23,5.23,0,0,1,1.43,1.66,8.59,8.59,0,0,1,.8,2l-2.17.44a8.59,8.59,0,0,0-.76-1.61,4,4,0,0,0-1.09-1.15,4.86,4.86,0,0,0-1.64-.69,10.53,10.53,0,0,0-2.46-.24,10.68,10.68,0,0,0-2.75.3,5.25,5.25,0,0,0-1.78.81,3,3,0,0,0-1,1.19,3.37,3.37,0,0,0-.29,1.39,4.75,4.75,0,0,0,.16,1.29,2.12,2.12,0,0,0,.66,1,4.09,4.09,0,0,0,1.37.74,13.76,13.76,0,0,0,2.32.57l3.24.51a10.5,10.5,0,0,1,5,1.92,5.79,5.79,0,0,1,1.12,6.44,5,5,0,0,1-1.52,1.84,7.5,7.5,0,0,1-2.52,1.23,12.22,12.22,0,0,1-3.48.46,16.28,16.28,0,0,1-3.55-.36,8.78,8.78,0,0,1-2.81-1.11,6,6,0,0,1-1.93-2,6.75,6.75,0,0,1-.91-2.88Z"/><path class="cls-1" d="M460.66,553.56a12.14,12.14,0,0,0-.37-3,6.56,6.56,0,0,0-1.15-2.39,5.06,5.06,0,0,0-2.05-1.57,7.56,7.56,0,0,0-3-.55,6.62,6.62,0,0,0-4.93,1.85,9.12,9.12,0,0,0-2.21,5.71Zm2.09,6.26a6.87,6.87,0,0,1-2.62,4.32,9.7,9.7,0,0,1-6.07,1.67A9,9,0,0,1,447,563a11.29,11.29,0,0,1-2.52-7.78,14.4,14.4,0,0,1,.71-4.76,9.8,9.8,0,0,1,2-3.46,8.41,8.41,0,0,1,3-2.12,10,10,0,0,1,3.84-.72,10.26,10.26,0,0,1,4.18.77,7.53,7.53,0,0,1,2.81,2.11,8.24,8.24,0,0,1,1.58,3.14,15,15,0,0,1,.49,3.93v1.47H446.88a11.47,11.47,0,0,0,.45,3.26,7.77,7.77,0,0,0,1.35,2.66,6.54,6.54,0,0,0,2.25,1.78,7.09,7.09,0,0,0,3.13.65,11.07,11.07,0,0,0,2.71-.29,5.5,5.5,0,0,0,1.84-.86,4.43,4.43,0,0,0,1.17-1.28,7.22,7.22,0,0,0,.68-1.65Z"/><path class="cls-1" d="M468.08,544.76h2.38v3.34a9.41,9.41,0,0,1,2.92-2.7,6.73,6.73,0,0,1,3.48-.95l.84,0a6.81,6.81,0,0,1,.84.1l-.29,2.17a9.66,9.66,0,0,0-1.35-.11,6.69,6.69,0,0,0-2.17.37,6,6,0,0,0-2.09,1.29,6.65,6.65,0,0,0-1.56,1.92,5.44,5.44,0,0,0-.62,2.68v12.28h-2.38Z"/><polygon class="cls-1" points="480.51 544.76 483.26 544.76 490.44 562.67 497.78 544.76 500.37 544.76 491.83 565.17 489.05 565.17 480.51 544.76"/><path class="cls-1" d="M518.62,553.56a12.14,12.14,0,0,0-.37-3,6.73,6.73,0,0,0-1.15-2.39,5.06,5.06,0,0,0-2.05-1.57,7.56,7.56,0,0,0-3-.55,6.62,6.62,0,0,0-4.93,1.85,9.12,9.12,0,0,0-2.21,5.71Zm2.09,6.26a6.92,6.92,0,0,1-2.62,4.32,9.7,9.7,0,0,1-6.07,1.67,9,9,0,0,1-7.08-2.84,11.29,11.29,0,0,1-2.52-7.78,14.4,14.4,0,0,1,.71-4.76,9.8,9.8,0,0,1,2-3.46,8.41,8.41,0,0,1,3-2.12,10,10,0,0,1,3.84-.72,10.26,10.26,0,0,1,4.18.77A7.61,7.61,0,0,1,519,547a8.24,8.24,0,0,1,1.58,3.14,15,15,0,0,1,.49,3.93v1.47H504.84a11.47,11.47,0,0,0,.45,3.26,7.77,7.77,0,0,0,1.35,2.66,6.54,6.54,0,0,0,2.25,1.78,7.09,7.09,0,0,0,3.13.65,11.07,11.07,0,0,0,2.71-.29,5.5,5.5,0,0,0,1.84-.86,4.43,4.43,0,0,0,1.17-1.28,7.22,7.22,0,0,0,.68-1.65Z"/><path class="cls-2" d="M527.5,202.47,358.68,27.09a92.5,92.5,0,0,0-130.81,0L187.7,67.31l.21.22Z"/><polygon class="cls-3" points="141.05 149.28 152.17 189.89 163.29 149.28 163.04 202.47 364.82 202.47 251.38 169.56 251.63 123.68 240.51 164.29 229.4 123.68 229.61 163.25 122.82 132.28 52.71 202.47 141.3 202.47 141.05 149.28"/><polygon class="cls-4" points="229.39 123.68 240.51 164.29 251.63 123.68 251.38 169.56 364.81 202.47 187.91 67.53 187.7 67.31 122.81 132.27 229.61 163.25 229.39 123.68"/><polygon class="cls-4" points="163.04 202.47 163.29 149.29 152.17 189.89 141.05 149.29 141.3 202.47 163.04 202.47"/><polygon class="cls-5" points="187.91 337.4 187.7 337.62 52.71 202.47 364.81 202.47 187.91 337.4"/><polygon class="cls-6" points="364.81 202.47 458.38 274.27 527.5 202.47 364.81 202.47"/><path class="cls-7" d="M458.38,274.27l-93.57-71.8L187.91,337.4l-.21.22,40.17,40.22a92.5,92.5,0,0,0,130.81,0Z"/><polygon class="cls-2" points="187.91 67.53 364.81 202.47 527.5 202.47 187.91 67.53"/><polygon class="cls-8" points="299.09 62.15 337.51 53.02 302.4 48.7 294.9 26.51 287.4 48.7 252.29 53.02 290.72 62.15 294.9 71.22 299.09 62.15"/><polygon class="cls-9" points="364.81 202.47 411.6 166.56 451.15 202.47 364.81 202.47"/><polygon class="cls-9" points="451.15 202.47 470.1 184.63 491.62 202.47 451.15 202.47"/></svg>