<svg xmlns="http://www.w3.org/2000/svg" width="164.941" height="70.714" viewBox="0 0 164.941 70.714">
  <g id="Group_20" data-name="Group 20" transform="translate(-256.166 -829.552)">
    <path id="Path_100" data-name="Path 100" d="M352.4,850.726h0l-.014.026.027-.017-.014-.009" transform="translate(49.205 10.828)" fill="#fff"/>
    <path id="Path_101" data-name="Path 101" d="M352.425,850.726h0l-.017.009.029.017Z" transform="translate(49.215 10.828)" fill="#fff"/>
    <path id="Path_102" data-name="Path 102" d="M358.8,858.634l-2.057-4.15-.024-.014-.024.014-2.058,4.15-10.669,21.514a3.889,3.889,0,0,0,5.21-1.755l7.542-15.212,7.542,15.212a3.885,3.885,0,0,0,5.207,1.755Z" transform="translate(44.901 12.742)" fill="#fff"/>
    <path id="Path_103" data-name="Path 103" d="M354.164,871.269l-1.313-3.085-.015-.011-.017.011-1.313,3.085a3.246,3.246,0,0,0,.218.769l1.112,2.612,1.111-2.612a3.182,3.182,0,0,0,.218-.769" transform="translate(48.753 19.75)" fill="#fff"/>
    <path id="Path_104" data-name="Path 104" d="M350.4,864.251l-.194-.1,7.879-15.649.193.1Z" transform="translate(48.086 9.692)" fill="#fff"/>
    <path id="Path_105" data-name="Path 105" d="M357.079,864.25,349.416,848.6l.193-.1,7.663,15.649Z" transform="translate(47.685 9.693)" fill="#fff"/>
    <rect id="Rectangle_8" data-name="Rectangle 8" width="0.216" height="23.095" transform="translate(401.515 870.874)" fill="#fff"/>
    <path id="Path_106" data-name="Path 106" d="M349.36,834.9a.337.337,0,0,0-.535-.026q-4.337,5.1-8.671,10.206a.338.338,0,0,0,.476.476q3.14-2.666,6.281-5.334a.338.338,0,0,1,.555.224q.2,1.995.4,3.99a.338.338,0,0,0,.512.254q1.258-.766,2.516-1.536a.339.339,0,0,1,.494.177l.091.255,1.951-2.816q-2.034-2.936-4.069-5.872" transform="translate(42.906 2.662)" fill="#fff"/>
    <path id="Path_107" data-name="Path 107" d="M372.364,845.228q-5.543-6.525-11.084-13.049a.433.433,0,0,0-.685.033l-6.9,9.96-1.951,2.816-12.1,17.456a.432.432,0,0,0,.683.526l6.765-7.953a.433.433,0,0,1,.6-.057l1.762,1.41a.431.431,0,0,0,.679-.2l2.666-7.989a.354.354,0,0,1,.045-.089.43.43,0,0,1,.728,0q.487.771.975,1.543c.077.124.156.248.234.372a.433.433,0,0,0,.772-.086c.094-.266.187-.534.283-.8q.451-1.276.9-2.551.635-1.786,1.268-3.574a.429.429,0,0,1,.63-.224l3.218,1.962a.431.431,0,0,0,.654-.325q.256-2.55.508-5.1a.433.433,0,0,1,.71-.286l8.03,6.819a.432.432,0,0,0,.609-.609" transform="translate(42.644 1.265)" fill="#fff"/>
    <path id="Path_108" data-name="Path 108" d="M359,900.266c-10.744,0-19.484-8.2-19.484-18.284V847.835c0-10.081,8.74-18.283,19.484-18.283s19.484,8.2,19.484,18.283v34.146c0,10.082-8.74,18.284-19.484,18.284m0-69.5c-10.032,0-18.2,7.658-18.2,17.072v34.146c0,9.414,8.163,17.074,18.2,17.074s18.2-7.66,18.2-17.074V847.835c0-9.414-8.163-17.072-18.2-17.072" transform="translate(42.622)" fill="#fff"/>
    <path id="Path_109" data-name="Path 109" d="M352.653,850.5a.291.291,0,0,0,.4.422c.02-.015.038-.032.056-.047.056-.051.112-.1.169-.15q.46-.406.922-.81c.1-.092.207-.183.311-.274q.562-.5,1.126-.991a.294.294,0,0,0-.187-.515l-1.214-.032a.294.294,0,0,1-.213-.488q1.925-2.2,3.849-4.4a.3.3,0,0,0-.224-.49h-.012a.294.294,0,0,1-.216-.494l2.569-2.8a.3.3,0,0,1,.432,0q1.567,1.685,3.132,3.367a.3.3,0,0,1-.215.5H362.7a.294.294,0,0,0-.215.5q2.1,2.217,4.2,4.434a.3.3,0,0,1-.215.5h-1.325a.294.294,0,0,0-.2.511l7,6.488-5.606-5.787a.3.3,0,0,1,.212-.5h1.409a.3.3,0,0,0,.213-.5l-3.963-4.09-.339-.349a.294.294,0,0,1,.212-.5h.6a.3.3,0,0,0,.212-.5l-4.916-5.077a.3.3,0,0,0-.423,0l-4.916,5.077a.3.3,0,0,0,.213.5h.6a.3.3,0,0,1,.212.5l-.339.349-2,2.066-.346.357-.382.394-.266.275-.967,1a.3.3,0,0,0,.212.5h1.41a.3.3,0,0,1,.212.5Z" transform="translate(48.638 4.489)" fill="#fff"/>
    <path id="Path_110" data-name="Path 110" d="M257.158,850.17a3.109,3.109,0,0,1,2.207-.87,3.144,3.144,0,0,1,2.216.87,2.761,2.761,0,0,1,.948,1.862v2.4h.861v.818h-4.025a3.123,3.123,0,0,1-2.207-.849,2.772,2.772,0,0,1-.925-2.11,2.805,2.805,0,0,1,.925-2.12m2.207-.011a2.2,2.2,0,0,0-1.572.624,1.983,1.983,0,0,0-.656,1.507,2.024,2.024,0,0,0,.656,1.5,2.285,2.285,0,0,0,1.572.645h2.281V852.29a1.992,1.992,0,0,0-.7-1.507,2.261,2.261,0,0,0-1.581-.624m-.775-2.808a.548.548,0,0,1,.526.527.515.515,0,0,1-.16.376.5.5,0,0,1-.366.15.512.512,0,0,1-.376-.15.557.557,0,0,1-.151-.376.531.531,0,0,1,.527-.527m1.452,0a.486.486,0,0,1,.366.16.467.467,0,0,1,.162.367.516.516,0,0,1-.162.376.5.5,0,0,1-.366.15.512.512,0,0,1-.376-.15.564.564,0,0,1-.151-.376.505.505,0,0,1,.151-.367.479.479,0,0,1,.376-.16" transform="translate(0.034 9.102)" fill="#fff"/>
    <path id="Path_111" data-name="Path 111" d="M258.623,847.486a.4.4,0,0,0-.3.127.409.409,0,0,0-.122.3.461.461,0,0,0,.125.311.437.437,0,0,0,.6,0,.42.42,0,0,0,.13-.307.369.369,0,0,0-.125-.292.375.375,0,0,0-.3-.135m0,1.053a.611.611,0,0,1-.447-.178.671.671,0,0,1-.18-.449.6.6,0,0,1,.18-.437.588.588,0,0,1,.447-.191.56.56,0,0,1,.441.2.552.552,0,0,1,.186.432.62.62,0,0,1-.19.449.6.6,0,0,1-.437.178m1.452-1.053a.376.376,0,0,0-.3.125.41.41,0,0,0-.127.3.464.464,0,0,0,.128.311.435.435,0,0,0,.6,0,.418.418,0,0,0,.131-.307.366.366,0,0,0-.127-.292.393.393,0,0,0-.3-.135m0,1.053a.607.607,0,0,1-.446-.178.671.671,0,0,1-.181-.449.6.6,0,0,1,.18-.437.57.57,0,0,1,.447-.191.579.579,0,0,1,.44.192.56.56,0,0,1,.189.435.622.622,0,0,1-.19.447.6.6,0,0,1-.438.18m-.677,1.755a2.109,2.109,0,0,0-1.5.6,1.888,1.888,0,0,0-.626,1.433,1.938,1.938,0,0,0,.624,1.424,2.2,2.2,0,0,0,1.5.618h2.181v-2.042a1.91,1.91,0,0,0-.667-1.433,2.177,2.177,0,0,0-1.514-.6m2.38,4.273H259.4a2.39,2.39,0,0,1-1.638-.673,2.134,2.134,0,0,1-.689-1.567,2.088,2.088,0,0,1,.688-1.582,2.309,2.309,0,0,1,1.64-.651,2.363,2.363,0,0,1,1.649.651,2.093,2.093,0,0,1,.732,1.579Zm-4.517-4.291a2.724,2.724,0,0,0-.895,2.048,2.689,2.689,0,0,0,.893,2.037,3.046,3.046,0,0,0,2.139.824h3.925v-.618h-.862v-2.5a2.665,2.665,0,0,0-.914-1.788,3.06,3.06,0,0,0-2.149-.846,3.024,3.024,0,0,0-2.137.843m6.262,5.108H259.4a3.234,3.234,0,0,1-2.275-.876,2.885,2.885,0,0,1-.957-2.184,2.916,2.916,0,0,1,.957-2.193,3.22,3.22,0,0,1,2.275-.9,3.257,3.257,0,0,1,2.284.9,2.856,2.856,0,0,1,.979,1.927v2.308h.861Z" transform="translate(0.001 9.068)" fill="#fff"/>
    <rect id="Rectangle_9" data-name="Rectangle 9" width="3.529" height="0.818" transform="translate(262.993 863.535)" fill="#fff"/>
    <path id="Path_112" data-name="Path 112" d="M260.817,852.787h3.33v-.617h-3.33Zm3.529.2h-3.73v-1.017h3.73Z" transform="translate(2.276 11.464)" fill="#fff"/>
    <rect id="Rectangle_10" data-name="Rectangle 10" width="3.531" height="0.818" transform="translate(266.091 863.535)" fill="#fff"/>
    <path id="Path_113" data-name="Path 113" d="M262.867,852.787H266.2v-.617h-3.331Zm3.531.2h-3.73v-1.017h3.73Z" transform="translate(3.324 11.464)" fill="#fff"/>
    <rect id="Rectangle_11" data-name="Rectangle 11" width="3.531" height="0.818" transform="translate(269.189 863.535)" fill="#fff"/>
    <path id="Path_114" data-name="Path 114" d="M264.918,852.787h3.33v-.617h-3.33Zm3.529.2h-3.73v-1.017h3.73Z" transform="translate(4.373 11.464)" fill="#fff"/>
    <rect id="Rectangle_12" data-name="Rectangle 12" width="3.531" height="0.818" transform="translate(272.291 863.535)" fill="#fff"/>
    <path id="Path_115" data-name="Path 115" d="M266.969,852.787h3.33v-.617h-3.33Zm3.531.2h-3.73v-1.017h3.73Z" transform="translate(5.422 11.464)" fill="#fff"/>
    <path id="Path_116" data-name="Path 116" d="M272.727,849.772a3.144,3.144,0,0,1,2.217.86,2.844,2.844,0,0,1,0,4.22,3.257,3.257,0,0,1-4.413,0,2.864,2.864,0,0,1-.635-.84h-1.011v-.818h.754a2.9,2.9,0,0,1,.892-2.562,3.12,3.12,0,0,1,2.2-.86m0,.86a2.23,2.23,0,0,0-1.57.614,2.02,2.02,0,0,0,.011,2.992,2.363,2.363,0,0,0,3.13,0,2,2,0,0,0,.668-1.484,1.955,1.955,0,0,0-.656-1.508,2.272,2.272,0,0,0-1.582-.614" transform="translate(6.504 10.34)" fill="#fff"/>
    <path id="Path_117" data-name="Path 117" d="M272.761,850.767a2.128,2.128,0,0,0-1.5.586,1.888,1.888,0,0,0-.626,1.433,1.913,1.913,0,0,0,.635,1.411,2.264,2.264,0,0,0,3,0,1.923,1.923,0,0,0,.011-2.846,2.173,2.173,0,0,0-1.514-.585m0,4.2a2.351,2.351,0,0,1-1.626-.618,2.121,2.121,0,0,1-.014-3.139,2.329,2.329,0,0,1,1.64-.639,2.368,2.368,0,0,1,1.65.639,2.063,2.063,0,0,1,.689,1.581,2.111,2.111,0,0,1-.7,1.558,2.368,2.368,0,0,1-1.638.618m-3.742-1.019h.975l.027.056a2.736,2.736,0,0,0,.612.81,3.154,3.154,0,0,0,4.277,0,2.74,2.74,0,0,0,0-4.07,3.05,3.05,0,0,0-2.149-.836,3.019,3.019,0,0,0-2.126.836,2.708,2.708,0,0,0-.895,2.045,2.768,2.768,0,0,0,.032.426l.018.115h-.771Zm3.742,1.9a3.236,3.236,0,0,1-2.264-.887,2.943,2.943,0,0,1-.627-.815h-1.05v-1.017h.739a3.131,3.131,0,0,1-.018-.341,2.9,2.9,0,0,1,.957-2.192,3.357,3.357,0,0,1,4.549,0,2.944,2.944,0,0,1,0,4.366,3.263,3.263,0,0,1-2.285.887" transform="translate(6.47 10.306)" fill="#fff"/>
    <path id="Path_118" data-name="Path 118" d="M274.966,854.734h.861v.818h-1.744V846.76h.883Z" transform="translate(9.162 8.8)" fill="#fff"/>
    <path id="Path_119" data-name="Path 119" d="M274.216,855.486h1.545v-.618H274.9v-7.974h-.683Zm1.744.2h-1.944v-8.991H275.1v7.974h.862Z" transform="translate(9.128 8.766)" fill="#fff"/>
    <path id="Path_120" data-name="Path 120" d="M278.794,849.772a3.149,3.149,0,0,1,2.217.86,2.9,2.9,0,0,1,.892,2.562h.733v.818h-.992a2.831,2.831,0,0,1-.633.84,3.2,3.2,0,0,1-2.217.861,3.119,3.119,0,0,1-2.2-.861,2.864,2.864,0,0,1-.635-.84h-1.011v-.818h.753a2.92,2.92,0,0,1,.893-2.562,3.117,3.117,0,0,1,2.2-.86m0,.86a2.233,2.233,0,0,0-1.572.614,2.02,2.02,0,0,0,.011,2.992,2.365,2.365,0,0,0,3.132,0,2,2,0,0,0,.668-1.484,1.955,1.955,0,0,0-.656-1.508,2.274,2.274,0,0,0-1.582-.614" transform="translate(9.607 10.34)" fill="#fff"/>
    <path id="Path_121" data-name="Path 121" d="M278.828,850.767a2.134,2.134,0,0,0-1.5.586,1.894,1.894,0,0,0-.626,1.433,1.915,1.915,0,0,0,.636,1.411,2.262,2.262,0,0,0,3,0,1.921,1.921,0,0,0,.012-2.846,2.178,2.178,0,0,0-1.514-.585m0,4.2a2.355,2.355,0,0,1-1.628-.618,2.119,2.119,0,0,1-.012-3.139,2.329,2.329,0,0,1,1.64-.639,2.367,2.367,0,0,1,1.649.639,2.058,2.058,0,0,1,.689,1.581,2.111,2.111,0,0,1-.7,1.558,2.364,2.364,0,0,1-1.637.618m-3.744-1.019h.975l.027.056a2.749,2.749,0,0,0,.614.81,3.031,3.031,0,0,0,2.128.836,3.123,3.123,0,0,0,2.151-.836,2.726,2.726,0,0,0,.611-.81l.027-.056h.954v-.618h-.748l.017-.115a2.871,2.871,0,0,0,.032-.426,2.7,2.7,0,0,0-.893-2.045,3.154,3.154,0,0,0-4.277,0,2.71,2.71,0,0,0-.893,2.045,2.9,2.9,0,0,0,.03.426l.018.115h-.771Zm3.744,1.9a3.23,3.23,0,0,1-2.264-.887,2.935,2.935,0,0,1-.629-.815h-1.05v-1.017h.741a3.067,3.067,0,0,1-.018-.341,2.9,2.9,0,0,1,.957-2.192,3.213,3.213,0,0,1,2.264-.889,3.246,3.246,0,0,1,2.285.887,2.9,2.9,0,0,1,.957,2.193,3.231,3.231,0,0,1-.018.341h.718v1.017h-1.029a2.958,2.958,0,0,1-.627.815,3.316,3.316,0,0,1-2.285.887" transform="translate(9.572 10.306)" fill="#fff"/>
    <rect id="Rectangle_13" data-name="Rectangle 13" width="3.531" height="0.818" transform="translate(291.811 863.535)" fill="#fff"/>
    <path id="Path_122" data-name="Path 122" d="M279.884,852.787h3.33v-.617h-3.33Zm3.531.2h-3.73v-1.017h3.73Z" transform="translate(12.027 11.464)" fill="#fff"/>
    <rect id="Rectangle_14" data-name="Rectangle 14" width="3.531" height="0.818" transform="translate(294.91 863.535)" fill="#fff"/>
    <path id="Path_123" data-name="Path 123" d="M281.935,852.787h3.331v-.617h-3.331Zm3.531.2h-3.73v-1.017h3.73Z" transform="translate(13.075 11.464)" fill="#fff"/>
    <path id="Path_124" data-name="Path 124" d="M286.38,850.048v3.778a1.024,1.024,0,0,0,.29.774,1.422,1.422,0,0,0,1.013.28h1.108v.819h-1.108a2.152,2.152,0,0,1-1.755-.7,2.234,2.234,0,0,1-1.862.7h-.215v-.819h.215a1.674,1.674,0,0,0,1.131-.267,1.11,1.11,0,0,0,.29-.786v-3.778ZM285.2,847.8a.554.554,0,0,1,.527.527.516.516,0,0,1-.162.376.5.5,0,0,1-.366.151.505.505,0,0,1-.376-.151.554.554,0,0,1-.151-.376.534.534,0,0,1,.527-.527m.7-1.324a.554.554,0,0,1,.527.527.522.522,0,0,1-.162.378.5.5,0,0,1-.366.151.518.518,0,0,1-.378-.151.568.568,0,0,1-.151-.378.5.5,0,0,1,.151-.366.476.476,0,0,1,.378-.162m.753,1.324a.485.485,0,0,1,.366.162.457.457,0,0,1,.162.366.51.51,0,0,1-.162.376.5.5,0,0,1-.366.151.505.505,0,0,1-.376-.151.554.554,0,0,1-.151-.376.5.5,0,0,1,.151-.366.473.473,0,0,1,.376-.162" transform="translate(14.158 8.654)" fill="#fff"/>
    <path id="Path_125" data-name="Path 125" d="M285.931,846.609a.378.378,0,0,0-.3.128.4.4,0,0,0-.125.3.462.462,0,0,0,.127.312.432.432,0,0,0,.6,0,.42.42,0,0,0,.132-.307.38.38,0,0,0-.128-.292.393.393,0,0,0-.3-.136m0,1.056a.617.617,0,0,1-.447-.18.671.671,0,0,1-.181-.449.6.6,0,0,1,.181-.437.566.566,0,0,1,.447-.19.582.582,0,0,1,.438.193.572.572,0,0,1,.189.434.624.624,0,0,1-.19.447.6.6,0,0,1-.437.181m-.7.268a.433.433,0,0,0-.428.428.466.466,0,0,0,.127.311.433.433,0,0,0,.6-.006.416.416,0,0,0,.133-.305.362.362,0,0,0-.128-.29.368.368,0,0,0-.3-.137m0,1.055a.608.608,0,0,1-.447-.18.665.665,0,0,1-.181-.447.635.635,0,0,1,.629-.627.652.652,0,0,1,.627.627.616.616,0,0,1-.19.447.6.6,0,0,1-.437.18m1.452-1.055a.372.372,0,0,0-.3.127.409.409,0,0,0-.127.3.46.46,0,0,0,.127.311.432.432,0,0,0,.6-.006.411.411,0,0,0,.133-.305.359.359,0,0,0-.127-.29.4.4,0,0,0-.3-.137m0,1.055a.608.608,0,0,1-.447-.18.664.664,0,0,1-.18-.447.6.6,0,0,1,.18-.437.564.564,0,0,1,.447-.191.586.586,0,0,1,.438.192.553.553,0,0,1,.189.435.611.611,0,0,1-.19.447.6.6,0,0,1-.437.18m-.722,5.885.079.1a2.062,2.062,0,0,0,1.678.665h1.008v-.618h-1.008a1.5,1.5,0,0,1-1.084-.311,1.119,1.119,0,0,1-.319-.843v-3.677h-.694v3.677a1.215,1.215,0,0,1-.316.854,1.726,1.726,0,0,1-1.2.3h-.115v.618h.115a2.151,2.151,0,0,0,1.783-.662Zm2.964.96h-1.208a2.3,2.3,0,0,1-1.753-.647,2.419,2.419,0,0,1-1.863.647h-.314v-1.019h.314a1.6,1.6,0,0,0,1.059-.239,1,1,0,0,0,.261-.715v-3.878h1.093v3.878a.928.928,0,0,0,.26.7,1.343,1.343,0,0,0,.943.252h1.208Z" transform="translate(14.124 8.62)" fill="#fff"/>
    <path id="Path_126" data-name="Path 126" d="M289.85,846.76v7.091a1.821,1.821,0,0,1-.334,1.076,1.264,1.264,0,0,1-.893.592q-.193.032-1.786.032v-.818c.538,0,.886-.006,1.044-.021a1.272,1.272,0,0,0,.872-.4,1,1,0,0,0,.215-.592V846.76Z" transform="translate(15.684 8.8)" fill="#fff"/>
    <path id="Path_127" data-name="Path 127" d="M286.969,854.868v.618c.993,0,1.555-.012,1.672-.032a1.155,1.155,0,0,0,.825-.549,1.731,1.731,0,0,0,.317-1.02v-6.992H289.1v6.862a1.091,1.091,0,0,1-.234.653,1.362,1.362,0,0,1-.939.437c-.154.014-.467.023-.958.023m-.1.818h-.1v-1.017h.1c.535,0,.884-.007,1.035-.021a1.172,1.172,0,0,0,.8-.36.9.9,0,0,0,.195-.532v-7.063h1.084v7.193a1.926,1.926,0,0,1-.354,1.134,1.361,1.361,0,0,1-.958.633c-.083.015-.363.033-1.8.033" transform="translate(15.649 8.765)" fill="#fff"/>
    <rect id="Rectangle_15" data-name="Rectangle 15" width="0.884" height="8.792" transform="translate(306.391 855.561)" fill="#fff"/>
    <path id="Path_128" data-name="Path 128" d="M289.533,855.486h.683v-8.592h-.683Zm.883.2h-1.084v-8.993h1.084Z" transform="translate(16.96 8.766)" fill="#fff"/>
    <path id="Path_129" data-name="Path 129" d="M292.8,850.17a3.109,3.109,0,0,1,2.207-.87,3.145,3.145,0,0,1,2.217.87,2.755,2.755,0,0,1,.948,1.862v2.4h.862v.818h-4.026a3.134,3.134,0,0,1-2.207-.849,2.777,2.777,0,0,1-.925-2.11,2.811,2.811,0,0,1,.925-2.12m2.207-.011a2.2,2.2,0,0,0-1.57.624,1.988,1.988,0,0,0-.656,1.507,2.03,2.03,0,0,0,.656,1.5,2.279,2.279,0,0,0,1.57.645h2.282V852.29a2,2,0,0,0-.7-1.507,2.265,2.265,0,0,0-1.582-.624m-.774-2.808a.551.551,0,0,1,.526.527.5.5,0,0,1-.162.376.492.492,0,0,1-.364.15.5.5,0,0,1-.375-.15.551.551,0,0,1-.153-.376.534.534,0,0,1,.527-.527m1.454,0a.485.485,0,0,1,.364.16.464.464,0,0,1,.163.367.512.512,0,0,1-.163.376.5.5,0,0,1-.364.15.505.505,0,0,1-.376-.15.551.551,0,0,1-.153-.376.5.5,0,0,1,.153-.367.475.475,0,0,1,.376-.16" transform="translate(18.261 9.102)" fill="#fff"/>
    <path id="Path_130" data-name="Path 130" d="M294.267,847.486a.4.4,0,0,0-.3.127.408.408,0,0,0-.125.3.463.463,0,0,0,.127.311.435.435,0,0,0,.6,0,.42.42,0,0,0,.133-.307.37.37,0,0,0-.127-.292.375.375,0,0,0-.3-.135m0,1.053a.606.606,0,0,1-.447-.18.664.664,0,0,1-.18-.447.6.6,0,0,1,.18-.437.588.588,0,0,1,.447-.191.56.56,0,0,1,.441.2.549.549,0,0,1,.186.432.617.617,0,0,1-.19.449.6.6,0,0,1-.437.178m1.454-1.053a.377.377,0,0,0-.3.125.408.408,0,0,0-.125.3.456.456,0,0,0,.127.311.435.435,0,0,0,.6,0,.418.418,0,0,0,.132-.307.366.366,0,0,0-.127-.292.4.4,0,0,0-.3-.135m0,1.053a.608.608,0,0,1-.447-.178.677.677,0,0,1-.18-.449.6.6,0,0,1,.178-.437.571.571,0,0,1,.449-.191.585.585,0,0,1,.438.192.557.557,0,0,1,.189.435.618.618,0,0,1-.192.449.6.6,0,0,1-.435.178m-.679,1.755a2.112,2.112,0,0,0-1.5.6,1.888,1.888,0,0,0-.626,1.433,1.934,1.934,0,0,0,.626,1.424,2.193,2.193,0,0,0,1.5.618h2.181v-2.042a1.91,1.91,0,0,0-.667-1.433,2.177,2.177,0,0,0-1.514-.6m2.38,4.273h-2.38a2.388,2.388,0,0,1-1.638-.673,2.134,2.134,0,0,1-.689-1.567,2.09,2.09,0,0,1,.688-1.582,2.314,2.314,0,0,1,1.64-.651,2.363,2.363,0,0,1,1.649.651,2.093,2.093,0,0,1,.731,1.579Zm-4.519-4.291a2.726,2.726,0,0,0-.893,2.048,2.687,2.687,0,0,0,.893,2.037,3.051,3.051,0,0,0,2.139.824h3.925v-.618h-.861v-2.5a2.66,2.66,0,0,0-.914-1.788,3.063,3.063,0,0,0-2.149-.846,3.03,3.03,0,0,0-2.139.843m6.263,5.108h-4.125a3.239,3.239,0,0,1-2.275-.876,2.885,2.885,0,0,1-.957-2.184,2.914,2.914,0,0,1,.955-2.193h0a3.22,3.22,0,0,1,2.275-.9,3.256,3.256,0,0,1,2.284.9,2.863,2.863,0,0,1,.979,1.927v2.308h.862Z" transform="translate(18.228 9.068)" fill="#fff"/>
    <rect id="Rectangle_16" data-name="Rectangle 16" width="3.531" height="0.818" transform="translate(316.864 863.535)" fill="#fff"/>
    <path id="Path_131" data-name="Path 131" d="M296.461,852.787h3.331v-.617h-3.331Zm3.531.2h-3.73v-1.017h3.73Z" transform="translate(20.503 11.464)" fill="#fff"/>
    <rect id="Rectangle_17" data-name="Rectangle 17" width="3.531" height="0.818" transform="translate(319.962 863.535)" fill="#fff"/>
    <path id="Path_132" data-name="Path 132" d="M298.511,852.787h3.33v-.617h-3.33Zm3.531.2h-3.73v-1.017h3.73Z" transform="translate(21.552 11.464)" fill="#fff"/>
    <path id="Path_133" data-name="Path 133" d="M304.055,848.839v3.787a1.773,1.773,0,0,1-.452,1.162,2.233,2.233,0,0,1-1.862.7h-1.313v-.818h1.313a1.666,1.666,0,0,0,1.131-.269,1.089,1.089,0,0,0,.28-.786v-3.777Zm-2.077,6.478a.554.554,0,0,1,.526.527.511.511,0,0,1-.162.376.493.493,0,0,1-.364.151.506.506,0,0,1-.376-.151.554.554,0,0,1-.151-.376.494.494,0,0,1,.151-.366.471.471,0,0,1,.376-.162m1.452,0a.46.46,0,0,1,.366.162.482.482,0,0,1,.162.366.517.517,0,0,1-.162.376.5.5,0,0,1-.366.151.506.506,0,0,1-.376-.151.553.553,0,0,1-.15-.376.531.531,0,0,1,.526-.527" transform="translate(22.634 9.863)" fill="#fff"/>
    <path id="Path_134" data-name="Path 134" d="M300.563,854.424h1.212a2.151,2.151,0,0,0,1.783-.662,1.681,1.681,0,0,0,.431-1.1v-3.689h-.7v3.679a1.189,1.189,0,0,1-.307.855,1.733,1.733,0,0,1-1.2.3h-1.212Zm1.212.2h-1.413V853.6h1.413a1.6,1.6,0,0,0,1.059-.239.984.984,0,0,0,.249-.715v-3.878h1.1v3.889a1.872,1.872,0,0,1-.475,1.226,2.336,2.336,0,0,1-1.939.736m.237.828a.375.375,0,0,0-.3.127.4.4,0,0,0-.125.3.461.461,0,0,0,.125.311.437.437,0,0,0,.6,0,.42.42,0,0,0,.132-.307.383.383,0,0,0-.128-.293.391.391,0,0,0-.3-.134m0,1.055a.606.606,0,0,1-.447-.18.664.664,0,0,1-.18-.447.6.6,0,0,1,.18-.438.568.568,0,0,1,.447-.189.583.583,0,0,1,.438.192.575.575,0,0,1,.189.435.624.624,0,0,1-.19.447.6.6,0,0,1-.437.18m1.452-1.055a.431.431,0,0,0-.426.428.464.464,0,0,0,.124.311.434.434,0,0,0,.6-.006.42.42,0,0,0,.131-.305.383.383,0,0,0-.128-.293.375.375,0,0,0-.3-.134m0,1.055a.611.611,0,0,1-.447-.18.657.657,0,0,1-.178-.447.627.627,0,0,1,.626-.627.56.56,0,0,1,.441.2.572.572,0,0,1,.186.432.622.622,0,0,1-.189.447.6.6,0,0,1-.438.18" transform="translate(22.6 9.829)" fill="#fff"/>
    <path id="Path_135" data-name="Path 135" d="M306.29,853.7h.677v.818h-.677v.151a2.024,2.024,0,0,1-.29.99,1.537,1.537,0,0,1-1.153.721,11.968,11.968,0,0,1-1.591.065v-.819c.021,0,.068,0,.141.006s.136,0,.193,0h.345a1.855,1.855,0,0,0,.978-.257.929.929,0,0,0,.5-.828v-5.769h.883Z" transform="translate(24.08 9.834)" fill="#fff"/>
    <path id="Path_136" data-name="Path 136" d="M303.388,855.764v.615a10.843,10.843,0,0,0,1.475-.063,1.44,1.44,0,0,0,1.084-.673,1.942,1.942,0,0,0,.277-.94v-.251h.677v-.618h-.677v-4.918h-.683v5.669a1.027,1.027,0,0,1-.543.913,1.963,1.963,0,0,1-1.031.272h-.346c-.057,0-.124,0-.2,0h-.035m-.1.815h-.1V855.56h.1c.023,0,.071,0,.145.006s.133,0,.187,0h.346a1.765,1.765,0,0,0,.926-.243.828.828,0,0,0,.447-.742v-5.87h1.082v4.919h.677v1.017h-.677v.051a2.131,2.131,0,0,1-.3,1.038,1.644,1.644,0,0,1-1.224.771,12.02,12.02,0,0,1-1.608.067" transform="translate(24.046 9.799)" fill="#fff"/>
    <path id="Path_137" data-name="Path 137" d="M309.258,849.341a3.147,3.147,0,0,1,2.217.872,2.792,2.792,0,0,1,.936,2.12,2.726,2.726,0,0,1-.936,2.119,3.231,3.231,0,0,1-2.217.8h-3.831v-.818h1.6a2.746,2.746,0,0,1-.914-2.1,2.8,2.8,0,0,1,.925-2.12,3.142,3.142,0,0,1,2.217-.872m0,.861a2.222,2.222,0,0,0-1.584.624,2.035,2.035,0,0,0,.012,3,2.348,2.348,0,0,0,3.142,0,2,2,0,0,0,.68-1.495,1.966,1.966,0,0,0-.67-1.507,2.212,2.212,0,0,0-1.581-.624m-.753-2.852a.487.487,0,0,1,.366.162.466.466,0,0,1,.16.366.521.521,0,0,1-.16.376.5.5,0,0,1-.366.151.507.507,0,0,1-.378-.151.561.561,0,0,1-.151-.376.5.5,0,0,1,.151-.366.477.477,0,0,1,.378-.162m1.452,0a.554.554,0,0,1,.526.527.51.51,0,0,1-.162.376.49.49,0,0,1-.364.151.506.506,0,0,1-.376-.151.554.554,0,0,1-.151-.376.534.534,0,0,1,.527-.527" transform="translate(25.19 9.102)" fill="#fff"/>
    <path id="Path_138" data-name="Path 138" d="M308.539,847.485a.373.373,0,0,0-.3.127.4.4,0,0,0-.127.3.471.471,0,0,0,.127.311.434.434,0,0,0,.6,0,.418.418,0,0,0,.132-.307.365.365,0,0,0-.127-.29.4.4,0,0,0-.3-.136m0,1.055a.613.613,0,0,1-.449-.181.664.664,0,0,1-.18-.447.6.6,0,0,1,.181-.437.566.566,0,0,1,.447-.19.584.584,0,0,1,.438.193.556.556,0,0,1,.189.434.615.615,0,0,1-.192.447.6.6,0,0,1-.435.181m1.452-1.055a.431.431,0,0,0-.428.426.463.463,0,0,0,.125.311.414.414,0,0,0,.3.116.39.39,0,0,0,.293-.121.411.411,0,0,0,.133-.307.356.356,0,0,0-.127-.289.37.37,0,0,0-.3-.137m0,1.055a.607.607,0,0,1-.447-.181.659.659,0,0,1-.18-.447.632.632,0,0,1,.627-.627.563.563,0,0,1,.441.2.549.549,0,0,1,.186.431.616.616,0,0,1-.192.449.6.6,0,0,1-.435.18m-.7,1.8a2.128,2.128,0,0,0-1.514.6,1.935,1.935,0,0,0,.011,2.856,2.249,2.249,0,0,0,3.008,0,1.892,1.892,0,0,0,.647-1.424,1.864,1.864,0,0,0-.636-1.431,2.13,2.13,0,0,0-1.514-.6m0,4.229a2.37,2.37,0,0,1-1.638-.629,2.134,2.134,0,0,1-.014-3.148,2.414,2.414,0,0,1,3.3,0,2.068,2.068,0,0,1,.7,1.579,2.1,2.1,0,0,1-.713,1.569,2.369,2.369,0,0,1-1.637.629m-3.732.618h3.732a3.143,3.143,0,0,0,2.151-.772,2.637,2.637,0,0,0,.9-2.043,2.707,2.707,0,0,0-.9-2.048,3.156,3.156,0,0,0-4.3,0,2.723,2.723,0,0,0-.893,2.048,2.66,2.66,0,0,0,.883,2.024l.186.174h-1.758Zm3.732.2h-3.931v-1.017h1.461a2.843,2.843,0,0,1-.774-2,2.922,2.922,0,0,1,.957-2.195,3.359,3.359,0,0,1,4.572,0,2.9,2.9,0,0,1,.967,2.195,2.83,2.83,0,0,1-.969,2.193,3.341,3.341,0,0,1-2.284.822" transform="translate(25.157 9.068)" fill="#fff"/>
    <path id="Path_139" data-name="Path 139" d="M312.873,850.17a3.112,3.112,0,0,1,2.207-.87,3.147,3.147,0,0,1,2.217.87,2.761,2.761,0,0,1,.948,1.862v2.4h.86v.818H315.08a3.129,3.129,0,0,1-2.207-.849,2.772,2.772,0,0,1-.925-2.11,2.805,2.805,0,0,1,.925-2.12m2.207-.011a2.2,2.2,0,0,0-1.572.624,1.986,1.986,0,0,0-.654,1.507,2.029,2.029,0,0,0,.654,1.5,2.285,2.285,0,0,0,1.572.645h2.282V852.29a2,2,0,0,0-.7-1.507,2.265,2.265,0,0,0-1.582-.624m-.774-2.808a.551.551,0,0,1,.526.527.51.51,0,0,1-.162.376.494.494,0,0,1-.364.15.513.513,0,0,1-.378-.15.555.555,0,0,1-.15-.376.529.529,0,0,1,.527-.527m1.452,0a.486.486,0,0,1,.366.16.467.467,0,0,1,.162.367.516.516,0,0,1-.162.376.5.5,0,0,1-.366.15.51.51,0,0,1-.376-.15.564.564,0,0,1-.151-.376.505.505,0,0,1,.151-.367.477.477,0,0,1,.376-.16" transform="translate(28.525 9.102)" fill="#fff"/>
    <path id="Path_140" data-name="Path 140" d="M314.339,847.486a.4.4,0,0,0-.3.127.412.412,0,0,0-.124.3.469.469,0,0,0,.125.311.413.413,0,0,0,.3.115.392.392,0,0,0,.295-.119.416.416,0,0,0,.132-.307.369.369,0,0,0-.125-.292.377.377,0,0,0-.3-.135m0,1.053a.611.611,0,0,1-.447-.178.67.67,0,0,1-.18-.449.6.6,0,0,1,.18-.437.588.588,0,0,1,.447-.191.56.56,0,0,1,.441.2.554.554,0,0,1,.186.432.623.623,0,0,1-.19.449.6.6,0,0,1-.437.178m1.454-1.053a.379.379,0,0,0-.3.125.41.41,0,0,0-.127.3.466.466,0,0,0,.127.311.437.437,0,0,0,.6,0,.42.42,0,0,0,.133-.307.367.367,0,0,0-.128-.292.392.392,0,0,0-.3-.135m0,1.053a.614.614,0,0,1-.449-.178.676.676,0,0,1-.18-.449.6.6,0,0,1,.18-.437.574.574,0,0,1,.449-.191.583.583,0,0,1,.438.192.557.557,0,0,1,.189.435.616.616,0,0,1-.19.447.6.6,0,0,1-.437.18m-.679,1.755a2.115,2.115,0,0,0-1.5.6,1.891,1.891,0,0,0-.623,1.433,1.93,1.93,0,0,0,.623,1.424,2.2,2.2,0,0,0,1.5.618H317.3v-2.042a1.9,1.9,0,0,0-.668-1.433,2.17,2.17,0,0,0-1.513-.6m2.38,4.273h-2.38a2.4,2.4,0,0,1-1.64-.673,2.132,2.132,0,0,1-.688-1.567,2.088,2.088,0,0,1,.688-1.582,2.309,2.309,0,0,1,1.64-.651,2.372,2.372,0,0,1,1.65.651,2.1,2.1,0,0,1,.73,1.579Zm-4.519-4.291a2.728,2.728,0,0,0-.893,2.048,2.689,2.689,0,0,0,.893,2.037,3.051,3.051,0,0,0,2.139.824h3.925v-.618h-.861v-2.5a2.659,2.659,0,0,0-.914-1.788,3.143,3.143,0,0,0-4.288,0m6.263,5.108h-4.125a3.239,3.239,0,0,1-2.275-.876,2.885,2.885,0,0,1-.957-2.184,2.92,2.92,0,0,1,.955-2.193,3.344,3.344,0,0,1,4.56,0,2.863,2.863,0,0,1,.979,1.927v2.308h.861Z" transform="translate(28.492 9.068)" fill="#fff"/>
    <rect id="Rectangle_18" data-name="Rectangle 18" width="3.531" height="0.818" transform="translate(347.2 863.535)" fill="#fff"/>
    <path id="Path_141" data-name="Path 141" d="M316.534,852.787h3.33v-.617h-3.33Zm3.529.2h-3.73v-1.017h3.73Z" transform="translate(30.767 11.464)" fill="#fff"/>
    <rect id="Rectangle_19" data-name="Rectangle 19" width="3.531" height="0.818" transform="translate(350.3 863.535)" fill="#fff"/>
    <path id="Path_142" data-name="Path 142" d="M318.583,852.787h3.331v-.617h-3.331Zm3.531.2h-3.73v-1.017h3.73Z" transform="translate(31.816 11.464)" fill="#fff"/>
    <path id="Path_143" data-name="Path 143" d="M325.634,847.685h-2.863a.677.677,0,0,0-.485.183.59.59,0,0,0-.193.463,9.178,9.178,0,0,0,.118,2.25.686.686,0,0,0,.485.193h2.388a1.72,1.72,0,0,1,1.218.44,1.4,1.4,0,0,1,.419.948c.035.481.054,1.041.054,1.679a1.749,1.749,0,0,1-.518,1.345,1.846,1.846,0,0,1-1.279.366H320.5v-.818h4.478a.848.848,0,0,0,.816-.9,5.027,5.027,0,0,0-.171-1.927.831.831,0,0,0-.593-.227h-2.347a1.482,1.482,0,0,1-1.366-.774,11.154,11.154,0,0,1-.139-2.583,1.559,1.559,0,0,1,1.572-1.56h2.884Z" transform="translate(32.898 8.8)" fill="#fff"/>
    <path id="Path_144" data-name="Path 144" d="M320.633,855.487h4.378a1.766,1.766,0,0,0,1.211-.34,1.662,1.662,0,0,0,.487-1.272c0-.615-.018-1.177-.054-1.672a1.3,1.3,0,0,0-.388-.881,1.608,1.608,0,0,0-1.149-.414H322.73a.786.786,0,0,1-.553-.221c-.057-.056-.15-.148-.15-2.323a.689.689,0,0,1,.227-.536.779.779,0,0,1,.55-.208h2.764V846.9h-2.784a1.458,1.458,0,0,0-1.471,1.458,10.234,10.234,0,0,0,.124,2.533,1.374,1.374,0,0,0,1.28.725h2.347a.921.921,0,0,1,.661.254c.1.094.2.4.2,2a.94.94,0,0,1-.281.73.93.93,0,0,1-.636.274h-4.378Zm4.378.2h-4.578v-1.019h4.578a.747.747,0,0,0,.716-.8c0-1.582-.107-1.82-.141-1.854a.728.728,0,0,0-.523-.2h-2.347a1.58,1.58,0,0,1-1.452-.825,8.589,8.589,0,0,1-.153-2.633,1.662,1.662,0,0,1,1.672-1.66h2.983v1.126H322.8a.569.569,0,0,0-.414.156.49.49,0,0,0-.163.388,9.554,9.554,0,0,0,.1,2.188.583.583,0,0,0,.407.156h2.388a1.812,1.812,0,0,1,1.285.469,1.5,1.5,0,0,1,.452,1.013c.036.5.054,1.064.054,1.685a1.851,1.851,0,0,1-.55,1.418,1.939,1.939,0,0,1-1.347.394" transform="translate(32.864 8.766)" fill="#fff"/>
    <path id="Path_145" data-name="Path 145" d="M328.114,853.7h.677v.818h-.677v.151a2.023,2.023,0,0,1-.29.99,1.537,1.537,0,0,1-1.153.721c-.243.042.246.065-.57.065l-1.022-.819c.02,0,.068,0,.139.006s.138,0,.195,0h.345a1.855,1.855,0,0,0,.978-.257.929.929,0,0,0,.5-.828v-5.769h.883Z" transform="translate(35.24 9.834)" fill="#fff"/>
    <path id="Path_146" data-name="Path 146" d="M325.212,855.764l1.02.615c.928,0,.293-.036.455-.063a1.434,1.434,0,0,0,1.082-.673,1.941,1.941,0,0,0,.277-.94v-.251h.679v-.618h-.679v-4.918h-.682v5.669a1.026,1.026,0,0,1-.544.913,1.964,1.964,0,0,1-1.031.272h-.345c-.059,0-.124,0-.2,0h-.033m.92.815h-.1l-1.02-1.019h.1c.021,0,.069,0,.144.006s.133,0,.189,0h.345a1.771,1.771,0,0,0,.928-.243.826.826,0,0,0,.446-.742v-5.87h1.084v4.919h.677v1.017h-.677v.051a2.143,2.143,0,0,1-.3,1.04,1.645,1.645,0,0,1-1.223.769c-.254.044.227.067-.588.067" transform="translate(35.206 9.799)" fill="#fff"/>
    <path id="Path_147" data-name="Path 147" d="M335.376,849.941V853.7a1.92,1.92,0,0,1-.559,1.419,1.873,1.873,0,0,1-1.389.582,1.909,1.909,0,0,0-3.024,0,1.751,1.751,0,0,1-1.378-.582L328.92,855a1.769,1.769,0,0,1-1.4.7h-.269v-.819h.269a.886.886,0,0,0,.677-.322,1.018,1.018,0,0,0,.281-.7v-3.917h.9v3.207a3.815,3.815,0,0,0,.118,1.152.862.862,0,0,0,.914.58.992.992,0,0,0,.754-.322,1.117,1.117,0,0,0,.3-.786v-3.831h.9v3.831a1.085,1.085,0,0,0,.29.786,1.042,1.042,0,0,0,1.5.011,1.142,1.142,0,0,0,.281-.8v-3.831Zm-4.144-2.142a.482.482,0,0,1,.366.162.462.462,0,0,1,.162.366.516.516,0,0,1-.162.376.494.494,0,0,1-.366.151.508.508,0,0,1-.376-.151.559.559,0,0,1-.15-.376.5.5,0,0,1,.15-.366.473.473,0,0,1,.376-.162m.7-1.324a.46.46,0,0,1,.366.162.477.477,0,0,1,.162.366.516.516,0,0,1-.162.378.5.5,0,0,1-.366.151.516.516,0,0,1-.376-.151A.565.565,0,0,1,331.4,847a.534.534,0,0,1,.527-.527m.754,1.324a.554.554,0,0,1,.527.527.516.516,0,0,1-.162.376.5.5,0,0,1-.366.151.506.506,0,0,1-.376-.151.554.554,0,0,1-.151-.376.534.534,0,0,1,.527-.527" transform="translate(36.35 8.654)" fill="#fff"/>
    <path id="Path_148" data-name="Path 148" d="M331.964,846.609a.434.434,0,0,0-.426.428.457.457,0,0,0,.127.312.426.426,0,0,0,.594-.006.411.411,0,0,0,.133-.305.376.376,0,0,0-.13-.292.371.371,0,0,0-.3-.136m0,1.056a.609.609,0,0,1-.446-.181.659.659,0,0,1-.181-.447.635.635,0,0,1,.627-.627.554.554,0,0,1,.441.2.56.56,0,0,1,.187.431.609.609,0,0,1-.192.447.6.6,0,0,1-.437.181m-.7.268a.367.367,0,0,0-.3.127.4.4,0,0,0-.128.3.469.469,0,0,0,.125.311.437.437,0,0,0,.6,0,.431.431,0,0,0,.13-.307.358.358,0,0,0-.127-.29.39.39,0,0,0-.3-.137m0,1.055a.608.608,0,0,1-.447-.18.673.673,0,0,1-.181-.447.6.6,0,0,1,.181-.437.566.566,0,0,1,.447-.191.579.579,0,0,1,.438.193.554.554,0,0,1,.189.434.622.622,0,0,1-.189.447.6.6,0,0,1-.438.18m1.452-1.055a.436.436,0,0,0-.428.428.46.46,0,0,0,.125.31.436.436,0,0,0,.6,0,.422.422,0,0,0,.133-.305.362.362,0,0,0-.128-.29.373.373,0,0,0-.3-.137m0,1.055a.608.608,0,0,1-.447-.18.664.664,0,0,1-.178-.447.63.63,0,0,1,.626-.627.557.557,0,0,1,.441.2.544.544,0,0,1,.186.432.62.62,0,0,1-.189.447.6.6,0,0,1-.438.18m-.775,5.841.08.1a1.729,1.729,0,0,0,1.439.7,1.788,1.788,0,0,0,1.316-.552,1.841,1.841,0,0,0,.531-1.35v-3.657h-.736v3.731a1.256,1.256,0,0,1-.3.863,1.144,1.144,0,0,1-1.647-.01,1.186,1.186,0,0,1-.316-.853v-3.731h-.7v3.731a1.207,1.207,0,0,1-.326.854,1.092,1.092,0,0,1-.827.354.962.962,0,0,1-1.011-.647,3.973,3.973,0,0,1-.122-1.185v-3.107h-.7v3.818a1.114,1.114,0,0,1-.307.766.979.979,0,0,1-.748.355h-.172v.62h.172a1.678,1.678,0,0,0,1.319-.664l.074-.089.184.2a1.665,1.665,0,0,0,1.3.549,1.718,1.718,0,0,0,1.428-.7Zm1.519,1a2.014,2.014,0,0,0-3.026,0,1.855,1.855,0,0,1-1.452-.615l-.03-.033a1.838,1.838,0,0,1-1.4.648h-.37v-1.019h.37a.787.787,0,0,0,.6-.29.909.909,0,0,0,.252-.632v-4.017h1.106v3.307a3.8,3.8,0,0,0,.11,1.118.768.768,0,0,0,.822.514.884.884,0,0,0,.68-.292,1,1,0,0,0,.274-.716v-3.931h1.1v3.931a.979.979,0,0,0,.263.716.94.94,0,0,0,1.35.012,1.048,1.048,0,0,0,.252-.729v-3.931h1.138v3.857a2.024,2.024,0,0,1-.589,1.49,1.978,1.978,0,0,1-1.458.61" transform="translate(36.317 8.62)" fill="#fff"/>
    <path id="Path_149" data-name="Path 149" d="M258.486,856.661a.34.34,0,0,0-.277.116.371.371,0,0,0-.116.277.422.422,0,0,0,.116.284.37.37,0,0,0,.277.107.364.364,0,0,0,.272-.11.387.387,0,0,0,.121-.281.335.335,0,0,0-.118-.269.358.358,0,0,0-.275-.124" transform="translate(0.985 13.863)" fill="#fff"/>
    <path id="Path_150" data-name="Path 150" d="M257.634,856.661a.364.364,0,0,0-.28.118.372.372,0,0,0-.113.275.417.417,0,0,0,.115.284.371.371,0,0,0,.278.107.363.363,0,0,0,.271-.11.382.382,0,0,0,.121-.281.337.337,0,0,0-.116-.269.342.342,0,0,0-.275-.124" transform="translate(0.55 13.863)" fill="#fff"/>
    <path id="Path_151" data-name="Path 151" d="M270.081,861.785a.347.347,0,0,0-.278.116.373.373,0,0,0-.115.277.415.415,0,0,0,.115.284.376.376,0,0,0,.278.109.367.367,0,0,0,.272-.112.382.382,0,0,0,.121-.281.415.415,0,0,0-.393-.393" transform="translate(6.915 16.483)" fill="#fff"/>
    <path id="Path_152" data-name="Path 152" d="M269.228,861.785a.365.365,0,0,0-.28.119.369.369,0,0,0-.113.274.414.414,0,0,0,.115.284.368.368,0,0,0,.278.109.362.362,0,0,0,.272-.112.385.385,0,0,0,.121-.281.359.359,0,0,0-.119-.271.341.341,0,0,0-.274-.122" transform="translate(6.478 16.483)" fill="#fff"/>
    <path id="Path_153" data-name="Path 153" d="M260.969,862.36h-2.1a2.115,2.115,0,0,1-1.445-.594,1.869,1.869,0,0,1-.606-1.38,1.841,1.841,0,0,1,.6-1.393,2.034,2.034,0,0,1,1.446-.574,2.083,2.083,0,0,1,1.454.574,1.846,1.846,0,0,1,.645,1.39Zm23.5-1.859a2.06,2.06,0,0,1,1.446-.564,2.091,2.091,0,0,1,1.454.564,1.816,1.816,0,0,1,.608,1.392,1.867,1.867,0,0,1-.617,1.374h0a2.175,2.175,0,0,1-2.878,0,1.868,1.868,0,0,1-.012-2.766m-1.019,2.433.021.042a2.409,2.409,0,0,0,.546.723,2.816,2.816,0,0,0,3.815,0,2.451,2.451,0,0,0,0-3.633,2.816,2.816,0,0,0-3.813,0,2.424,2.424,0,0,0-.8,1.826,2.3,2.3,0,0,0,.029.379l.014.088h-5.2a1.313,1.313,0,0,1-.951-.272.982.982,0,0,1-.28-.739v-3.277h-.642v3.277a1.07,1.07,0,0,1-.277.748,1.525,1.525,0,0,1-1.059.263H261.6v-2.205a2.382,2.382,0,0,0-.816-1.6,2.731,2.731,0,0,0-1.916-.754,2.7,2.7,0,0,0-1.906.753,2.423,2.423,0,0,0-.8,1.826,2.4,2.4,0,0,0,.8,1.818,2.711,2.711,0,0,0,1.906.734h16.119l.056-.014a1.816,1.816,0,0,0,1.406-.579l.057-.073.059.071a1.845,1.845,0,0,0,1.5.594h5.391Z" transform="translate(0 14.448)" fill="#fff"/>
    <path id="Path_154" data-name="Path 154" d="M285.648,861.785a.4.4,0,0,0-.393.393.415.415,0,0,0,.115.284.368.368,0,0,0,.278.109.362.362,0,0,0,.272-.112.385.385,0,0,0,.121-.281.359.359,0,0,0-.119-.271.341.341,0,0,0-.274-.122" transform="translate(14.875 16.483)" fill="#fff"/>
    <path id="Path_155" data-name="Path 155" d="M286.5,861.785a.349.349,0,0,0-.278.116.373.373,0,0,0-.115.277.414.414,0,0,0,.115.284.4.4,0,0,0,.55,0,.382.382,0,0,0,.121-.281.415.415,0,0,0-.393-.393" transform="translate(15.311 16.483)" fill="#fff"/>
    <path id="Path_156" data-name="Path 156" d="M282.069,863.212h-1.183a1.917,1.917,0,0,1-1.936-1.918,1.793,1.793,0,0,1,.478-1.245,1.6,1.6,0,0,1,1.2-.577h1.44Zm6.494.562a1.826,1.826,0,0,0,1.407-.577l.057-.074.059.071a1.841,1.841,0,0,0,1.5.594l.984,0c.872,0,1.129-.017,1.191-.027a1.044,1.044,0,0,0,.741-.491,1.548,1.548,0,0,0,.286-.914v-6.218h-.633v6.1a.957.957,0,0,1-.206.571,1.2,1.2,0,0,1-.825.382c-.133.012-.408.018-.871.02h-.667a1.319,1.319,0,0,1-.951-.271.98.98,0,0,1-.28-.74v-3.277h-.642V862.2a1.065,1.065,0,0,1-.278.75,1.521,1.521,0,0,1-1.058.261H282.7v-4.374h-2.483a2.71,2.71,0,0,0-1.393.9,2.364,2.364,0,0,0-.567,1.557,2.444,2.444,0,0,0,.742,1.782,2.481,2.481,0,0,0,1.78.721h1.288v.286c-.056.479-.277.739-.659.78-.246.026-.662.038-1.241.039v.576a12.041,12.041,0,0,0,1.5-.074,1.1,1.1,0,0,0,.769-.521,1.753,1.753,0,0,0,.264-.934v-.16h5.805Z" transform="translate(11.298 13.594)" fill="#fff"/>
    <rect id="Rectangle_20" data-name="Rectangle 20" width="0.633" height="7.651" transform="translate(306.996 869.731)" fill="#fff"/>
    <path id="Path_157" data-name="Path 157" d="M296.276,857.156a.336.336,0,0,0-.274-.122.363.363,0,0,0-.278.118.375.375,0,0,0-.113.275.416.416,0,0,0,.115.286.4.4,0,0,0,.549,0,.388.388,0,0,0,.121-.283.355.355,0,0,0-.119-.271" transform="translate(20.171 14.053)" fill="#fff"/>
    <path id="Path_158" data-name="Path 158" d="M295.151,857.033a.344.344,0,0,0-.277.116.374.374,0,0,0-.116.277.421.421,0,0,0,.116.286.372.372,0,0,0,.277.107.36.36,0,0,0,.271-.11.384.384,0,0,0,.122-.282.418.418,0,0,0-.393-.393" transform="translate(19.735 14.053)" fill="#fff"/>
    <path id="Path_159" data-name="Path 159" d="M292.867,862.633a1.537,1.537,0,0,0,.883.215h7.735v-4.873h-.6v4.3h-6.9a1.5,1.5,0,0,1-.345-.06,1.6,1.6,0,0,1-.317-.142,1.333,1.333,0,0,1-.484-1.171v-1.576h-.585v2.063a2.6,2.6,0,0,0,.092.5,1.376,1.376,0,0,0,.526.753" transform="translate(18.452 14.534)" fill="#fff"/>
    <path id="Path_160" data-name="Path 160" d="M316.555,861.785a.349.349,0,0,0-.278.116.378.378,0,0,0-.113.277.413.413,0,0,0,.113.284.379.379,0,0,0,.278.109.36.36,0,0,0,.272-.112.382.382,0,0,0,.121-.281.415.415,0,0,0-.393-.393" transform="translate(30.681 16.483)" fill="#fff"/>
    <path id="Path_161" data-name="Path 161" d="M315.7,861.785a.365.365,0,0,0-.28.119.369.369,0,0,0-.113.274.417.417,0,0,0,.115.284.4.4,0,0,0,.55,0,.382.382,0,0,0,.121-.281.359.359,0,0,0-.119-.271.34.34,0,0,0-.274-.122" transform="translate(30.244 16.483)" fill="#fff"/>
    <path id="Path_162" data-name="Path 162" d="M320.637,856.661a.347.347,0,0,0-.278.116.375.375,0,0,0-.115.277.436.436,0,0,0,.115.286.381.381,0,0,0,.278.106.372.372,0,0,0,.272-.11.388.388,0,0,0,.121-.281.333.333,0,0,0-.118-.269.365.365,0,0,0-.275-.124" transform="translate(32.767 13.863)" fill="#fff"/>
    <path id="Path_163" data-name="Path 163" d="M344.211,864.12h0a2.177,2.177,0,0,1-2.879,0,1.862,1.862,0,0,1-.617-1.372,1.837,1.837,0,0,1,.606-1.393,2.06,2.06,0,0,1,1.446-.564,2.094,2.094,0,0,1,1.454.564,1.822,1.822,0,0,1,.606,1.392,1.862,1.862,0,0,1-.617,1.374m-26.954,0h0a2.177,2.177,0,0,1-2.879,0,1.87,1.87,0,0,1-.011-2.766,2.056,2.056,0,0,1,1.445-.564,2.092,2.092,0,0,1,1.456.564,1.82,1.82,0,0,1,.606,1.392,1.864,1.864,0,0,1-.617,1.374m30.851-.853a1.554,1.554,0,0,0,.284-.914v-6.216h-.633v6.1a.956.956,0,0,1-.206.57,1.2,1.2,0,0,1-.824.382c-.141.014-.434.02-.925.02h-.366l.014-.086a2.644,2.644,0,0,0,.027-.381,2.416,2.416,0,0,0-.8-1.826,2.822,2.822,0,0,0-3.815,0,2.43,2.43,0,0,0-.8,1.826,2.524,2.524,0,0,0,.027.381l.014.086h-6.227l.092-.121a2.842,2.842,0,0,0,.559-1.86,2.562,2.562,0,0,0-.713-1.782,2.083,2.083,0,0,0-1.514-.609H329.5v.661h2.77a1.577,1.577,0,0,1,1.111.422,1.856,1.856,0,0,1,.5,1.974,1.915,1.915,0,0,1-.5.913,1.414,1.414,0,0,1-.987.4H326.42a1.306,1.306,0,0,1-.951-.271.977.977,0,0,1-.281-.739v-3.277h-.642V862.2a1.06,1.06,0,0,1-.277.748,1.523,1.523,0,0,1-1.06.261h-4.724l.012-.086a2.629,2.629,0,0,0,.027-.381,2.406,2.406,0,0,0-.8-1.826,2.73,2.73,0,0,0-1.916-.742,2.7,2.7,0,0,0-1.9.742,2.424,2.424,0,0,0-.8,1.826,2.568,2.568,0,0,0,.027.381l.014.086H299.6v-7.075h-.633v7.651h14.384l.02.041a2.426,2.426,0,0,0,.547.724,2.7,2.7,0,0,0,1.9.745,2.78,2.78,0,0,0,1.918-.745,2.459,2.459,0,0,0,.546-.724l.02-.041h5.048l.056-.014a1.82,1.82,0,0,0,1.406-.577l.057-.073.059.071a1.846,1.846,0,0,0,1.5.592H340.3l.02.041a2.4,2.4,0,0,0,.547.724,2.7,2.7,0,0,0,1.9.745,2.776,2.776,0,0,0,1.916-.745,2.433,2.433,0,0,0,.546-.724l.021-.041.925,0c.871,0,1.128-.015,1.191-.026a1.04,1.04,0,0,0,.742-.493" transform="translate(21.886 13.595)" fill="#fff"/>
    <rect id="Rectangle_21" data-name="Rectangle 21" width="0.633" height="7.651" transform="translate(371.193 869.731)" fill="#fff"/>
  </g>
</svg>
