<?xml version="1.0" encoding="utf-8"?>
<!-- Generator: Adobe Illustrator 25.4.1, SVG Export Plug-In . SVG Version: 6.00 Build 0)  -->
<svg version="1.1" id="Layer_1" xmlns="http://www.w3.org/2000/svg" xmlns:xlink="http://www.w3.org/1999/xlink" x="0px" y="0px"
	 viewBox="0 0 164.9 70.7" style="enable-background:new 0 0 164.9 70.7;" xml:space="preserve">
<style type="text/css">
	.st0{fill:#FFFFFF;}
</style>
<g id="Group_20" transform="translate(-256.166 -829.552)">
	<path id="Path_100" class="st0" d="M401.6,861.6L401.6,861.6L401.6,861.6L401.6,861.6L401.6,861.6"/>
	<path id="Path_101" class="st0" d="M401.6,861.6L401.6,861.6L401.6,861.6L401.6,861.6L401.6,861.6z"/>
	<path id="Path_102" class="st0" d="M403.7,871.4l-2.1-4.2l0,0l0,0l-2.1,4.2l-10.7,21.5c1.9,1,4.3,0.2,5.2-1.8l7.5-15.2l7.5,15.2
		c1,1.9,3.3,2.7,5.2,1.8c0,0,0,0,0,0L403.7,871.4z"/>
	<path id="Path_103" class="st0" d="M402.9,891l-1.3-3.1l0,0l0,0l-1.3,3.1c0,0.3,0.1,0.5,0.2,0.8l1.1,2.6l1.1-2.6
		C402.8,891.5,402.9,891.3,402.9,891"/>
	<path id="Path_104" class="st0" d="M398.5,873.9l-0.2-0.1l7.9-15.6l0.2,0.1L398.5,873.9z"/>
	<path id="Path_105" class="st0" d="M404.8,873.9l-7.7-15.7l0.2-0.1l7.7,15.6L404.8,873.9z"/>
	<rect id="Rectangle_8" x="401.5" y="870.9" class="st0" width="0.2" height="23.1"/>
	<path id="Path_106" class="st0" d="M392.3,837.6c-0.1-0.2-0.3-0.2-0.5-0.1c0,0,0,0-0.1,0.1c-2.9,3.4-5.8,6.8-8.7,10.2
		c-0.1,0.1-0.1,0.4,0,0.5c0.1,0.1,0.3,0.1,0.4,0c2.1-1.8,4.2-3.6,6.3-5.3c0.1-0.1,0.4-0.1,0.5,0c0,0.1,0.1,0.1,0.1,0.2
		c0.1,1.3,0.3,2.7,0.4,4c0,0.2,0.2,0.3,0.4,0.3c0,0,0.1,0,0.1,0c0.8-0.5,1.7-1,2.5-1.5c0.2-0.1,0.4,0,0.5,0.1c0,0,0,0,0,0.1l0.1,0.3
		l2-2.8C395,841.5,393.6,839.5,392.3,837.6"/>
	<path id="Path_107" class="st0" d="M415,846.5c-3.7-4.4-7.4-8.7-11.1-13c-0.2-0.2-0.4-0.2-0.6,0c0,0-0.1,0.1-0.1,0.1l-6.9,10
		l-2,2.8l-12.1,17.5c-0.1,0.2-0.1,0.5,0.1,0.6c0.2,0.1,0.4,0.1,0.6-0.1l6.8-8c0.2-0.2,0.4-0.2,0.6-0.1l1.8,1.4
		c0.2,0.1,0.5,0.1,0.6-0.1c0,0,0.1-0.1,0.1-0.1l2.7-8c0,0,0-0.1,0-0.1c0.1-0.2,0.4-0.3,0.6-0.1c0.1,0,0.1,0.1,0.1,0.1
		c0.3,0.5,0.6,1,1,1.5c0.1,0.1,0.2,0.2,0.2,0.4c0.1,0.2,0.4,0.3,0.6,0.1c0.1-0.1,0.1-0.1,0.2-0.2c0.1-0.3,0.2-0.5,0.3-0.8
		c0.3-0.9,0.6-1.7,0.9-2.6c0.4-1.2,0.8-2.4,1.3-3.6c0.1-0.2,0.3-0.3,0.5-0.3c0,0,0.1,0,0.1,0l3.2,2c0.2,0.1,0.5,0.1,0.6-0.1
		c0-0.1,0.1-0.1,0.1-0.2c0.2-1.7,0.3-3.4,0.5-5.1c0-0.2,0.2-0.4,0.5-0.4c0.1,0,0.2,0,0.2,0.1l8,6.8c0.2,0.2,0.5,0.1,0.6,0
		C415.1,846.9,415.1,846.7,415,846.5"/>
	<path id="Path_108" class="st0" d="M401.6,900.3c-10.7,0-19.5-8.2-19.5-18.3v-34.1c0-10.1,8.7-18.3,19.5-18.3s19.5,8.2,19.5,18.3
		V882C421.1,892.1,412.4,900.3,401.6,900.3 M401.6,830.8c-10,0-18.2,7.7-18.2,17.1V882c0,9.4,8.2,17.1,18.2,17.1s18.2-7.7,18.2-17.1
		v-34.1C419.8,838.4,411.7,830.8,401.6,830.8"/>
	<path id="Path_109" class="st0" d="M401.3,855c-0.1,0.1-0.1,0.3,0,0.4c0.1,0.1,0.3,0.1,0.4,0c0,0,0,0,0.1,0
		c0.1-0.1,0.1-0.1,0.2-0.2c0.3-0.3,0.6-0.5,0.9-0.8c0.1-0.1,0.2-0.2,0.3-0.3c0.4-0.3,0.8-0.7,1.1-1c0.1-0.1,0.1-0.3,0-0.4
		c-0.1-0.1-0.1-0.1-0.2-0.1l-1.2,0c-0.2,0-0.3-0.1-0.3-0.3c0-0.1,0-0.1,0.1-0.2c1.3-1.5,2.6-2.9,3.8-4.4c0.1-0.1,0.1-0.3,0-0.4
		c-0.1,0-0.1-0.1-0.2-0.1h0c-0.2,0-0.3-0.1-0.3-0.3c0-0.1,0-0.1,0.1-0.2l2.6-2.8c0.1-0.1,0.3-0.1,0.4,0c0,0,0,0,0,0
		c1,1.1,2.1,2.2,3.1,3.4c0.1,0.1,0.1,0.3,0,0.4c-0.1,0-0.1,0.1-0.2,0.1h-0.6c-0.2,0-0.3,0.1-0.3,0.3c0,0.1,0,0.2,0.1,0.2
		c1.4,1.5,2.8,3,4.2,4.4c0.1,0.1,0.1,0.3,0,0.4c-0.1,0-0.1,0.1-0.2,0.1h-1.3c-0.2,0-0.3,0.1-0.3,0.3c0,0.1,0,0.2,0.1,0.2l7,6.5
		l-5.6-5.8c-0.1-0.1-0.1-0.3,0-0.4c0.1,0,0.1-0.1,0.2-0.1h1.4c0.2,0,0.3-0.1,0.3-0.3c0-0.1,0-0.1-0.1-0.2l-4-4.1l-0.3-0.3
		c-0.1-0.1-0.1-0.3,0-0.4c0.1-0.1,0.1-0.1,0.2-0.1h0.6c0.2,0,0.3-0.1,0.3-0.3c0-0.1,0-0.1-0.1-0.2l-4.9-5.1c-0.1-0.1-0.3-0.1-0.4,0
		l-4.9,5.1c-0.1,0.1-0.1,0.3,0,0.4c0.1,0,0.1,0.1,0.2,0.1h0.6c0.2,0,0.3,0.1,0.3,0.3c0,0.1,0,0.1-0.1,0.2l-0.3,0.3l-2,2.1l-0.3,0.4
		l-0.4,0.4l-0.3,0.3l-1,1c-0.1,0.1-0.1,0.3,0,0.4c0.1,0,0.1,0.1,0.2,0.1h1.4c0.2,0,0.3,0.1,0.3,0.3c0,0.1,0,0.1-0.1,0.2L401.3,855z"
		/>
	<g>
		<path id="Path_110" class="st0" d="M257.2,863.5c0.6-0.6,1.4-0.9,2.2-0.9c0.8,0,1.6,0.3,2.2,0.9c0.5,0.5,0.9,1.1,0.9,1.9v2.4h0.9
			v0.8h-4c-0.8,0-1.6-0.3-2.2-0.8c-0.6-0.5-0.9-1.3-0.9-2.1C256.3,864.8,256.6,864,257.2,863.5 M259.4,863.5c-0.6,0-1.2,0.2-1.6,0.6
			c-0.4,0.4-0.7,0.9-0.7,1.5c0,0.6,0.2,1.1,0.7,1.5c0.4,0.4,1,0.6,1.6,0.6h2.3v-2.1c0-0.6-0.3-1.1-0.7-1.5
			C260.6,863.7,260,863.5,259.4,863.5 M258.6,860.7c0.3,0,0.5,0.2,0.5,0.5c0,0.1-0.1,0.3-0.2,0.4c-0.1,0.1-0.2,0.2-0.4,0.2
			c-0.1,0-0.3-0.1-0.4-0.2c-0.1-0.1-0.1-0.2-0.2-0.4C258.1,860.9,258.3,860.7,258.6,860.7 M260.1,860.7c0.1,0,0.3,0.1,0.4,0.2
			c0.1,0.1,0.2,0.2,0.2,0.4c0,0.1-0.1,0.3-0.2,0.4c-0.1,0.1-0.2,0.2-0.4,0.2c-0.1,0-0.3-0.1-0.4-0.2c-0.1-0.1-0.1-0.2-0.2-0.4
			c0-0.1,0.1-0.3,0.2-0.4C259.8,860.7,259.9,860.6,260.1,860.7"/>
		<path id="Path_111" class="st0" d="M258.6,860.8c-0.1,0-0.2,0-0.3,0.1c-0.1,0.1-0.1,0.2-0.1,0.3c0,0.1,0,0.2,0.1,0.3
			c0.2,0.2,0.4,0.2,0.6,0c0.1-0.1,0.1-0.2,0.1-0.3c0-0.1,0-0.2-0.1-0.3C258.9,860.8,258.7,860.8,258.6,860.8 M258.6,861.8
			c-0.2,0-0.3-0.1-0.4-0.2c-0.1-0.1-0.2-0.3-0.2-0.4c0-0.2,0.1-0.3,0.2-0.4c0.1-0.1,0.3-0.2,0.4-0.2c0.2,0,0.3,0.1,0.4,0.2
			c0.1,0.1,0.2,0.3,0.2,0.4c0,0.2-0.1,0.3-0.2,0.4C259,861.8,258.8,861.8,258.6,861.8 M260.1,860.8c-0.1,0-0.2,0-0.3,0.1
			c-0.1,0.1-0.1,0.2-0.1,0.3c0,0.1,0,0.2,0.1,0.3c0.2,0.2,0.4,0.2,0.6,0c0.1-0.1,0.1-0.2,0.1-0.3c0-0.1,0-0.2-0.1-0.3
			C260.3,860.8,260.2,860.8,260.1,860.8 M260.1,861.8c-0.2,0-0.3-0.1-0.4-0.2c-0.1-0.1-0.2-0.3-0.2-0.4c0-0.2,0.1-0.3,0.2-0.4
			c0.1-0.1,0.3-0.2,0.4-0.2c0.2,0,0.3,0.1,0.4,0.2c0.1,0.1,0.2,0.3,0.2,0.4c0,0.2-0.1,0.3-0.2,0.4
			C260.4,861.8,260.3,861.8,260.1,861.8 M259.4,863.6c-0.6,0-1.1,0.2-1.5,0.6c-0.4,0.4-0.6,0.9-0.6,1.4c0,0.5,0.2,1.1,0.6,1.4
			c0.4,0.4,0.9,0.6,1.5,0.6h2.2v-2c0-0.6-0.2-1.1-0.7-1.4C260.5,863.8,260,863.6,259.4,863.6 M261.8,867.8h-2.4
			c-0.6,0-1.2-0.2-1.6-0.7c-0.4-0.4-0.7-1-0.7-1.6c0-0.6,0.2-1.2,0.7-1.6c0.4-0.4,1-0.7,1.6-0.7c0.6,0,1.2,0.2,1.6,0.7
			c0.5,0.4,0.7,1,0.7,1.6L261.8,867.8z M257.3,863.6c-0.6,0.5-0.9,1.3-0.9,2c0,0.8,0.3,1.5,0.9,2c0.6,0.5,1.3,0.8,2.1,0.8h3.9v-0.6
			h-0.9v-2.5c-0.1-0.7-0.4-1.3-0.9-1.8c-0.6-0.6-1.3-0.9-2.1-0.8C258.6,862.7,257.8,863,257.3,863.6 M263.5,868.7h-4.1
			c-0.8,0-1.7-0.3-2.3-0.9c-0.6-0.6-1-1.4-1-2.2c0-0.8,0.3-1.6,1-2.2c0.6-0.6,1.4-0.9,2.3-0.9c0.8,0,1.7,0.3,2.3,0.9
			c0.6,0.5,0.9,1.2,1,1.9v2.3h0.9L263.5,868.7z"/>
		<rect id="Rectangle_9" x="263" y="867.7" class="st0" width="3.5" height="0.8"/>
		<path id="Path_112" class="st0" d="M263.1,868.5h3.3v-0.6h-3.3V868.5z M266.6,868.7h-3.7v-1h3.7V868.7z"/>
		<rect id="Rectangle_10" x="266.1" y="867.7" class="st0" width="3.5" height="0.8"/>
		<path id="Path_113" class="st0" d="M266.2,868.5h3.3v-0.6h-3.3L266.2,868.5z M269.7,868.7H266v-1h3.7V868.7z"/>
		<rect id="Rectangle_11" x="269.2" y="867.7" class="st0" width="3.5" height="0.8"/>
		<path id="Path_114" class="st0" d="M269.3,868.5h3.3v-0.6h-3.3V868.5z M272.8,868.7h-3.7v-1h3.7V868.7z"/>
		<rect id="Rectangle_12" x="272.3" y="867.7" class="st0" width="3.5" height="0.8"/>
		<path id="Path_115" class="st0" d="M272.4,868.5h3.3v-0.6h-3.3V868.5z M275.9,868.7h-3.7v-1h3.7V868.7z"/>
		<path id="Path_116" class="st0" d="M279.2,864.3c0.8,0,1.6,0.3,2.2,0.9c1.2,1.1,1.3,2.9,0.2,4c-0.1,0.1-0.1,0.1-0.2,0.2
			c-1.2,1.1-3.2,1.1-4.4,0c-0.3-0.2-0.5-0.5-0.6-0.8h-1v-0.8h0.8c-0.1-0.9,0.2-1.9,0.9-2.6C277.6,864.6,278.4,864.3,279.2,864.3
			 M279.2,865.2c-0.6,0-1.1,0.2-1.6,0.6c-0.8,0.8-0.9,2-0.1,2.9c0,0,0.1,0.1,0.1,0.1c0.9,0.8,2.2,0.8,3.1,0c0.4-0.4,0.7-0.9,0.7-1.5
			c0-0.6-0.2-1.1-0.7-1.5C280.4,865.4,279.8,865.2,279.2,865.2"/>
		<path id="Path_117" class="st0" d="M279.2,865.3c-0.6,0-1.1,0.2-1.5,0.6c-0.4,0.4-0.6,0.9-0.6,1.4c0,0.5,0.2,1.1,0.6,1.4
			c0.9,0.8,2.1,0.8,3,0c0.8-0.7,0.9-1.9,0.1-2.7c0,0-0.1-0.1-0.1-0.1C280.3,865.5,279.8,865.3,279.2,865.3 M279.2,869.5
			c-0.6,0-1.2-0.2-1.6-0.6c-0.9-0.8-0.9-2.1-0.2-3c0-0.1,0.1-0.1,0.1-0.1c0.4-0.4,1-0.6,1.6-0.6c0.6,0,1.2,0.2,1.6,0.6
			c0.4,0.4,0.7,1,0.7,1.6c0,0.6-0.3,1.2-0.7,1.6C280.4,869.3,279.8,869.5,279.2,869.5 M275.5,868.5h1l0,0.1c0.2,0.3,0.4,0.6,0.6,0.8
			c1.2,1.1,3.1,1.1,4.3,0c1.1-1,1.2-2.7,0.2-3.9c-0.1-0.1-0.1-0.1-0.2-0.2c-0.6-0.5-1.4-0.8-2.1-0.8c-0.8,0-1.6,0.3-2.1,0.8
			c-0.6,0.5-0.9,1.3-0.9,2c0,0.1,0,0.3,0,0.4l0,0.1h-0.8L275.5,868.5z M279.2,870.4c-0.8,0-1.7-0.3-2.3-0.9
			c-0.3-0.2-0.5-0.5-0.6-0.8h-1v-1h0.7c0-0.1,0-0.2,0-0.3c0-0.8,0.3-1.6,1-2.2c1.3-1.2,3.3-1.2,4.5,0c1.2,1.1,1.3,3,0.2,4.2
			c-0.1,0.1-0.1,0.1-0.2,0.2C280.9,870,280.1,870.4,279.2,870.4"/>
		<path id="Path_118" class="st0" d="M284.1,867.7h0.9v0.8h-1.7v-8.8h0.9V867.7z"/>
		<path id="Path_119" class="st0" d="M283.3,868.5h1.5v-0.6H284v-8h-0.7L283.3,868.5z M285.1,868.7h-1.9v-9h1.1v8h0.9L285.1,868.7z"
			/>
		<path id="Path_120" class="st0" d="M288.4,864.3c0.8,0,1.6,0.3,2.2,0.9c0.7,0.7,1,1.6,0.9,2.6h0.7v0.8h-1
			c-0.2,0.3-0.4,0.6-0.6,0.8c-0.6,0.6-1.4,0.9-2.2,0.9c-0.8,0-1.6-0.3-2.2-0.9c-0.3-0.2-0.5-0.5-0.6-0.8h-1v-0.8h0.8
			c-0.1-0.9,0.2-1.9,0.9-2.6C286.8,864.6,287.6,864.3,288.4,864.3 M288.4,865.2c-0.6,0-1.1,0.2-1.6,0.6c-0.8,0.8-0.9,2-0.1,2.9
			c0,0,0.1,0.1,0.1,0.1c0.9,0.8,2.2,0.8,3.1,0c0.4-0.4,0.7-0.9,0.7-1.5c0-0.6-0.2-1.1-0.7-1.5C289.6,865.4,289,865.2,288.4,865.2"/>
		<path id="Path_121" class="st0" d="M288.4,865.3c-0.6,0-1.1,0.2-1.5,0.6c-0.4,0.4-0.6,0.9-0.6,1.4c0,0.5,0.2,1.1,0.6,1.4
			c0.9,0.8,2.1,0.8,3,0c0.8-0.7,0.9-1.9,0.1-2.7c0,0-0.1-0.1-0.1-0.1C289.5,865.5,289,865.3,288.4,865.3 M288.4,869.5
			c-0.6,0-1.2-0.2-1.6-0.6c-0.9-0.8-0.9-2.1-0.2-3c0-0.1,0.1-0.1,0.1-0.1c0.4-0.4,1-0.6,1.6-0.6c0.6,0,1.2,0.2,1.6,0.6
			c0.5,0.4,0.7,1,0.7,1.6c0,0.6-0.3,1.2-0.7,1.6C289.6,869.3,289,869.5,288.4,869.5 M284.7,868.5h1l0,0.1c0.2,0.3,0.4,0.6,0.6,0.8
			c0.6,0.5,1.3,0.8,2.1,0.8c0.8,0,1.6-0.3,2.2-0.8c0.3-0.2,0.5-0.5,0.6-0.8l0-0.1h1v-0.6h-0.7l0-0.1c0-0.1,0-0.3,0-0.4
			c0-0.8-0.3-1.5-0.9-2c-1.2-1.1-3.1-1.1-4.3,0c-0.6,0.5-0.9,1.3-0.9,2c0,0.1,0,0.3,0,0.4l0,0.1h-0.8L284.7,868.5z M288.4,870.4
			c-0.8,0-1.7-0.3-2.3-0.9c-0.3-0.2-0.5-0.5-0.6-0.8h-1v-1h0.7c0-0.1,0-0.2,0-0.3c0-0.8,0.3-1.6,1-2.2c0.6-0.6,1.4-0.9,2.3-0.9
			c0.8,0,1.7,0.3,2.3,0.9c0.6,0.6,1,1.4,1,2.2c0,0.1,0,0.2,0,0.3h0.7v1h-1c-0.2,0.3-0.4,0.6-0.6,0.8
			C290.1,870,289.3,870.4,288.4,870.4"/>
		<rect id="Rectangle_13" x="291.8" y="867.7" class="st0" width="3.5" height="0.8"/>
		<path id="Path_122" class="st0" d="M291.9,868.5h3.3v-0.6h-3.3V868.5z M295.4,868.7h-3.7v-1h3.7V868.7z"/>
		<rect id="Rectangle_14" x="294.9" y="867.7" class="st0" width="3.5" height="0.8"/>
		<path id="Path_123" class="st0" d="M295,868.5h3.3v-0.6H295V868.5z M298.5,868.7h-3.7v-1h3.7V868.7z"/>
		<path id="Path_124" class="st0" d="M300.5,862.9v3.8c0,0.3,0.1,0.6,0.3,0.8c0.3,0.2,0.7,0.3,1,0.3h1.1v0.8h-1.1
			c-0.7,0-1.3-0.2-1.8-0.7c-0.5,0.5-1.2,0.8-1.9,0.7H298v-0.8h0.2c0.4,0,0.8,0,1.1-0.3c0.2-0.2,0.3-0.5,0.3-0.8v-3.8L300.5,862.9z
			 M299.4,860.7c0.3,0,0.5,0.2,0.5,0.5c0,0.1-0.1,0.3-0.2,0.4c-0.1,0.1-0.2,0.2-0.4,0.2c-0.1,0-0.3-0.1-0.4-0.2
			c-0.1-0.1-0.1-0.2-0.2-0.4C298.8,860.9,299.1,860.7,299.4,860.7 M300.1,859.3c0.3,0,0.5,0.2,0.5,0.5c0,0.1-0.1,0.3-0.2,0.4
			c-0.1,0.1-0.2,0.2-0.4,0.2c-0.1,0-0.3-0.1-0.4-0.2c-0.1-0.1-0.1-0.2-0.2-0.4c0-0.1,0.1-0.3,0.2-0.4
			C299.8,859.4,299.9,859.3,300.1,859.3 M300.8,860.7c0.1,0,0.3,0.1,0.4,0.2c0.1,0.1,0.2,0.2,0.2,0.4c0,0.1-0.1,0.3-0.2,0.4
			c-0.1,0.1-0.2,0.2-0.4,0.2c-0.1,0-0.3-0.1-0.4-0.2c-0.1-0.1-0.1-0.2-0.2-0.4c0-0.1,0.1-0.3,0.2-0.4
			C300.5,860.7,300.7,860.6,300.8,860.7"/>
		<path id="Path_125" class="st0" d="M300.1,859.4c-0.1,0-0.2,0-0.3,0.1c-0.1,0.1-0.1,0.2-0.1,0.3c0,0.1,0,0.2,0.1,0.3
			c0.2,0.2,0.4,0.2,0.6,0c0.1-0.1,0.1-0.2,0.1-0.3c0-0.1,0-0.2-0.1-0.3C300.3,859.5,300.2,859.4,300.1,859.4 M300.1,860.5
			c-0.2,0-0.3-0.1-0.4-0.2c-0.1-0.1-0.2-0.3-0.2-0.4c0-0.2,0.1-0.3,0.2-0.4c0.1-0.1,0.3-0.2,0.4-0.2c0.2,0,0.3,0.1,0.4,0.2
			c0.1,0.1,0.2,0.3,0.2,0.4c0,0.2-0.1,0.3-0.2,0.4C300.4,860.4,300.2,860.5,300.1,860.5 M299.4,860.8c-0.2,0-0.4,0.2-0.4,0.4
			c0,0.1,0,0.2,0.1,0.3c0.2,0.2,0.4,0.2,0.6,0c0.1-0.1,0.1-0.2,0.1-0.3c0-0.1,0-0.2-0.1-0.3C299.6,860.8,299.5,860.8,299.4,860.8
			 M299.4,861.8c-0.2,0-0.3-0.1-0.4-0.2c-0.1-0.1-0.2-0.3-0.2-0.4c0-0.3,0.3-0.6,0.6-0.6c0.3,0,0.6,0.3,0.6,0.6
			c0,0.2-0.1,0.3-0.2,0.4C299.7,861.8,299.5,861.8,299.4,861.8 M300.8,860.8c-0.1,0-0.2,0-0.3,0.1c-0.1,0.1-0.1,0.2-0.1,0.3
			c0,0.1,0,0.2,0.1,0.3c0.2,0.2,0.4,0.2,0.6,0c0.1-0.1,0.1-0.2,0.1-0.3c0-0.1,0-0.2-0.1-0.3C301,860.8,300.9,860.8,300.8,860.8
			 M300.8,861.8c-0.2,0-0.3-0.1-0.4-0.2c-0.1-0.1-0.2-0.3-0.2-0.4c0-0.2,0.1-0.3,0.2-0.4c0.1-0.1,0.3-0.2,0.4-0.2
			c0.2,0,0.3,0.1,0.4,0.2c0.1,0.1,0.2,0.3,0.2,0.4c0,0.2-0.1,0.3-0.2,0.4C301.1,861.8,301,861.8,300.8,861.8 M300.1,867.7
			L300.1,867.7c0.5,0.6,1.1,0.8,1.8,0.8h1v-0.6h-1c-0.4,0-0.8-0.1-1.1-0.3c-0.2-0.2-0.3-0.5-0.3-0.8V863h-0.7v3.7
			c0,0.3-0.1,0.6-0.3,0.9c-0.3,0.2-0.8,0.4-1.2,0.3h-0.1v0.6h0.1c0.7,0.1,1.3-0.2,1.8-0.7L300.1,867.7z M303.1,868.7h-1.2
			c-0.6,0-1.3-0.2-1.8-0.6c-0.5,0.5-1.2,0.7-1.9,0.6h-0.3v-1h0.3c0.4,0,0.7,0,1.1-0.2c0.2-0.2,0.3-0.5,0.3-0.7v-3.9h1.1v3.9
			c0,0.3,0.1,0.5,0.3,0.7c0.3,0.2,0.6,0.3,0.9,0.3h1.2L303.1,868.7z"/>
		<path id="Path_126" class="st0" d="M305.5,859.8v7.1c0,0.4-0.1,0.8-0.3,1.1c-0.2,0.3-0.5,0.5-0.9,0.6c-0.1,0-0.7,0-1.8,0v-0.8
			c0.5,0,0.9,0,1,0c0.3,0,0.6-0.2,0.9-0.4c0.1-0.2,0.2-0.4,0.2-0.6v-7H305.5z"/>
		<path id="Path_127" class="st0" d="M302.6,867.8v0.6c1,0,1.6,0,1.7,0c0.3,0,0.6-0.3,0.8-0.5c0.2-0.3,0.3-0.7,0.3-1v-7h-0.7v6.9
			c0,0.2-0.1,0.5-0.2,0.7c-0.2,0.3-0.6,0.4-0.9,0.4C303.4,867.8,303.1,867.8,302.6,867.8 M302.5,868.7h-0.1v-1h0.1c0.5,0,0.9,0,1,0
			c0.3,0,0.6-0.1,0.8-0.4c0.1-0.2,0.2-0.3,0.2-0.5v-7.1h1.1v7.2c0,0.4-0.1,0.8-0.4,1.1c-0.2,0.3-0.6,0.6-1,0.6
			C304.2,868.6,304,868.7,302.5,868.7"/>
		<rect id="Rectangle_15" x="306.4" y="859.8" class="st0" width="0.9" height="8.8"/>
		<path id="Path_128" class="st0" d="M306.5,868.5h0.7v-8.6h-0.7V868.5z M307.4,868.7h-1.1v-9h1.1V868.7z"/>
		<path id="Path_129" class="st0" d="M311.1,863.5c0.6-0.6,1.4-0.9,2.2-0.9c0.8,0,1.6,0.3,2.2,0.9c0.5,0.5,0.9,1.1,0.9,1.9v2.4h0.9
			v0.8h-4c-0.8,0-1.6-0.3-2.2-0.8c-0.6-0.5-0.9-1.3-0.9-2.1C310.1,864.8,310.5,864,311.1,863.5 M313.3,863.5c-0.6,0-1.2,0.2-1.6,0.6
			c-0.4,0.4-0.7,0.9-0.7,1.5c0,0.6,0.2,1.1,0.7,1.5c0.4,0.4,1,0.6,1.6,0.6h2.3v-2.1c0-0.6-0.3-1.1-0.7-1.5
			C314.4,863.7,313.9,863.5,313.3,863.5 M312.5,860.7c0.3,0,0.5,0.2,0.5,0.5c0,0.1-0.1,0.3-0.2,0.4c-0.1,0.1-0.2,0.2-0.4,0.2
			c-0.1,0-0.3,0-0.4-0.2c-0.1-0.1-0.2-0.2-0.2-0.4C312,860.9,312.2,860.7,312.5,860.7 M313.9,860.7c0.1,0,0.3,0.1,0.4,0.2
			c0.1,0.1,0.2,0.2,0.2,0.4c0,0.1-0.1,0.3-0.2,0.4c-0.1,0.1-0.2,0.2-0.4,0.2c-0.1,0-0.3,0-0.4-0.2c-0.1-0.1-0.2-0.2-0.2-0.4
			c0-0.1,0.1-0.3,0.2-0.4C313.7,860.7,313.8,860.6,313.9,860.7"/>
		<path id="Path_130" class="st0" d="M312.5,860.8c-0.1,0-0.2,0-0.3,0.1c-0.1,0.1-0.1,0.2-0.1,0.3c0,0.1,0,0.2,0.1,0.3
			c0.2,0.2,0.4,0.2,0.6,0c0.1-0.1,0.1-0.2,0.1-0.3c0-0.1,0-0.2-0.1-0.3C312.7,860.8,312.6,860.8,312.5,860.8 M312.5,861.8
			c-0.2,0-0.3-0.1-0.4-0.2c-0.1-0.1-0.2-0.3-0.2-0.4c0-0.2,0.1-0.3,0.2-0.4c0.1-0.1,0.3-0.2,0.4-0.2c0.2,0,0.3,0.1,0.4,0.2
			c0.1,0.1,0.2,0.3,0.2,0.4c0,0.2-0.1,0.3-0.2,0.4C312.8,861.8,312.7,861.8,312.5,861.8 M314,860.8c-0.1,0-0.2,0-0.3,0.1
			c-0.1,0.1-0.1,0.2-0.1,0.3c0,0.1,0,0.2,0.1,0.3c0.2,0.2,0.4,0.2,0.6,0c0.1-0.1,0.1-0.2,0.1-0.3c0-0.1,0-0.2-0.1-0.3
			C314.2,860.8,314.1,860.8,314,860.8 M314,861.8c-0.2,0-0.3-0.1-0.4-0.2c-0.1-0.1-0.2-0.3-0.2-0.4c0-0.2,0.1-0.3,0.2-0.4
			c0.1-0.1,0.3-0.2,0.4-0.2c0.2,0,0.3,0.1,0.4,0.2c0.1,0.1,0.2,0.3,0.2,0.4c0,0.2-0.1,0.3-0.2,0.4
			C314.3,861.8,314.1,861.8,314,861.8 M313.3,863.6c-0.6,0-1.1,0.2-1.5,0.6c-0.4,0.4-0.6,0.9-0.6,1.4c0,0.5,0.2,1.1,0.6,1.4
			c0.4,0.4,0.9,0.6,1.5,0.6h2.2v-2c0-0.6-0.2-1.1-0.7-1.4C314.4,863.8,313.8,863.6,313.3,863.6 M315.7,867.8h-2.4
			c-0.6,0-1.2-0.2-1.6-0.7c-0.4-0.4-0.7-1-0.7-1.6c0-0.6,0.2-1.2,0.7-1.6c0.4-0.4,1-0.7,1.6-0.7c0.6,0,1.2,0.2,1.6,0.7
			c0.5,0.4,0.7,1,0.7,1.6L315.7,867.8z M311.1,863.6c-0.6,0.5-0.9,1.3-0.9,2c0,0.8,0.3,1.5,0.9,2c0.6,0.5,1.3,0.8,2.1,0.8h3.9v-0.6
			h-0.9v-2.5c-0.1-0.7-0.4-1.3-0.9-1.8c-0.6-0.6-1.3-0.9-2.1-0.8C312.5,862.7,311.7,863,311.1,863.6 M317.4,868.7h-4.1
			c-0.8,0-1.7-0.3-2.3-0.9c-0.6-0.6-1-1.4-1-2.2c0-0.8,0.3-1.6,1-2.2l0,0c0.6-0.6,1.4-0.9,2.3-0.9c0.8,0,1.7,0.3,2.3,0.9
			c0.6,0.5,0.9,1.2,1,1.9v2.3h0.9L317.4,868.7z"/>
		<rect id="Rectangle_16" x="316.9" y="867.7" class="st0" width="3.5" height="0.8"/>
		<path id="Path_131" class="st0" d="M317,868.5h3.3v-0.6H317V868.5z M320.5,868.7h-3.7v-1h3.7V868.7z"/>
		<rect id="Rectangle_17" x="320" y="867.7" class="st0" width="3.5" height="0.8"/>
		<path id="Path_132" class="st0" d="M320.1,868.5h3.3v-0.6h-3.3V868.5z M323.6,868.7h-3.7v-1h3.7V868.7z"/>
		<path id="Path_133" class="st0" d="M326.7,862.9v3.8c0,0.4-0.2,0.8-0.5,1.2c-0.5,0.5-1.2,0.8-1.9,0.7h-1.3v-0.8h1.3
			c0.4,0,0.8,0,1.1-0.3c0.2-0.2,0.3-0.5,0.3-0.8v-3.8L326.7,862.9z M324.6,869.4c0.3,0,0.5,0.2,0.5,0.5c0,0.1-0.1,0.3-0.2,0.4
			c-0.1,0.1-0.2,0.2-0.4,0.2c-0.1,0-0.3-0.1-0.4-0.2c-0.1-0.1-0.1-0.2-0.2-0.4c0-0.1,0.1-0.3,0.2-0.4
			C324.3,869.4,324.5,869.4,324.6,869.4 M326.1,869.4c0.1,0,0.3,0.1,0.4,0.2c0.1,0.1,0.2,0.2,0.2,0.4c0,0.1-0.1,0.3-0.2,0.4
			c-0.1,0.1-0.2,0.2-0.4,0.2c-0.1,0-0.3-0.1-0.4-0.2c-0.1-0.1-0.1-0.2-0.1-0.4C325.5,869.6,325.8,869.4,326.1,869.4"/>
		<path id="Path_134" class="st0" d="M323.2,868.5h1.2c0.7,0.1,1.3-0.2,1.8-0.7c0.3-0.3,0.4-0.7,0.4-1.1V863h-0.7v3.7
			c0,0.3-0.1,0.6-0.3,0.9c-0.3,0.2-0.8,0.4-1.2,0.3h-1.2L323.2,868.5z M324.4,868.7H323v-1h1.4c0.4,0,0.7,0,1.1-0.2
			c0.2-0.2,0.3-0.5,0.2-0.7v-3.9h1.1v3.9c0,0.5-0.2,0.9-0.5,1.2C325.8,868.4,325.1,868.7,324.4,868.7 M324.6,869.5
			c-0.1,0-0.2,0-0.3,0.1c-0.1,0.1-0.1,0.2-0.1,0.3c0,0.1,0,0.2,0.1,0.3c0.2,0.2,0.4,0.2,0.6,0c0.1-0.1,0.1-0.2,0.1-0.3
			c0-0.1,0-0.2-0.1-0.3C324.8,869.5,324.7,869.5,324.6,869.5 M324.6,870.5c-0.2,0-0.3-0.1-0.4-0.2c-0.1-0.1-0.2-0.3-0.2-0.4
			c0-0.2,0.1-0.3,0.2-0.4c0.1-0.1,0.3-0.2,0.4-0.2c0.2,0,0.3,0.1,0.4,0.2c0.1,0.1,0.2,0.3,0.2,0.4c0,0.2-0.1,0.3-0.2,0.4
			C324.9,870.5,324.8,870.5,324.6,870.5 M326.1,869.5c-0.2,0-0.4,0.2-0.4,0.4c0,0.1,0,0.2,0.1,0.3c0.2,0.2,0.4,0.2,0.6,0
			c0.1-0.1,0.1-0.2,0.1-0.3c0-0.1,0-0.2-0.1-0.3C326.3,869.5,326.2,869.5,326.1,869.5 M326.1,870.5c-0.2,0-0.3-0.1-0.4-0.2
			c-0.1-0.1-0.2-0.3-0.2-0.4c0-0.3,0.3-0.6,0.6-0.6c0.2,0,0.3,0.1,0.4,0.2c0.1,0.1,0.2,0.3,0.2,0.4c0,0.2-0.1,0.3-0.2,0.4
			C326.4,870.5,326.2,870.5,326.1,870.5"/>
		<path id="Path_135" class="st0" d="M330.4,867.7h0.7v0.8h-0.7v0.2c0,0.3-0.1,0.7-0.3,1c-0.3,0.4-0.7,0.7-1.2,0.7
			c-0.5,0.1-1.1,0.1-1.6,0.1v-0.8c0,0,0.1,0,0.1,0s0.1,0,0.2,0h0.3c0.3,0,0.7-0.1,1-0.3c0.3-0.2,0.5-0.5,0.5-0.8v-5.8h0.9
			L330.4,867.7z"/>
		<path id="Path_136" class="st0" d="M327.4,869.8v0.6c0.5,0,1,0,1.5-0.1c0.4,0,0.8-0.3,1.1-0.7c0.2-0.3,0.3-0.6,0.3-0.9v-0.3h0.7
			v-0.6h-0.7v-4.9h-0.7v5.7c0,0.4-0.2,0.7-0.5,0.9c-0.3,0.2-0.7,0.3-1,0.3h-0.3C327.6,869.8,327.5,869.8,327.4,869.8L327.4,869.8
			 M327.3,870.6h-0.1v-1h0.1c0,0,0.1,0,0.1,0s0.1,0,0.2,0h0.3c0.3,0,0.6-0.1,0.9-0.2c0.3-0.1,0.4-0.4,0.4-0.7v-5.9h1.1v4.9h0.7v1
			h-0.7v0.1c0,0.4-0.1,0.7-0.3,1c-0.3,0.4-0.7,0.7-1.2,0.8C328.4,870.6,327.9,870.6,327.3,870.6"/>
		<path id="Path_137" class="st0" d="M334.4,862.6c0.8,0,1.6,0.3,2.2,0.9c0.6,0.5,0.9,1.3,0.9,2.1c0,0.8-0.3,1.6-0.9,2.1
			c-0.6,0.5-1.4,0.8-2.2,0.8h-3.8v-0.8h1.6c-0.6-0.5-0.9-1.3-0.9-2.1c0-0.8,0.3-1.6,0.9-2.1C332.8,862.9,333.6,862.6,334.4,862.6
			 M334.4,863.5c-0.6,0-1.2,0.2-1.6,0.6c-0.8,0.8-0.9,2.1-0.1,2.9c0,0,0.1,0.1,0.1,0.1c0.9,0.8,2.2,0.8,3.1,0
			c0.4-0.4,0.7-0.9,0.7-1.5c0-0.6-0.2-1.1-0.7-1.5C335.6,863.7,335,863.5,334.4,863.5 M333.7,860.7c0.1,0,0.3,0.1,0.4,0.2
			c0.1,0.1,0.2,0.2,0.2,0.4c0,0.1-0.1,0.3-0.2,0.4c-0.1,0.1-0.2,0.2-0.4,0.2c-0.1,0-0.3-0.1-0.4-0.2c-0.1-0.1-0.1-0.2-0.2-0.4
			c0-0.1,0.1-0.3,0.2-0.4C333.4,860.7,333.5,860.6,333.7,860.7 M335.1,860.7c0.3,0,0.5,0.2,0.5,0.5c0,0.1-0.1,0.3-0.2,0.4
			c-0.1,0.1-0.2,0.2-0.4,0.2c-0.1,0-0.3-0.1-0.4-0.2c-0.1-0.1-0.1-0.2-0.2-0.4C334.6,860.9,334.9,860.7,335.1,860.7"/>
		<path id="Path_138" class="st0" d="M333.7,860.8c-0.1,0-0.2,0-0.3,0.1c-0.1,0.1-0.1,0.2-0.1,0.3c0,0.1,0,0.2,0.1,0.3
			c0.2,0.2,0.4,0.2,0.6,0c0.1-0.1,0.1-0.2,0.1-0.3c0-0.1,0-0.2-0.1-0.3C333.9,860.8,333.8,860.8,333.7,860.8 M333.7,861.8
			c-0.2,0-0.3-0.1-0.4-0.2c-0.1-0.1-0.2-0.3-0.2-0.4c0-0.2,0.1-0.3,0.2-0.4c0.1-0.1,0.3-0.2,0.4-0.2c0.2,0,0.3,0.1,0.4,0.2
			c0.1,0.1,0.2,0.3,0.2,0.4c0,0.2-0.1,0.3-0.2,0.4C334,861.8,333.9,861.8,333.7,861.8 M335.2,860.8c-0.2,0-0.4,0.2-0.4,0.4
			c0,0.1,0,0.2,0.1,0.3c0.1,0.1,0.2,0.1,0.3,0.1c0.1,0,0.2,0,0.3-0.1c0.1-0.1,0.1-0.2,0.1-0.3c0-0.1,0-0.2-0.1-0.3
			C335.4,860.8,335.3,860.8,335.2,860.8 M335.1,861.8c-0.2,0-0.3-0.1-0.4-0.2c-0.1-0.1-0.2-0.3-0.2-0.4c0-0.3,0.3-0.6,0.6-0.6
			c0.2,0,0.3,0.1,0.4,0.2c0.1,0.1,0.2,0.3,0.2,0.4c0,0.2-0.1,0.3-0.2,0.4C335.5,861.8,335.3,861.8,335.1,861.8 M334.4,863.6
			c-0.6,0-1.1,0.2-1.5,0.6c-0.8,0.7-0.8,1.9-0.1,2.7c0,0,0.1,0.1,0.1,0.1c0.9,0.8,2.2,0.8,3,0c0.4-0.4,0.6-0.9,0.6-1.4
			c0-0.5-0.2-1.1-0.6-1.4C335.6,863.8,335,863.6,334.4,863.6 M334.5,867.8c-0.6,0-1.2-0.2-1.6-0.6c-0.9-0.8-0.9-2.1-0.1-3
			c0,0,0.1-0.1,0.1-0.1c0.9-0.9,2.4-0.9,3.3,0c0.5,0.4,0.7,1,0.7,1.6c0,0.6-0.3,1.2-0.7,1.6C335.6,867.6,335.1,867.9,334.5,867.8
			 M330.7,868.5h3.7c0.8,0,1.6-0.3,2.2-0.8c0.6-0.5,0.9-1.3,0.9-2c0-0.8-0.3-1.5-0.9-2c-1.2-1.1-3.1-1.1-4.3,0
			c-0.6,0.5-0.9,1.3-0.9,2c0,0.8,0.3,1.5,0.9,2l0.2,0.2h-1.8L330.7,868.5z M334.4,868.7h-3.9v-1h1.5c-0.5-0.5-0.8-1.3-0.8-2
			c0-0.8,0.3-1.6,1-2.2c1.3-1.2,3.3-1.2,4.6,0c0.6,0.6,1,1.4,1,2.2c0,0.8-0.3,1.6-1,2.2C336.1,868.4,335.3,868.7,334.4,868.7"/>
		<path id="Path_139" class="st0" d="M341.4,863.5c0.6-0.6,1.4-0.9,2.2-0.9c0.8,0,1.6,0.3,2.2,0.9c0.5,0.5,0.9,1.1,0.9,1.9v2.4h0.9
			v0.8h-4c-0.8,0-1.6-0.3-2.2-0.8c-0.6-0.5-0.9-1.3-0.9-2.1C340.5,864.8,340.8,864,341.4,863.5 M343.6,863.5c-0.6,0-1.2,0.2-1.6,0.6
			c-0.4,0.4-0.7,0.9-0.7,1.5c0,0.6,0.2,1.1,0.7,1.5c0.4,0.4,1,0.6,1.6,0.6h2.3v-2.1c0-0.6-0.3-1.1-0.7-1.5
			C344.8,863.7,344.2,863.5,343.6,863.5 M342.8,860.7c0.3,0,0.5,0.2,0.5,0.5c0,0.1-0.1,0.3-0.2,0.4c-0.1,0.1-0.2,0.2-0.4,0.2
			c-0.1,0-0.3-0.1-0.4-0.2c-0.1-0.1-0.1-0.2-0.1-0.4C342.3,860.9,342.5,860.7,342.8,860.7 M344.3,860.7c0.1,0,0.3,0.1,0.4,0.2
			c0.1,0.1,0.2,0.2,0.2,0.4c0,0.1-0.1,0.3-0.2,0.4c-0.1,0.1-0.2,0.2-0.4,0.2c-0.1,0-0.3-0.1-0.4-0.2c-0.1-0.1-0.1-0.2-0.2-0.4
			c0-0.1,0.1-0.3,0.2-0.4C344,860.7,344.1,860.6,344.3,860.7"/>
		<path id="Path_140" class="st0" d="M342.8,860.8c-0.1,0-0.2,0-0.3,0.1c-0.1,0.1-0.1,0.2-0.1,0.3c0,0.1,0,0.2,0.1,0.3
			c0.1,0.1,0.2,0.1,0.3,0.1c0.1,0,0.2,0,0.3-0.1c0.1-0.1,0.1-0.2,0.1-0.3c0-0.1,0-0.2-0.1-0.3C343.1,860.8,342.9,860.8,342.8,860.8
			 M342.8,861.8c-0.2,0-0.3-0.1-0.4-0.2c-0.1-0.1-0.2-0.3-0.2-0.4c0-0.2,0.1-0.3,0.2-0.4c0.1-0.1,0.3-0.2,0.4-0.2
			c0.2,0,0.3,0.1,0.4,0.2c0.1,0.1,0.2,0.3,0.2,0.4c0,0.2-0.1,0.3-0.2,0.4C343.2,861.8,343,861.8,342.8,861.8 M344.3,860.8
			c-0.1,0-0.2,0-0.3,0.1c-0.1,0.1-0.1,0.2-0.1,0.3c0,0.1,0,0.2,0.1,0.3c0.2,0.2,0.4,0.2,0.6,0c0.1-0.1,0.1-0.2,0.1-0.3
			c0-0.1,0-0.2-0.1-0.3C344.5,860.8,344.4,860.8,344.3,860.8 M344.3,861.8c-0.2,0-0.3-0.1-0.4-0.2c-0.1-0.1-0.2-0.3-0.2-0.4
			c0-0.2,0.1-0.3,0.2-0.4c0.1-0.1,0.3-0.2,0.4-0.2c0.2,0,0.3,0.1,0.4,0.2c0.1,0.1,0.2,0.3,0.2,0.4c0,0.2-0.1,0.3-0.2,0.4
			C344.6,861.8,344.5,861.8,344.3,861.8 M343.6,863.6c-0.6,0-1.1,0.2-1.5,0.6c-0.4,0.4-0.6,0.9-0.6,1.4c0,0.5,0.2,1.1,0.6,1.4
			c0.4,0.4,0.9,0.6,1.5,0.6h2.2v-2c0-0.6-0.2-1.1-0.7-1.4C344.7,863.8,344.2,863.6,343.6,863.6 M346,867.8h-2.4
			c-0.6,0-1.2-0.2-1.6-0.7c-0.4-0.4-0.7-1-0.7-1.6c0-0.6,0.2-1.2,0.7-1.6c0.4-0.4,1-0.7,1.6-0.7c0.6,0,1.2,0.2,1.6,0.7
			c0.5,0.4,0.7,1,0.7,1.6V867.8z M341.5,863.6c-0.6,0.5-0.9,1.3-0.9,2c0,0.8,0.3,1.5,0.9,2c0.6,0.5,1.3,0.8,2.1,0.8h3.9v-0.6h-0.9
			v-2.5c-0.1-0.7-0.4-1.3-0.9-1.8C344.6,862.4,342.7,862.4,341.5,863.6 M347.7,868.7h-4.1c-0.8,0-1.7-0.3-2.3-0.9
			c-0.6-0.6-1-1.4-1-2.2c0-0.8,0.3-1.6,1-2.2c1.3-1.2,3.3-1.2,4.6,0c0.6,0.5,0.9,1.2,1,1.9v2.3h0.9L347.7,868.7z"/>
		<rect id="Rectangle_18" x="347.2" y="867.7" class="st0" width="3.5" height="0.8"/>
		<path id="Path_141" class="st0" d="M347.3,868.5h3.3v-0.6h-3.3V868.5z M350.8,868.7h-3.7v-1h3.7V868.7z"/>
		<rect id="Rectangle_19" x="350.3" y="867.7" class="st0" width="3.5" height="0.8"/>
		<path id="Path_142" class="st0" d="M350.4,868.5h3.3v-0.6h-3.3V868.5z M353.9,868.7h-3.7v-1h3.7V868.7z"/>
		<path id="Path_143" class="st0" d="M358.5,860.7h-2.9c-0.2,0-0.4,0.1-0.5,0.2c-0.1,0.1-0.2,0.3-0.2,0.5c-0.1,0.8,0,1.5,0.1,2.2
			c0.1,0.1,0.3,0.2,0.5,0.2h2.4c0.4,0,0.9,0.1,1.2,0.4c0.3,0.3,0.4,0.6,0.4,0.9c0,0.5,0.1,1,0.1,1.7c0,0.5-0.2,1-0.5,1.3
			c-0.4,0.3-0.8,0.4-1.3,0.4h-4.5v-0.8h4.5c0.5,0,0.8-0.4,0.8-0.9c0,0,0,0,0,0c0.1-0.6,0-1.3-0.2-1.9c-0.2-0.2-0.4-0.2-0.6-0.2h-2.3
			c-0.6,0-1.1-0.3-1.4-0.8c-0.1-0.9-0.2-1.7-0.1-2.6c0-0.9,0.7-1.6,1.6-1.6c0,0,0,0,0,0h2.9L358.5,860.7z"/>
		<path id="Path_144" class="st0" d="M353.5,868.5h4.4c0.4,0,0.9-0.1,1.2-0.3c0.3-0.3,0.5-0.8,0.5-1.3c0-0.6,0-1.2-0.1-1.7
			c0-0.3-0.2-0.6-0.4-0.9c-0.3-0.3-0.7-0.4-1.1-0.4h-2.4c-0.2,0-0.4-0.1-0.6-0.2c-0.1-0.1-0.1-0.1-0.1-2.3c0-0.2,0.1-0.4,0.2-0.5
			c0.1-0.1,0.3-0.2,0.5-0.2h2.8v-0.7h-2.8c-0.8,0-1.5,0.6-1.5,1.4c0,0,0,0,0,0c-0.1,0.8,0,1.7,0.1,2.5c0.3,0.5,0.7,0.8,1.3,0.7h2.3
			c0.2,0,0.5,0.1,0.7,0.3c0.1,0.1,0.2,0.4,0.2,2c0,0.3-0.1,0.5-0.3,0.7c-0.2,0.2-0.4,0.3-0.6,0.3h-4.4L353.5,868.5z M357.9,868.7
			h-4.6v-1h4.6c0.4,0,0.7-0.4,0.7-0.8c0,0,0,0,0,0c0-1.6-0.1-1.8-0.1-1.9c-0.1-0.1-0.3-0.2-0.5-0.2h-2.3c-0.6,0-1.2-0.3-1.5-0.8
			c-0.2-0.9-0.2-1.8-0.2-2.6c0-0.9,0.7-1.7,1.7-1.7c0,0,0,0,0,0h3v1.1h-3c-0.2,0-0.3,0.1-0.4,0.2c-0.1,0.1-0.2,0.2-0.2,0.4
			c-0.1,0.7,0,1.5,0.1,2.2c0.1,0.1,0.3,0.2,0.4,0.2h2.4c0.5,0,0.9,0.2,1.3,0.5c0.3,0.3,0.4,0.6,0.5,1c0,0.5,0.1,1.1,0.1,1.7
			c0,0.5-0.2,1-0.5,1.4C358.8,868.6,358.4,868.7,357.9,868.7"/>
		<path id="Path_145" class="st0" d="M363.4,867.7h0.7v0.8h-0.7v0.2c0,0.3-0.1,0.7-0.3,1c-0.3,0.4-0.7,0.7-1.2,0.7
			c-0.2,0,0.2,0.1-0.6,0.1l-1-0.8c0,0,0.1,0,0.1,0s0.1,0,0.2,0h0.3c0.3,0,0.7-0.1,1-0.3c0.3-0.2,0.5-0.5,0.5-0.8v-5.8h0.9
			L363.4,867.7z"/>
		<path id="Path_146" class="st0" d="M360.4,869.8l1,0.6c0.9,0,0.3,0,0.5-0.1c0.4,0,0.8-0.3,1.1-0.7c0.2-0.3,0.3-0.6,0.3-0.9v-0.3
			h0.7v-0.6h-0.7v-4.9h-0.7v5.7c0,0.4-0.2,0.7-0.5,0.9c-0.3,0.2-0.7,0.3-1,0.3h-0.3C360.6,869.8,360.5,869.8,360.4,869.8
			L360.4,869.8 M361.3,870.6h-0.1l-1-1h0.1c0,0,0.1,0,0.1,0s0.1,0,0.2,0h0.3c0.3,0,0.6-0.1,0.9-0.2c0.3-0.1,0.4-0.4,0.4-0.7v-5.9
			h1.1v4.9h0.7v1h-0.7v0.1c0,0.4-0.1,0.7-0.3,1c-0.3,0.4-0.7,0.7-1.2,0.8C361.7,870.6,362.2,870.6,361.3,870.6"/>
		<path id="Path_147" class="st0" d="M371.7,862.8v3.8c0,0.5-0.2,1-0.6,1.4c-0.4,0.4-0.9,0.6-1.4,0.6c-0.6-0.8-1.8-1-2.7-0.3
			c-0.1,0.1-0.2,0.2-0.3,0.3c-0.5,0-1-0.2-1.4-0.6l-0.1-0.1c-0.3,0.4-0.8,0.7-1.4,0.7h-0.3v-0.8h0.3c0.3,0,0.5-0.1,0.7-0.3
			c0.2-0.2,0.3-0.4,0.3-0.7v-3.9h0.9v3.2c0,0.4,0,0.8,0.1,1.2c0.1,0.4,0.5,0.6,0.9,0.6c0.3,0,0.6-0.1,0.8-0.3
			c0.2-0.2,0.3-0.5,0.3-0.8v-3.8h0.9v3.8c0,0.3,0.1,0.6,0.3,0.8c0.4,0.4,1.1,0.4,1.5,0c0,0,0,0,0,0c0.2-0.2,0.3-0.5,0.3-0.8v-3.8
			L371.7,862.8z M367.6,860.7c0.1,0,0.3,0.1,0.4,0.2c0.1,0.1,0.2,0.2,0.2,0.4c0,0.1-0.1,0.3-0.2,0.4c-0.1,0.1-0.2,0.2-0.4,0.2
			c-0.1,0-0.3-0.1-0.4-0.2c-0.1-0.1-0.1-0.2-0.1-0.4c0-0.1,0.1-0.3,0.1-0.4C367.3,860.7,367.4,860.6,367.6,860.7 M368.3,859.3
			c0.1,0,0.3,0.1,0.4,0.2c0.1,0.1,0.2,0.2,0.2,0.4c0,0.1-0.1,0.3-0.2,0.4c-0.1,0.1-0.2,0.2-0.4,0.2c-0.1,0-0.3-0.1-0.4-0.2
			c-0.1-0.1-0.2-0.2-0.2-0.4C367.8,859.6,368,859.3,368.3,859.3 M369,860.7c0.3,0,0.5,0.2,0.5,0.5c0,0.1-0.1,0.3-0.2,0.4
			c-0.1,0.1-0.2,0.2-0.4,0.2c-0.1,0-0.3-0.1-0.4-0.2c-0.1-0.1-0.1-0.2-0.2-0.4C368.5,860.9,368.7,860.7,369,860.7"/>
		<path id="Path_148" class="st0" d="M368.3,859.4c-0.2,0-0.4,0.2-0.4,0.4c0,0.1,0,0.2,0.1,0.3c0.2,0.2,0.4,0.2,0.6,0
			c0.1-0.1,0.1-0.2,0.1-0.3c0-0.1,0-0.2-0.1-0.3C368.5,859.5,368.4,859.4,368.3,859.4 M368.3,860.5c-0.2,0-0.3-0.1-0.4-0.2
			c-0.1-0.1-0.2-0.3-0.2-0.4c0-0.3,0.3-0.6,0.6-0.6c0.2,0,0.3,0.1,0.4,0.2c0.1,0.1,0.2,0.3,0.2,0.4c0,0.2-0.1,0.3-0.2,0.4
			C368.6,860.4,368.4,860.5,368.3,860.5 M367.6,860.8c-0.1,0-0.2,0-0.3,0.1c-0.1,0.1-0.1,0.2-0.1,0.3c0,0.1,0,0.2,0.1,0.3
			c0.2,0.2,0.4,0.2,0.6,0c0.1-0.1,0.1-0.2,0.1-0.3c0-0.1,0-0.2-0.1-0.3C367.8,860.8,367.7,860.8,367.6,860.8 M367.6,861.8
			c-0.2,0-0.3-0.1-0.4-0.2c-0.1-0.1-0.2-0.3-0.2-0.4c0-0.2,0.1-0.3,0.2-0.4c0.1-0.1,0.3-0.2,0.4-0.2c0.2,0,0.3,0.1,0.4,0.2
			c0.1,0.1,0.2,0.3,0.2,0.4c0,0.2-0.1,0.3-0.2,0.4C367.9,861.8,367.7,861.8,367.6,861.8 M369,860.8c-0.2,0-0.4,0.2-0.4,0.4
			c0,0.1,0,0.2,0.1,0.3c0.2,0.2,0.4,0.2,0.6,0c0.1-0.1,0.1-0.2,0.1-0.3c0-0.1,0-0.2-0.1-0.3C369.3,860.8,369.1,860.8,369,860.8
			 M369,861.8c-0.2,0-0.3-0.1-0.4-0.2c-0.1-0.1-0.2-0.3-0.2-0.4c0-0.3,0.3-0.6,0.6-0.6c0.2,0,0.3,0.1,0.4,0.2
			c0.1,0.1,0.2,0.3,0.2,0.4c0,0.2-0.1,0.3-0.2,0.4C369.4,861.8,369.2,861.8,369,861.8 M368.3,867.7L368.3,867.7
			c0.4,0.6,1,0.8,1.5,0.8c0.5,0,1-0.2,1.3-0.6c0.4-0.4,0.5-0.8,0.5-1.3v-3.7h-0.7v3.7c0,0.3-0.1,0.6-0.3,0.9c-0.4,0.5-1.2,0.5-1.6,0
			c0,0,0,0,0,0c-0.2-0.2-0.3-0.5-0.3-0.9v-3.7h-0.7v3.7c0,0.3-0.1,0.6-0.3,0.9c-0.2,0.2-0.5,0.4-0.8,0.4c-0.4,0-0.9-0.2-1-0.6
			c-0.1-0.4-0.1-0.8-0.1-1.2v-3.1h-0.7v3.8c0,0.3-0.1,0.6-0.3,0.8c-0.2,0.2-0.5,0.4-0.7,0.4h-0.2v0.6h0.2c0.5,0,1-0.3,1.3-0.7
			l0.1-0.1l0.2,0.2c0.3,0.4,0.8,0.6,1.3,0.5C367.3,868.5,367.9,868.2,368.3,867.7L368.3,867.7z M369.8,868.7c-0.7-0.8-2-0.9-2.8-0.2
			c-0.1,0.1-0.1,0.1-0.2,0.2c-0.6,0-1.1-0.2-1.5-0.6l0,0c-0.3,0.4-0.9,0.6-1.4,0.6h-0.4v-1h0.4c0.2,0,0.5-0.1,0.6-0.3
			c0.2-0.2,0.3-0.4,0.3-0.6v-4h1.1v3.3c0,0.4,0,0.8,0.1,1.1c0.1,0.3,0.5,0.6,0.8,0.5c0.3,0,0.5-0.1,0.7-0.3c0.2-0.2,0.3-0.5,0.3-0.7
			v-3.9h1.1v3.9c0,0.3,0.1,0.5,0.3,0.7c0.4,0.4,1,0.4,1.3,0c0,0,0,0,0,0c0.2-0.2,0.3-0.5,0.3-0.7v-3.9h1.1v3.9
			c0,0.6-0.2,1.1-0.6,1.5C370.8,868.5,370.3,868.7,369.8,868.7"/>
	</g>
</g>
</svg>
