<?xml version="1.0" encoding="utf-8"?>
<!-- Generator: Adobe Illustrator 25.4.1, SVG Export Plug-In . SVG Version: 6.00 Build 0)  -->
<svg version="1.1" id="Layer_1" xmlns="http://www.w3.org/2000/svg" xmlns:xlink="http://www.w3.org/1999/xlink" x="0px" y="0px"
	 viewBox="0 0 182.9 158.7" style="enable-background:new 0 0 182.9 158.7;" xml:space="preserve">
<style type="text/css">
	.st0{fill:#5E8C70;}
</style>
<g id="Group_2034" transform="translate(0 0)">
	<path id="Path_100" class="st0" d="M91.5,50.6L91.5,50.6L91.5,50.6L91.5,50.6L91.5,50.6"/>
	<path id="Path_101" class="st0" d="M91.5,50.6L91.5,50.6L91.5,50.6L91.5,50.6L91.5,50.6z"/>
	<path id="Path_102" class="st0" d="M94.8,66.2l-3.3-6.6l0,0l0,0l-3.3,6.6l-16.9,34c3,1.5,6.7,0.3,8.2-2.8l11.9-24.1l11.9,24.1
		c1.5,3,5.2,4.3,8.2,2.8c0,0,0,0,0,0L94.8,66.2z"/>
	<path id="Path_103" class="st0" d="M93.5,97.2l-2.1-4.9l0,0l0,0l-2.1,4.9c0.1,0.4,0.2,0.8,0.3,1.2l1.8,4.1l1.8-4.1
		C93.3,98.1,93.5,97.6,93.5,97.2"/>
	<path id="Path_104" class="st0" d="M86.5,70.2l-0.3-0.2l12.5-24.8l0.3,0.2L86.5,70.2z"/>
	<path id="Path_105" class="st0" d="M96.4,70.2L84.3,45.5l0.3-0.2l12.1,24.8L96.4,70.2z"/>
	<rect id="Rectangle_8" x="91.3" y="65.4" class="st0" width="0.3" height="36.5"/>
	<path id="Path_106" class="st0" d="M76.7,12.7c-0.2-0.2-0.5-0.3-0.7-0.1c0,0-0.1,0.1-0.1,0.1c-4.6,5.4-9.1,10.8-13.7,16.1
		c-0.2,0.2-0.2,0.6,0.1,0.8c0.2,0.2,0.5,0.2,0.7,0c3.3-2.8,6.6-5.6,9.9-8.4c0.2-0.2,0.6-0.2,0.8,0.1c0.1,0.1,0.1,0.2,0.1,0.3
		c0.2,2.1,0.4,4.2,0.6,6.3c0,0.3,0.3,0.5,0.6,0.5c0.1,0,0.2,0,0.2-0.1c1.3-0.8,2.7-1.6,4-2.4c0.3-0.2,0.6-0.1,0.7,0.2
		c0,0,0,0.1,0,0.1c0,0.1,0.1,0.3,0.1,0.4c1-1.5,2.1-3,3.1-4.5C81,18.9,78.8,15.8,76.7,12.7"/>
	<path id="Path_107" class="st0" d="M112.6,26.8C106.8,19.9,101,13,95.1,6.2c-0.2-0.3-0.7-0.3-1-0.1c0,0-0.1,0.1-0.1,0.1L83.1,22
		c-1,1.5-2.1,3-3.1,4.5C73.6,35.6,67.3,44.8,60.9,54c-0.2,0.3-0.1,0.7,0.2,0.9c0.3,0.2,0.7,0.1,0.9-0.1l10.7-12.6
		c0.2-0.3,0.7-0.3,0.9-0.1l2.8,2.2c0.3,0.2,0.7,0.2,1-0.1c0.1-0.1,0.1-0.1,0.1-0.2l4.2-12.6c0-0.1,0-0.1,0.1-0.1
		c0.2-0.3,0.6-0.4,0.9-0.2c0.1,0.1,0.2,0.1,0.2,0.2c0.5,0.8,1,1.6,1.5,2.4c0.1,0.2,0.2,0.4,0.4,0.6c0.2,0.3,0.6,0.4,0.9,0.2
		c0.1-0.1,0.2-0.2,0.3-0.3c0.1-0.4,0.3-0.8,0.4-1.3c0.5-1.3,1-2.7,1.4-4c0.7-1.9,1.3-3.8,2-5.7c0.1-0.4,0.5-0.5,0.9-0.4
		c0,0,0.1,0,0.1,0.1L96,26c0.3,0.2,0.7,0.1,0.9-0.2c0.1-0.1,0.1-0.2,0.1-0.3c0.3-2.7,0.5-5.4,0.8-8.1c0-0.4,0.4-0.6,0.7-0.6
		c0.1,0,0.3,0.1,0.4,0.2l12.7,10.8c0.3,0.2,0.7,0.2,1-0.1C112.9,27.4,112.9,27,112.6,26.8"/>
	<path id="Path_108" class="st0" d="M91.5,111.9c-17,0-30.8-13-30.8-28.9v-54C60.7,13,74.5,0,91.5,0s30.8,13,30.8,28.9v54
		C122.3,98.9,108.5,111.9,91.5,111.9 M91.5,1.9c-15.9,0-28.8,12.1-28.8,27v54c0,14.9,12.9,27,28.8,27s28.8-12.1,28.8-27v-54
		C120.3,14,107.3,1.9,91.5,1.9"/>
	<path id="Path_109" class="st0" d="M91,40.2c-0.2,0.2-0.2,0.5,0,0.7c0.2,0.2,0.5,0.2,0.6,0c0,0,0.1,0,0.1-0.1
		c0.1-0.1,0.2-0.2,0.3-0.2c0.5-0.4,1-0.9,1.5-1.3c0.2-0.1,0.3-0.3,0.5-0.4c0.6-0.5,1.2-1,1.8-1.6c0.2-0.2,0.2-0.5,0-0.7
		c-0.1-0.1-0.2-0.2-0.3-0.2l-1.9,0c-0.3,0-0.5-0.2-0.5-0.5c0-0.1,0-0.2,0.1-0.3c2-2.3,4.1-4.6,6.1-7c0.2-0.2,0.1-0.5,0-0.7
		c-0.1-0.1-0.2-0.1-0.3-0.1h0c-0.3,0-0.5-0.2-0.5-0.5c0-0.1,0-0.2,0.1-0.3l4.1-4.4c0.2-0.2,0.5-0.2,0.7,0c0,0,0,0,0,0
		c1.7,1.8,3.3,3.6,5,5.3c0.2,0.2,0.2,0.5,0,0.7c-0.1,0.1-0.2,0.1-0.3,0.1h-1c-0.3,0-0.5,0.2-0.5,0.5c0,0.1,0,0.2,0.1,0.3
		c2.2,2.3,4.4,4.7,6.6,7c0.2,0.2,0.2,0.5,0,0.7c-0.1,0.1-0.2,0.1-0.3,0.1h-2.1c-0.3,0-0.5,0.2-0.5,0.5c0,0.1,0.1,0.3,0.2,0.3
		l11.1,10.3l-8.9-9.2c-0.2-0.2-0.2-0.5,0-0.7c0.1-0.1,0.2-0.1,0.3-0.1h2.2c0.3,0,0.5-0.2,0.5-0.5c0-0.1,0-0.2-0.1-0.3l-6.3-6.5
		l-0.5-0.6c-0.2-0.2-0.2-0.5,0-0.7c0.1-0.1,0.2-0.1,0.3-0.1h0.9c0.3,0,0.5-0.2,0.5-0.5c0-0.1,0-0.2-0.1-0.3l-7.8-8
		c-0.2-0.2-0.5-0.2-0.7,0c0,0,0,0,0,0l-7.8,8c-0.2,0.2-0.2,0.5,0,0.7c0.1,0.1,0.2,0.1,0.3,0.1h0.9c0.3,0,0.5,0.2,0.5,0.5
		c0,0.1,0,0.2-0.1,0.3l-0.5,0.6L92,34.6l-0.5,0.6l-0.6,0.6l-0.4,0.4l-1.5,1.6c-0.2,0.2-0.2,0.5,0,0.7c0.1,0.1,0.2,0.1,0.3,0.1h2.2
		c0.3,0,0.5,0.2,0.5,0.5c0,0.1,0,0.2-0.1,0.3L91,40.2z"/>
	<path id="Path_110" class="st0" d="M1.6,147.4c0.9-0.9,2.2-1.4,3.5-1.4c1.3,0,2.6,0.5,3.5,1.4c0.9,0.7,1.4,1.8,1.5,2.9v3.8h1.4v1.3
		H5.1c-1.3,0-2.5-0.5-3.5-1.3c-0.9-0.8-1.5-2.1-1.5-3.3C0.1,149.5,0.7,148.3,1.6,147.4 M5.1,147.4c-0.9,0-1.8,0.3-2.5,1
		c-0.7,0.6-1.1,1.5-1,2.4c0,0.9,0.4,1.8,1,2.4c0.7,0.6,1.6,1,2.5,1h3.6v-3.4c0-0.9-0.4-1.8-1.1-2.4C6.9,147.8,6,147.4,5.1,147.4
		 M3.9,143c0.5,0,0.8,0.4,0.8,0.8c0,0.2-0.1,0.4-0.3,0.6c-0.2,0.2-0.4,0.2-0.6,0.2c-0.2,0-0.4-0.1-0.6-0.2c-0.2-0.2-0.2-0.4-0.2-0.6
		C3.1,143.4,3.4,143,3.9,143 M6.2,143c0.2,0,0.4,0.1,0.6,0.3c0.2,0.1,0.3,0.4,0.3,0.6c0,0.2-0.1,0.4-0.3,0.6
		c-0.2,0.2-0.4,0.2-0.6,0.2c-0.2,0-0.4-0.1-0.6-0.2c-0.2-0.2-0.2-0.4-0.2-0.6c0-0.2,0.1-0.4,0.2-0.6C5.7,143.1,6,143,6.2,143"/>
	<path id="Path_111" class="st0" d="M3.9,143.1c-0.2,0-0.4,0.1-0.5,0.2c-0.1,0.1-0.2,0.3-0.2,0.5c0,0.2,0.1,0.4,0.2,0.5
		c0.3,0.2,0.7,0.2,0.9,0c0.1-0.1,0.2-0.3,0.2-0.5c0-0.2-0.1-0.3-0.2-0.5C4.2,143.2,4.1,143.1,3.9,143.1 M3.9,144.8
		c-0.3,0-0.5-0.1-0.7-0.3c-0.2-0.2-0.3-0.4-0.3-0.7c0-0.3,0.1-0.5,0.3-0.7c0.2-0.2,0.4-0.3,0.7-0.3c0.3,0,0.5,0.1,0.7,0.3
		c0.2,0.2,0.3,0.4,0.3,0.7c0,0.3-0.1,0.5-0.3,0.7C4.4,144.7,4.1,144.8,3.9,144.8 M6.2,143.1c-0.2,0-0.4,0.1-0.5,0.2
		c-0.1,0.1-0.2,0.3-0.2,0.5c0,0.2,0.1,0.4,0.2,0.5c0.3,0.2,0.7,0.2,0.9,0c0.1-0.1,0.2-0.3,0.2-0.5c0-0.2-0.1-0.3-0.2-0.5
		C6.5,143.2,6.4,143.1,6.2,143.1 M6.2,144.8c-0.3,0-0.5-0.1-0.7-0.3c-0.2-0.2-0.3-0.4-0.3-0.7c0-0.3,0.1-0.5,0.3-0.7
		c0.2-0.2,0.4-0.3,0.7-0.3c0.3,0,0.5,0.1,0.7,0.3c0.2,0.2,0.3,0.4,0.3,0.7c0,0.3-0.1,0.5-0.3,0.7C6.7,144.7,6.5,144.8,6.2,144.8
		 M5.1,147.6c-0.9,0-1.7,0.3-2.4,0.9c-0.6,0.6-1,1.4-1,2.3c0,0.9,0.4,1.7,1,2.3c0.6,0.6,1.5,1,2.4,1h3.5v-3.2c0-0.9-0.4-1.7-1.1-2.3
		C6.9,147.9,6,147.6,5.1,147.6 M8.9,154.3H5.1c-1,0-1.9-0.4-2.6-1.1c-0.7-0.6-1.1-1.5-1.1-2.5c0-1,0.4-1.9,1.1-2.5
		c0.7-0.7,1.6-1,2.6-1c1,0,1.9,0.4,2.6,1c0.7,0.6,1.2,1.5,1.2,2.5L8.9,154.3z M1.7,147.5c-0.9,0.8-1.4,2-1.4,3.2
		c0,1.2,0.5,2.4,1.4,3.2c0.9,0.9,2.1,1.3,3.4,1.3h6.2v-1H10v-4c-0.1-1.1-0.6-2.1-1.4-2.8c-0.9-0.9-2.1-1.4-3.4-1.3
		C3.9,146.2,2.6,146.7,1.7,147.5 M11.6,155.6H5.1c-1.3,0-2.6-0.5-3.6-1.4c-1-0.9-1.5-2.1-1.5-3.5c0-1.3,0.5-2.6,1.5-3.5
		c1-0.9,2.3-1.4,3.6-1.4c1.3,0,2.6,0.5,3.6,1.4c0.9,0.8,1.5,1.9,1.5,3v3.7h1.4L11.6,155.6z"/>
	<rect id="Rectangle_9" x="10.8" y="154.2" class="st0" width="5.6" height="1.3"/>
	<path id="Path_112" class="st0" d="M11,155.3h5.3v-1H11L11,155.3z M16.5,155.6h-5.9V154h5.9V155.6z"/>
	<rect id="Rectangle_10" x="15.7" y="154.2" class="st0" width="5.6" height="1.3"/>
	<path id="Path_113" class="st0" d="M15.9,155.3h5.3v-1h-5.3V155.3z M21.4,155.6h-5.9V154h5.9V155.6z"/>
	<rect id="Rectangle_11" x="20.6" y="154.2" class="st0" width="5.6" height="1.3"/>
	<path id="Path_114" class="st0" d="M20.8,155.3H26v-1h-5.3L20.8,155.3z M26.3,155.6h-5.9V154h5.9V155.6z"/>
	<rect id="Rectangle_12" x="25.5" y="154.2" class="st0" width="5.6" height="1.3"/>
	<path id="Path_115" class="st0" d="M25.7,155.3h5.3v-1h-5.3V155.3z M31.2,155.6h-5.9V154h5.9V155.6z"/>
	<path id="Path_116" class="st0" d="M36.5,148.8c1.3,0,2.6,0.5,3.5,1.4c1.8,1.7,2,4.5,0.3,6.4c-0.1,0.1-0.2,0.2-0.3,0.3
		c-2,1.8-5,1.8-7,0c-0.4-0.4-0.8-0.8-1-1.3h-1.6v-1.3h1.2c-0.2-1.5,0.3-3,1.4-4.1C33.9,149.2,35.2,148.7,36.5,148.8 M36.5,150.1
		c-0.9,0-1.8,0.3-2.5,1c-1.3,1.2-1.4,3.2-0.2,4.5c0.1,0.1,0.1,0.1,0.2,0.2c1.4,1.2,3.5,1.2,5,0c0.7-0.6,1.1-1.5,1.1-2.3
		c0-0.9-0.4-1.8-1-2.4C38.3,150.5,37.4,150.1,36.5,150.1"/>
	<path id="Path_117" class="st0" d="M36.5,150.3c-0.9,0-1.7,0.3-2.4,0.9c-0.6,0.6-1,1.4-1,2.3c0,0.9,0.4,1.7,1,2.2
		c1.4,1.2,3.4,1.2,4.7,0c1.2-1.1,1.3-3,0.2-4.3c-0.1-0.1-0.1-0.1-0.2-0.2C38.2,150.6,37.4,150.3,36.5,150.3 M36.5,156.9
		c-1,0-1.9-0.3-2.6-1c-1.4-1.2-1.5-3.4-0.2-4.7c0.1-0.1,0.1-0.2,0.2-0.2c0.7-0.7,1.6-1,2.6-1c1,0,1.9,0.3,2.6,1
		c0.7,0.6,1.1,1.5,1.1,2.5c0,0.9-0.4,1.8-1.1,2.5C38.4,156.6,37.4,156.9,36.5,156.9 M30.6,155.3h1.5l0,0.1c0.2,0.5,0.6,0.9,1,1.3
		c1.9,1.8,4.9,1.8,6.8,0c1.8-1.6,1.9-4.3,0.3-6.1c-0.1-0.1-0.2-0.2-0.3-0.3c-0.9-0.9-2.1-1.3-3.4-1.3c-1.3,0-2.5,0.5-3.4,1.3
		c-0.9,0.8-1.4,2-1.4,3.2c0,0.2,0,0.5,0,0.7l0,0.2h-1.2L30.6,155.3z M36.5,158.3c-1.3,0-2.6-0.5-3.6-1.4c-0.4-0.4-0.7-0.8-1-1.3
		h-1.7V154h1.2c0-0.2,0-0.4,0-0.5c0-1.3,0.5-2.6,1.5-3.5c2-1.9,5.2-1.9,7.2,0c1.9,1.7,2.1,4.7,0.3,6.6c-0.1,0.1-0.2,0.2-0.3,0.3
		C39.1,157.8,37.8,158.3,36.5,158.3"/>
	<path id="Path_118" class="st0" d="M44.2,154.2h1.4v1.3h-2.8v-13.9h1.4L44.2,154.2z"/>
	<path id="Path_119" class="st0" d="M43,155.3h2.4v-1h-1.4v-12.6H43L43,155.3z M45.8,155.6h-3.1v-14.2h1.7V154h1.4L45.8,155.6z"/>
	<path id="Path_120" class="st0" d="M51,148.8c1.3,0,2.6,0.5,3.5,1.4c1.1,1,1.6,2.6,1.4,4.1h1.2v1.3h-1.6c-0.2,0.5-0.6,1-1,1.3
		c-1,0.9-2.2,1.4-3.5,1.4c-1.3,0-2.5-0.5-3.5-1.4c-0.4-0.4-0.8-0.8-1-1.3h-1.6v-1.3h1.2c-0.2-1.5,0.3-3,1.4-4.1
		C48.5,149.2,49.7,148.7,51,148.8 M51,150.1c-0.9,0-1.8,0.3-2.5,1c-1.3,1.2-1.4,3.2-0.2,4.5c0.1,0.1,0.1,0.1,0.2,0.2
		c1.4,1.2,3.5,1.2,5,0c0.7-0.6,1.1-1.5,1.1-2.3c0-0.9-0.4-1.8-1-2.4C52.8,150.5,51.9,150.1,51,150.1"/>
	<path id="Path_121" class="st0" d="M51,150.3c-0.9,0-1.7,0.3-2.4,0.9c-0.6,0.6-1,1.4-1,2.3c0,0.9,0.4,1.7,1,2.2
		c1.4,1.2,3.4,1.2,4.7,0c1.2-1.1,1.3-3,0.2-4.3c-0.1-0.1-0.1-0.1-0.2-0.2C52.7,150.6,51.9,150.3,51,150.3 M51,156.9
		c-1,0-1.9-0.3-2.6-1c-1.4-1.2-1.5-3.4-0.2-4.7c0.1-0.1,0.1-0.2,0.2-0.2c0.7-0.7,1.6-1,2.6-1c1,0,1.9,0.3,2.6,1
		c0.7,0.6,1.1,1.5,1.1,2.5c0,0.9-0.4,1.8-1.1,2.5C52.9,156.6,51.9,156.9,51,156.9 M45.1,155.3h1.5l0,0.1c0.2,0.5,0.6,0.9,1,1.3
		c0.9,0.9,2.1,1.3,3.4,1.3c1.3,0,2.5-0.5,3.4-1.3c0.4-0.4,0.7-0.8,1-1.3l0-0.1h1.5v-1h-1.2l0-0.2c0-0.2,0.1-0.4,0-0.7
		c0-1.2-0.5-2.4-1.4-3.2c-1.9-1.8-4.9-1.8-6.8,0c-0.9,0.8-1.4,2-1.4,3.2c0,0.2,0,0.5,0,0.7l0,0.2h-1.2L45.1,155.3z M51,158.3
		c-1.3,0-2.6-0.5-3.6-1.4c-0.4-0.4-0.7-0.8-1-1.3h-1.7V154h1.2c0-0.2,0-0.4,0-0.5c0-1.3,0.5-2.6,1.5-3.5c1-0.9,2.2-1.4,3.6-1.4
		c1.3,0,2.6,0.5,3.6,1.4c1,0.9,1.5,2.1,1.5,3.5c0,0.2,0,0.4,0,0.5h1.1v1.6h-1.6c-0.3,0.5-0.6,0.9-1,1.3
		C53.6,157.8,52.3,158.3,51,158.3"/>
	<rect id="Rectangle_13" x="56.4" y="154.2" class="st0" width="5.6" height="1.3"/>
	<path id="Path_122" class="st0" d="M56.5,155.3h5.3v-1h-5.3V155.3z M62.1,155.6h-5.9V154h5.9V155.6z"/>
	<rect id="Rectangle_14" x="61.3" y="154.2" class="st0" width="5.6" height="1.3"/>
	<path id="Path_123" class="st0" d="M61.4,155.3h5.3v-1h-5.3V155.3z M67,155.6h-5.9V154H67V155.6z"/>
	<path id="Path_124" class="st0" d="M70.2,146.5v6c0,0.5,0.1,0.9,0.5,1.2c0.5,0.3,1,0.5,1.6,0.4H74v1.3h-1.8c-1,0.1-2.1-0.3-2.8-1.1
		c-0.8,0.8-1.8,1.2-2.9,1.1h-0.3v-1.3h0.3c0.6,0.1,1.3-0.1,1.8-0.4c0.3-0.3,0.5-0.8,0.5-1.2v-6L70.2,146.5z M68.3,143
		c0.5,0,0.8,0.4,0.8,0.8c0,0.2-0.1,0.4-0.3,0.6c-0.2,0.2-0.4,0.2-0.6,0.2c-0.2,0-0.4-0.1-0.6-0.2c-0.2-0.2-0.2-0.4-0.2-0.6
		C67.5,143.3,67.9,143,68.3,143 M69.4,140.9c0.5,0,0.8,0.4,0.8,0.8c0,0.2-0.1,0.4-0.3,0.6c-0.2,0.2-0.4,0.2-0.6,0.2
		c-0.2,0-0.4-0.1-0.6-0.2c-0.2-0.2-0.2-0.4-0.2-0.6c0-0.2,0.1-0.4,0.2-0.6C69,141,69.2,140.9,69.4,140.9 M70.6,143
		c0.2,0,0.4,0.1,0.6,0.3c0.2,0.1,0.3,0.4,0.3,0.6c0,0.2-0.1,0.4-0.3,0.6c-0.2,0.2-0.4,0.2-0.6,0.2c-0.2,0-0.4-0.1-0.6-0.2
		c-0.2-0.2-0.2-0.4-0.2-0.6c0-0.2,0.1-0.4,0.2-0.6C70.2,143.1,70.4,143,70.6,143"/>
	<path id="Path_125" class="st0" d="M69.4,141c-0.2,0-0.4,0.1-0.5,0.2c-0.1,0.1-0.2,0.3-0.2,0.5c0,0.2,0.1,0.4,0.2,0.5
		c0.3,0.2,0.7,0.2,0.9,0c0.1-0.1,0.2-0.3,0.2-0.5c0-0.2-0.1-0.3-0.2-0.5C69.8,141.1,69.6,141,69.4,141 M69.4,142.7
		c-0.3,0-0.5-0.1-0.7-0.3c-0.2-0.2-0.3-0.4-0.3-0.7c0-0.3,0.1-0.5,0.3-0.7c0.2-0.2,0.4-0.3,0.7-0.3c0.3,0,0.5,0.1,0.7,0.3
		c0.2,0.2,0.3,0.4,0.3,0.7c0,0.3-0.1,0.5-0.3,0.7C69.9,142.6,69.7,142.7,69.4,142.7 M68.3,143.1c-0.4,0-0.7,0.3-0.7,0.7
		c0,0.2,0.1,0.4,0.2,0.5c0.3,0.2,0.7,0.2,0.9,0c0.1-0.1,0.2-0.3,0.2-0.5c0-0.2-0.1-0.3-0.2-0.5C68.7,143.2,68.5,143.1,68.3,143.1
		 M68.3,144.8c-0.3,0-0.5-0.1-0.7-0.3c-0.2-0.2-0.3-0.4-0.3-0.7c0-0.5,0.4-1,1-1c0.3,0,0.5,0.1,0.7,0.3c0.2,0.2,0.3,0.4,0.3,0.7
		c0,0.3-0.1,0.5-0.3,0.7C68.8,144.7,68.6,144.8,68.3,144.8 M70.6,143.1c-0.2,0-0.4,0.1-0.5,0.2c-0.1,0.1-0.2,0.3-0.2,0.5
		c0,0.2,0.1,0.4,0.2,0.5c0.3,0.2,0.7,0.2,0.9,0c0.1-0.1,0.2-0.3,0.2-0.5c0-0.2-0.1-0.3-0.2-0.5C71,143.2,70.8,143.1,70.6,143.1
		 M70.6,144.8c-0.3,0-0.5-0.1-0.7-0.3c-0.2-0.2-0.3-0.4-0.3-0.7c0-0.3,0.1-0.5,0.3-0.7c0.2-0.2,0.4-0.3,0.7-0.3
		c0.3,0,0.5,0.1,0.7,0.3c0.2,0.2,0.3,0.4,0.3,0.7c0,0.3-0.1,0.5-0.3,0.7C71.1,144.7,70.9,144.8,70.6,144.8 M69.5,154.1l0.1,0.2
		c0.7,0.7,1.6,1.1,2.6,1.1h1.6v-1h-1.6c-0.6,0.1-1.2-0.1-1.7-0.5c-0.3-0.4-0.5-0.8-0.5-1.3v-5.8h-1.1v5.8c0,0.5-0.2,1-0.5,1.4
		c-0.6,0.4-1.2,0.6-1.9,0.5h-0.2v1h0.2c1.1,0.1,2.1-0.3,2.8-1L69.5,154.1z M74.2,155.6h-1.9c-1,0.1-2-0.3-2.8-1
		c-0.8,0.7-1.9,1.1-2.9,1H66V154h0.5c0.6,0.1,1.2-0.1,1.7-0.4c0.3-0.3,0.4-0.7,0.4-1.1v-6.1h1.7v6.1c0,0.4,0.1,0.8,0.4,1.1
		c0.4,0.3,1,0.5,1.5,0.4h1.9L74.2,155.6z"/>
	<path id="Path_126" class="st0" d="M78.1,141.6v11.2c0,0.6-0.2,1.2-0.5,1.7c-0.3,0.5-0.8,0.8-1.4,0.9c-0.2,0-1.1,0.1-2.8,0v-1.3
		c0.9,0,1.4,0,1.7,0c0.5,0,1-0.2,1.4-0.6c0.2-0.3,0.3-0.6,0.3-0.9v-11H78.1z"/>
	<path id="Path_127" class="st0" d="M73.5,154.3v1c1.6,0,2.5,0,2.6,0c0.5-0.1,1-0.4,1.3-0.9c0.3-0.5,0.5-1,0.5-1.6v-11.1h-1.1v10.9
		c0,0.4-0.1,0.7-0.4,1c-0.4,0.4-0.9,0.7-1.5,0.7C74.7,154.3,74.2,154.3,73.5,154.3 M73.3,155.6h-0.2V154h0.2c0.8,0,1.4,0,1.6,0
		c0.5,0,0.9-0.2,1.3-0.6c0.2-0.2,0.3-0.5,0.3-0.8v-11.2h1.7v11.4c0,0.6-0.2,1.3-0.6,1.8c-0.3,0.5-0.9,0.9-1.5,1
		C76,155.6,75.6,155.6,73.3,155.6"/>
	<rect id="Rectangle_15" x="79.4" y="141.6" class="st0" width="1.4" height="13.9"/>
	<path id="Path_128" class="st0" d="M79.6,155.3h1.1v-13.6h-1.1V155.3z M81,155.6h-1.7v-14.2H81V155.6z"/>
	<path id="Path_129" class="st0" d="M86.8,147.4c0.9-0.9,2.2-1.4,3.5-1.4c1.3,0,2.6,0.5,3.5,1.4c0.9,0.7,1.4,1.8,1.5,2.9v3.8h1.4
		v1.3h-6.4c-1.3,0-2.5-0.5-3.5-1.3c-0.9-0.8-1.5-2.1-1.5-3.3C85.4,149.5,85.9,148.3,86.8,147.4 M90.3,147.4c-0.9,0-1.8,0.3-2.5,1
		c-0.7,0.6-1.1,1.5-1,2.4c0,0.9,0.4,1.8,1,2.4c0.7,0.6,1.6,1,2.5,1h3.6v-3.4c0-0.9-0.4-1.8-1.1-2.4
		C92.2,147.8,91.3,147.4,90.3,147.4 M89.1,143c0.5,0,0.8,0.4,0.8,0.8c0,0.2-0.1,0.4-0.3,0.6c-0.2,0.2-0.4,0.2-0.6,0.2
		c-0.2,0-0.4-0.1-0.6-0.2c-0.2-0.2-0.2-0.4-0.2-0.6C88.3,143.4,88.6,143,89.1,143 M91.4,143c0.2,0,0.4,0.1,0.6,0.3
		c0.2,0.1,0.3,0.4,0.3,0.6c0,0.2-0.1,0.4-0.3,0.6c-0.2,0.2-0.4,0.2-0.6,0.2c-0.2,0-0.4-0.1-0.6-0.2c-0.2-0.2-0.2-0.4-0.2-0.6
		c0-0.2,0.1-0.4,0.2-0.6C91,143.1,91.2,143,91.4,143"/>
	<path id="Path_130" class="st0" d="M89.1,143.1c-0.2,0-0.4,0.1-0.5,0.2c-0.1,0.1-0.2,0.3-0.2,0.5c0,0.2,0.1,0.4,0.2,0.5
		c0.3,0.2,0.7,0.2,0.9,0c0.1-0.1,0.2-0.3,0.2-0.5c0-0.2-0.1-0.3-0.2-0.5C89.5,143.2,89.3,143.1,89.1,143.1 M89.1,144.8
		c-0.3,0-0.5-0.1-0.7-0.3c-0.2-0.2-0.3-0.4-0.3-0.7c0-0.3,0.1-0.5,0.3-0.7c0.2-0.2,0.4-0.3,0.7-0.3c0.3,0,0.5,0.1,0.7,0.3
		c0.2,0.2,0.3,0.4,0.3,0.7c0,0.3-0.1,0.5-0.3,0.7C89.6,144.7,89.4,144.8,89.1,144.8 M91.4,143.1c-0.2,0-0.4,0.1-0.5,0.2
		c-0.1,0.1-0.2,0.3-0.2,0.5c0,0.2,0.1,0.4,0.2,0.5c0.3,0.2,0.7,0.2,0.9,0c0.1-0.1,0.2-0.3,0.2-0.5c0-0.2-0.1-0.3-0.2-0.5
		C91.8,143.2,91.6,143.1,91.4,143.1 M91.4,144.8c-0.3,0-0.5-0.1-0.7-0.3c-0.2-0.2-0.3-0.4-0.3-0.7c0-0.3,0.1-0.5,0.3-0.7
		c0.2-0.2,0.4-0.3,0.7-0.3c0.3,0,0.5,0.1,0.7,0.3c0.2,0.2,0.3,0.4,0.3,0.7c0,0.3-0.1,0.5-0.3,0.7C91.9,144.7,91.7,144.8,91.4,144.8
		 M90.3,147.6c-0.9,0-1.7,0.3-2.4,0.9c-0.6,0.6-1,1.4-1,2.3c0,0.9,0.4,1.7,1,2.3c0.6,0.6,1.5,1,2.4,1h3.5v-3.2
		c0-0.9-0.4-1.7-1.1-2.3C92.1,147.9,91.2,147.6,90.3,147.6 M94.1,154.3h-3.8c-1,0-1.9-0.4-2.6-1.1c-0.7-0.6-1.1-1.5-1.1-2.5
		c0-1,0.4-1.9,1.1-2.5c0.7-0.7,1.6-1,2.6-1c1,0,1.9,0.4,2.6,1c0.7,0.6,1.2,1.5,1.2,2.5V154.3z M86.9,147.5c-0.9,0.8-1.4,2-1.4,3.2
		c0,1.2,0.5,2.4,1.4,3.2c0.9,0.9,2.1,1.3,3.4,1.3h6.2v-1h-1.4v-4c-0.1-1.1-0.6-2.1-1.4-2.8c-0.9-0.9-2.1-1.4-3.4-1.3
		C89.1,146.2,87.9,146.7,86.9,147.5 M96.9,155.6h-6.5c-1.3,0-2.6-0.5-3.6-1.4c-1.9-1.8-2-4.8-0.3-6.7c0.1-0.1,0.2-0.2,0.3-0.3l0,0
		c1-0.9,2.3-1.4,3.6-1.4c1.3,0,2.6,0.5,3.6,1.4c0.9,0.8,1.5,1.9,1.5,3v3.7h1.4L96.9,155.6z"/>
	<rect id="Rectangle_16" x="96" y="154.2" class="st0" width="5.6" height="1.3"/>
	<path id="Path_131" class="st0" d="M96.2,155.3h5.3v-1h-5.3V155.3z M101.8,155.6h-5.9V154h5.9V155.6z"/>
	<rect id="Rectangle_17" x="100.9" y="154.2" class="st0" width="5.6" height="1.3"/>
	<path id="Path_132" class="st0" d="M101.1,155.3h5.3v-1h-5.3V155.3z M106.7,155.6h-5.9V154h5.9V155.6z"/>
	<path id="Path_133" class="st0" d="M111.6,146.5v6c0,0.7-0.3,1.3-0.7,1.8c-0.8,0.8-1.8,1.2-2.9,1.1h-2.1v-1.3h2.1
		c0.6,0.1,1.3-0.1,1.8-0.4c0.3-0.3,0.5-0.8,0.4-1.2v-6H111.6z M108.3,156.8c0.2,0,0.4,0.1,0.6,0.3c0.2,0.1,0.3,0.4,0.3,0.6
		c0,0.2-0.1,0.4-0.3,0.6c-0.2,0.2-0.4,0.2-0.6,0.2c-0.2,0-0.4-0.1-0.6-0.2c-0.2-0.2-0.2-0.4-0.2-0.6c0-0.2,0.1-0.4,0.2-0.6
		C107.8,156.9,108,156.8,108.3,156.8 M110.6,156.8c0.2,0,0.4,0.1,0.6,0.3c0.2,0.1,0.3,0.4,0.3,0.6c0,0.2-0.1,0.4-0.3,0.6
		c-0.2,0.2-0.4,0.2-0.6,0.2c-0.2,0-0.4-0.1-0.6-0.2c-0.2-0.2-0.2-0.4-0.2-0.6C109.7,157.2,110.1,156.8,110.6,156.8"/>
	<path id="Path_134" class="st0" d="M106,155.3h1.9c1.1,0.1,2.1-0.3,2.8-1c0.4-0.5,0.7-1.1,0.7-1.7v-5.8h-1.1v5.8
		c0,0.5-0.2,1-0.5,1.4c-0.6,0.4-1.2,0.6-1.9,0.5H106V155.3z M107.9,155.6h-2.2V154h2.2c0.6,0.1,1.2-0.1,1.7-0.4
		c0.3-0.3,0.4-0.7,0.4-1.1v-6.1h1.7v6.2c0,0.7-0.3,1.4-0.8,1.9C110.2,155.3,109,155.7,107.9,155.6 M108.3,156.9
		c-0.2,0-0.4,0.1-0.5,0.2c-0.1,0.1-0.2,0.3-0.2,0.5c0,0.2,0.1,0.4,0.2,0.5c0.3,0.2,0.7,0.2,0.9,0c0.1-0.1,0.2-0.3,0.2-0.5
		c0-0.2-0.1-0.3-0.2-0.5C108.6,157,108.5,156.9,108.3,156.9 M108.3,158.6c-0.3,0-0.5-0.1-0.7-0.3c-0.2-0.2-0.3-0.4-0.3-0.7
		c0-0.3,0.1-0.5,0.3-0.7c0.2-0.2,0.4-0.3,0.7-0.3c0.3,0,0.5,0.1,0.7,0.3c0.2,0.2,0.3,0.4,0.3,0.7c0,0.3-0.1,0.5-0.3,0.7
		C108.8,158.5,108.5,158.6,108.3,158.6 M110.6,156.9c-0.4,0-0.7,0.3-0.7,0.7c0,0.2,0.1,0.4,0.2,0.5c0.3,0.2,0.7,0.2,0.9,0
		c0.1-0.1,0.2-0.3,0.2-0.5c0-0.2-0.1-0.3-0.2-0.5C110.9,157,110.8,156.9,110.6,156.9 M110.6,158.6c-0.3,0-0.5-0.1-0.7-0.3
		c-0.2-0.2-0.3-0.4-0.3-0.7c0-0.5,0.4-1,1-1c0.3,0,0.5,0.1,0.7,0.3c0.2,0.2,0.3,0.4,0.3,0.7c0,0.3-0.1,0.5-0.3,0.7
		C111.1,158.5,110.8,158.6,110.6,158.6"/>
	<path id="Path_135" class="st0" d="M117.4,154.2h1.1v1.3h-1.1v0.2c0,0.6-0.2,1.1-0.5,1.6c-0.4,0.6-1.1,1.1-1.8,1.1
		c-0.8,0.1-1.7,0.1-2.5,0.1v-1.3c0,0,0.1,0,0.2,0s0.2,0,0.3,0h0.5c0.5,0,1.1-0.1,1.5-0.4c0.5-0.3,0.8-0.8,0.8-1.3v-9.1h1.4
		L117.4,154.2z"/>
	<path id="Path_136" class="st0" d="M112.7,157.4v1c0.8,0,1.6,0,2.3-0.1c0.7-0.1,1.3-0.5,1.7-1.1c0.3-0.5,0.4-1,0.4-1.5v-0.4h1.1v-1
		h-1.1v-7.8h-1.1v9c0,0.6-0.3,1.2-0.9,1.4c-0.5,0.3-1.1,0.4-1.6,0.4h-0.5C113,157.4,112.9,157.4,112.7,157.4L112.7,157.4
		 M112.6,158.7h-0.2v-1.6h0.2c0,0,0.1,0,0.2,0s0.2,0,0.3,0h0.5c0.5,0,1-0.1,1.5-0.4c0.4-0.2,0.7-0.7,0.7-1.2v-9.3h1.7v7.8h1.1v1.6
		h-1.1v0.1c0,0.6-0.2,1.1-0.5,1.6c-0.4,0.7-1.1,1.1-1.9,1.2C114.3,158.7,113.4,158.7,112.6,158.7"/>
	<path id="Path_137" class="st0" d="M123.8,146.1c1.3,0,2.6,0.5,3.5,1.4c1,0.9,1.5,2.1,1.5,3.4c0,1.3-0.5,2.5-1.5,3.4
		c-1,0.8-2.2,1.3-3.5,1.3h-6.1v-1.3h2.5c-0.9-0.8-1.5-2.1-1.4-3.3c0-1.3,0.5-2.5,1.5-3.4C121.3,146.6,122.5,146.1,123.8,146.1
		 M123.8,147.5c-0.9,0-1.8,0.3-2.5,1c-1.3,1.2-1.4,3.2-0.2,4.6c0.1,0.1,0.1,0.1,0.2,0.2c1.4,1.3,3.6,1.3,5,0
		c0.7-0.6,1.1-1.5,1.1-2.4c0-0.9-0.4-1.8-1.1-2.4C125.7,147.8,124.8,147.5,123.8,147.5 M122.6,143c0.2,0,0.4,0.1,0.6,0.3
		c0.2,0.1,0.3,0.4,0.3,0.6c0,0.2-0.1,0.4-0.3,0.6c-0.2,0.2-0.4,0.2-0.6,0.2c-0.2,0-0.4-0.1-0.6-0.2c-0.2-0.2-0.2-0.4-0.2-0.6
		c0-0.2,0.1-0.4,0.2-0.6C122.2,143.1,122.4,143,122.6,143 M124.9,143c0.5,0,0.8,0.4,0.8,0.8c0,0.2-0.1,0.4-0.3,0.6
		c-0.2,0.2-0.4,0.2-0.6,0.2c-0.2,0-0.4-0.1-0.6-0.2c-0.2-0.2-0.2-0.4-0.2-0.6C124.1,143.4,124.5,143,124.9,143"/>
	<path id="Path_138" class="st0" d="M122.6,143.1c-0.2,0-0.4,0.1-0.5,0.2c-0.1,0.1-0.2,0.3-0.2,0.5c0,0.2,0.1,0.4,0.2,0.5
		c0.3,0.2,0.7,0.2,0.9,0c0.1-0.1,0.2-0.3,0.2-0.5c0-0.2-0.1-0.3-0.2-0.5C123,143.2,122.8,143.1,122.6,143.1 M122.6,144.8
		c-0.3,0-0.5-0.1-0.7-0.3c-0.2-0.2-0.3-0.4-0.3-0.7c0-0.3,0.1-0.5,0.3-0.7c0.2-0.2,0.4-0.3,0.7-0.3c0.3,0,0.5,0.1,0.7,0.3
		c0.2,0.2,0.3,0.4,0.3,0.7c0,0.3-0.1,0.5-0.3,0.7C123.1,144.7,122.9,144.8,122.6,144.8 M124.9,143.1c-0.4,0-0.7,0.3-0.7,0.7
		c0,0.2,0.1,0.4,0.2,0.5c0.1,0.1,0.3,0.2,0.5,0.2c0.2,0,0.3-0.1,0.5-0.2c0.1-0.1,0.2-0.3,0.2-0.5c0-0.2-0.1-0.3-0.2-0.5
		C125.3,143.2,125.1,143.1,124.9,143.1 M124.9,144.8c-0.3,0-0.5-0.1-0.7-0.3c-0.2-0.2-0.3-0.4-0.3-0.7c0-0.5,0.4-1,1-1
		c0.3,0,0.5,0.1,0.7,0.3c0.2,0.2,0.3,0.4,0.3,0.7c0,0.3-0.1,0.5-0.3,0.7C125.5,144.7,125.2,144.8,124.9,144.8 M123.8,147.6
		c-0.9,0-1.8,0.3-2.4,0.9c-1.2,1.1-1.3,3.1-0.2,4.3c0.1,0.1,0.1,0.1,0.2,0.2c1.4,1.2,3.4,1.2,4.8,0c0.6-0.6,1-1.4,1-2.3
		c0-0.9-0.4-1.7-1-2.3C125.6,148,124.7,147.6,123.8,147.6 M123.8,154.3c-1,0-1.9-0.3-2.6-1c-1.4-1.3-1.5-3.4-0.2-4.8
		c0.1-0.1,0.1-0.1,0.2-0.2c1.5-1.4,3.8-1.4,5.2,0c0.7,0.6,1.1,1.5,1.1,2.5c0,1-0.4,1.9-1.1,2.5C125.7,154,124.8,154.3,123.8,154.3
		 M117.9,155.3h5.9c1.2,0,2.5-0.4,3.4-1.2c0.9-0.8,1.5-2,1.4-3.2c0-1.2-0.5-2.4-1.4-3.2c-1.9-1.8-4.9-1.8-6.8,0
		c-0.9,0.8-1.4,2-1.4,3.2c0,1.2,0.5,2.4,1.4,3.2l0.3,0.3h-2.8L117.9,155.3z M123.8,155.6h-6.2V154h2.3c-0.8-0.9-1.2-2-1.2-3.2
		c0-1.3,0.5-2.6,1.5-3.5c2-1.9,5.2-1.9,7.2,0c1,0.9,1.5,2.1,1.5,3.5c0,1.3-0.5,2.6-1.5,3.5C126.4,155.2,125.2,155.7,123.8,155.6"/>
	<path id="Path_139" class="st0" d="M134.8,147.4c0.9-0.9,2.2-1.4,3.5-1.4c1.3,0,2.6,0.5,3.5,1.4c0.9,0.7,1.4,1.8,1.5,2.9v3.8h1.4
		v1.3h-6.4c-1.3,0-2.5-0.5-3.5-1.3c-0.9-0.8-1.5-2.1-1.5-3.3C133.3,149.5,133.9,148.3,134.8,147.4 M138.3,147.4
		c-0.9,0-1.8,0.3-2.5,1c-0.7,0.6-1.1,1.5-1,2.4c0,0.9,0.4,1.8,1,2.4c0.7,0.6,1.6,1,2.5,1h3.6v-3.4c0-0.9-0.4-1.8-1.1-2.4
		C140.1,147.8,139.2,147.4,138.3,147.4 M137.1,143c0.5,0,0.8,0.4,0.8,0.8c0,0.2-0.1,0.4-0.3,0.6c-0.2,0.2-0.4,0.2-0.6,0.2
		c-0.2,0-0.4-0.1-0.6-0.2c-0.2-0.2-0.2-0.4-0.2-0.6C136.3,143.4,136.6,143,137.1,143 M139.4,143c0.2,0,0.4,0.1,0.6,0.3
		c0.2,0.1,0.3,0.4,0.3,0.6c0,0.2-0.1,0.4-0.3,0.6c-0.2,0.2-0.4,0.2-0.6,0.2c-0.2,0-0.4-0.1-0.6-0.2c-0.2-0.2-0.2-0.4-0.2-0.6
		c0-0.2,0.1-0.4,0.2-0.6C138.9,143.1,139.2,143,139.4,143"/>
	<path id="Path_140" class="st0" d="M137.1,143.1c-0.2,0-0.4,0.1-0.5,0.2c-0.1,0.1-0.2,0.3-0.2,0.5c0,0.2,0.1,0.4,0.2,0.5
		c0.1,0.1,0.3,0.2,0.5,0.2c0.2,0,0.3-0.1,0.5-0.2c0.1-0.1,0.2-0.3,0.2-0.5c0-0.2-0.1-0.3-0.2-0.5
		C137.4,143.2,137.3,143.1,137.1,143.1 M137.1,144.8c-0.3,0-0.5-0.1-0.7-0.3c-0.2-0.2-0.3-0.4-0.3-0.7c0-0.3,0.1-0.5,0.3-0.7
		c0.2-0.2,0.4-0.3,0.7-0.3c0.3,0,0.5,0.1,0.7,0.3c0.2,0.2,0.3,0.4,0.3,0.7c0,0.3-0.1,0.5-0.3,0.7
		C137.6,144.7,137.3,144.8,137.1,144.8 M139.4,143.1c-0.2,0-0.4,0.1-0.5,0.2c-0.1,0.1-0.2,0.3-0.2,0.5c0,0.2,0.1,0.4,0.2,0.5
		c0.3,0.2,0.7,0.2,0.9,0c0.1-0.1,0.2-0.3,0.2-0.5c0-0.2-0.1-0.3-0.2-0.5C139.7,143.2,139.6,143.1,139.4,143.1 M139.4,144.8
		c-0.3,0-0.5-0.1-0.7-0.3c-0.2-0.2-0.3-0.4-0.3-0.7c0-0.3,0.1-0.5,0.3-0.7c0.2-0.2,0.4-0.3,0.7-0.3c0.3,0,0.5,0.1,0.7,0.3
		c0.2,0.2,0.3,0.4,0.3,0.7c0,0.3-0.1,0.5-0.3,0.7C139.9,144.7,139.6,144.8,139.4,144.8 M138.3,147.6c-0.9,0-1.7,0.3-2.4,0.9
		c-0.6,0.6-1,1.4-1,2.3c0,0.9,0.4,1.7,1,2.3c0.6,0.6,1.5,1,2.4,1h3.5v-3.2c0-0.9-0.4-1.7-1.1-2.3
		C140.1,147.9,139.2,147.6,138.3,147.6 M142.1,154.3h-3.8c-1,0-1.9-0.4-2.6-1.1c-0.7-0.6-1.1-1.5-1.1-2.5c0-1,0.4-1.9,1.1-2.5
		c0.7-0.7,1.6-1,2.6-1c1,0,1.9,0.4,2.6,1c0.7,0.6,1.2,1.5,1.2,2.5L142.1,154.3z M134.9,147.5c-0.9,0.8-1.4,2-1.4,3.2
		c0,1.2,0.5,2.4,1.4,3.2c0.9,0.9,2.1,1.3,3.4,1.3h6.2v-1h-1.4v-4c-0.1-1.1-0.6-2.1-1.4-2.8C139.8,145.8,136.8,145.8,134.9,147.5
		 M144.8,155.6h-6.5c-1.3,0-2.6-0.5-3.6-1.4c-1-0.9-1.5-2.1-1.5-3.5c0-1.3,0.5-2.6,1.5-3.5c2-1.9,5.2-1.9,7.2,0
		c0.9,0.8,1.5,1.9,1.5,3v3.7h1.4L144.8,155.6z"/>
	<rect id="Rectangle_18" x="144" y="154.2" class="st0" width="5.6" height="1.3"/>
	<path id="Path_141" class="st0" d="M144.2,155.3h5.3v-1h-5.3V155.3z M149.7,155.6h-5.9V154h5.9V155.6z"/>
	<rect id="Rectangle_19" x="148.9" y="154.2" class="st0" width="5.6" height="1.3"/>
	<path id="Path_142" class="st0" d="M149.1,155.3h5.3v-1h-5.3V155.3z M154.6,155.6h-5.9V154h5.9V155.6z"/>
	<path id="Path_143" class="st0" d="M161.9,143h-4.5c-0.3,0-0.6,0.1-0.8,0.3c-0.2,0.2-0.3,0.5-0.3,0.7c-0.1,1.2,0,2.4,0.2,3.6
		c0.2,0.2,0.5,0.3,0.8,0.3h3.8c0.7,0,1.4,0.2,1.9,0.7c0.4,0.4,0.6,0.9,0.7,1.5c0.1,0.8,0.1,1.6,0.1,2.7c0,0.8-0.3,1.6-0.8,2.1
		c-0.6,0.4-1.3,0.6-2,0.6h-7.1v-1.3h7.1c0.7,0,1.3-0.6,1.3-1.4c0,0,0,0,0,0c0-1.9-0.1-2.9-0.3-3c-0.3-0.2-0.6-0.4-0.9-0.4h-3.7
		c-0.9,0-1.7-0.4-2.2-1.2c-0.2-1.3-0.3-2.7-0.2-4.1c0-1.4,1.1-2.5,2.5-2.5c0,0,0,0,0,0h4.6L161.9,143z"/>
	<path id="Path_144" class="st0" d="M154,155.3h6.9c0.7,0.1,1.4-0.1,1.9-0.5c0.5-0.5,0.8-1.3,0.8-2c0-1,0-1.9-0.1-2.6
		c0-0.5-0.2-1-0.6-1.4c-0.5-0.4-1.1-0.7-1.8-0.7h-3.8c-0.3,0-0.6-0.1-0.9-0.3c-0.1-0.1-0.2-0.2-0.2-3.7c0-0.3,0.1-0.6,0.4-0.8
		c0.2-0.2,0.5-0.3,0.9-0.3h4.4v-1.1h-4.4c-1.3,0-2.3,1-2.3,2.3c0,0,0,0,0,0c0,3.2,0.1,3.9,0.2,4c0.4,0.7,1.2,1.2,2,1.1h3.7
		c0.4,0,0.8,0.1,1,0.4c0.2,0.1,0.3,0.6,0.3,3.2c0,0.4-0.1,0.9-0.4,1.2c-0.3,0.3-0.6,0.4-1,0.4H154V155.3z M160.9,155.6h-7.2V154h7.2
		c0.7,0,1.2-0.6,1.1-1.2c0,0,0,0,0,0c0-2.5-0.2-2.9-0.2-2.9c-0.2-0.2-0.5-0.3-0.8-0.3h-3.7c-1,0-1.8-0.5-2.3-1.3
		c-0.1-0.2-0.2-0.8-0.2-4.2c0-1.5,1.2-2.6,2.6-2.6c0,0,0,0,0,0h4.7v1.8h-4.7c-0.2,0-0.5,0.1-0.7,0.2c-0.2,0.2-0.3,0.4-0.3,0.6
		c-0.1,1.2,0,2.3,0.2,3.5c0.2,0.2,0.4,0.3,0.6,0.2h3.8c0.7,0,1.5,0.2,2,0.7c0.4,0.4,0.7,1,0.7,1.6c0.1,0.8,0.1,1.7,0.1,2.7
		c0,0.8-0.3,1.7-0.9,2.2C162.4,155.5,161.6,155.7,160.9,155.6"/>
	<path id="Path_145" class="st0" d="M169.5,154.2h1.1v1.3h-1.1v0.2c0,0.6-0.2,1.1-0.5,1.6c-0.4,0.6-1.1,1.1-1.8,1.1
		c-0.4,0.1,0.4,0.1-0.9,0.1l-1.6-1.3c0,0,0.1,0,0.2,0s0.2,0,0.3,0h0.5c0.5,0,1.1-0.1,1.5-0.4c0.5-0.3,0.8-0.8,0.8-1.3v-9.1h1.4
		L169.5,154.2z"/>
	<path id="Path_146" class="st0" d="M164.9,157.4l1.6,1c1.5,0,0.5-0.1,0.7-0.1c0.7-0.1,1.3-0.5,1.7-1.1c0.3-0.5,0.4-1,0.4-1.5v-0.4
		h1.1v-1h-1.1v-7.8h-1.1v9c0,0.6-0.3,1.2-0.9,1.4c-0.5,0.3-1.1,0.4-1.6,0.4h-0.5C165.2,157.4,165.1,157.4,164.9,157.4L164.9,157.4
		 M166.4,158.7h-0.2l-1.6-1.6h0.2c0,0,0.1,0,0.2,0s0.2,0,0.3,0h0.5c0.5,0,1-0.1,1.5-0.4c0.4-0.2,0.7-0.7,0.7-1.2v-9.3h1.7v7.8h1.1
		v1.6h-1.1v0.1c0,0.6-0.2,1.1-0.5,1.6c-0.4,0.7-1.1,1.1-1.9,1.2C166.9,158.6,167.6,158.7,166.4,158.7"/>
	<path id="Path_147" class="st0" d="M182.8,146.4v5.9c0,0.8-0.3,1.7-0.9,2.2c-0.6,0.6-1.4,0.9-2.2,0.9c-0.9,0-1.8-0.4-2.4-1.2
		c-0.6,0.8-1.4,1.2-2.4,1.2c-0.8,0-1.6-0.3-2.2-0.9l-0.2-0.2c-0.5,0.7-1.3,1.1-2.2,1.1h-0.4v-1.3h0.4c0.4,0,0.8-0.2,1.1-0.5
		c0.3-0.3,0.4-0.7,0.4-1.1v-6.2h1.4v5.1c0,0.6,0,1.2,0.2,1.8c0.2,0.6,0.8,1,1.4,0.9c0.5,0,0.9-0.2,1.2-0.5c0.3-0.3,0.5-0.8,0.5-1.2
		v-6.1h1.4v6.1c0,0.5,0.1,0.9,0.5,1.2c0.6,0.7,1.7,0.7,2.3,0.1c0,0,0,0,0,0c0.3-0.3,0.5-0.8,0.4-1.3v-6.1L182.8,146.4z M176.2,143
		c0.2,0,0.4,0.1,0.6,0.3c0.2,0.1,0.3,0.4,0.3,0.6c0,0.2-0.1,0.4-0.3,0.6c-0.2,0.2-0.4,0.2-0.6,0.2c-0.2,0-0.4-0.1-0.6-0.2
		c-0.2-0.2-0.2-0.4-0.2-0.6c0-0.2,0.1-0.4,0.2-0.6C175.8,143.1,176,143,176.2,143 M177.3,140.9c0.2,0,0.4,0.1,0.6,0.3
		c0.2,0.1,0.3,0.4,0.3,0.6c0,0.2-0.1,0.4-0.3,0.6c-0.2,0.2-0.4,0.2-0.6,0.2c-0.2,0-0.4-0.1-0.6-0.2c-0.2-0.2-0.2-0.4-0.2-0.6
		C176.5,141.3,176.9,140.9,177.3,140.9 M178.5,143c0.5,0,0.8,0.4,0.8,0.8c0,0.2-0.1,0.4-0.3,0.6c-0.2,0.2-0.4,0.2-0.6,0.2
		c-0.2,0-0.4-0.1-0.6-0.2c-0.2-0.2-0.2-0.4-0.2-0.6C177.7,143.3,178.1,143,178.5,143"/>
	<path id="Path_148" class="st0" d="M177.3,141c-0.4,0-0.7,0.3-0.7,0.7c0,0.2,0.1,0.4,0.2,0.5c0.3,0.3,0.7,0.2,0.9,0
		c0.1-0.1,0.2-0.3,0.2-0.5c0-0.2-0.1-0.3-0.2-0.5C177.7,141.1,177.5,141,177.3,141 M177.3,142.7c-0.3,0-0.5-0.1-0.7-0.3
		c-0.2-0.2-0.3-0.4-0.3-0.7c0-0.5,0.4-1,1-1c0.3,0,0.5,0.1,0.7,0.3c0.2,0.2,0.3,0.4,0.3,0.7c0,0.3-0.1,0.5-0.3,0.7
		C177.9,142.6,177.6,142.7,177.3,142.7 M176.2,143.1c-0.2,0-0.4,0.1-0.5,0.2c-0.1,0.1-0.2,0.3-0.2,0.5c0,0.2,0.1,0.4,0.2,0.5
		c0.3,0.2,0.7,0.2,0.9,0c0.1-0.1,0.2-0.3,0.2-0.5c0-0.2-0.1-0.3-0.2-0.5C176.6,143.2,176.4,143.1,176.2,143.1 M176.3,144.8
		c-0.3,0-0.5-0.1-0.7-0.3c-0.2-0.2-0.3-0.4-0.3-0.7c0-0.3,0.1-0.5,0.3-0.7c0.2-0.2,0.4-0.3,0.7-0.3c0.3,0,0.5,0.1,0.7,0.3
		c0.2,0.2,0.3,0.4,0.3,0.7c0,0.3-0.1,0.5-0.3,0.7C176.8,144.7,176.5,144.8,176.3,144.8 M178.6,143.1c-0.4,0-0.7,0.3-0.7,0.7
		c0,0.2,0.1,0.4,0.2,0.5c0.3,0.2,0.7,0.2,0.9,0c0.1-0.1,0.2-0.3,0.2-0.5c0-0.2-0.1-0.3-0.2-0.5C178.9,143.2,178.7,143.1,178.6,143.1
		 M178.6,144.8c-0.3,0-0.5-0.1-0.7-0.3c-0.2-0.2-0.3-0.4-0.3-0.7c0-0.5,0.4-1,1-1c0.3,0,0.5,0.1,0.7,0.3c0.2,0.2,0.3,0.4,0.3,0.7
		c0,0.3-0.1,0.5-0.3,0.7C179.1,144.7,178.8,144.8,178.6,144.8 M177.3,154l0.1,0.2c0.5,0.7,1.4,1.1,2.2,1.1c0.8,0,1.5-0.3,2.1-0.9
		c0.6-0.6,0.9-1.3,0.8-2.1v-5.8h-1.2v5.9c0,0.5-0.2,1-0.5,1.4c-0.7,0.7-1.8,0.7-2.6,0c0,0,0,0,0,0c-0.3-0.4-0.5-0.9-0.5-1.3v-5.9
		h-1.1v5.9c0,0.5-0.2,1-0.5,1.4c-0.3,0.4-0.8,0.6-1.3,0.6c-0.7,0.1-1.4-0.4-1.6-1c-0.2-0.6-0.2-1.2-0.2-1.9v-4.9H172v6
		c0,0.5-0.2,0.9-0.5,1.2c-0.3,0.4-0.7,0.6-1.2,0.6h-0.3v1h0.3c0.8,0,1.6-0.4,2.1-1l0.1-0.1l0.3,0.3c0.5,0.6,1.3,0.9,2.1,0.9
		c0.9,0,1.7-0.4,2.3-1.1L177.3,154z M179.7,155.6c-0.9,0-1.8-0.4-2.4-1.1c-0.6,0.7-1.5,1.1-2.4,1.1c-0.9,0-1.7-0.3-2.3-1l0-0.1
		c-0.6,0.6-1.4,1-2.2,1h-0.6V154h0.6c0.4,0,0.7-0.2,1-0.5c0.3-0.3,0.4-0.6,0.4-1v-6.4h1.8v5.2c0,0.6,0,1.2,0.2,1.8
		c0.2,0.5,0.7,0.9,1.3,0.8c0.4,0,0.8-0.2,1.1-0.5c0.3-0.3,0.4-0.7,0.4-1.1v-6.2h1.7v6.2c0,0.4,0.1,0.8,0.4,1.1
		c0.6,0.6,1.5,0.6,2.1,0.1c0,0,0,0,0,0c0.3-0.3,0.4-0.7,0.4-1.2v-6.2h1.8v6.1c0,0.9-0.3,1.7-0.9,2.4
		C181.4,155.3,180.6,155.6,179.7,155.6"/>
</g>
</svg>
