<?xml version="1.0" encoding="utf-8"?>
<!-- Generator: Adobe Illustrator 25.4.1, SVG Export Plug-In . SVG Version: 6.00 Build 0)  -->
<svg version="1.1" id="Layer_1" xmlns="http://www.w3.org/2000/svg" xmlns:xlink="http://www.w3.org/1999/xlink" x="0px" y="0px"
	 viewBox="0 0 151.8 65.1" style="enable-background:new 0 0 151.8 65.1;" xml:space="preserve">
<style type="text/css">
	.st0{fill:#FFFFFF;}
</style>
<g id="Group_20" transform="translate(-256.166 -829.552)">
	<path id="Path_100" class="st0" d="M390,859L390,859L390,859L390,859L390,859"/>
	<path id="Path_101" class="st0" d="M390,859L390,859L390,859L390,859L390,859z"/>
	<path id="Path_102" class="st0" d="M391.9,868l-1.9-3.8l0,0l0,0l-1.9,3.8l-9.8,19.8c1.8,0.9,3.9,0.2,4.8-1.6l6.9-14l6.9,14
		c0.9,1.8,3,2.5,4.8,1.6c0,0,0,0,0,0L391.9,868z"/>
	<path id="Path_103" class="st0" d="M391.2,886.1l-1.2-2.8l0,0l0,0l-1.2,2.8c0,0.2,0.1,0.5,0.2,0.7l1,2.4l1-2.4
		C391.1,886.6,391.2,886.4,391.2,886.1"/>
	<path id="Path_104" class="st0" d="M387.1,870.4l-0.2-0.1l7.2-14.4l0.2,0.1L387.1,870.4z"/>
	<path id="Path_105" class="st0" d="M392.9,870.4l-7.1-14.4l0.2-0.1l7.1,14.4L392.9,870.4z"/>
	<rect id="Rectangle_8" x="389.9" y="867.6" class="st0" width="0.2" height="21.2"/>
	<path id="Path_106" class="st0" d="M381.4,836.9c-0.1-0.1-0.3-0.2-0.4-0.1c0,0,0,0-0.1,0.1c-2.7,3.1-5.3,6.3-8,9.4
		c-0.1,0.1-0.1,0.3,0,0.4c0.1,0.1,0.3,0.1,0.4,0c1.9-1.6,3.9-3.3,5.8-4.9c0.1-0.1,0.3-0.1,0.4,0c0,0,0.1,0.1,0.1,0.2
		c0.1,1.2,0.2,2.4,0.4,3.7c0,0.2,0.2,0.3,0.3,0.3c0,0,0.1,0,0.1,0c0.8-0.5,1.5-0.9,2.3-1.4c0.1-0.1,0.3,0,0.4,0.1c0,0,0,0,0,0.1
		l0.1,0.2l1.8-2.6C383.9,840.5,382.6,838.7,381.4,836.9"/>
	<path id="Path_107" class="st0" d="M402.3,845.1c-3.4-4-6.8-8-10.2-12c-0.1-0.2-0.4-0.2-0.6,0c0,0,0,0-0.1,0.1l-6.4,9.2l-1.8,2.6
		L372.2,861c-0.1,0.2,0,0.4,0.1,0.5c0.2,0.1,0.4,0.1,0.5-0.1l6.2-7.3c0.1-0.2,0.4-0.2,0.6-0.1l1.6,1.3c0.2,0.1,0.4,0.1,0.6-0.1
		c0,0,0-0.1,0.1-0.1l2.5-7.4c0,0,0-0.1,0-0.1c0.1-0.2,0.4-0.2,0.6-0.1c0,0,0.1,0.1,0.1,0.1l0.9,1.4c0.1,0.1,0.1,0.2,0.2,0.3
		c0.1,0.2,0.4,0.2,0.6,0.1c0.1,0,0.1-0.1,0.2-0.2c0.1-0.2,0.2-0.5,0.3-0.7c0.3-0.8,0.6-1.6,0.8-2.3c0.4-1.1,0.8-2.2,1.2-3.3
		c0.1-0.2,0.3-0.3,0.5-0.2c0,0,0,0,0.1,0l3,1.8c0.2,0.1,0.4,0,0.5-0.1c0,0,0-0.1,0.1-0.2c0.2-1.6,0.3-3.1,0.5-4.7
		c0-0.2,0.2-0.4,0.4-0.4c0.1,0,0.2,0,0.2,0.1l7.4,6.3c0.2,0.1,0.4,0.1,0.6-0.1C402.4,845.5,402.4,845.3,402.3,845.1"/>
	<path id="Path_108" class="st0" d="M390,894.6c-9.9,0-17.9-7.5-17.9-16.8v-31.4c0-9.3,8-16.8,17.9-16.8s17.9,7.5,17.9,16.8v31.4
		C407.9,887.1,399.9,894.6,390,894.6 M390,830.7c-9.2,0-16.7,7-16.7,15.7v31.4c0,8.7,7.5,15.7,16.7,15.7s16.7-7,16.7-15.7v-31.4
		C406.7,837.7,399.2,830.7,390,830.7"/>
	<path id="Path_109" class="st0" d="M389.7,853c-0.1,0.1-0.1,0.3,0,0.4c0.1,0.1,0.3,0.1,0.4,0c0,0,0,0,0.1,0c0.1,0,0.1-0.1,0.2-0.1
		c0.3-0.2,0.6-0.5,0.8-0.7c0.1-0.1,0.2-0.2,0.3-0.3l1-0.9c0.1-0.1,0.1-0.3,0-0.4c-0.1-0.1-0.1-0.1-0.2-0.1l-1.1,0
		c-0.1,0-0.3-0.1-0.3-0.3c0-0.1,0-0.1,0.1-0.2c1.2-1.4,2.4-2.7,3.5-4.1c0.1-0.1,0.1-0.3,0-0.4c0,0-0.1-0.1-0.2-0.1h0
		c-0.1,0-0.3-0.1-0.3-0.3c0-0.1,0-0.1,0.1-0.2l2.4-2.6c0.1-0.1,0.3-0.1,0.4,0c0,0,0,0,0,0c1,1,1.9,2.1,2.9,3.1
		c0.1,0.1,0.1,0.3,0,0.4c-0.1,0-0.1,0.1-0.2,0.1h-0.6c-0.1,0-0.3,0.1-0.3,0.3c0,0.1,0,0.1,0.1,0.2c1.3,1.4,2.6,2.7,3.9,4.1
		c0.1,0.1,0.1,0.3,0,0.4c-0.1,0-0.1,0.1-0.2,0.1h-1.2c-0.1,0-0.3,0.1-0.3,0.3c0,0.1,0,0.1,0.1,0.2l6.4,6l-5.2-5.3
		c-0.1-0.1-0.1-0.3,0-0.4c0.1,0,0.1-0.1,0.2-0.1h1.3c0.2,0,0.3-0.1,0.3-0.3c0-0.1,0-0.1-0.1-0.2l-3.6-3.8l-0.3-0.3
		c-0.1-0.1-0.1-0.3,0-0.4c0.1,0,0.1-0.1,0.2-0.1h0.5c0.1,0,0.3-0.1,0.3-0.3c0-0.1,0-0.1-0.1-0.2l-4.5-4.7c-0.1-0.1-0.3-0.1-0.4,0
		c0,0,0,0,0,0l-4.5,4.7c-0.1,0.1-0.1,0.3,0,0.4c0.1,0,0.1,0.1,0.2,0.1h0.5c0.1,0,0.3,0.1,0.3,0.3c0,0.1,0,0.1-0.1,0.2l-0.3,0.3
		l-1.8,1.9L390,850l-0.4,0.4l-0.2,0.3l-0.9,0.9c-0.1,0.1-0.1,0.3,0,0.4c0.1,0,0.1,0.1,0.2,0.1h1.3c0.1,0,0.3,0.1,0.3,0.3
		c0,0.1,0,0.1-0.1,0.2L389.7,853z"/>
	<g>
		<path id="Path_110" class="st0" d="M257.1,860.8c0.5-0.5,1.3-0.8,2-0.8c0.8,0,1.5,0.3,2,0.8c0.5,0.4,0.8,1,0.9,1.7v2.2h0.8v0.8
			h-3.7c-0.8,0-1.5-0.3-2-0.8c-0.6-0.5-0.9-1.2-0.9-1.9C256.3,862,256.6,861.3,257.1,860.8 M259.1,860.8c-0.5,0-1.1,0.2-1.4,0.6
			c-0.4,0.4-0.6,0.9-0.6,1.4c0,0.5,0.2,1,0.6,1.4c0.4,0.4,0.9,0.6,1.4,0.6h2.1v-2c0-0.5-0.2-1-0.6-1.4
			C260.2,861,259.7,860.8,259.1,860.8 M258.4,858.2c0.3,0,0.5,0.2,0.5,0.5c0,0.1-0.1,0.3-0.1,0.3c-0.1,0.1-0.2,0.1-0.3,0.1
			c-0.1,0-0.3,0-0.3-0.1c-0.1-0.1-0.1-0.2-0.1-0.3C257.9,858.4,258.2,858.2,258.4,858.2 M259.8,858.2c0.1,0,0.3,0.1,0.3,0.1
			c0.1,0.1,0.2,0.2,0.1,0.3c0,0.1-0.1,0.3-0.1,0.3c-0.1,0.1-0.2,0.1-0.3,0.1c-0.1,0-0.3,0-0.3-0.1c-0.1-0.1-0.1-0.2-0.1-0.3
			c0-0.1,0-0.2,0.1-0.3C259.5,858.2,259.6,858.2,259.8,858.2"/>
		<path id="Path_111" class="st0" d="M258.4,858.3c-0.1,0-0.2,0-0.3,0.1c-0.1,0.1-0.1,0.2-0.1,0.3c0,0.1,0,0.2,0.1,0.3
			c0.2,0.1,0.4,0.1,0.5,0c0.1-0.1,0.1-0.2,0.1-0.3c0-0.1,0-0.2-0.1-0.3C258.6,858.3,258.5,858.3,258.4,858.3 M258.4,859.2
			c-0.2,0-0.3-0.1-0.4-0.2c-0.1-0.1-0.2-0.3-0.2-0.4c0-0.2,0.1-0.3,0.2-0.4c0.1-0.1,0.3-0.2,0.4-0.2c0.2,0,0.3,0.1,0.4,0.2
			c0.1,0.1,0.2,0.2,0.2,0.4c0,0.2-0.1,0.3-0.2,0.4C258.7,859.2,258.6,859.2,258.4,859.2 M259.8,858.3c-0.1,0-0.2,0-0.3,0.1
			c-0.1,0.1-0.1,0.2-0.1,0.3c0,0.1,0,0.2,0.1,0.3c0.2,0.1,0.4,0.1,0.5,0c0.1-0.1,0.1-0.2,0.1-0.3c0-0.1,0-0.2-0.1-0.3
			C260,858.3,259.9,858.3,259.8,858.3 M259.8,859.2c-0.2,0-0.3-0.1-0.4-0.2c-0.1-0.1-0.2-0.3-0.2-0.4c0-0.2,0.1-0.3,0.2-0.4
			c0.1-0.1,0.3-0.2,0.4-0.2c0.2,0,0.3,0.1,0.4,0.2c0.1,0.1,0.2,0.2,0.2,0.4c0,0.2-0.1,0.3-0.2,0.4
			C260.1,859.2,259.9,859.3,259.8,859.2 M259.1,860.9c-0.5,0-1,0.2-1.4,0.5c-0.4,0.3-0.6,0.8-0.6,1.3c0,0.5,0.2,1,0.6,1.3
			c0.4,0.4,0.9,0.6,1.4,0.6h2v-1.9c0-0.5-0.2-1-0.6-1.3C260.2,861.1,259.7,860.9,259.1,860.9 M261.3,864.8h-2.2
			c-0.6,0-1.1-0.2-1.5-0.6c-0.4-0.4-0.6-0.9-0.6-1.4c0-0.6,0.2-1.1,0.6-1.5c0.4-0.4,0.9-0.6,1.5-0.6c0.6,0,1.1,0.2,1.5,0.6
			c0.4,0.4,0.7,0.9,0.7,1.5L261.3,864.8z M257.2,860.8c-0.5,0.5-0.8,1.2-0.8,1.9c0,0.7,0.3,1.4,0.8,1.9c0.5,0.5,1.2,0.8,2,0.8h3.6
			v-0.6H262v-2.3c-0.1-0.6-0.4-1.2-0.8-1.6c-0.5-0.5-1.2-0.8-2-0.8C258.4,860.1,257.7,860.3,257.2,860.8 M262.9,865.5h-3.8
			c-0.8,0-1.5-0.3-2.1-0.8c-0.6-0.5-0.9-1.2-0.9-2c0-0.8,0.3-1.5,0.9-2c0.6-0.5,1.3-0.8,2.1-0.8c0.8,0,1.5,0.3,2.1,0.8
			c0.5,0.5,0.8,1.1,0.9,1.8v2.1h0.8L262.9,865.5z"/>
		<rect id="Rectangle_9" x="262.4" y="864.7" class="st0" width="3.2" height="0.8"/>
		<path id="Path_112" class="st0" d="M262.5,865.3h3.1v-0.6h-3.1V865.3z M265.8,865.5h-3.4v-0.9h3.4V865.5z"/>
		<rect id="Rectangle_10" x="265.3" y="864.7" class="st0" width="3.2" height="0.8"/>
		<path id="Path_113" class="st0" d="M265.4,865.3h3.1v-0.6h-3.1V865.3z M268.6,865.5h-3.4v-0.9h3.4V865.5z"/>
		<rect id="Rectangle_11" x="268.1" y="864.7" class="st0" width="3.2" height="0.8"/>
		<path id="Path_114" class="st0" d="M268.2,865.3h3.1v-0.6h-3.1V865.3z M271.5,865.5h-3.4v-0.9h3.4V865.5z"/>
		<rect id="Rectangle_12" x="271" y="864.7" class="st0" width="3.2" height="0.8"/>
		<path id="Path_115" class="st0" d="M271.1,865.3h3.1v-0.6h-3.1V865.3z M274.3,865.5h-3.4v-0.9h3.4L274.3,865.5z"/>
		<path id="Path_116" class="st0" d="M277.4,861.5c0.8,0,1.5,0.3,2,0.8c1.1,1,1.2,2.6,0.2,3.7c-0.1,0.1-0.1,0.1-0.2,0.2
			c-1.1,1.1-2.9,1.1-4.1,0c-0.2-0.2-0.4-0.5-0.6-0.8h-0.9v-0.8h0.7c-0.1-0.9,0.2-1.8,0.8-2.4C275.9,861.8,276.6,861.5,277.4,861.5
			 M277.4,862.3c-0.5,0-1.1,0.2-1.4,0.6c-0.8,0.7-0.8,1.9-0.1,2.6c0,0,0.1,0.1,0.1,0.1c0.8,0.7,2.1,0.7,2.9,0
			c0.4-0.3,0.6-0.8,0.6-1.4c0-0.5-0.2-1-0.6-1.4C278.5,862.5,277.9,862.3,277.4,862.3"/>
		<path id="Path_117" class="st0" d="M277.4,862.4c-0.5,0-1,0.2-1.4,0.5c-0.4,0.3-0.6,0.8-0.6,1.3c0,0.5,0.2,1,0.6,1.3
			c0.8,0.7,2,0.7,2.8,0c0.7-0.7,0.8-1.8,0.1-2.5c0,0-0.1-0.1-0.1-0.1C278.4,862.6,277.9,862.4,277.4,862.4 M277.4,866.3
			c-0.6,0-1.1-0.2-1.5-0.6c-0.8-0.7-0.9-2-0.1-2.8c0,0,0.1-0.1,0.1-0.1c0.4-0.4,0.9-0.6,1.5-0.6c0.6,0,1.1,0.2,1.5,0.6
			c0.4,0.4,0.6,0.9,0.6,1.5c0,0.5-0.2,1.1-0.6,1.4C278.5,866.1,277.9,866.3,277.4,866.3 M273.9,865.3h0.9l0,0.1
			c0.1,0.3,0.3,0.5,0.6,0.7c1.1,1,2.8,1,3.9,0c1-0.9,1.1-2.5,0.2-3.6c-0.1-0.1-0.1-0.1-0.2-0.2c-0.5-0.5-1.2-0.8-2-0.8
			c-0.7,0-1.4,0.3-2,0.8c-0.5,0.5-0.8,1.2-0.8,1.9c0,0.1,0,0.3,0,0.4l0,0.1h-0.7V865.3z M277.4,867.1c-0.8,0-1.5-0.3-2.1-0.8
			c-0.2-0.2-0.4-0.5-0.6-0.8h-1v-0.9h0.7c0-0.1,0-0.2,0-0.3c0-0.8,0.3-1.5,0.9-2c1.2-1.1,3-1.1,4.2,0c1.1,1,1.2,2.7,0.2,3.8
			c-0.1,0.1-0.1,0.1-0.2,0.2C278.9,866.8,278.2,867.1,277.4,867.1"/>
		<path id="Path_118" class="st0" d="M281.9,864.7h0.8v0.8h-1.6v-8.1h0.8L281.9,864.7z"/>
		<path id="Path_119" class="st0" d="M281.2,865.3h1.4v-0.6h-0.8v-7.3h-0.6V865.3z M282.8,865.5H281v-8.3h1v7.3h0.8L282.8,865.5z"/>
		<path id="Path_120" class="st0" d="M285.8,861.5c0.8,0,1.5,0.3,2,0.8c0.6,0.6,1,1.5,0.8,2.4h0.7v0.8h-0.9
			c-0.1,0.3-0.3,0.6-0.6,0.8c-0.6,0.5-1.3,0.8-2,0.8c-0.8,0-1.5-0.3-2-0.8c-0.2-0.2-0.4-0.5-0.6-0.8h-0.9v-0.8h0.7
			c-0.1-0.9,0.2-1.8,0.8-2.4C284.3,861.8,285.1,861.5,285.8,861.5 M285.8,862.3c-0.5,0-1.1,0.2-1.4,0.6c-0.8,0.7-0.8,1.9-0.1,2.6
			c0,0,0.1,0.1,0.1,0.1c0.8,0.7,2.1,0.7,2.9,0c0.4-0.3,0.6-0.8,0.6-1.4c0-0.5-0.2-1-0.6-1.4C286.9,862.5,286.4,862.3,285.8,862.3"/>
		<path id="Path_121" class="st0" d="M285.8,862.4c-0.5,0-1,0.2-1.4,0.5c-0.4,0.3-0.6,0.8-0.6,1.3c0,0.5,0.2,1,0.6,1.3
			c0.8,0.7,2,0.7,2.8,0c0.7-0.7,0.8-1.8,0.1-2.5c0,0-0.1-0.1-0.1-0.1C286.8,862.6,286.3,862.4,285.8,862.4 M285.8,866.3
			c-0.6,0-1.1-0.2-1.5-0.6c-0.8-0.7-0.9-2-0.1-2.8c0,0,0.1-0.1,0.1-0.1c0.4-0.4,0.9-0.6,1.5-0.6c0.6,0,1.1,0.2,1.5,0.6
			c0.4,0.4,0.6,0.9,0.6,1.5c0,0.5-0.2,1.1-0.6,1.4C286.9,866.1,286.4,866.3,285.8,866.3 M282.4,865.3h0.9l0,0.1
			c0.1,0.3,0.3,0.5,0.6,0.7c0.5,0.5,1.2,0.8,2,0.8c0.7,0,1.4-0.3,2-0.8c0.2-0.2,0.4-0.5,0.6-0.7l0-0.1h0.9v-0.6h-0.7l0-0.1
			c0-0.1,0-0.3,0-0.4c0-0.7-0.3-1.4-0.8-1.9c-1.1-1-2.8-1-3.9,0c-0.5,0.5-0.8,1.2-0.8,1.9c0,0.1,0,0.3,0,0.4l0,0.1h-0.7L282.4,865.3
			z M285.8,867.1c-0.8,0-1.5-0.3-2.1-0.8c-0.2-0.2-0.4-0.5-0.6-0.8h-1v-0.9h0.7c0-0.1,0-0.2,0-0.3c0-0.8,0.3-1.5,0.9-2
			c1.2-1.1,3-1.1,4.2,0c0.6,0.5,0.9,1.2,0.9,2c0,0.1,0,0.2,0,0.3h0.7v0.9h-0.9c-0.1,0.3-0.3,0.5-0.6,0.8
			C287.4,866.8,286.6,867.1,285.8,867.1"/>
		<rect id="Rectangle_13" x="289" y="864.7" class="st0" width="3.2" height="0.8"/>
		<path id="Path_122" class="st0" d="M289.1,865.3h3.1v-0.6h-3.1V865.3z M292.3,865.5h-3.4v-0.9h3.4V865.5z"/>
		<rect id="Rectangle_14" x="291.8" y="864.7" class="st0" width="3.2" height="0.8"/>
		<path id="Path_123" class="st0" d="M291.9,865.3h3.1v-0.6h-3.1V865.3z M295.2,865.5h-3.4v-0.9h3.4V865.5z"/>
		<path id="Path_124" class="st0" d="M297,860.2v3.5c0,0.3,0.1,0.5,0.3,0.7c0.3,0.2,0.6,0.3,0.9,0.3h1v0.8h-1
			c-0.6,0-1.2-0.2-1.6-0.6c-0.4,0.5-1.1,0.7-1.7,0.6h-0.2v-0.8h0.2c0.4,0,0.7,0,1-0.2c0.2-0.2,0.3-0.5,0.3-0.7v-3.5H297z
			 M295.9,858.2c0.3,0,0.5,0.2,0.5,0.5c0,0.1-0.1,0.3-0.1,0.3c-0.1,0.1-0.2,0.1-0.3,0.1c-0.1,0-0.3,0-0.3-0.1
			c-0.1-0.1-0.1-0.2-0.1-0.3C295.4,858.4,295.6,858.2,295.9,858.2 M296.5,857c0.3,0,0.5,0.2,0.5,0.5c0,0.1-0.1,0.3-0.1,0.3
			c-0.1,0.1-0.2,0.1-0.3,0.1c-0.1,0-0.3,0-0.3-0.1c-0.1-0.1-0.1-0.2-0.1-0.3c0-0.1,0-0.2,0.1-0.3C296.3,857,296.4,856.9,296.5,857
			 M297.2,858.2c0.1,0,0.3,0.1,0.3,0.1c0.1,0.1,0.2,0.2,0.1,0.3c0,0.1-0.1,0.3-0.1,0.3c-0.1,0.1-0.2,0.1-0.3,0.1
			c-0.1,0-0.3,0-0.3-0.1c-0.1-0.1-0.1-0.2-0.1-0.3c0-0.1,0-0.2,0.1-0.3C297,858.2,297.1,858.2,297.2,858.2"/>
		<path id="Path_125" class="st0" d="M296.5,857c-0.1,0-0.2,0-0.3,0.1c-0.1,0.1-0.1,0.2-0.1,0.3c0,0.1,0,0.2,0.1,0.3
			c0.2,0.1,0.4,0.1,0.5,0c0.1-0.1,0.1-0.2,0.1-0.3c0-0.1,0-0.2-0.1-0.3C296.8,857.1,296.7,857,296.5,857 M296.6,858
			c-0.2,0-0.3-0.1-0.4-0.2c-0.1-0.1-0.2-0.3-0.2-0.4c0-0.2,0.1-0.3,0.2-0.4c0.1-0.1,0.3-0.2,0.4-0.2c0.2,0,0.3,0.1,0.4,0.2
			c0.1,0.1,0.2,0.2,0.2,0.4c0,0.2-0.1,0.3-0.2,0.4C296.8,858,296.7,858,296.6,858 M295.9,858.3c-0.2,0-0.4,0.2-0.4,0.4
			c0,0.1,0,0.2,0.1,0.3c0.2,0.1,0.4,0.1,0.5,0c0.1-0.1,0.1-0.2,0.1-0.3c0-0.1,0-0.2-0.1-0.3C296.1,858.3,296,858.3,295.9,858.3
			 M295.9,859.2c-0.2,0-0.3-0.1-0.4-0.2c-0.1-0.1-0.2-0.3-0.2-0.4c0-0.3,0.3-0.6,0.6-0.6c0.2,0,0.3,0.1,0.4,0.2
			c0.1,0.1,0.2,0.2,0.2,0.4c0,0.2-0.1,0.3-0.2,0.4C296.2,859.2,296.1,859.2,295.9,859.2 M297.2,858.3c-0.1,0-0.2,0-0.3,0.1
			c-0.1,0.1-0.1,0.2-0.1,0.3c0,0.1,0,0.2,0.1,0.3c0.2,0.1,0.4,0.1,0.5,0c0.1-0.1,0.1-0.2,0.1-0.3c0-0.1,0-0.2-0.1-0.3
			C297.4,858.3,297.3,858.3,297.2,858.3 M297.2,859.2c-0.2,0-0.3-0.1-0.4-0.2c-0.1-0.1-0.2-0.3-0.2-0.4c0-0.2,0.1-0.3,0.2-0.4
			c0.1-0.1,0.3-0.2,0.4-0.2c0.2,0,0.3,0.1,0.4,0.2c0.1,0.1,0.2,0.2,0.2,0.4c0,0.2-0.1,0.3-0.2,0.4
			C297.5,859.2,297.4,859.2,297.2,859.2 M296.6,864.7L296.6,864.7c0.5,0.5,1,0.7,1.6,0.7h0.9v-0.6h-0.9c-0.4,0-0.7-0.1-1-0.3
			c-0.2-0.2-0.3-0.5-0.3-0.8v-3.4h-0.6v3.4c0,0.3-0.1,0.6-0.3,0.8c-0.3,0.2-0.7,0.3-1.1,0.3h-0.1v0.6h0.1
			C295.5,865.4,296.1,865.2,296.6,864.7L296.6,864.7z M299.3,865.5h-1.1c-0.6,0-1.2-0.2-1.6-0.6c-0.5,0.4-1.1,0.7-1.7,0.6h-0.3v-0.9
			h0.3c0.3,0,0.7,0,1-0.2c0.2-0.2,0.3-0.4,0.2-0.7v-3.6h1v3.6c0,0.2,0.1,0.5,0.2,0.6c0.2,0.2,0.6,0.3,0.9,0.2h1.1L299.3,865.5z"/>
		<path id="Path_126" class="st0" d="M301.6,857.3v6.5c0,0.4-0.1,0.7-0.3,1c-0.2,0.3-0.5,0.5-0.8,0.5c-0.1,0-0.7,0-1.6,0v-0.7
			c0.5,0,0.8,0,1,0c0.3,0,0.6-0.1,0.8-0.4c0.1-0.2,0.2-0.3,0.2-0.5v-6.4H301.6z"/>
		<path id="Path_127" class="st0" d="M298.9,864.8v0.6c0.9,0,1.4,0,1.5,0c0.3,0,0.6-0.2,0.8-0.5c0.2-0.3,0.3-0.6,0.3-0.9v-6.4h-0.6
			v6.3c0,0.2-0.1,0.4-0.2,0.6c-0.2,0.2-0.5,0.4-0.9,0.4C299.6,864.8,299.4,864.8,298.9,864.8 M298.8,865.5L298.8,865.5l-0.1-0.9h0.1
			c0.5,0,0.8,0,1,0c0.3,0,0.5-0.1,0.7-0.3c0.1-0.1,0.2-0.3,0.2-0.5v-6.5h1v6.6c0,0.4-0.1,0.7-0.3,1c-0.2,0.3-0.5,0.5-0.9,0.6
			C300.4,865.5,300.1,865.5,298.8,865.5"/>
		<rect id="Rectangle_15" x="302.4" y="857.3" class="st0" width="0.8" height="8.1"/>
		<path id="Path_128" class="st0" d="M302.5,865.3h0.6v-7.9h-0.6V865.3z M303.3,865.5h-1v-8.3h1V865.5z"/>
		<path id="Path_129" class="st0" d="M306.7,860.8c0.5-0.5,1.3-0.8,2-0.8c0.8,0,1.5,0.3,2,0.8c0.5,0.4,0.8,1,0.9,1.7v2.2h0.8v0.8
			h-3.7c-0.8,0-1.5-0.3-2-0.8c-0.6-0.5-0.9-1.2-0.9-1.9C305.8,862,306.1,861.3,306.7,860.8 M308.7,860.8c-0.5,0-1.1,0.2-1.4,0.6
			c-0.4,0.4-0.6,0.9-0.6,1.4c0,0.5,0.2,1,0.6,1.4c0.4,0.4,0.9,0.6,1.4,0.6h2.1v-2c0-0.5-0.2-1-0.6-1.4
			C309.8,861,309.3,860.8,308.7,860.8 M308,858.2c0.3,0,0.5,0.2,0.5,0.5c0,0.1-0.1,0.3-0.1,0.3c-0.1,0.1-0.2,0.1-0.3,0.1
			c-0.1,0-0.3,0-0.3-0.1c-0.1-0.1-0.1-0.2-0.1-0.3C307.5,858.4,307.7,858.2,308,858.2 M309.3,858.2c0.1,0,0.2,0.1,0.3,0.1
			c0.1,0.1,0.2,0.2,0.1,0.3c0,0.1-0.1,0.3-0.1,0.3c-0.1,0.1-0.2,0.1-0.3,0.1c-0.1,0-0.3,0-0.3-0.1c-0.1-0.1-0.1-0.2-0.1-0.3
			c0-0.1,0-0.2,0.1-0.3C309.1,858.2,309.2,858.2,309.3,858.2"/>
		<path id="Path_130" class="st0" d="M308,858.3c-0.1,0-0.2,0-0.3,0.1c-0.1,0.1-0.1,0.2-0.1,0.3c0,0.1,0,0.2,0.1,0.3
			c0.2,0.1,0.4,0.1,0.5,0c0.1-0.1,0.1-0.2,0.1-0.3c0-0.1,0-0.2-0.1-0.3C308.2,858.3,308.1,858.3,308,858.3 M308,859.2
			c-0.2,0-0.3-0.1-0.4-0.2c-0.1-0.1-0.2-0.3-0.2-0.4c0-0.2,0.1-0.3,0.2-0.4c0.1-0.1,0.3-0.2,0.4-0.2c0.2,0,0.3,0.1,0.4,0.2
			c0.1,0.1,0.2,0.2,0.2,0.4c0,0.2-0.1,0.3-0.2,0.4C308.3,859.2,308.1,859.2,308,859.2 M309.3,858.3c-0.1,0-0.2,0-0.3,0.1
			c-0.1,0.1-0.1,0.2-0.1,0.3c0,0.1,0,0.2,0.1,0.3c0.2,0.1,0.4,0.1,0.5,0c0.1-0.1,0.1-0.2,0.1-0.3c0-0.1,0-0.2-0.1-0.3
			C309.5,858.3,309.4,858.3,309.3,858.3 M309.3,859.2c-0.2,0-0.3-0.1-0.4-0.2c-0.1-0.1-0.2-0.3-0.2-0.4c0-0.2,0.1-0.3,0.2-0.4
			c0.1-0.1,0.3-0.2,0.4-0.2c0.2,0,0.3,0.1,0.4,0.2c0.1,0.1,0.2,0.2,0.2,0.4c0,0.2-0.1,0.3-0.2,0.4
			C309.6,859.2,309.5,859.2,309.3,859.2 M308.7,860.9c-0.5,0-1,0.2-1.4,0.5c-0.4,0.3-0.6,0.8-0.6,1.3c0,0.5,0.2,1,0.6,1.3
			c0.4,0.4,0.9,0.6,1.4,0.6h2v-1.9c0-0.5-0.2-1-0.6-1.3C309.7,861.1,309.2,860.9,308.7,860.9 M310.9,864.8h-2.2
			c-0.6,0-1.1-0.2-1.5-0.6c-0.4-0.4-0.6-0.9-0.6-1.4c0-0.6,0.2-1.1,0.6-1.5c0.4-0.4,0.9-0.6,1.5-0.6c0.6,0,1.1,0.2,1.5,0.6
			c0.4,0.4,0.7,0.9,0.7,1.5V864.8z M306.7,860.8c-0.5,0.5-0.8,1.2-0.8,1.9c0,0.7,0.3,1.4,0.8,1.9c0.5,0.5,1.2,0.8,2,0.8h3.6v-0.6
			h-0.8v-2.3c-0.1-0.6-0.4-1.2-0.8-1.6c-0.5-0.5-1.2-0.8-2-0.8C308,860.1,307.3,860.3,306.7,860.8 M312.5,865.5h-3.8
			c-0.8,0-1.5-0.3-2.1-0.8c-0.6-0.5-0.9-1.2-0.9-2c0-0.8,0.3-1.5,0.9-2l0,0c0.6-0.5,1.3-0.8,2.1-0.8c0.8,0,1.5,0.3,2.1,0.8
			c0.5,0.5,0.8,1.1,0.9,1.8v2.1h0.8L312.5,865.5z"/>
		<rect id="Rectangle_16" x="312" y="864.7" class="st0" width="3.2" height="0.8"/>
		<path id="Path_131" class="st0" d="M312.1,865.3h3.1v-0.6h-3.1V865.3z M315.4,865.5h-3.4v-0.9h3.4V865.5z"/>
		<rect id="Rectangle_17" x="314.9" y="864.7" class="st0" width="3.2" height="0.8"/>
		<path id="Path_132" class="st0" d="M315,865.3h3.1v-0.6H315V865.3z M318.2,865.5h-3.4v-0.9h3.4V865.5z"/>
		<path id="Path_133" class="st0" d="M321.1,860.2v3.5c0,0.4-0.2,0.8-0.4,1.1c-0.4,0.5-1.1,0.7-1.7,0.6h-1.2v-0.8h1.2
			c0.4,0,0.7,0,1-0.2c0.2-0.2,0.3-0.5,0.3-0.7v-3.5L321.1,860.2z M319.1,866.2c0.1,0,0.3,0.1,0.3,0.1c0.1,0.1,0.2,0.2,0.1,0.3
			c0,0.1-0.1,0.3-0.1,0.3c-0.1,0.1-0.2,0.1-0.3,0.1c-0.1,0-0.3,0-0.3-0.1c-0.1-0.1-0.1-0.2-0.1-0.3c0-0.1,0-0.2,0.1-0.3
			C318.9,866.2,319,866.2,319.1,866.2 M320.5,866.2c0.1,0,0.3,0.1,0.3,0.1c0.1,0.1,0.2,0.2,0.1,0.3c0,0.1-0.1,0.3-0.1,0.3
			c-0.1,0.1-0.2,0.1-0.3,0.1c-0.1,0-0.3,0-0.3-0.1c-0.1-0.1-0.1-0.2-0.1-0.3C320,866.4,320.2,866.2,320.5,866.2"/>
		<path id="Path_134" class="st0" d="M317.8,865.3h1.1c0.6,0.1,1.2-0.2,1.6-0.6c0.3-0.3,0.4-0.6,0.4-1v-3.4h-0.6v3.4
			c0,0.3-0.1,0.6-0.3,0.8c-0.3,0.2-0.7,0.3-1.1,0.3h-1.1L317.8,865.3z M318.9,865.5h-1.3v-0.9h1.3c0.3,0,0.7,0,1-0.2
			c0.2-0.2,0.2-0.4,0.2-0.7v-3.6h1v3.6c0,0.4-0.2,0.8-0.4,1.1C320.3,865.3,319.6,865.6,318.9,865.5 M319.1,866.3
			c-0.1,0-0.2,0-0.3,0.1c-0.1,0.1-0.1,0.2-0.1,0.3c0,0.1,0,0.2,0.1,0.3c0.2,0.1,0.4,0.1,0.5,0c0.1-0.1,0.1-0.2,0.1-0.3
			c0-0.1,0-0.2-0.1-0.3C319.4,866.3,319.2,866.3,319.1,866.3 M319.1,867.3c-0.2,0-0.3-0.1-0.4-0.2c-0.1-0.1-0.2-0.3-0.2-0.4
			c0-0.2,0.1-0.3,0.2-0.4c0.1-0.1,0.3-0.2,0.4-0.2c0.2,0,0.3,0.1,0.4,0.2c0.1,0.1,0.2,0.2,0.2,0.4c0,0.2-0.1,0.3-0.2,0.4
			C319.4,867.2,319.3,867.3,319.1,867.3 M320.5,866.3c-0.2,0-0.4,0.2-0.4,0.4c0,0.1,0,0.2,0.1,0.3c0.2,0.1,0.4,0.1,0.6,0
			c0.1-0.1,0.1-0.2,0.1-0.3c0-0.1,0-0.2-0.1-0.3C320.7,866.3,320.6,866.3,320.5,866.3 M320.5,867.3c-0.2,0-0.3-0.1-0.4-0.2
			c-0.1-0.1-0.2-0.3-0.2-0.4c0-0.3,0.3-0.6,0.6-0.6c0.2,0,0.3,0.1,0.4,0.2c0.1,0.1,0.2,0.2,0.2,0.4c0,0.2-0.1,0.3-0.2,0.4
			C320.8,867.2,320.6,867.3,320.5,867.3"/>
		<path id="Path_135" class="st0" d="M324.4,864.7h0.6v0.8h-0.6v0.1c0,0.3-0.1,0.6-0.3,0.9c-0.2,0.4-0.6,0.6-1.1,0.7
			c-0.5,0.1-1,0.1-1.5,0.1v-0.8c0,0,0.1,0,0.1,0s0.1,0,0.2,0h0.3c0.3,0,0.6-0.1,0.9-0.2c0.3-0.1,0.5-0.4,0.5-0.8v-5.3h0.8V864.7z"/>
		<path id="Path_136" class="st0" d="M321.7,866.6v0.6c0.5,0,0.9,0,1.4-0.1c0.4,0,0.8-0.3,1-0.6c0.2-0.3,0.2-0.6,0.3-0.9v-0.2h0.6
			v-0.6h-0.6v-4.5h-0.6v5.2c0,0.4-0.2,0.7-0.5,0.8c-0.3,0.2-0.6,0.3-0.9,0.2H322C321.9,866.6,321.8,866.6,321.7,866.6L321.7,866.6
			 M321.7,867.3L321.7,867.3l-0.1-0.9h0.1c0,0,0.1,0,0.1,0s0.1,0,0.2,0h0.3c0.3,0,0.6-0.1,0.9-0.2c0.3-0.1,0.4-0.4,0.4-0.7v-5.4h1
			v4.5h0.6v0.9h-0.6v0c0,0.3-0.1,0.7-0.3,1c-0.2,0.4-0.7,0.7-1.1,0.7C322.6,867.3,322.2,867.3,321.7,867.3"/>
		<path id="Path_137" class="st0" d="M328.2,860c0.8,0,1.5,0.3,2,0.8c0.6,0.5,0.9,1.2,0.9,2c0,0.7-0.3,1.5-0.9,2
			c-0.6,0.5-1.3,0.8-2,0.7h-3.5v-0.8h1.5c-0.5-0.5-0.9-1.2-0.8-1.9c0-0.7,0.3-1.5,0.9-2C326.7,860.3,327.4,860,328.2,860
			 M328.2,860.8c-0.5,0-1.1,0.2-1.5,0.6c-0.8,0.7-0.8,1.9-0.1,2.6c0,0,0.1,0.1,0.1,0.1c0.8,0.7,2.1,0.7,2.9,0
			c0.4-0.3,0.6-0.8,0.6-1.4c0-0.5-0.2-1-0.6-1.4C329.3,861,328.7,860.8,328.2,860.8 M327.5,858.2c0.1,0,0.3,0.1,0.3,0.1
			c0.1,0.1,0.2,0.2,0.1,0.3c0,0.1-0.1,0.3-0.1,0.3c-0.1,0.1-0.2,0.1-0.3,0.1c-0.1,0-0.3,0-0.3-0.1c-0.1-0.1-0.1-0.2-0.1-0.3
			c0-0.1,0-0.2,0.1-0.3C327.2,858.2,327.4,858.2,327.5,858.2 M328.8,858.2c0.3,0,0.5,0.2,0.5,0.5c0,0.1-0.1,0.3-0.1,0.3
			c-0.1,0.1-0.2,0.1-0.3,0.1c-0.1,0-0.3,0-0.3-0.1c-0.1-0.1-0.1-0.2-0.1-0.3C328.4,858.4,328.6,858.2,328.8,858.2"/>
		<path id="Path_138" class="st0" d="M327.5,858.3c-0.1,0-0.2,0-0.3,0.1c-0.1,0.1-0.1,0.2-0.1,0.3c0,0.1,0,0.2,0.1,0.3
			c0.2,0.1,0.4,0.1,0.5,0c0.1-0.1,0.1-0.2,0.1-0.3c0-0.1,0-0.2-0.1-0.3C327.7,858.3,327.6,858.3,327.5,858.3 M327.5,859.2
			c-0.2,0-0.3-0.1-0.4-0.2c-0.1-0.1-0.2-0.3-0.2-0.4c0-0.2,0.1-0.3,0.2-0.4c0.1-0.1,0.3-0.2,0.4-0.2c0.2,0,0.3,0.1,0.4,0.2
			c0.1,0.1,0.2,0.2,0.2,0.4c0,0.2-0.1,0.3-0.2,0.4C327.8,859.2,327.7,859.2,327.5,859.2 M328.8,858.3c-0.2,0-0.4,0.2-0.4,0.4
			c0,0.1,0,0.2,0.1,0.3c0.1,0.1,0.2,0.1,0.3,0.1c0.1,0,0.2,0,0.3-0.1c0.1-0.1,0.1-0.2,0.1-0.3c0-0.1,0-0.2-0.1-0.3
			C329,858.3,328.9,858.3,328.8,858.3 M328.8,859.2c-0.2,0-0.3-0.1-0.4-0.2c-0.1-0.1-0.2-0.3-0.2-0.4c0-0.3,0.3-0.6,0.6-0.6
			c0.2,0,0.3,0.1,0.4,0.2c0.1,0.1,0.2,0.2,0.2,0.4c0,0.2-0.1,0.3-0.2,0.4C329.1,859.2,329,859.2,328.8,859.2 M328.2,860.9
			c-0.5,0-1,0.2-1.4,0.5c-0.7,0.7-0.8,1.8-0.1,2.5c0,0,0.1,0.1,0.1,0.1c0.8,0.7,2,0.7,2.8,0c0.4-0.3,0.6-0.8,0.6-1.3
			c0-0.5-0.2-1-0.6-1.3C329.2,861.1,328.7,860.9,328.2,860.9 M328.2,864.8c-0.6,0-1.1-0.2-1.5-0.6c-0.8-0.7-0.9-2-0.1-2.8
			c0,0,0.1-0.1,0.1-0.1c0.9-0.8,2.2-0.8,3,0c0.4,0.4,0.7,0.9,0.6,1.5c0,0.6-0.2,1.1-0.7,1.4C329.3,864.6,328.8,864.8,328.2,864.8
			 M324.8,865.4h3.4c0.7,0,1.4-0.2,2-0.7c0.5-0.5,0.8-1.2,0.8-1.9c0-0.7-0.3-1.4-0.8-1.9c-1.1-1-2.8-1-4,0c-0.5,0.5-0.8,1.2-0.8,1.9
			c0,0.7,0.3,1.4,0.8,1.9l0.2,0.2h-1.6V865.4z M328.2,865.5h-3.6v-0.9h1.3c-0.5-0.5-0.7-1.2-0.7-1.8c0-0.8,0.3-1.5,0.9-2
			c1.2-1.1,3-1.1,4.2,0c0.6,0.5,0.9,1.2,0.9,2c0,0.8-0.3,1.5-0.9,2C329.7,865.3,329,865.5,328.2,865.5"/>
		<path id="Path_139" class="st0" d="M334.6,860.8c0.5-0.5,1.3-0.8,2-0.8c0.8,0,1.5,0.3,2,0.8c0.5,0.4,0.8,1,0.9,1.7v2.2h0.8v0.8
			h-3.7c-0.8,0-1.5-0.3-2-0.8c-0.6-0.5-0.9-1.2-0.9-1.9C333.7,862,334,861.3,334.6,860.8 M336.6,860.8c-0.5,0-1.1,0.2-1.4,0.6
			c-0.4,0.4-0.6,0.9-0.6,1.4c0,0.5,0.2,1,0.6,1.4c0.4,0.4,0.9,0.6,1.4,0.6h2.1v-2c0-0.5-0.2-1-0.6-1.4
			C337.7,861,337.2,860.8,336.6,860.8 M335.9,858.2c0.3,0,0.5,0.2,0.5,0.5c0,0.1-0.1,0.3-0.1,0.3c-0.1,0.1-0.2,0.1-0.3,0.1
			c-0.1,0-0.3,0-0.3-0.1c-0.1-0.1-0.1-0.2-0.1-0.3C335.4,858.4,335.6,858.2,335.9,858.2 M337.2,858.2c0.1,0,0.3,0.1,0.3,0.1
			c0.1,0.1,0.2,0.2,0.1,0.3c0,0.1-0.1,0.3-0.1,0.3c-0.1,0.1-0.2,0.1-0.3,0.1c-0.1,0-0.3,0-0.3-0.1c-0.1-0.1-0.1-0.2-0.1-0.3
			c0-0.1,0-0.2,0.1-0.3C337,858.2,337.1,858.2,337.2,858.2"/>
		<path id="Path_140" class="st0" d="M335.9,858.3c-0.1,0-0.2,0-0.3,0.1c-0.1,0.1-0.1,0.2-0.1,0.3c0,0.1,0,0.2,0.1,0.3
			c0.1,0.1,0.2,0.1,0.3,0.1c0.1,0,0.2,0,0.3-0.1c0.1-0.1,0.1-0.2,0.1-0.3c0-0.1,0-0.2-0.1-0.3C336.1,858.3,336,858.3,335.9,858.3
			 M335.9,859.2c-0.2,0-0.3-0.1-0.4-0.2c-0.1-0.1-0.2-0.3-0.2-0.4c0-0.2,0.1-0.3,0.2-0.4c0.1-0.1,0.3-0.2,0.4-0.2
			c0.2,0,0.3,0.1,0.4,0.2c0.1,0.1,0.2,0.2,0.2,0.4c0,0.2-0.1,0.3-0.2,0.4C336.2,859.2,336.1,859.2,335.9,859.2 M337.2,858.3
			c-0.1,0-0.2,0-0.3,0.1c-0.1,0.1-0.1,0.2-0.1,0.3c0,0.1,0,0.2,0.1,0.3c0.2,0.1,0.4,0.1,0.5,0c0.1-0.1,0.1-0.2,0.1-0.3
			c0-0.1,0-0.2-0.1-0.3C337.5,858.3,337.4,858.3,337.2,858.3 M337.2,859.2c-0.2,0-0.3-0.1-0.4-0.2c-0.1-0.1-0.2-0.3-0.2-0.4
			c0-0.2,0.1-0.3,0.2-0.4c0.1-0.1,0.3-0.2,0.4-0.2c0.2,0,0.3,0.1,0.4,0.2c0.1,0.1,0.2,0.2,0.2,0.4c0,0.2-0.1,0.3-0.2,0.4
			C337.5,859.2,337.4,859.2,337.2,859.2 M336.6,860.9c-0.5,0-1,0.2-1.4,0.5c-0.4,0.3-0.6,0.8-0.6,1.3c0,0.5,0.2,1,0.6,1.3
			c0.4,0.4,0.9,0.6,1.4,0.6h2v-1.9c0-0.5-0.2-1-0.6-1.3C337.6,861.1,337.1,860.9,336.6,860.9 M338.8,864.8h-2.2
			c-0.6,0-1.1-0.2-1.5-0.6c-0.4-0.4-0.6-0.9-0.6-1.4c0-0.6,0.2-1.1,0.6-1.5c0.4-0.4,0.9-0.6,1.5-0.6c0.6,0,1.1,0.2,1.5,0.6
			c0.4,0.4,0.7,0.9,0.7,1.5L338.8,864.8z M334.7,860.8c-0.5,0.5-0.8,1.2-0.8,1.9c0,0.7,0.3,1.4,0.8,1.9c0.5,0.5,1.2,0.8,2,0.8h3.6
			v-0.6h-0.8v-2.3c-0.1-0.6-0.4-1.2-0.8-1.6C337.5,859.8,335.8,859.8,334.7,860.8 M340.4,865.5h-3.8c-0.8,0-1.5-0.3-2.1-0.8
			c-0.6-0.5-0.9-1.2-0.9-2c0-0.8,0.3-1.5,0.9-2c1.2-1.1,3-1.1,4.2,0c0.5,0.5,0.8,1.1,0.9,1.8v2.1h0.8L340.4,865.5z"/>
		<rect id="Rectangle_18" x="339.9" y="864.7" class="st0" width="3.2" height="0.8"/>
		<path id="Path_141" class="st0" d="M340,865.3h3.1v-0.6H340V865.3z M343.3,865.5h-3.4v-0.9h3.4V865.5z"/>
		<rect id="Rectangle_19" x="342.8" y="864.7" class="st0" width="3.2" height="0.8"/>
		<path id="Path_142" class="st0" d="M342.9,865.3h3.1v-0.6h-3.1V865.3z M346.1,865.5h-3.4v-0.9h3.4V865.5z"/>
		<path id="Path_143" class="st0" d="M350.4,858.2h-2.6c-0.2,0-0.3,0.1-0.4,0.2c-0.1,0.1-0.2,0.3-0.2,0.4c0,0.7,0,1.4,0.1,2.1
			c0.1,0.1,0.3,0.2,0.4,0.2h2.2c0.4,0,0.8,0.1,1.1,0.4c0.2,0.2,0.4,0.5,0.4,0.9c0,0.4,0,1,0,1.5c0,0.5-0.1,0.9-0.5,1.2
			c-0.3,0.3-0.8,0.4-1.2,0.3h-4.1v-0.7h4.1c0.4,0,0.8-0.4,0.8-0.8c0,0,0,0,0,0c0.1-0.6,0-1.2-0.2-1.8c-0.1-0.1-0.3-0.2-0.5-0.2h-2.2
			c-0.5,0-1-0.3-1.3-0.7c-0.1-0.8-0.2-1.6-0.1-2.4c0-0.8,0.6-1.4,1.4-1.4c0,0,0,0,0,0h2.7L350.4,858.2z"/>
		<path id="Path_144" class="st0" d="M345.7,865.3h4c0.4,0,0.8-0.1,1.1-0.3c0.3-0.3,0.5-0.7,0.4-1.2c0-0.6,0-1.1,0-1.5
			c0-0.3-0.1-0.6-0.4-0.8c-0.3-0.3-0.7-0.4-1.1-0.4h-2.2c-0.2,0-0.4-0.1-0.5-0.2c-0.1-0.1-0.1-0.1-0.1-2.1c0-0.2,0.1-0.4,0.2-0.5
			c0.1-0.1,0.3-0.2,0.5-0.2h2.5v-0.7h-2.6c-0.7,0-1.3,0.6-1.4,1.3c0,0,0,0,0,0c-0.1,0.8,0,1.6,0.1,2.3c0.2,0.4,0.7,0.7,1.2,0.7h2.2
			c0.2,0,0.4,0.1,0.6,0.2c0.1,0.1,0.2,0.4,0.2,1.8c0,0.3-0.1,0.5-0.3,0.7c-0.2,0.2-0.4,0.2-0.6,0.3h-4L345.7,865.3z M349.8,865.5
			h-4.2v-0.9h4.2c0.4,0,0.7-0.3,0.7-0.7c0,0,0,0,0,0c0-1.5-0.1-1.7-0.1-1.7c-0.1-0.1-0.3-0.2-0.5-0.2h-2.2c-0.6,0-1.1-0.3-1.3-0.8
			c-0.2-0.8-0.2-1.6-0.1-2.4c0-0.8,0.7-1.5,1.5-1.5c0,0,0,0,0,0h2.7v1h-2.7c-0.1,0-0.3,0-0.4,0.1c-0.1,0.1-0.2,0.2-0.1,0.4
			c0,0.7,0,1.3,0.1,2c0.1,0.1,0.2,0.1,0.4,0.1h2.2c0.4,0,0.9,0.1,1.2,0.4c0.3,0.2,0.4,0.6,0.4,0.9c0,0.5,0,1,0,1.6
			c0,0.5-0.2,1-0.5,1.3C350.6,865.4,350.2,865.6,349.8,865.5"/>
		<path id="Path_145" class="st0" d="M354.8,864.7h0.6v0.8h-0.6v0.1c0,0.3-0.1,0.6-0.3,0.9c-0.2,0.4-0.6,0.6-1.1,0.7
			c-0.2,0,0.2,0.1-0.5,0.1l-0.9-0.8c0,0,0.1,0,0.1,0s0.1,0,0.2,0h0.3c0.3,0,0.6-0.1,0.9-0.2c0.3-0.1,0.5-0.4,0.5-0.8v-5.3h0.8
			L354.8,864.7z"/>
		<path id="Path_146" class="st0" d="M352.1,866.6l0.9,0.6c0.9,0,0.3,0,0.4-0.1c0.4,0,0.8-0.3,1-0.6c0.2-0.3,0.2-0.6,0.3-0.9v-0.2
			h0.6v-0.6h-0.6v-4.5h-0.6v5.2c0,0.4-0.2,0.7-0.5,0.8c-0.3,0.2-0.6,0.3-0.9,0.2h-0.3C352.2,866.6,352.2,866.6,352.1,866.6
			L352.1,866.6 M352.9,867.3L352.9,867.3l-1-0.9h0.1c0,0,0.1,0,0.1,0s0.1,0,0.2,0h0.3c0.3,0,0.6-0.1,0.9-0.2
			c0.3-0.1,0.4-0.4,0.4-0.7v-5.4h1v4.5h0.6v0.9h-0.6v0c0,0.3-0.1,0.7-0.3,1c-0.2,0.4-0.7,0.7-1.1,0.7
			C353.3,867.3,353.7,867.3,352.9,867.3"/>
		<path id="Path_147" class="st0" d="M362.5,860.1v3.5c0,0.5-0.2,1-0.5,1.3c-0.3,0.3-0.8,0.5-1.3,0.5c-0.6-0.8-1.7-0.9-2.5-0.3
			c-0.1,0.1-0.2,0.2-0.3,0.3c-0.5,0-0.9-0.2-1.3-0.5l-0.1-0.1c-0.3,0.4-0.8,0.6-1.3,0.6H355v-0.8h0.2c0.2,0,0.5-0.1,0.6-0.3
			c0.2-0.2,0.3-0.4,0.3-0.6v-3.6h0.8v3c0,0.4,0,0.7,0.1,1.1c0.1,0.4,0.5,0.6,0.8,0.5c0.3,0,0.5-0.1,0.7-0.3c0.2-0.2,0.3-0.5,0.3-0.7
			v-3.5h0.8v3.5c0,0.3,0.1,0.5,0.3,0.7c0.4,0.4,1,0.4,1.4,0c0,0,0,0,0,0c0.2-0.2,0.3-0.5,0.3-0.7v-3.5L362.5,860.1z M358.7,858.2
			c0.1,0,0.3,0.1,0.3,0.1c0.1,0.1,0.2,0.2,0.1,0.3c0,0.1-0.1,0.3-0.1,0.3c-0.1,0.1-0.2,0.1-0.3,0.1c-0.1,0-0.3,0-0.3-0.1
			c-0.1-0.1-0.1-0.2-0.1-0.3c0-0.1,0-0.2,0.1-0.3C358.4,858.2,358.6,858.2,358.7,858.2 M359.3,857c0.1,0,0.3,0.1,0.3,0.1
			c0.1,0.1,0.2,0.2,0.1,0.3c0,0.1-0.1,0.3-0.1,0.3c-0.1,0.1-0.2,0.1-0.3,0.1c-0.1,0-0.3,0-0.3-0.1c-0.1-0.1-0.1-0.2-0.1-0.3
			C358.8,857.2,359.1,857,359.3,857 M360,858.2c0.3,0,0.5,0.2,0.5,0.5c0,0.1-0.1,0.3-0.1,0.3c-0.1,0.1-0.2,0.1-0.3,0.1
			c-0.1,0-0.3,0-0.3-0.1c-0.1-0.1-0.1-0.2-0.1-0.3C359.5,858.4,359.8,858.2,360,858.2"/>
		<path id="Path_148" class="st0" d="M359.3,857c-0.2,0-0.4,0.2-0.4,0.4c0,0.1,0,0.2,0.1,0.3c0.2,0.1,0.4,0.1,0.5,0
			c0.1-0.1,0.1-0.2,0.1-0.3c0-0.1,0-0.2-0.1-0.3C359.5,857.1,359.4,857,359.3,857 M359.3,858c-0.2,0-0.3-0.1-0.4-0.2
			c-0.1-0.1-0.2-0.3-0.2-0.4c0-0.3,0.3-0.6,0.6-0.6c0.2,0,0.3,0.1,0.4,0.2c0.1,0.1,0.2,0.2,0.2,0.4c0,0.2-0.1,0.3-0.2,0.4
			C359.6,858,359.5,858,359.3,858 M358.7,858.3c-0.1,0-0.2,0-0.3,0.1c-0.1,0.1-0.1,0.2-0.1,0.3c0,0.1,0,0.2,0.1,0.3
			c0.2,0.1,0.4,0.1,0.6,0c0.1-0.1,0.1-0.2,0.1-0.3c0-0.1,0-0.2-0.1-0.3C358.9,858.3,358.8,858.3,358.7,858.3 M358.7,859.2
			c-0.2,0-0.3-0.1-0.4-0.2c-0.1-0.1-0.2-0.3-0.2-0.4c0-0.2,0.1-0.3,0.2-0.4c0.1-0.1,0.3-0.2,0.4-0.2c0.2,0,0.3,0.1,0.4,0.2
			c0.1,0.1,0.2,0.2,0.2,0.4c0,0.2-0.1,0.3-0.2,0.4C359,859.2,358.8,859.2,358.7,859.2 M360,858.3c-0.2,0-0.4,0.2-0.4,0.4
			c0,0.1,0,0.2,0.1,0.3c0.2,0.1,0.4,0.1,0.6,0c0.1-0.1,0.1-0.2,0.1-0.3c0-0.1,0-0.2-0.1-0.3C360.2,858.3,360.1,858.3,360,858.3
			 M360,859.3c-0.2,0-0.3-0.1-0.4-0.2c-0.1-0.1-0.2-0.3-0.2-0.4c0-0.3,0.3-0.6,0.6-0.6c0.2,0,0.3,0.1,0.4,0.2
			c0.1,0.1,0.2,0.2,0.2,0.4c0,0.2-0.1,0.3-0.2,0.4C360.3,859.2,360.2,859.3,360,859.3 M359.3,864.6L359.3,864.6
			c0.4,0.5,0.9,0.8,1.4,0.7c0.5,0,0.9-0.2,1.2-0.5c0.3-0.3,0.5-0.8,0.5-1.2v-3.4h-0.7v3.4c0,0.3-0.1,0.6-0.3,0.8
			c-0.4,0.4-1.1,0.4-1.5,0c0,0,0,0,0,0c-0.2-0.2-0.3-0.5-0.3-0.8v-3.4H359v3.4c0,0.3-0.1,0.6-0.3,0.8c-0.2,0.2-0.5,0.3-0.8,0.3
			c-0.4,0-0.8-0.2-0.9-0.6c-0.1-0.4-0.1-0.7-0.1-1.1v-2.9h-0.6v3.5c0,0.3-0.1,0.5-0.3,0.7c-0.2,0.2-0.4,0.3-0.7,0.3h-0.2v0.6h0.2
			c0.5,0,0.9-0.2,1.2-0.6l0.1-0.1l0.2,0.2c0.3,0.3,0.7,0.5,1.2,0.5C358.4,865.4,358.9,865.1,359.3,864.6L359.3,864.6z M360.7,865.6
			c-0.7-0.8-1.8-0.8-2.6-0.2c-0.1,0.1-0.1,0.1-0.2,0.2c-0.5,0-1-0.2-1.3-0.6l0,0c-0.3,0.4-0.8,0.6-1.3,0.6h-0.3v-0.9h0.3
			c0.2,0,0.4-0.1,0.6-0.3c0.1-0.2,0.2-0.4,0.2-0.6v-3.7h1v3c0,0.3,0,0.7,0.1,1c0.1,0.3,0.4,0.5,0.8,0.5c0.2,0,0.5-0.1,0.6-0.3
			c0.2-0.2,0.3-0.4,0.3-0.7v-3.6h1v3.6c0,0.2,0.1,0.5,0.2,0.7c0.3,0.3,0.9,0.4,1.2,0c0,0,0,0,0,0c0.2-0.2,0.2-0.4,0.2-0.7v-3.6h1
			v3.5c0,0.5-0.2,1-0.5,1.4C361.7,865.3,361.2,865.5,360.7,865.6"/>
	</g>
</g>
</svg>
