<svg xmlns="http://www.w3.org/2000/svg" width="90.553" height="78.398" viewBox="0 0 90.553 78.398">
  <g id="Group_21" data-name="Group 21" transform="translate(-256.166 -789.925)">
    <g id="Group_8462" data-name="Group 8462" transform="translate(-68.627 -39.627)">
      <path id="Path_100" data-name="Path 100" d="M352.4,850.726h0l-.011.02.021-.013-.011-.007" transform="translate(17.636 3.881)" fill="#618a6e"/>
      <path id="Path_101" data-name="Path 101" d="M352.421,850.726h0l-.013.007.022.013Z" transform="translate(17.64 3.881)" fill="#618a6e"/>
      <path id="Path_102" data-name="Path 102" d="M355.585,857.73l-1.61-3.249-.019-.011-.019.011-1.612,3.249-8.353,16.844a3.045,3.045,0,0,0,4.079-1.374l5.9-11.91,5.9,11.91a3.042,3.042,0,0,0,4.076,1.374Z" transform="translate(16.094 4.567)" fill="#618a6e"/>
      <path id="Path_103" data-name="Path 103" d="M353.587,870.6l-1.028-2.415-.012-.008-.013.008-1.028,2.415a2.541,2.541,0,0,0,.17.6l.871,2.045.87-2.045a2.489,2.489,0,0,0,.17-.6" transform="translate(17.474 7.079)" fill="#618a6e"/>
      <path id="Path_104" data-name="Path 104" d="M350.353,860.833l-.152-.076,6.168-12.252.151.076Z" transform="translate(17.235 3.474)" fill="#618a6e"/>
      <path id="Path_105" data-name="Path 105" d="M355.416,860.832l-6-12.252.151-.075,6,12.252Z" transform="translate(17.091 3.474)" fill="#618a6e"/>
      <rect id="Rectangle_8" data-name="Rectangle 8" width="0.169" height="18.082" transform="translate(369.964 861.904)" fill="#618a6e"/>
      <path id="Path_106" data-name="Path 106" d="M347.344,834.872a.264.264,0,0,0-.419-.02l-6.788,7.991a.264.264,0,0,0,.373.373q2.458-2.087,4.918-4.176a.264.264,0,0,1,.434.175q.156,1.562.311,3.124a.265.265,0,0,0,.4.2l1.97-1.2a.265.265,0,0,1,.387.139l.071.2,1.528-2.2q-1.592-2.3-3.185-4.6" transform="translate(15.378 0.954)" fill="#618a6e"/>
      <path id="Path_107" data-name="Path 107" d="M365.242,842.362l-8.678-10.216a.339.339,0,0,0-.536.026l-5.405,7.8-1.528,2.2-9.472,13.667a.338.338,0,0,0,.535.412l5.3-6.227a.339.339,0,0,1,.469-.045l1.38,1.1a.337.337,0,0,0,.531-.157l2.087-6.255a.276.276,0,0,1,.035-.07.336.336,0,0,1,.57,0l.763,1.208c.06.1.122.194.183.291a.339.339,0,0,0,.6-.068c.073-.208.147-.418.221-.625q.353-1,.708-2,.5-1.4.993-2.8a.336.336,0,0,1,.493-.175l2.519,1.536a.337.337,0,0,0,.512-.254q.2-2,.4-3.994a.339.339,0,0,1,.556-.224l6.287,5.339a.338.338,0,0,0,.477-.477" transform="translate(15.285 0.454)" fill="#618a6e"/>
      <path id="Path_108" data-name="Path 108" d="M354.771,884.916c-8.412,0-15.255-6.422-15.255-14.315V843.866c0-7.892,6.843-14.314,15.255-14.314s15.255,6.422,15.255,14.314V870.6c0,7.894-6.843,14.315-15.255,14.315m0-54.416c-7.855,0-14.246,6-14.246,13.366V870.6c0,7.371,6.391,13.368,14.246,13.368s14.246-6,14.246-13.368V843.866c0-7.371-6.391-13.366-14.246-13.366" transform="translate(15.277)" fill="#618a6e"/>
      <path id="Path_109" data-name="Path 109" d="M352.355,847.858a.228.228,0,0,0,.315.33l.044-.037c.044-.04.088-.078.133-.117q.36-.318.722-.634c.08-.072.162-.143.244-.214l.882-.776a.23.23,0,0,0-.147-.4l-.95-.025a.23.23,0,0,1-.167-.382q1.507-1.723,3.014-3.447a.232.232,0,0,0-.175-.383h-.009a.23.23,0,0,1-.169-.387l2.012-2.189a.231.231,0,0,1,.338,0q1.226,1.319,2.452,2.636a.231.231,0,0,1-.168.389h-.5a.23.23,0,0,0-.168.389l3.289,3.472a.232.232,0,0,1-.168.391H362.14a.23.23,0,0,0-.156.4l5.482,5.08-4.389-4.531a.231.231,0,0,1,.166-.392h1.1a.231.231,0,0,0,.167-.392l-3.1-3.2-.265-.273a.23.23,0,0,1,.166-.392h.467a.231.231,0,0,0,.166-.392l-3.849-3.975a.231.231,0,0,0-.331,0l-3.849,3.975a.231.231,0,0,0,.167.392h.467a.231.231,0,0,1,.166.392l-.265.273-1.567,1.618-.271.279-.3.309-.208.215-.757.781a.231.231,0,0,0,.166.392h1.1a.231.231,0,0,1,.166.392Z" transform="translate(17.433 1.609)" fill="#618a6e"/>
    </g>
    <g id="Group_8463" data-name="Group 8463">
      <path id="Path_110" data-name="Path 110" d="M256.957,849.558a2.434,2.434,0,0,1,1.728-.682,2.461,2.461,0,0,1,1.735.682,2.162,2.162,0,0,1,.742,1.458v1.879h.674v.64h-3.151a2.445,2.445,0,0,1-1.728-.665,2.17,2.17,0,0,1-.724-1.652,2.2,2.2,0,0,1,.724-1.66m1.728-.008a1.723,1.723,0,0,0-1.231.489,1.552,1.552,0,0,0-.514,1.18,1.585,1.585,0,0,0,.514,1.171,1.789,1.789,0,0,0,1.231.505h1.786v-1.677a1.56,1.56,0,0,0-.548-1.18,1.77,1.77,0,0,0-1.238-.489m-.607-2.2a.429.429,0,0,1,.412.413.4.4,0,0,1-.125.295.392.392,0,0,1-.286.117.4.4,0,0,1-.295-.117.436.436,0,0,1-.118-.295.416.416,0,0,1,.413-.413m1.137,0a.38.38,0,0,1,.286.125.365.365,0,0,1,.127.288.4.4,0,0,1-.127.295.39.39,0,0,1-.286.117.4.4,0,0,1-.295-.117.442.442,0,0,1-.118-.295.4.4,0,0,1,.118-.288.375.375,0,0,1,.295-.125" transform="translate(0.012 3.262)" fill="#618a6e"/>
      <path id="Path_111" data-name="Path 111" d="M258.09,847.442a.314.314,0,0,0-.238.1.32.32,0,0,0-.1.234.361.361,0,0,0,.1.244.342.342,0,0,0,.467,0,.329.329,0,0,0,.1-.24.289.289,0,0,0-.1-.228.294.294,0,0,0-.236-.105m0,.825a.478.478,0,0,1-.35-.14.525.525,0,0,1-.141-.351.469.469,0,0,1,.141-.342.46.46,0,0,1,.35-.149.438.438,0,0,1,.346.153.432.432,0,0,1,.146.338.485.485,0,0,1-.149.351.471.471,0,0,1-.342.14m1.137-.825a.294.294,0,0,0-.236.1.321.321,0,0,0-.1.236.363.363,0,0,0,.1.244.341.341,0,0,0,.466,0,.328.328,0,0,0,.1-.24.286.286,0,0,0-.1-.228.308.308,0,0,0-.235-.105m0,.825a.475.475,0,0,1-.349-.14.526.526,0,0,1-.142-.351.471.471,0,0,1,.141-.342.447.447,0,0,1,.35-.149.454.454,0,0,1,.344.15.438.438,0,0,1,.148.341.487.487,0,0,1-.149.35.468.468,0,0,1-.343.141m-.53,1.374a1.651,1.651,0,0,0-1.176.467,1.479,1.479,0,0,0-.49,1.122,1.517,1.517,0,0,0,.489,1.115,1.724,1.724,0,0,0,1.177.484H260.4v-1.6a1.5,1.5,0,0,0-.522-1.122,1.7,1.7,0,0,0-1.186-.467m1.864,3.345H258.7a1.871,1.871,0,0,1-1.283-.527,1.67,1.67,0,0,1-.54-1.227,1.635,1.635,0,0,1,.538-1.239,1.808,1.808,0,0,1,1.284-.51,1.85,1.85,0,0,1,1.291.51,1.638,1.638,0,0,1,.573,1.237Zm-3.537-3.359a2.133,2.133,0,0,0-.7,1.6,2.105,2.105,0,0,0,.7,1.6,2.385,2.385,0,0,0,1.674.645h3.073v-.484H261.1v-1.957a2.087,2.087,0,0,0-.716-1.4,2.4,2.4,0,0,0-1.683-.663,2.367,2.367,0,0,0-1.673.66m4.9,4H258.7a2.532,2.532,0,0,1-1.781-.686,2.259,2.259,0,0,1-.749-1.71,2.283,2.283,0,0,1,.749-1.717,2.521,2.521,0,0,1,1.781-.7,2.55,2.55,0,0,1,1.788.7,2.236,2.236,0,0,1,.767,1.509v1.807h.674Z" transform="translate(0 3.25)" fill="#618a6e"/>
      <rect id="Rectangle_9" data-name="Rectangle 9" width="2.763" height="0.64" transform="translate(261.511 856.158)" fill="#618a6e"/>
      <path id="Path_112" data-name="Path 112" d="M260.773,852.61h2.607v-.483h-2.607Zm2.763.157h-2.92v-.8h2.92Z" transform="translate(0.816 4.109)" fill="#618a6e"/>
      <rect id="Rectangle_10" data-name="Rectangle 10" width="2.764" height="0.64" transform="translate(263.937 856.158)" fill="#618a6e"/>
      <path id="Path_113" data-name="Path 113" d="M262.823,852.61h2.608v-.483h-2.608Zm2.764.157h-2.92v-.8h2.92Z" transform="translate(1.192 4.109)" fill="#618a6e"/>
      <rect id="Rectangle_11" data-name="Rectangle 11" width="2.764" height="0.64" transform="translate(266.362 856.158)" fill="#618a6e"/>
      <path id="Path_114" data-name="Path 114" d="M264.874,852.61h2.607v-.483h-2.607Zm2.763.157h-2.92v-.8h2.92Z" transform="translate(1.567 4.109)" fill="#618a6e"/>
      <rect id="Rectangle_12" data-name="Rectangle 12" width="2.764" height="0.64" transform="translate(268.79 856.158)" fill="#618a6e"/>
      <path id="Path_115" data-name="Path 115" d="M266.925,852.61h2.607v-.483h-2.607Zm2.764.157h-2.92v-.8h2.92Z" transform="translate(1.943 4.109)" fill="#618a6e"/>
      <path id="Path_116" data-name="Path 116" d="M271.893,849.772a2.462,2.462,0,0,1,1.736.673,2.227,2.227,0,0,1,0,3.3,2.55,2.55,0,0,1-3.455,0,2.242,2.242,0,0,1-.5-.658h-.792v-.64h.59a2.271,2.271,0,0,1,.7-2.006,2.442,2.442,0,0,1,1.719-.673m0,.673a1.746,1.746,0,0,0-1.229.48,1.582,1.582,0,0,0,.008,2.343,1.85,1.85,0,0,0,2.451,0,1.563,1.563,0,0,0,.523-1.162,1.53,1.53,0,0,0-.514-1.181,1.779,1.779,0,0,0-1.239-.48" transform="translate(2.331 3.706)" fill="#618a6e"/>
      <path id="Path_117" data-name="Path 117" d="M271.9,850.537a1.666,1.666,0,0,0-1.176.459,1.478,1.478,0,0,0-.49,1.122,1.5,1.5,0,0,0,.5,1.105,1.773,1.773,0,0,0,2.346,0,1.505,1.505,0,0,0,.008-2.228,1.7,1.7,0,0,0-1.186-.458m0,3.286a1.841,1.841,0,0,1-1.273-.484,1.66,1.66,0,0,1-.011-2.458,1.824,1.824,0,0,1,1.284-.5,1.854,1.854,0,0,1,1.292.5,1.615,1.615,0,0,1,.54,1.238,1.653,1.653,0,0,1-.549,1.22,1.854,1.854,0,0,1-1.283.484m-2.93-.8h.763l.021.044a2.143,2.143,0,0,0,.479.634,2.469,2.469,0,0,0,3.349,0,2.145,2.145,0,0,0,0-3.187,2.388,2.388,0,0,0-1.683-.654,2.364,2.364,0,0,0-1.665.654,2.12,2.12,0,0,0-.7,1.6,2.169,2.169,0,0,0,.025.334l.014.09h-.6Zm2.93,1.489a2.533,2.533,0,0,1-1.773-.695,2.3,2.3,0,0,1-.491-.638h-.822v-.8h.579a2.448,2.448,0,0,1-.014-.267,2.273,2.273,0,0,1,.749-1.716,2.628,2.628,0,0,1,3.562,0,2.305,2.305,0,0,1,0,3.419,2.555,2.555,0,0,1-1.789.695" transform="translate(2.319 3.694)" fill="#618a6e"/>
      <path id="Path_118" data-name="Path 118" d="M274.774,853h.674v.64h-1.365V846.76h.691Z" transform="translate(3.284 3.154)" fill="#618a6e"/>
      <path id="Path_119" data-name="Path 119" d="M274.173,853.577h1.209v-.484h-.674V846.85h-.535Zm1.366.156h-1.522v-7.039h.847v6.243h.674Z" transform="translate(3.272 3.142)" fill="#618a6e"/>
      <path id="Path_120" data-name="Path 120" d="M277.96,849.772a2.466,2.466,0,0,1,1.736.673,2.272,2.272,0,0,1,.7,2.006h.574v.64h-.776a2.217,2.217,0,0,1-.5.658,2.5,2.5,0,0,1-1.736.674,2.441,2.441,0,0,1-1.719-.674,2.243,2.243,0,0,1-.5-.658h-.792v-.64h.589a2.286,2.286,0,0,1,.7-2.006,2.44,2.44,0,0,1,1.719-.673m0,.673a1.748,1.748,0,0,0-1.231.48,1.582,1.582,0,0,0,.008,2.343,1.852,1.852,0,0,0,2.452,0,1.568,1.568,0,0,0,.523-1.162,1.53,1.53,0,0,0-.514-1.181,1.78,1.78,0,0,0-1.239-.48" transform="translate(3.443 3.706)" fill="#618a6e"/>
      <path id="Path_121" data-name="Path 121" d="M277.972,850.537a1.671,1.671,0,0,0-1.177.459,1.483,1.483,0,0,0-.49,1.122,1.5,1.5,0,0,0,.5,1.105,1.771,1.771,0,0,0,2.345,0,1.5,1.5,0,0,0,.009-2.228,1.705,1.705,0,0,0-1.186-.458m0,3.286a1.844,1.844,0,0,1-1.274-.484,1.659,1.659,0,0,1-.009-2.458,1.824,1.824,0,0,1,1.284-.5,1.853,1.853,0,0,1,1.291.5,1.611,1.611,0,0,1,.54,1.238,1.652,1.652,0,0,1-.549,1.22,1.851,1.851,0,0,1-1.282.484m-2.931-.8h.763l.021.044a2.152,2.152,0,0,0,.48.634,2.373,2.373,0,0,0,1.666.654,2.446,2.446,0,0,0,1.684-.654,2.134,2.134,0,0,0,.478-.634l.021-.044h.747v-.484h-.586l.013-.09a2.25,2.25,0,0,0,.025-.334,2.111,2.111,0,0,0-.7-1.6,2.469,2.469,0,0,0-3.349,0,2.122,2.122,0,0,0-.7,1.6,2.272,2.272,0,0,0,.024.334l.014.09h-.6Zm2.931,1.489a2.529,2.529,0,0,1-1.773-.695,2.3,2.3,0,0,1-.492-.638h-.822v-.8h.58a2.4,2.4,0,0,1-.014-.267,2.273,2.273,0,0,1,.749-1.716,2.628,2.628,0,0,1,3.562,0,2.266,2.266,0,0,1,.749,1.717,2.531,2.531,0,0,1-.014.267h.562v.8h-.806a2.315,2.315,0,0,1-.491.638,2.6,2.6,0,0,1-1.789.695" transform="translate(3.431 3.694)" fill="#618a6e"/>
      <rect id="Rectangle_13" data-name="Rectangle 13" width="2.764" height="0.64" transform="translate(284.074 856.158)" fill="#618a6e"/>
      <path id="Path_122" data-name="Path 122" d="M279.841,852.61h2.607v-.483h-2.607Zm2.764.157h-2.92v-.8h2.92Z" transform="translate(4.311 4.109)" fill="#618a6e"/>
      <rect id="Rectangle_14" data-name="Rectangle 14" width="2.764" height="0.64" transform="translate(286.5 856.158)" fill="#618a6e"/>
      <path id="Path_123" data-name="Path 123" d="M281.891,852.61H284.5v-.483h-2.608Zm2.764.157h-2.92v-.8h2.92Z" transform="translate(4.687 4.109)" fill="#618a6e"/>
      <path id="Path_124" data-name="Path 124" d="M285.832,849.272v2.958a.8.8,0,0,0,.227.606,1.113,1.113,0,0,0,.793.219h.867v.641h-.867a1.685,1.685,0,0,1-1.374-.548,1.749,1.749,0,0,1-1.458.548h-.168v-.641h.168a1.31,1.31,0,0,0,.885-.209.869.869,0,0,0,.227-.615v-2.958Zm-.927-1.761a.434.434,0,0,1,.413.413.4.4,0,0,1-.127.295.388.388,0,0,1-.286.118.4.4,0,0,1-.295-.118.433.433,0,0,1-.118-.295.418.418,0,0,1,.413-.413m.548-1.037a.434.434,0,0,1,.413.413.409.409,0,0,1-.127.3.4.4,0,0,1-.286.118.405.405,0,0,1-.3-.118.445.445,0,0,1-.118-.3.392.392,0,0,1,.118-.286.373.373,0,0,1,.3-.127m.589,1.037a.379.379,0,0,1,.286.127.358.358,0,0,1,.127.286.4.4,0,0,1-.127.295.388.388,0,0,1-.286.118.4.4,0,0,1-.295-.118.433.433,0,0,1-.118-.295.388.388,0,0,1,.118-.286.371.371,0,0,1,.295-.127" transform="translate(5.074 3.102)" fill="#618a6e"/>
      <path id="Path_125" data-name="Path 125" d="M285.465,846.565a.3.3,0,0,0-.237.1.315.315,0,0,0-.1.234.362.362,0,0,0,.1.244.338.338,0,0,0,.466,0,.329.329,0,0,0,.1-.24.3.3,0,0,0-.1-.228.307.307,0,0,0-.233-.107m0,.827a.483.483,0,0,1-.35-.141.525.525,0,0,1-.142-.352.468.468,0,0,1,.142-.342.443.443,0,0,1,.35-.149.455.455,0,0,1,.343.151.448.448,0,0,1,.148.34.489.489,0,0,1-.149.35.472.472,0,0,1-.342.142m-.548.209a.339.339,0,0,0-.335.335.365.365,0,0,0,.1.244.339.339,0,0,0,.466,0,.326.326,0,0,0,.1-.239.283.283,0,0,0-.1-.227.288.288,0,0,0-.234-.108m0,.826a.476.476,0,0,1-.35-.141.521.521,0,0,1-.142-.35.5.5,0,0,1,.492-.491.51.51,0,0,1,.491.491.482.482,0,0,1-.149.35.467.467,0,0,1-.342.141m1.137-.826a.291.291,0,0,0-.236.1.321.321,0,0,0-.1.236.36.36,0,0,0,.1.244.338.338,0,0,0,.466,0,.322.322,0,0,0,.1-.239.281.281,0,0,0-.1-.227.313.313,0,0,0-.235-.108m0,.826a.476.476,0,0,1-.35-.141.52.52,0,0,1-.141-.35.469.469,0,0,1,.141-.342.441.441,0,0,1,.35-.149.459.459,0,0,1,.343.15.433.433,0,0,1,.148.341.478.478,0,0,1-.149.35.467.467,0,0,1-.342.141m-.566,4.608.062.075a1.614,1.614,0,0,0,1.313.521h.789v-.484h-.789a1.173,1.173,0,0,1-.848-.244.876.876,0,0,1-.25-.66v-2.879h-.543v2.879a.951.951,0,0,1-.247.669,1.351,1.351,0,0,1-.943.235h-.09v.484h.09a1.684,1.684,0,0,0,1.4-.518Zm2.32.751h-.945a1.8,1.8,0,0,1-1.373-.506,1.894,1.894,0,0,1-1.459.506h-.246v-.8h.246a1.254,1.254,0,0,0,.829-.187.785.785,0,0,0,.2-.56v-3.036h.856v3.036a.727.727,0,0,0,.2.549,1.052,1.052,0,0,0,.738.2h.945Z" transform="translate(5.062 3.09)" fill="#618a6e"/>
      <path id="Path_126" data-name="Path 126" d="M289.2,846.76v5.552a1.426,1.426,0,0,1-.261.842.99.99,0,0,1-.7.464q-.151.025-1.4.025V853c.421,0,.693,0,.818-.017a1,1,0,0,0,.683-.311.782.782,0,0,0,.168-.464V846.76Z" transform="translate(5.621 3.154)" fill="#618a6e"/>
      <path id="Path_127" data-name="Path 127" d="M286.925,853.093v.484c.777,0,1.218-.01,1.309-.025a.9.9,0,0,0,.646-.429,1.355,1.355,0,0,0,.249-.8V846.85h-.535v5.372a.854.854,0,0,1-.183.511,1.066,1.066,0,0,1-.735.342c-.121.011-.366.018-.75.018m-.078.64h-.078v-.8h.078c.419,0,.692-.006.811-.017a.918.918,0,0,0,.627-.281.7.7,0,0,0,.153-.417v-5.53h.848v5.631a1.508,1.508,0,0,1-.277.887,1.066,1.066,0,0,1-.75.5c-.065.012-.284.026-1.412.026" transform="translate(5.609 3.142)" fill="#618a6e"/>
      <rect id="Rectangle_15" data-name="Rectangle 15" width="0.692" height="6.883" transform="translate(295.489 849.915)" fill="#618a6e"/>
      <path id="Path_128" data-name="Path 128" d="M289.489,853.577h.535V846.85h-.535Zm.691.157h-.848v-7.041h.848Z" transform="translate(6.079 3.142)" fill="#618a6e"/>
      <path id="Path_129" data-name="Path 129" d="M292.6,849.558a2.434,2.434,0,0,1,1.728-.682,2.462,2.462,0,0,1,1.736.682,2.157,2.157,0,0,1,.742,1.458v1.879h.674v.64h-3.152a2.453,2.453,0,0,1-1.728-.665,2.174,2.174,0,0,1-.724-1.652,2.2,2.2,0,0,1,.724-1.66m1.728-.008a1.722,1.722,0,0,0-1.229.489,1.556,1.556,0,0,0-.514,1.18,1.589,1.589,0,0,0,.514,1.171,1.784,1.784,0,0,0,1.229.505h1.787v-1.677a1.564,1.564,0,0,0-.548-1.18,1.773,1.773,0,0,0-1.239-.489m-.606-2.2a.431.431,0,0,1,.412.413.4.4,0,0,1-.127.295.386.386,0,0,1-.285.117.4.4,0,0,1-.293-.117.432.432,0,0,1-.12-.295.418.418,0,0,1,.413-.413m1.138,0a.38.38,0,0,1,.285.125.363.363,0,0,1,.128.288.4.4,0,0,1-.128.295.389.389,0,0,1-.285.117.4.4,0,0,1-.295-.117.432.432,0,0,1-.12-.295.388.388,0,0,1,.12-.288.372.372,0,0,1,.295-.125" transform="translate(6.545 3.262)" fill="#618a6e"/>
      <path id="Path_130" data-name="Path 130" d="M293.734,847.442a.309.309,0,0,0-.237.1.319.319,0,0,0-.1.234.363.363,0,0,0,.1.244.341.341,0,0,0,.466,0,.329.329,0,0,0,.1-.24.29.29,0,0,0-.1-.228.294.294,0,0,0-.235-.105m0,.825a.474.474,0,0,1-.35-.141.52.52,0,0,1-.141-.35.469.469,0,0,1,.141-.342.46.46,0,0,1,.35-.149.438.438,0,0,1,.345.153.43.43,0,0,1,.146.338.483.483,0,0,1-.149.351.469.469,0,0,1-.342.14m1.138-.825a.3.3,0,0,0-.237.1.32.32,0,0,0-.1.236.357.357,0,0,0,.1.244.34.34,0,0,0,.466,0,.327.327,0,0,0,.1-.24.286.286,0,0,0-.1-.228.311.311,0,0,0-.234-.105m0,.825a.476.476,0,0,1-.35-.14.53.53,0,0,1-.141-.351.47.47,0,0,1,.14-.342.447.447,0,0,1,.351-.149.458.458,0,0,1,.343.15.436.436,0,0,1,.148.341.484.484,0,0,1-.15.351.47.47,0,0,1-.341.14m-.531,1.374a1.653,1.653,0,0,0-1.176.467,1.478,1.478,0,0,0-.49,1.122,1.514,1.514,0,0,0,.49,1.115,1.717,1.717,0,0,0,1.176.484h1.707v-1.6a1.5,1.5,0,0,0-.522-1.122,1.7,1.7,0,0,0-1.186-.467m1.864,3.345h-1.864a1.87,1.87,0,0,1-1.283-.527,1.671,1.671,0,0,1-.54-1.227,1.636,1.636,0,0,1,.538-1.239,1.812,1.812,0,0,1,1.284-.51,1.85,1.85,0,0,1,1.291.51,1.638,1.638,0,0,1,.573,1.237Zm-3.538-3.359a2.134,2.134,0,0,0-.7,1.6,2.1,2.1,0,0,0,.7,1.6,2.389,2.389,0,0,0,1.674.645h3.073v-.484h-.674v-1.957a2.082,2.082,0,0,0-.716-1.4,2.4,2.4,0,0,0-1.683-.663,2.372,2.372,0,0,0-1.674.66m4.9,4h-3.229a2.536,2.536,0,0,1-1.781-.686,2.259,2.259,0,0,1-.749-1.71,2.282,2.282,0,0,1,.748-1.717h0a2.521,2.521,0,0,1,1.781-.7,2.55,2.55,0,0,1,1.788.7,2.241,2.241,0,0,1,.767,1.509v1.807h.674Z" transform="translate(6.533 3.25)" fill="#618a6e"/>
      <rect id="Rectangle_16" data-name="Rectangle 16" width="2.764" height="0.64" transform="translate(303.688 856.158)" fill="#618a6e"/>
      <path id="Path_131" data-name="Path 131" d="M296.417,852.61h2.608v-.483h-2.608Zm2.764.157h-2.92v-.8h2.92Z" transform="translate(7.349 4.109)" fill="#618a6e"/>
      <rect id="Rectangle_17" data-name="Rectangle 17" width="2.764" height="0.64" transform="translate(306.114 856.158)" fill="#618a6e"/>
      <path id="Path_132" data-name="Path 132" d="M298.468,852.61h2.607v-.483h-2.607Zm2.764.157h-2.92v-.8h2.92Z" transform="translate(7.725 4.109)" fill="#618a6e"/>
      <path id="Path_133" data-name="Path 133" d="M303.268,848.839V851.8a1.388,1.388,0,0,1-.354.91,1.749,1.749,0,0,1-1.458.548h-1.028v-.64h1.028a1.3,1.3,0,0,0,.885-.211.852.852,0,0,0,.219-.615v-2.957Zm-1.626,5.072a.434.434,0,0,1,.412.413.4.4,0,0,1-.127.295.386.386,0,0,1-.285.118.4.4,0,0,1-.295-.118.434.434,0,0,1-.118-.295.387.387,0,0,1,.118-.286.369.369,0,0,1,.295-.127m1.137,0a.36.36,0,0,1,.286.127.377.377,0,0,1,.127.286.4.4,0,0,1-.127.295.389.389,0,0,1-.286.118.4.4,0,0,1-.295-.118.433.433,0,0,1-.117-.295.416.416,0,0,1,.412-.413" transform="translate(8.113 3.535)" fill="#618a6e"/>
      <path id="Path_134" data-name="Path 134" d="M300.519,853.2h.949a1.684,1.684,0,0,0,1.4-.518,1.316,1.316,0,0,0,.337-.861v-2.888h-.551v2.88a.931.931,0,0,1-.24.67,1.357,1.357,0,0,1-.942.234h-.949Zm.949.156h-1.106v-.8h1.106a1.253,1.253,0,0,0,.829-.187.77.77,0,0,0,.2-.56v-3.036h.865v3.045a1.465,1.465,0,0,1-.372.96,1.829,1.829,0,0,1-1.518.576m.186.649a.294.294,0,0,0-.237.1.316.316,0,0,0-.1.235.361.361,0,0,0,.1.244.342.342,0,0,0,.467,0,.329.329,0,0,0,.1-.24.3.3,0,0,0-.1-.229.306.306,0,0,0-.233-.105m0,.826a.475.475,0,0,1-.35-.141.52.52,0,0,1-.141-.35.468.468,0,0,1,.141-.343.444.444,0,0,1,.35-.148A.457.457,0,0,1,302,854a.451.451,0,0,1,.148.341.489.489,0,0,1-.149.35.468.468,0,0,1-.342.141m1.137-.826a.337.337,0,0,0-.334.335.363.363,0,0,0,.1.244.34.34,0,0,0,.469,0,.329.329,0,0,0,.1-.239.3.3,0,0,0-.1-.229.293.293,0,0,0-.234-.105m0,.826a.479.479,0,0,1-.35-.141.514.514,0,0,1-.14-.35.491.491,0,0,1,.49-.491.438.438,0,0,1,.345.153.448.448,0,0,1,.146.338.488.488,0,0,1-.148.35.472.472,0,0,1-.343.141" transform="translate(8.101 3.523)" fill="#618a6e"/>
      <path id="Path_135" data-name="Path 135" d="M305.631,852.632h.53v.64h-.53v.118a1.584,1.584,0,0,1-.227.775,1.2,1.2,0,0,1-.9.565,9.368,9.368,0,0,1-1.246.051v-.641c.017,0,.053,0,.11,0s.107,0,.151,0h.27a1.453,1.453,0,0,0,.766-.2.727.727,0,0,0,.388-.648v-4.517h.691Z" transform="translate(8.631 3.525)" fill="#618a6e"/>
      <path id="Path_136" data-name="Path 136" d="M303.345,854.234v.482a8.491,8.491,0,0,0,1.155-.05,1.127,1.127,0,0,0,.848-.527,1.52,1.52,0,0,0,.217-.736v-.2h.53v-.484h-.53v-3.85h-.535v4.438a.8.8,0,0,1-.425.715,1.537,1.537,0,0,1-.807.213h-.271c-.045,0-.1,0-.155,0h-.027m-.078.638h-.078v-.8h.078c.018,0,.056,0,.114,0s.1,0,.147,0h.271a1.382,1.382,0,0,0,.725-.19.648.648,0,0,0,.35-.581v-4.6h.847v3.852h.53v.8h-.53v.04a1.668,1.668,0,0,1-.237.813,1.287,1.287,0,0,1-.958.6,9.414,9.414,0,0,1-1.259.052" transform="translate(8.619 3.512)" fill="#618a6e"/>
      <path id="Path_137" data-name="Path 137" d="M308.427,848.909a2.464,2.464,0,0,1,1.736.683,2.186,2.186,0,0,1,.732,1.66,2.134,2.134,0,0,1-.732,1.659,2.53,2.53,0,0,1-1.736.624h-3v-.64h1.255a2.15,2.15,0,0,1-.716-1.642,2.195,2.195,0,0,1,.724-1.66,2.46,2.46,0,0,1,1.736-.683m0,.674a1.739,1.739,0,0,0-1.24.489,1.593,1.593,0,0,0,.009,2.35,1.838,1.838,0,0,0,2.46,0,1.564,1.564,0,0,0,.532-1.17,1.54,1.54,0,0,0-.524-1.18,1.732,1.732,0,0,0-1.238-.489m-.589-2.233a.381.381,0,0,1,.286.127.364.364,0,0,1,.125.286.408.408,0,0,1-.125.295.39.39,0,0,1-.286.118.4.4,0,0,1-.3-.118.44.44,0,0,1-.118-.295.391.391,0,0,1,.118-.286.373.373,0,0,1,.3-.127m1.137,0a.434.434,0,0,1,.412.413.4.4,0,0,1-.127.295.384.384,0,0,1-.285.118.4.4,0,0,1-.295-.118.434.434,0,0,1-.118-.295.418.418,0,0,1,.413-.413" transform="translate(9.029 3.262)" fill="#618a6e"/>
      <path id="Path_138" data-name="Path 138" d="M307.849,847.441a.292.292,0,0,0-.237.1.316.316,0,0,0-.1.234.369.369,0,0,0,.1.244.34.34,0,0,0,.467,0,.327.327,0,0,0,.1-.24.286.286,0,0,0-.1-.227.309.309,0,0,0-.234-.106m0,.826a.48.48,0,0,1-.351-.142.52.52,0,0,1-.141-.35.467.467,0,0,1,.142-.342.443.443,0,0,1,.35-.149.457.457,0,0,1,.343.151.436.436,0,0,1,.148.34.481.481,0,0,1-.15.35.468.468,0,0,1-.341.142m1.137-.826a.337.337,0,0,0-.335.334.363.363,0,0,0,.1.244.324.324,0,0,0,.237.091.305.305,0,0,0,.23-.095.322.322,0,0,0,.1-.24.278.278,0,0,0-.1-.226.29.29,0,0,0-.234-.108m0,.826a.475.475,0,0,1-.35-.142.516.516,0,0,1-.141-.35.495.495,0,0,1,.491-.491.441.441,0,0,1,.346.154.43.43,0,0,1,.146.337.482.482,0,0,1-.15.351.467.467,0,0,1-.341.141m-.548,1.407a1.666,1.666,0,0,0-1.186.467,1.515,1.515,0,0,0,.008,2.236,1.761,1.761,0,0,0,2.355,0,1.481,1.481,0,0,0,.506-1.115,1.459,1.459,0,0,0-.5-1.121,1.668,1.668,0,0,0-1.186-.467m0,3.311a1.856,1.856,0,0,1-1.283-.492,1.671,1.671,0,0,1-.011-2.465,1.89,1.89,0,0,1,2.585,0,1.619,1.619,0,0,1,.548,1.237,1.645,1.645,0,0,1-.559,1.228,1.855,1.855,0,0,1-1.282.492m-2.922.484h2.922a2.46,2.46,0,0,0,1.684-.6,2.065,2.065,0,0,0,.706-1.6,2.119,2.119,0,0,0-.708-1.6,2.471,2.471,0,0,0-3.365,0,2.132,2.132,0,0,0-.7,1.6,2.083,2.083,0,0,0,.691,1.584l.146.136h-1.376Zm2.922.156h-3.078v-.8h1.144a2.225,2.225,0,0,1-.606-1.564,2.288,2.288,0,0,1,.749-1.718,2.63,2.63,0,0,1,3.579,0,2.271,2.271,0,0,1,.757,1.718,2.216,2.216,0,0,1-.758,1.717,2.616,2.616,0,0,1-1.788.644" transform="translate(9.017 3.25)" fill="#618a6e"/>
      <path id="Path_139" data-name="Path 139" d="M312.672,849.558a2.436,2.436,0,0,1,1.728-.682,2.464,2.464,0,0,1,1.736.682,2.161,2.161,0,0,1,.742,1.458v1.879h.673v.64H314.4a2.449,2.449,0,0,1-1.728-.665,2.17,2.17,0,0,1-.724-1.652,2.2,2.2,0,0,1,.724-1.66m1.728-.008a1.725,1.725,0,0,0-1.231.489,1.555,1.555,0,0,0-.512,1.18,1.588,1.588,0,0,0,.512,1.171,1.789,1.789,0,0,0,1.231.505h1.787v-1.677a1.564,1.564,0,0,0-.548-1.18,1.773,1.773,0,0,0-1.239-.489m-.606-2.2a.432.432,0,0,1,.412.413.4.4,0,0,1-.127.295.387.387,0,0,1-.285.117.4.4,0,0,1-.3-.117.434.434,0,0,1-.117-.295.414.414,0,0,1,.413-.413m1.137,0a.38.38,0,0,1,.286.125.365.365,0,0,1,.127.288.4.4,0,0,1-.127.295.39.39,0,0,1-.286.117.4.4,0,0,1-.295-.117.442.442,0,0,1-.118-.295.4.4,0,0,1,.118-.288.373.373,0,0,1,.295-.125" transform="translate(10.224 3.262)" fill="#618a6e"/>
      <path id="Path_140" data-name="Path 140" d="M313.806,847.442a.313.313,0,0,0-.238.1.323.323,0,0,0-.1.234.367.367,0,0,0,.1.244.323.323,0,0,0,.237.09.307.307,0,0,0,.231-.093.326.326,0,0,0,.1-.24.289.289,0,0,0-.1-.228.3.3,0,0,0-.235-.105m0,.825a.478.478,0,0,1-.35-.14.525.525,0,0,1-.141-.351.469.469,0,0,1,.141-.342.46.46,0,0,1,.35-.149.438.438,0,0,1,.345.153.434.434,0,0,1,.146.338.487.487,0,0,1-.149.351.471.471,0,0,1-.342.14m1.138-.825a.3.3,0,0,0-.237.1.321.321,0,0,0-.1.236.365.365,0,0,0,.1.244.342.342,0,0,0,.467,0,.329.329,0,0,0,.1-.24.287.287,0,0,0-.1-.228.307.307,0,0,0-.234-.105m0,.825a.481.481,0,0,1-.351-.14.529.529,0,0,1-.141-.351.471.471,0,0,1,.141-.342.449.449,0,0,1,.351-.149.456.456,0,0,1,.343.15.436.436,0,0,1,.148.341.482.482,0,0,1-.149.35.467.467,0,0,1-.342.141m-.531,1.374a1.656,1.656,0,0,0-1.177.467,1.48,1.48,0,0,0-.487,1.122,1.511,1.511,0,0,0,.487,1.115,1.724,1.724,0,0,0,1.177.484h1.707v-1.6a1.489,1.489,0,0,0-.523-1.122,1.7,1.7,0,0,0-1.184-.467m1.864,3.345h-1.864a1.876,1.876,0,0,1-1.284-.527,1.669,1.669,0,0,1-.538-1.227,1.635,1.635,0,0,1,.538-1.239,1.808,1.808,0,0,1,1.284-.51,1.857,1.857,0,0,1,1.292.51,1.641,1.641,0,0,1,.572,1.237Zm-3.538-3.359a2.136,2.136,0,0,0-.7,1.6,2.105,2.105,0,0,0,.7,1.6,2.389,2.389,0,0,0,1.674.645h3.073v-.484h-.674v-1.957a2.082,2.082,0,0,0-.716-1.4,2.461,2.461,0,0,0-3.357,0m4.9,4h-3.229a2.536,2.536,0,0,1-1.781-.686,2.259,2.259,0,0,1-.749-1.71,2.286,2.286,0,0,1,.748-1.717,2.618,2.618,0,0,1,3.57,0,2.241,2.241,0,0,1,.767,1.509v1.807h.674Z" transform="translate(10.212 3.25)" fill="#618a6e"/>
      <rect id="Rectangle_18" data-name="Rectangle 18" width="2.764" height="0.64" transform="translate(327.439 856.158)" fill="#618a6e"/>
      <path id="Path_141" data-name="Path 141" d="M316.49,852.61H319.1v-.483H316.49Zm2.763.157h-2.92v-.8h2.92Z" transform="translate(11.028 4.109)" fill="#618a6e"/>
      <rect id="Rectangle_19" data-name="Rectangle 19" width="2.764" height="0.64" transform="translate(329.866 856.158)" fill="#618a6e"/>
      <path id="Path_142" data-name="Path 142" d="M318.54,852.61h2.608v-.483H318.54Zm2.764.157h-2.92v-.8h2.92Z" transform="translate(11.404 4.109)" fill="#618a6e"/>
      <path id="Path_143" data-name="Path 143" d="M324.52,847.484h-2.241a.531.531,0,0,0-.38.143.462.462,0,0,0-.151.362,7.186,7.186,0,0,0,.092,1.762.538.538,0,0,0,.38.151h1.87a1.347,1.347,0,0,1,.954.344,1.093,1.093,0,0,1,.328.742c.027.376.043.815.043,1.315a1.37,1.37,0,0,1-.406,1.053,1.446,1.446,0,0,1-1,.286H320.5V853h3.506a.664.664,0,0,0,.639-.708,3.936,3.936,0,0,0-.134-1.509.65.65,0,0,0-.464-.177H322.21a1.16,1.16,0,0,1-1.07-.606,8.733,8.733,0,0,1-.109-2.022,1.22,1.22,0,0,1,1.231-1.221h2.258Z" transform="translate(11.792 3.154)" fill="#618a6e"/>
      <path id="Path_144" data-name="Path 144" d="M320.59,853.578h3.428a1.383,1.383,0,0,0,.948-.266,1.3,1.3,0,0,0,.381-1c0-.482-.014-.922-.043-1.309a1.019,1.019,0,0,0-.3-.69,1.259,1.259,0,0,0-.9-.324h-1.87a.615.615,0,0,1-.433-.173c-.045-.044-.117-.116-.117-1.819a.54.54,0,0,1,.177-.42.61.61,0,0,1,.431-.163h2.164v-.567h-2.18a1.141,1.141,0,0,0-1.151,1.142,8.014,8.014,0,0,0,.1,1.983,1.076,1.076,0,0,0,1,.568h1.838a.721.721,0,0,1,.517.2c.078.073.16.316.16,1.565a.736.736,0,0,1-.22.571.728.728,0,0,1-.5.214H320.59Zm3.428.156h-3.584v-.8h3.584a.585.585,0,0,0,.561-.628c0-1.239-.084-1.425-.11-1.452a.57.57,0,0,0-.409-.156h-1.838a1.237,1.237,0,0,1-1.137-.646,6.725,6.725,0,0,1-.12-2.061,1.3,1.3,0,0,1,1.309-1.3h2.336v.882h-2.32a.445.445,0,0,0-.324.122.384.384,0,0,0-.128.3,7.479,7.479,0,0,0,.076,1.713.456.456,0,0,0,.318.122h1.87a1.419,1.419,0,0,1,1.006.367,1.173,1.173,0,0,1,.354.793c.028.39.043.833.043,1.319a1.449,1.449,0,0,1-.431,1.11,1.519,1.519,0,0,1-1.054.309" transform="translate(11.779 3.142)" fill="#618a6e"/>
      <path id="Path_145" data-name="Path 145" d="M327.455,852.632h.53v.64h-.53v.118a1.584,1.584,0,0,1-.227.775,1.2,1.2,0,0,1-.9.565c-.19.033.193.051-.446.051l-.8-.641c.015,0,.053,0,.109,0s.108,0,.153,0h.27a1.453,1.453,0,0,0,.766-.2.727.727,0,0,0,.388-.648v-4.517h.691Z" transform="translate(12.631 3.525)" fill="#618a6e"/>
      <path id="Path_146" data-name="Path 146" d="M325.169,854.234l.8.482c.727,0,.23-.028.356-.05a1.123,1.123,0,0,0,.847-.527,1.52,1.52,0,0,0,.217-.736v-.2h.531v-.484h-.531v-3.85h-.534v4.438a.8.8,0,0,1-.426.715,1.537,1.537,0,0,1-.807.213h-.27c-.046,0-.1,0-.156,0h-.026m.721.638h-.078l-.8-.8h.078c.017,0,.054,0,.112,0s.1,0,.148,0h.27a1.386,1.386,0,0,0,.727-.19.647.647,0,0,0,.349-.581v-4.6h.848v3.852h.53v.8h-.53v.04a1.678,1.678,0,0,1-.238.814,1.288,1.288,0,0,1-.957.6c-.2.034.177.052-.46.052" transform="translate(12.619 3.512)" fill="#618a6e"/>
      <path id="Path_147" data-name="Path 147" d="M333.612,849.188v2.942a1.5,1.5,0,0,1-.438,1.111,1.467,1.467,0,0,1-1.087.456,1.495,1.495,0,0,0-2.368,0,1.371,1.371,0,0,1-1.079-.456l-.083-.092a1.385,1.385,0,0,1-1.1.548h-.211v-.641h.211a.694.694,0,0,0,.53-.252.8.8,0,0,0,.22-.548v-3.067h.708V851.7a2.987,2.987,0,0,0,.092.9.675.675,0,0,0,.716.454.777.777,0,0,0,.59-.252.875.875,0,0,0,.236-.615v-3h.708v3a.85.85,0,0,0,.227.615.816.816,0,0,0,1.171.008.894.894,0,0,0,.22-.624v-3Zm-3.245-1.677a.378.378,0,0,1,.286.127.362.362,0,0,1,.127.286.4.4,0,0,1-.127.295.387.387,0,0,1-.286.118.4.4,0,0,1-.295-.118.438.438,0,0,1-.117-.295.392.392,0,0,1,.117-.286.371.371,0,0,1,.295-.127m.548-1.037a.36.36,0,0,1,.286.127.374.374,0,0,1,.127.286.4.4,0,0,1-.127.3.391.391,0,0,1-.286.118.4.4,0,0,1-.295-.118.443.443,0,0,1-.118-.3.418.418,0,0,1,.413-.413m.59,1.037a.434.434,0,0,1,.413.413.4.4,0,0,1-.127.295.39.39,0,0,1-.286.118.4.4,0,0,1-.295-.118.433.433,0,0,1-.118-.295.418.418,0,0,1,.413-.413" transform="translate(13.029 3.102)" fill="#618a6e"/>
      <path id="Path_148" data-name="Path 148" d="M330.927,846.565a.339.339,0,0,0-.334.335.358.358,0,0,0,.1.244.334.334,0,0,0,.465,0,.322.322,0,0,0,.1-.239.3.3,0,0,0-.1-.228.29.29,0,0,0-.233-.107m0,.827a.477.477,0,0,1-.349-.142.516.516,0,0,1-.142-.35.5.5,0,0,1,.491-.491.434.434,0,0,1,.346.154.438.438,0,0,1,.147.337.476.476,0,0,1-.15.35.466.466,0,0,1-.342.142m-.547.209a.287.287,0,0,0-.234.1.313.313,0,0,0-.1.236.367.367,0,0,0,.1.244.342.342,0,0,0,.469,0,.337.337,0,0,0,.1-.24.28.28,0,0,0-.1-.227.3.3,0,0,0-.234-.108m0,.826a.476.476,0,0,1-.35-.141.527.527,0,0,1-.142-.35.472.472,0,0,1,.142-.342.443.443,0,0,1,.35-.149.454.454,0,0,1,.343.151.434.434,0,0,1,.148.34.487.487,0,0,1-.148.35.47.47,0,0,1-.343.141m1.137-.826a.342.342,0,0,0-.335.335.36.36,0,0,0,.1.243.341.341,0,0,0,.469,0,.33.33,0,0,0,.1-.239.283.283,0,0,0-.1-.227.292.292,0,0,0-.236-.108m0,.826a.476.476,0,0,1-.35-.141.52.52,0,0,1-.14-.35.493.493,0,0,1,.49-.491.436.436,0,0,1,.346.153.426.426,0,0,1,.146.338.486.486,0,0,1-.148.35.47.47,0,0,1-.343.141M330.91,853l.063.078a1.354,1.354,0,0,0,1.127.551,1.4,1.4,0,0,0,1.031-.432,1.441,1.441,0,0,0,.415-1.057v-2.864h-.576V852.2a.983.983,0,0,1-.238.676.9.9,0,0,1-1.29-.008.928.928,0,0,1-.247-.667v-2.921h-.551V852.2a.944.944,0,0,1-.256.669.855.855,0,0,1-.647.277.753.753,0,0,1-.792-.506,3.109,3.109,0,0,1-.1-.928v-2.433H328.3v2.989a.872.872,0,0,1-.24.6.767.767,0,0,1-.586.278h-.135v.485h.135a1.314,1.314,0,0,0,1.033-.52l.058-.07.144.16a1.3,1.3,0,0,0,1.02.43,1.345,1.345,0,0,0,1.118-.551Zm1.189.786a1.577,1.577,0,0,0-2.369,0,1.452,1.452,0,0,1-1.137-.482l-.024-.026a1.439,1.439,0,0,1-1.095.508h-.29v-.8h.29a.616.616,0,0,0,.471-.227.712.712,0,0,0,.2-.495v-3.145h.866v2.589a2.972,2.972,0,0,0,.086.876.6.6,0,0,0,.644.4.692.692,0,0,0,.533-.228.779.779,0,0,0,.214-.561v-3.078h.865V852.2a.766.766,0,0,0,.206.561.736.736,0,0,0,1.057.009.82.82,0,0,0,.2-.57v-3.078h.891v3.02a1.585,1.585,0,0,1-.461,1.167,1.549,1.549,0,0,1-1.142.478" transform="translate(13.017 3.09)" fill="#618a6e"/>
      <path id="Path_149" data-name="Path 149" d="M258.4,856.661a.266.266,0,0,0-.217.091.291.291,0,0,0-.091.217.33.33,0,0,0,.091.222.29.29,0,0,0,.217.084.285.285,0,0,0,.213-.086.3.3,0,0,0,.095-.22.262.262,0,0,0-.092-.211.28.28,0,0,0-.215-.1" transform="translate(0.353 4.969)" fill="#618a6e"/>
      <path id="Path_150" data-name="Path 150" d="M257.549,856.661a.285.285,0,0,0-.219.092.291.291,0,0,0-.089.215.326.326,0,0,0,.09.222.29.29,0,0,0,.218.084.284.284,0,0,0,.212-.086.3.3,0,0,0,.095-.22.264.264,0,0,0-.091-.211.268.268,0,0,0-.215-.1" transform="translate(0.197 4.969)" fill="#618a6e"/>
      <path id="Path_151" data-name="Path 151" d="M270,861.785a.272.272,0,0,0-.218.091.292.292,0,0,0-.09.217.324.324,0,0,0,.09.222.294.294,0,0,0,.218.085.288.288,0,0,0,.213-.088.3.3,0,0,0,.095-.22.325.325,0,0,0-.308-.308" transform="translate(2.478 5.908)" fill="#618a6e"/>
      <path id="Path_152" data-name="Path 152" d="M269.143,861.785a.286.286,0,0,0-.219.093.289.289,0,0,0-.089.214.324.324,0,0,0,.09.222.288.288,0,0,0,.218.085.283.283,0,0,0,.213-.088.3.3,0,0,0,.095-.22.281.281,0,0,0-.094-.212.267.267,0,0,0-.214-.1" transform="translate(2.322 5.908)" fill="#618a6e"/>
      <path id="Path_153" data-name="Path 153" d="M259.926,861.371h-1.644a1.656,1.656,0,0,1-1.131-.465,1.463,1.463,0,0,1-.474-1.08,1.441,1.441,0,0,1,.473-1.091,1.592,1.592,0,0,1,1.132-.45,1.631,1.631,0,0,1,1.138.45,1.445,1.445,0,0,1,.505,1.089Zm18.4-1.456a1.613,1.613,0,0,1,1.132-.441,1.637,1.637,0,0,1,1.138.441,1.422,1.422,0,0,1,.476,1.09,1.461,1.461,0,0,1-.483,1.076h0a1.7,1.7,0,0,1-2.253,0,1.463,1.463,0,0,1-.009-2.165m-.8,1.905.017.033a1.886,1.886,0,0,0,.427.566,2.2,2.2,0,0,0,2.987,0,1.919,1.919,0,0,0,0-2.845,2.2,2.2,0,0,0-2.985,0,1.9,1.9,0,0,0-.625,1.429,1.8,1.8,0,0,0,.022.3l.011.069h-4.074a1.028,1.028,0,0,1-.744-.213.769.769,0,0,1-.219-.579v-2.565h-.5v2.565a.837.837,0,0,1-.217.586,1.194,1.194,0,0,1-.829.206H260.422v-1.726a1.865,1.865,0,0,0-.639-1.25,2.138,2.138,0,0,0-1.5-.591,2.113,2.113,0,0,0-1.492.589,1.9,1.9,0,0,0-.625,1.429,1.875,1.875,0,0,0,.625,1.424,2.123,2.123,0,0,0,1.492.575H270.9l.044-.011a1.422,1.422,0,0,0,1.1-.453l.045-.057.046.056a1.445,1.445,0,0,0,1.173.465h4.221Z" transform="translate(0 5.178)" fill="#618a6e"/>
      <path id="Path_154" data-name="Path 154" d="M285.563,861.785a.311.311,0,0,0-.308.308.325.325,0,0,0,.09.222.288.288,0,0,0,.218.085.283.283,0,0,0,.213-.088.3.3,0,0,0,.095-.22.281.281,0,0,0-.093-.212.267.267,0,0,0-.214-.1" transform="translate(5.332 5.908)" fill="#618a6e"/>
      <path id="Path_155" data-name="Path 155" d="M286.416,861.785a.274.274,0,0,0-.218.091.292.292,0,0,0-.09.217.324.324,0,0,0,.09.222.312.312,0,0,0,.431,0,.3.3,0,0,0,.095-.22.324.324,0,0,0-.308-.308" transform="translate(5.488 5.908)" fill="#618a6e"/>
      <path id="Path_156" data-name="Path 156" d="M281.242,861.676h-.926a1.5,1.5,0,0,1-1.516-1.5,1.4,1.4,0,0,1,.374-.975,1.256,1.256,0,0,1,.941-.452h1.128Zm5.085.44a1.429,1.429,0,0,0,1.1-.452l.045-.058.046.056a1.441,1.441,0,0,0,1.173.465h.77c.683,0,.884-.013.932-.021a.817.817,0,0,0,.58-.385A1.212,1.212,0,0,0,291.2,861v-4.868h-.5v4.778a.749.749,0,0,1-.161.447.937.937,0,0,1-.646.3c-.1.009-.319.014-.682.015h-.522a1.032,1.032,0,0,1-.744-.212.767.767,0,0,1-.219-.58v-2.565h-.5v2.565a.834.834,0,0,1-.218.587,1.191,1.191,0,0,1-.828.2h-4.442v-3.424h-1.944a2.122,2.122,0,0,0-1.091.7,1.851,1.851,0,0,0-.444,1.219,1.913,1.913,0,0,0,.581,1.4,1.942,1.942,0,0,0,1.394.564h1.008v.224c-.044.375-.217.579-.516.61-.193.02-.518.03-.971.031v.451a9.428,9.428,0,0,0,1.174-.058.862.862,0,0,0,.6-.408,1.372,1.372,0,0,0,.207-.731v-.125h4.545Z" transform="translate(4.049 4.873)" fill="#618a6e"/>
      <rect id="Rectangle_20" data-name="Rectangle 20" width="0.496" height="5.99" transform="translate(295.962 861.009)" fill="#618a6e"/>
      <path id="Path_157" data-name="Path 157" d="M296.132,857.13a.263.263,0,0,0-.214-.1.284.284,0,0,0-.218.092.293.293,0,0,0-.089.215.326.326,0,0,0,.09.224.313.313,0,0,0,.43,0,.3.3,0,0,0,.095-.221.278.278,0,0,0-.093-.212" transform="translate(7.23 5.037)" fill="#618a6e"/>
      <path id="Path_158" data-name="Path 158" d="M295.066,857.033a.269.269,0,0,0-.217.091.293.293,0,0,0-.091.217.329.329,0,0,0,.091.224.292.292,0,0,0,.217.084.282.282,0,0,0,.212-.086.3.3,0,0,0,.1-.221.327.327,0,0,0-.308-.308" transform="translate(7.073 5.037)" fill="#618a6e"/>
      <path id="Path_159" data-name="Path 159" d="M292.733,861.622a1.2,1.2,0,0,0,.691.168h6.056v-3.815h-.473v3.364h-5.4a1.179,1.179,0,0,1-.27-.047,1.253,1.253,0,0,1-.248-.111,1.044,1.044,0,0,1-.379-.917v-1.234h-.458v1.615a2.036,2.036,0,0,0,.072.388,1.077,1.077,0,0,0,.412.589" transform="translate(6.614 5.209)" fill="#618a6e"/>
      <path id="Path_160" data-name="Path 160" d="M316.47,861.785a.273.273,0,0,0-.218.091.3.3,0,0,0-.089.217.323.323,0,0,0,.089.222.3.3,0,0,0,.218.085.282.282,0,0,0,.213-.088.3.3,0,0,0,.095-.22.325.325,0,0,0-.308-.308" transform="translate(10.997 5.908)" fill="#618a6e"/>
      <path id="Path_161" data-name="Path 161" d="M315.618,861.785a.286.286,0,0,0-.219.093.289.289,0,0,0-.089.214.327.327,0,0,0,.09.222.312.312,0,0,0,.431,0,.3.3,0,0,0,.095-.22.281.281,0,0,0-.093-.212.267.267,0,0,0-.214-.1" transform="translate(10.84 5.908)" fill="#618a6e"/>
      <path id="Path_162" data-name="Path 162" d="M320.552,856.661a.272.272,0,0,0-.218.091.294.294,0,0,0-.09.217.341.341,0,0,0,.09.224.3.3,0,0,0,.218.083.291.291,0,0,0,.213-.086.3.3,0,0,0,.095-.22.261.261,0,0,0-.092-.211.286.286,0,0,0-.215-.1" transform="translate(11.745 4.969)" fill="#618a6e"/>
      <path id="Path_163" data-name="Path 163" d="M334.389,862.387h0a1.7,1.7,0,0,1-2.254,0,1.458,1.458,0,0,1-.483-1.074,1.438,1.438,0,0,1,.475-1.091,1.613,1.613,0,0,1,1.132-.441,1.639,1.639,0,0,1,1.138.441,1.426,1.426,0,0,1,.475,1.09,1.458,1.458,0,0,1-.483,1.076m-21.1,0h0a1.7,1.7,0,0,1-2.254,0,1.464,1.464,0,0,1-.008-2.165,1.61,1.61,0,0,1,1.131-.441,1.638,1.638,0,0,1,1.14.441,1.424,1.424,0,0,1,.474,1.09,1.459,1.459,0,0,1-.483,1.076m24.154-.667a1.217,1.217,0,0,0,.223-.716v-4.867h-.5v4.778a.749.749,0,0,1-.161.446.94.94,0,0,1-.645.3c-.11.011-.34.015-.724.015h-.286l.011-.067a2.071,2.071,0,0,0,.021-.3,1.891,1.891,0,0,0-.624-1.429,2.209,2.209,0,0,0-2.987,0,1.9,1.9,0,0,0-.624,1.429,1.977,1.977,0,0,0,.021.3l.011.067h-4.875l.072-.095a2.226,2.226,0,0,0,.438-1.457,2.005,2.005,0,0,0-.559-1.4,1.631,1.631,0,0,0-1.186-.477h-2.2v.517h2.169a1.235,1.235,0,0,1,.87.33,1.453,1.453,0,0,1,.39,1.545,1.5,1.5,0,0,1-.389.715,1.107,1.107,0,0,1-.773.316h-4.68a1.023,1.023,0,0,1-.744-.212.765.765,0,0,1-.22-.579V858.32h-.5v2.565a.83.83,0,0,1-.217.586,1.192,1.192,0,0,1-.83.2h-3.7l.009-.067a2.06,2.06,0,0,0,.021-.3,1.883,1.883,0,0,0-.624-1.429,2.137,2.137,0,0,0-1.5-.581,2.112,2.112,0,0,0-1.485.581,1.9,1.9,0,0,0-.624,1.429,2.011,2.011,0,0,0,.021.3l.011.067H299.461v-5.539h-.5v5.99h11.261l.015.032a1.9,1.9,0,0,0,.428.567,2.114,2.114,0,0,0,1.485.583,2.177,2.177,0,0,0,1.5-.583,1.925,1.925,0,0,0,.427-.567l.015-.032h3.952l.044-.011a1.425,1.425,0,0,0,1.1-.452l.045-.057.046.056a1.445,1.445,0,0,0,1.174.464h10.868l.015.032a1.881,1.881,0,0,0,.428.567,2.117,2.117,0,0,0,1.486.583,2.174,2.174,0,0,0,1.5-.583,1.9,1.9,0,0,0,.427-.567l.017-.032h.724c.682,0,.883-.012.932-.02a.814.814,0,0,0,.581-.386" transform="translate(7.844 4.873)" fill="#618a6e"/>
    </g>
    <rect id="Rectangle_21" data-name="Rectangle 21" width="0.496" height="5.99" transform="translate(346.223 861.009)" fill="#618a6e"/>
  </g>
</svg>
