<svg id="Group_8510" data-name="Group 8510" xmlns="http://www.w3.org/2000/svg" width="315.785" height="93.294" viewBox="0 0 315.785 93.294">
  <path id="Path_2285" data-name="Path 2285" d="M-297.087,232.851h-.1l-5.225-10.3h-2.309V235.97h.99V225.04h.151L-298,235.97h.457l5.5-11.007h.076V235.97h2.257V222.555h-2.257ZM-286.716,226v9.966h2.055V225.42h-.608Zm1.852-5.376a.942.942,0,0,0-.381-.228,1.455,1.455,0,0,0-.457-.076,1.471,1.471,0,0,0-.457.076,1.172,1.172,0,0,0-.381.228,1.671,1.671,0,0,0-.252.331.739.739,0,0,0-.1.4.752.752,0,0,0,.1.407,1.659,1.659,0,0,0,.252.33.967.967,0,0,0,.381.228,1.471,1.471,0,0,0,.457.076,1.455,1.455,0,0,0,.457-.076.943.943,0,0,0,.381-.228,1.025,1.025,0,0,0,.252-.33.738.738,0,0,0,.1-.407.726.726,0,0,0-.1-.4,1.547,1.547,0,0,0-.252-.331m10.6,5.706a2.361,2.361,0,0,0-.836-.659,2.4,2.4,0,0,0-1.015-.254,4.281,4.281,0,0,0-2.055.534,7.309,7.309,0,0,0-1.953,1.571v-1.876h-2.055V236h2.055v-7.683a5.544,5.544,0,0,1,.736-.609c.254-.179.506-.331.76-.482a5.582,5.582,0,0,1,.736-.3,2.372,2.372,0,0,1,.685-.1,1.5,1.5,0,0,1,1.19.532,2.293,2.293,0,0,1,.458,1.547v7.076h2.053v-7.431a3.825,3.825,0,0,0-.2-1.217,2.709,2.709,0,0,0-.558-.989m5.072-5.706a.967.967,0,0,0-.381-.228,1.463,1.463,0,0,0-.457-.076,1.462,1.462,0,0,0-.457.076,1.148,1.148,0,0,0-.379.228,1.039,1.039,0,0,0-.254.331.739.739,0,0,0-.1.4.752.752,0,0,0,.1.407,1.668,1.668,0,0,0,.254.33.926.926,0,0,0,.379.228,1.463,1.463,0,0,0,.457.076,1.464,1.464,0,0,0,.457-.076.968.968,0,0,0,.381-.228,1.67,1.67,0,0,0,.254-.33.751.751,0,0,0,.1-.407.739.739,0,0,0-.1-.4,1.063,1.063,0,0,0-.254-.331M-271.018,226v9.966h2.053V225.42h-.608Zm10.854,5.072a5.35,5.35,0,0,0-.963-.659c-.355-.178-.735-.355-1.117-.534s-.76-.33-1.114-.481a6.737,6.737,0,0,1-.965-.508,2.733,2.733,0,0,1-.683-.633,1.283,1.283,0,0,1-.254-.812,1.064,1.064,0,0,1,.151-.532,1.336,1.336,0,0,1,.407-.433,2.151,2.151,0,0,1,.633-.3,2.753,2.753,0,0,1,.81-.1,2.658,2.658,0,0,1,1.548.481,4.321,4.321,0,0,1,1.318,1.447l.762-.687a7.417,7.417,0,0,0-.888-.989,3.443,3.443,0,0,0-.863-.582,3.581,3.581,0,0,0-.887-.28,5.837,5.837,0,0,0-.963-.077,5.049,5.049,0,0,0-1.421.2,3.641,3.641,0,0,0-1.116.609,2.825,2.825,0,0,0-.735.911,2.552,2.552,0,0,0-.254,1.166,2.55,2.55,0,0,0,.228,1.141,2.649,2.649,0,0,0,.633.863,4.8,4.8,0,0,0,.889.659c.328.177.658.355,1.015.532.354.153.683.33,1.013.482a5.741,5.741,0,0,1,.887.506,2.472,2.472,0,0,1,.633.635,1.468,1.468,0,0,1,.23.836,1.087,1.087,0,0,1-.153.558,1.456,1.456,0,0,1-.407.482,1.77,1.77,0,0,1-.608.33,2.567,2.567,0,0,1-.786.127,3,3,0,0,1-.838-.1,2.841,2.841,0,0,1-.735-.354,4.755,4.755,0,0,1-.709-.609,7.114,7.114,0,0,1-.711-.912l-.838.76a5.952,5.952,0,0,0,.939.989,4.426,4.426,0,0,0,.963.582,4.529,4.529,0,0,0,.963.28,6.04,6.04,0,0,0,.941.077,5.261,5.261,0,0,0,1.747-.256,3.416,3.416,0,0,0,1.245-.657,2.526,2.526,0,0,0,.735-.99,3.241,3.241,0,0,0,.252-1.217,2.361,2.361,0,0,0-.252-1.142,3.392,3.392,0,0,0-.685-.81m7.532,3.651a1.1,1.1,0,0,1-.635.178,1.208,1.208,0,0,1-.431-.077.856.856,0,0,1-.354-.227,1.078,1.078,0,0,1-.23-.357,1.2,1.2,0,0,1-.076-.431v-7.3h2.333v-.863h-2.333V222.1h-.582c-.1.532-.23,1.014-.357,1.5a4.311,4.311,0,0,1-.556,1.245,2.446,2.446,0,0,1-.913.836,2.956,2.956,0,0,1-1.421.3v.506h1.8v7.3a4.008,4.008,0,0,0,.127.99,1.787,1.787,0,0,0,.381.76,1.7,1.7,0,0,0,.633.482,2.018,2.018,0,0,0,.913.177,3.239,3.239,0,0,0,1.7-.407,3.3,3.3,0,0,0,1.09-1.114l-.506-.355c-.23.153-.407.3-.584.405m8.394-8.952a2.44,2.44,0,0,0-.506-.278,1.741,1.741,0,0,0-.637-.1,1.805,1.805,0,0,0-.81.179,3.551,3.551,0,0,0-.786.482,5.9,5.9,0,0,0-.711.683,5.386,5.386,0,0,0-.633.838v-1.952h-2.055V235.97h2.055v-7.177a6.748,6.748,0,0,1,.433-.633,4.438,4.438,0,0,1,.429-.508,1.527,1.527,0,0,1,.407-.33.847.847,0,0,1,.405-.127,1.011,1.011,0,0,1,.433.077c.127.05.227.1.354.153a2.69,2.69,0,0,0,.381.177,1.662,1.662,0,0,0,.556.075,1.257,1.257,0,0,0,.863-.252.955.955,0,0,0,.3-.76,1.036,1.036,0,0,0-.127-.484,2.652,2.652,0,0,0-.354-.405m7.074,7.33-4.006-7.457H-243.5l5.3,9.865-.685,1.547c-.077.178-.179.379-.278.609a3.607,3.607,0,0,1-.357.608,1.924,1.924,0,0,1-.457.457.905.905,0,0,1-.556.177,1.31,1.31,0,0,1-.484-.074c-.125-.053-.227-.1-.328-.153a1.9,1.9,0,0,0-.33-.153,1.412,1.412,0,0,0-.506-.075,1.112,1.112,0,0,0-.508.1.99.99,0,0,0-.381.254,1.744,1.744,0,0,0-.254.355,1.2,1.2,0,0,0-.074.431,1.048,1.048,0,0,0,.125.481.988.988,0,0,0,.355.379,2.434,2.434,0,0,0,.532.254,2.448,2.448,0,0,0,.635.077,2.7,2.7,0,0,0,.987-.178,4.119,4.119,0,0,0,.991-.532,5.275,5.275,0,0,0,.913-.911,6.1,6.1,0,0,0,.76-1.32l5.275-12.146h-1.09Zm20.389-6.214a5.69,5.69,0,0,0-1.725-1.09,6.051,6.051,0,0,0-2.18-.407,5.571,5.571,0,0,0-2.182.433,4.9,4.9,0,0,0-1.723,1.191,5.811,5.811,0,0,0-1.142,1.751,5.591,5.591,0,0,0-.405,2.154,5.025,5.025,0,0,0,.405,2.055,5.5,5.5,0,0,0,1.142,1.674,4.933,4.933,0,0,0,1.723,1.114,5.561,5.561,0,0,0,2.182.407,5.145,5.145,0,0,0,2.18-.457,5.562,5.562,0,0,0,1.725-1.217,5.715,5.715,0,0,0,1.14-1.8,5.767,5.767,0,0,0,.407-2.206,4.663,4.663,0,0,0-.407-1.977,4.931,4.931,0,0,0-1.14-1.624m-.965,6.162a3.737,3.737,0,0,1-.584,1.241,2.722,2.722,0,0,1-.886.838,2.116,2.116,0,0,1-1.116.306,2.713,2.713,0,0,1-1.5-.433,3.8,3.8,0,0,1-1.116-1.164,5.639,5.639,0,0,1-.685-1.727,9.371,9.371,0,0,1-.252-2.129,4.6,4.6,0,0,1,.227-1.471,5.407,5.407,0,0,1,.584-1.217,2.909,2.909,0,0,1,.863-.814,1.892,1.892,0,0,1,1.013-.3,2.983,2.983,0,0,1,1.7.431,3.219,3.219,0,0,1,1.114,1.143,5.6,5.6,0,0,1,.633,1.7,10.969,10.969,0,0,1,.2,2.1,5.75,5.75,0,0,1-.2,1.5m11.717-12.222a3.412,3.412,0,0,0-.913-.383,4.567,4.567,0,0,0-1.217-.125,3.681,3.681,0,0,0-1.5.3,3.583,3.583,0,0,0-1.217.862,3.872,3.872,0,0,0-.81,1.294,4.233,4.233,0,0,0-.306,1.6V225.6h-2.156v.862h2.156v9.484h2.053V226.46h2.765V225.6h-2.765v-2.462a2.482,2.482,0,0,1,.1-.76,2.216,2.216,0,0,1,.3-.657,1.29,1.29,0,0,1,.457-.457.987.987,0,0,1,.584-.178,1.114,1.114,0,0,1,.633.153,1.067,1.067,0,0,1,.33.355,2.522,2.522,0,0,1,.177.481,2.859,2.859,0,0,0,.179.482.855.855,0,0,0,.306.355.952.952,0,0,0,.584.153,1.029,1.029,0,0,0,.4-.077.716.716,0,0,0,.33-.2.691.691,0,0,0,.228-.3,1.042,1.042,0,0,0,.077-.407,1.267,1.267,0,0,0-.2-.683,1.992,1.992,0,0,0-.582-.558m15.8,7.834h-6.744v-6.111h-2.257V235.97h2.257v-6.441h6.744v6.441h2.257V222.555h-2.257Zm13.568,4.362a3.784,3.784,0,0,1-.862.814,4.24,4.24,0,0,1-1.116.556,3.68,3.68,0,0,1-1.294.228,3.231,3.231,0,0,1-1.471-.355,3.744,3.744,0,0,1-1.166-1.013,4.7,4.7,0,0,1-.76-1.548,6.645,6.645,0,0,1-.28-1.928h7.711a4.021,4.021,0,0,0-.33-1.648,4.4,4.4,0,0,0-.941-1.4,4.806,4.806,0,0,0-1.444-.963,4.946,4.946,0,0,0-1.878-.355,5,5,0,0,0-2.079.431,4.429,4.429,0,0,0-1.6,1.193,5.819,5.819,0,0,0-1.04,1.825,6.772,6.772,0,0,0-.355,2.309,4.646,4.646,0,0,0,.405,1.953,4.981,4.981,0,0,0,1.09,1.6,4.892,4.892,0,0,0,1.6,1.064,5.1,5.1,0,0,0,1.977.407,4.463,4.463,0,0,0,1.6-.306,5.683,5.683,0,0,0,1.445-.81,6.646,6.646,0,0,0,1.167-1.217,4.758,4.758,0,0,0,.709-1.5l-.582-.254a3.314,3.314,0,0,1-.508.913m-6.643-5.172a3,3,0,0,1,.556-.863,2.8,2.8,0,0,1,.762-.584,1.828,1.828,0,0,1,.887-.2,2.792,2.792,0,0,1,1.039.2,2.491,2.491,0,0,1,.838.584,2.274,2.274,0,0,1,.558.889,3.067,3.067,0,0,1,.2,1.088h-5.15a4.4,4.4,0,0,1,.306-1.114m16.457-1.7a2.983,2.983,0,0,0-1.14-.556,6.56,6.56,0,0,0-1.725-.2,6.566,6.566,0,0,0-1.6.179,5.228,5.228,0,0,0-1.317.508,3.421,3.421,0,0,0-.915.76,1.527,1.527,0,0,0-.33.963,1.449,1.449,0,0,0,.077.481.96.96,0,0,0,.227.381.916.916,0,0,0,.357.254,1.2,1.2,0,0,0,.431.1,1,1,0,0,0,.506-.127.872.872,0,0,0,.3-.3,1.264,1.264,0,0,0,.153-.431,3.438,3.438,0,0,0,.05-.534,2.269,2.269,0,0,1,.077-.582,1.331,1.331,0,0,1,.254-.506,1.223,1.223,0,0,1,.506-.357,2.17,2.17,0,0,1,.863-.125,2.914,2.914,0,0,1,.836.125,1.366,1.366,0,0,1,.633.431,2.084,2.084,0,0,1,.405.786,4.044,4.044,0,0,1,.127,1.193v.635c-.455.125-.937.227-1.42.379a13.026,13.026,0,0,0-1.42.457c-.457.177-.887.381-1.294.582a5.756,5.756,0,0,0-1.064.762,3.341,3.341,0,0,0-.736.963,2.662,2.662,0,0,0-.252,1.193,2.66,2.66,0,0,0,.177,1.013,2.514,2.514,0,0,0,.532.812,2.856,2.856,0,0,0,.838.558,2.978,2.978,0,0,0,1.09.2,3.951,3.951,0,0,0,1.141-.153,5.147,5.147,0,0,0,.913-.381,4.161,4.161,0,0,0,.76-.532c.228-.177.481-.381.711-.558v1.42h2.053v-7.81a3.117,3.117,0,0,0-.2-1.116,2,2,0,0,0-.609-.863m-1.241,7.659c-.2.153-.407.3-.609.431s-.381.254-.584.357a6.509,6.509,0,0,1-.608.252,2.726,2.726,0,0,1-.661.1,1.382,1.382,0,0,1-.633-.151,1.7,1.7,0,0,1-.532-.407,2.121,2.121,0,0,1-.381-.609,1.677,1.677,0,0,1-.127-.711,1.393,1.393,0,0,1,.179-.707,2.3,2.3,0,0,1,.508-.637,4.235,4.235,0,0,1,.735-.556,9.694,9.694,0,0,1,.862-.482c.3-.151.608-.278.939-.405.3-.127.633-.228.913-.331Zm4.892-12.909V235.97h2.055V220.323h-.582Zm9.081,13.822a1.149,1.149,0,0,1-.633.178,1.211,1.211,0,0,1-.433-.077,1.072,1.072,0,0,1-.355-.227,1.1,1.1,0,0,1-.227-.357,1.166,1.166,0,0,1-.077-.431v-7.3h2.333v-.863h-2.333V222.1h-.609c-.1.532-.227,1.014-.354,1.5a4.27,4.27,0,0,1-.56,1.245,2.4,2.4,0,0,1-.912.836,3.019,3.019,0,0,1-1.42.3v.506h1.8v7.3a4.092,4.092,0,0,0,.125.99,1.827,1.827,0,0,0,.381.76,1.714,1.714,0,0,0,.633.482,2.023,2.023,0,0,0,.913.177,3.084,3.084,0,0,0,1.674-.407,3.292,3.292,0,0,0,1.092-1.114l-.508-.355a3.74,3.74,0,0,1-.532.405m10.7-7.405a3.139,3.139,0,0,0-.558-.989,2.375,2.375,0,0,0-.836-.659,2.4,2.4,0,0,0-1.014-.254,4.276,4.276,0,0,0-2.055.534,7.281,7.281,0,0,0-1.953,1.571v-7.175h-.584l-1.469.584V236h2.053v-7.683a7.474,7.474,0,0,1,.711-.609c.254-.179.506-.331.735-.482a5.584,5.584,0,0,1,.736-.3,2.369,2.369,0,0,1,.683-.1,1.506,1.506,0,0,1,1.193.532,2.3,2.3,0,0,1,.457,1.547v7.076h2.055v-7.431a2.459,2.459,0,0,0-.153-1.217" transform="translate(304.721 -147.494)" fill="#5c8b72"/>
  <path id="Path_2286" data-name="Path 2286" d="M-224.823,223.076h-7.3l.077-.458a21.446,21.446,0,0,0,.329-3.371c0-4.465-1.979-9.688-7.558-9.688a9.5,9.5,0,0,0-5.275,1.928A17.311,17.311,0,0,0-249.04,216c-1.32,2.031-2.335,4.288-3.449,6.417-.1.2-.23.433-.33.633h-.127v-8.621H-255.2v8.621H-261.8v-.86c0-9.13-6.593-12.352-12.249-12.352h-8.7v1.928c.637-.05,8.04-.074,8.4-.074,6.314,0,10.092,4.106,10.117,10.979v.379h-27.894V208.52c-.661-.077-1.85-.127-2.359-.127-4.108,0-10.22,2.966-10.22,9.331a6.621,6.621,0,0,0,2.232,5.2,8.005,8.005,0,0,0,5.249,1.826h.711l1.445-1.548.127-.125h-1.65c-3.371,0-5.654-2.182-5.654-5.454a7.014,7.014,0,0,1,2.662-5.732,7.649,7.649,0,0,1,4.388-1.622h.786V224.75h71.792V198.857h-2.257v24.219Zm-9.561-.28-.075.28h-16.179l.1-.458c1.42-6.288,7.076-11.182,11-11.182,1.269,0,5.4.582,5.4,8.241a15.436,15.436,0,0,1-.254,3.119m18.968,1.954h2.257V198.859h-2.257Zm-83.28-19.933a1.71,1.71,0,0,0,1.725-1.723,1.71,1.71,0,0,0-1.725-1.725,1.726,1.726,0,0,0-1.723,1.725,1.709,1.709,0,0,0,1.723,1.723m102.781.024a1.71,1.71,0,0,0,1.725-1.723,1.71,1.71,0,0,0-1.725-1.725,1.726,1.726,0,0,0-1.723,1.725,1.709,1.709,0,0,0,1.723,1.723m-97.633-.024a1.726,1.726,0,0,0,1.725-1.723,1.71,1.71,0,0,0-1.725-1.725,1.726,1.726,0,0,0-1.724,1.725,1.709,1.709,0,0,0,1.724,1.723m121.066,19.933h2.257V198.859h-2.257Zm-29.419-6.823c0,3.881,3.222,6.823,7.483,6.823h5.072v-16.2a18.958,18.958,0,0,0-2.207-.127c-5.805,0-10.348,4.183-10.348,9.508m10.3,5.15h-2.156a5.291,5.291,0,0,1-5.706-5.454,7.046,7.046,0,0,1,7.024-7.354h.838Zm30.227-21.684a1.726,1.726,0,0,0-1.723,1.725,1.724,1.724,0,0,0,1.723,1.723,1.726,1.726,0,0,0,1.725-1.723,1.76,1.76,0,0,0-1.725-1.725m16.713,7.532c-5.884,0-10.5,4.007-10.5,9.154,0,4.9,4.288,6.671,7.177,6.671a6.872,6.872,0,0,0,.863-.027l1.116-1.164.482-.51h-1.5c-2.867,0-5.732-1.62-5.732-5.249a7.217,7.217,0,0,1,7.024-6.871h.381v14.151c0,2.712-.508,5.223-4.183,5.223a7.425,7.425,0,0,1-1.167-.127l-.28,1.723a10.22,10.22,0,0,0,2.031.178c1.747,0,5.857-.584,5.857-6.035V209.052a13.938,13.938,0,0,0-1.572-.127m-17.854,17.245c0,2.966-1.191,4.183-4.108,4.183a5.9,5.9,0,0,1-1.114-.127l-.28,1.8a12.321,12.321,0,0,0,2.027.153c1.725,0,5.759-.532,5.759-5.352v-16h-2.257v15.343Zm-28.25-24.777a1.71,1.71,0,0,0-1.723,1.725,1.724,1.724,0,0,0,1.723,1.723,1.726,1.726,0,0,0,1.725-1.723,1.761,1.761,0,0,0-1.725-1.725m9.1,24.777c0,2.966-1.193,4.183-4.108,4.183a5.966,5.966,0,0,1-1.118-.127l-.278,1.8a12.327,12.327,0,0,0,2.029.153c1.723,0,5.732-.532,5.732-5.352v-16h-2.257Z" transform="translate(304.733 -162.876)" fill="#5c8b72"/>
  <path id="Path_2287" data-name="Path 2287" d="M-116.165,213.274c-1.43.875-2.889,1.837-3.648,2.364-2.333,1.632-4.726,3.352-7.086,5.133a205.592,205.592,0,0,0-28.7,26.08h-18.874S-128.3,207-107.122,203.941c18.874-2.716,26.226,10.936,24.65,25.64a18.761,18.761,0,0,0-.117-5.282,18.754,18.754,0,0,0-4.638-9.683,18.589,18.589,0,0,0-7.264-5.018,18.975,18.975,0,0,0-8.662-1.167c.027.029-5.428.263-13.012,4.842" transform="translate(398.05 -159.482)" fill="#5c8b72"/>
  <path id="Path_2288" data-name="Path 2288" d="M-167.039,213.274c1.43.875,2.889,1.837,3.648,2.364,2.333,1.632,4.724,3.352,7.086,5.133a205.594,205.594,0,0,1,28.7,26.08h18.874S-154.9,207-176.082,203.941c-18.874-2.716-26.226,10.936-24.65,25.64a18.759,18.759,0,0,1,.117-5.282,18.755,18.755,0,0,1,4.638-9.683,18.588,18.588,0,0,1,7.265-5.018,18.919,18.919,0,0,1,8.662-1.167c-.027.029,5.4.263,13.012,4.842" transform="translate(379.089 -159.482)" fill="#5c8b72"/>
  <path id="Path_2289" data-name="Path 2289" d="M-173.5,217.7l-6.418-6.447-5.658,5.661-5.661-5.661-6.415,6.447,6.415,6.447,5.661-5.66,5.658,5.66Z" transform="translate(381.441 -153.992)" fill="#5c8b72"/>
  <path id="Path_2290" data-name="Path 2290" d="M-118.948,193.707a23,23,0,0,0-1.78-3.354,22.821,22.821,0,0,0-26.72-9.16c-.584-2.1-1.021-3.3-1.021-3.3s-.465,1.226-1.021,3.3a22.835,22.835,0,0,0-26.691,9.16,23.338,23.338,0,0,0-1.78,3.354,22.862,22.862,0,0,1,15.578-7.41,22.794,22.794,0,0,0-8.926,18.086,23.2,23.2,0,0,0,.321,3.794,22.907,22.907,0,0,1,10.677-15.724,22.865,22.865,0,0,0,1.2,22.667,21.663,21.663,0,0,0,2.333,3,22.846,22.846,0,0,1,5.251-25.584c-.146,1.693-.263,3.5-.263,5.339a63.858,63.858,0,0,0,3.325,20.012,63.857,63.857,0,0,0,3.325-20.012,53.256,53.256,0,0,0-.261-5.339,22.849,22.849,0,0,1,5.251,25.584,23.743,23.743,0,0,0,2.333-3,22.8,22.8,0,0,0,1.2-22.667,22.816,22.816,0,0,1,10.677,15.724,23.133,23.133,0,0,0,.321-3.794,22.752,22.752,0,0,0-8.926-18.086,22.815,22.815,0,0,1,15.605,7.41" transform="translate(395.553 -177.896)" fill="#5c8b72"/>
  <path id="Path_2291" data-name="Path 2291" d="M-174.223,212.617s16.422-23.687,45.273,7.031c27.187,28.936,37.368,24.065,45.1,14.876a12.119,12.119,0,0,1-1.109,2.218c-.525.845-.846,1.313-.961,1.459a19.838,19.838,0,0,1-16.074,8.43c-8.665.088-19.4-5.105-31.417-18.378-26.751-29.551-40.811-15.636-40.811-15.636" transform="translate(398.232 -159.263)" fill="#5c8b72"/>
</svg>
