<?xml version="1.0" encoding="utf-8"?>
<!-- Generator: Adobe Illustrator 25.4.1, SVG Export Plug-In . SVG Version: 6.00 Build 0)  -->
<svg version="1.1" id="Layer_1" xmlns="http://www.w3.org/2000/svg" xmlns:xlink="http://www.w3.org/1999/xlink" x="0px" y="0px"
	 viewBox="0 0 90.6 68.5" style="enable-background:new 0 0 90.6 68.5;" xml:space="preserve">
<style type="text/css">
	.st0{fill:#618A6E;}
</style>
<g id="Group_21" transform="translate(-256.166 -789.925)">
	<g id="Group_8462" transform="translate(-68.627 -39.627)">
		<path id="Path_100" class="st0" d="M370,854.6L370,854.6L370,854.6L370,854.6L370,854.6"/>
		<path id="Path_101" class="st0" d="M370.1,854.6L370.1,854.6L370.1,854.6L370.1,854.6L370.1,854.6z"/>
		<path id="Path_102" class="st0" d="M371.7,862.3l-1.6-3.2l0,0l0,0l-1.6,3.2l-8.4,16.8c1.5,0.7,3.3,0.1,4.1-1.4l5.9-11.9l5.9,11.9
			c0.7,1.5,2.6,2.1,4.1,1.4L371.7,862.3z"/>
		<path id="Path_103" class="st0" d="M371.1,877.7l-1-2.4l0,0l0,0l-1,2.4c0,0.2,0.1,0.4,0.2,0.6l0.9,2l0.9-2
			C371,878.1,371,877.9,371.1,877.7"/>
		<path id="Path_104" class="st0" d="M367.6,864.3l-0.2-0.1l6.2-12.3l0.2,0.1L367.6,864.3z"/>
		<path id="Path_105" class="st0" d="M372.5,864.3l-6-12.3l0.2-0.1l6,12.3L372.5,864.3z"/>
		<rect id="Rectangle_8" x="370" y="861.9" class="st0" width="0.2" height="18.1"/>
		<path id="Path_106" class="st0" d="M362.7,835.8c-0.1-0.1-0.2-0.1-0.4-0.1c0,0,0,0-0.1,0l-6.8,8c-0.1,0.1-0.1,0.3,0,0.4
			c0.1,0.1,0.3,0.1,0.4,0c1.6-1.4,3.3-2.8,4.9-4.2c0.1-0.1,0.3-0.1,0.4,0c0,0,0.1,0.1,0.1,0.1c0.1,1,0.2,2.1,0.3,3.1
			c0,0.1,0.1,0.3,0.3,0.2c0,0,0.1,0,0.1,0l2-1.2c0.1-0.1,0.3,0,0.4,0.1c0,0,0,0,0,0l0.1,0.2l1.5-2.2
			C364.8,838.9,363.8,837.4,362.7,835.8"/>
		<path id="Path_107" class="st0" d="M380.5,842.8l-8.7-10.2c-0.1-0.1-0.3-0.2-0.5,0c0,0,0,0-0.1,0.1l-5.4,7.8l-1.5,2.2l-9.5,13.7
			c-0.1,0.2-0.1,0.4,0.1,0.5c0.1,0.1,0.3,0.1,0.5-0.1l5.3-6.2c0.1-0.1,0.3-0.2,0.5,0l1.4,1.1c0.1,0.1,0.4,0.1,0.5-0.1
			c0,0,0-0.1,0.1-0.1l2.1-6.3c0,0,0,0,0-0.1c0.1-0.2,0.3-0.2,0.5-0.1c0,0,0.1,0.1,0.1,0.1l0.8,1.2c0.1,0.1,0.1,0.2,0.2,0.3
			c0.1,0.2,0.3,0.2,0.5,0.1c0.1,0,0.1-0.1,0.1-0.2c0.1-0.2,0.1-0.4,0.2-0.6c0.2-0.7,0.5-1.3,0.7-2c0.3-0.9,0.7-1.9,1-2.8
			c0.1-0.2,0.3-0.3,0.4-0.2c0,0,0,0,0.1,0l2.5,1.5c0.2,0.1,0.4,0,0.5-0.1c0,0,0-0.1,0-0.1c0.1-1.3,0.3-2.7,0.4-4
			c0-0.2,0.2-0.3,0.4-0.3c0.1,0,0.1,0,0.2,0.1l6.3,5.3c0.1,0.1,0.4,0.1,0.5,0C380.6,843.1,380.6,842.9,380.5,842.8"/>
		<path id="Path_108" class="st0" d="M370,884.9c-8.4,0-15.3-6.4-15.3-14.3v-26.7c0-7.9,6.8-14.3,15.3-14.3s15.3,6.4,15.3,14.3v26.7
			C385.3,878.5,378.5,884.9,370,884.9 M370,830.5c-7.9,0-14.2,6-14.2,13.4v26.7c0,7.4,6.4,13.4,14.2,13.4s14.2-6,14.2-13.4v-26.7
			C384.3,836.5,377.9,830.5,370,830.5"/>
		<path id="Path_109" class="st0" d="M369.8,849.5c-0.1,0.1-0.1,0.2,0,0.3s0.2,0.1,0.3,0l0,0l0,0c0,0,0.1-0.1,0.1-0.1
			c0.2-0.2,0.5-0.4,0.7-0.6c0.1-0.1,0.2-0.1,0.2-0.2l0.9-0.8c0.1-0.1,0.1-0.2,0-0.3c0,0-0.1-0.1-0.2-0.1l-1,0
			c-0.1,0-0.2-0.1-0.2-0.2c0-0.1,0-0.1,0.1-0.1c1-1.1,2-2.3,3-3.4c0.1-0.1,0.1-0.2,0-0.3c0,0-0.1-0.1-0.1-0.1h0
			c-0.1,0-0.2-0.1-0.2-0.2c0-0.1,0-0.1,0.1-0.2l2-2.2c0.1-0.1,0.2-0.1,0.3,0c0,0,0,0,0,0c0.8,0.9,1.6,1.8,2.5,2.6
			c0.1,0.1,0.1,0.2,0,0.3c0,0-0.1,0.1-0.2,0.1h-0.5c-0.1,0-0.2,0.1-0.2,0.2c0,0.1,0,0.1,0.1,0.2l3.3,3.5c0.1,0.1,0.1,0.2,0,0.3
			c0,0-0.1,0.1-0.2,0.1h-1c-0.1,0-0.2,0.1-0.2,0.2c0,0.1,0,0.1,0.1,0.2l5.5,5.1l-4.4-4.5c-0.1-0.1-0.1-0.2,0-0.3
			c0,0,0.1-0.1,0.2-0.1h1.1c0.1,0,0.2-0.1,0.2-0.2c0-0.1,0-0.1-0.1-0.2l-3.1-3.2l-0.3-0.3c-0.1-0.1-0.1-0.2,0-0.3
			c0,0,0.1-0.1,0.2-0.1h0.5c0.1,0,0.2-0.1,0.2-0.2c0-0.1,0-0.1-0.1-0.2l-3.8-4c-0.1-0.1-0.2-0.1-0.3,0c0,0,0,0,0,0l-3.8,4
			c-0.1,0.1-0.1,0.2,0,0.3c0,0,0.1,0.1,0.2,0.1h0.5c0.1,0,0.2,0.1,0.2,0.2c0,0.1,0,0.1-0.1,0.2l-0.3,0.3l-1.6,1.6l-0.3,0.3l-0.3,0.3
			l-0.2,0.2l-0.8,0.8c-0.1,0.1-0.1,0.2,0,0.3c0,0,0.1,0.1,0.2,0.1h1.1c0.1,0,0.2,0.1,0.2,0.2c0,0.1,0,0.1-0.1,0.2L369.8,849.5z"/>
	</g>
	<g id="Group_8463">
		<path id="Path_110" class="st0" d="M257,852.8c0.5-0.4,1.1-0.7,1.7-0.7c0.6,0,1.3,0.2,1.7,0.7c0.4,0.4,0.7,0.9,0.7,1.5v1.9h0.7
			v0.6h-3.2c-0.6,0-1.3-0.2-1.7-0.7c-0.5-0.4-0.7-1-0.7-1.7C256.2,853.8,256.5,853.2,257,852.8 M258.7,852.8c-0.5,0-0.9,0.2-1.2,0.5
			c-0.3,0.3-0.5,0.7-0.5,1.2c0,0.4,0.2,0.9,0.5,1.2c0.3,0.3,0.8,0.5,1.2,0.5h1.8v-1.7c0-0.5-0.2-0.9-0.5-1.2
			C259.6,853,259.2,852.8,258.7,852.8 M258.1,850.6c0.2,0,0.4,0.2,0.4,0.4c0,0.1,0,0.2-0.1,0.3c-0.1,0.1-0.2,0.1-0.3,0.1
			c-0.1,0-0.2,0-0.3-0.1c-0.1-0.1-0.1-0.2-0.1-0.3C257.7,850.8,257.9,850.6,258.1,850.6 M259.2,850.6c0.1,0,0.2,0,0.3,0.1
			c0.1,0.1,0.1,0.2,0.1,0.3c0,0.1,0,0.2-0.1,0.3c-0.1,0.1-0.2,0.1-0.3,0.1c-0.1,0-0.2,0-0.3-0.1c-0.1-0.1-0.1-0.2-0.1-0.3
			c0-0.1,0-0.2,0.1-0.3C259,850.7,259.1,850.6,259.2,850.6"/>
		<path id="Path_111" class="st0" d="M258.1,850.7c-0.1,0-0.2,0-0.2,0.1c-0.1,0.1-0.1,0.1-0.1,0.2c0,0.1,0,0.2,0.1,0.2
			c0.1,0.1,0.3,0.1,0.5,0c0.1-0.1,0.1-0.1,0.1-0.2c0-0.1,0-0.2-0.1-0.2C258.3,850.7,258.2,850.7,258.1,850.7 M258.1,851.5
			c-0.1,0-0.3,0-0.4-0.1c-0.1-0.1-0.1-0.2-0.1-0.4c0-0.1,0-0.3,0.1-0.3c0.1-0.1,0.2-0.2,0.4-0.1c0.1,0,0.3,0.1,0.3,0.2
			c0.1,0.1,0.2,0.2,0.1,0.3c0,0.1-0.1,0.3-0.1,0.4C258.3,851.5,258.2,851.5,258.1,851.5 M259.2,850.7c-0.1,0-0.2,0-0.2,0.1
			c-0.1,0.1-0.1,0.1-0.1,0.2c0,0.1,0,0.2,0.1,0.2c0.1,0.1,0.3,0.1,0.5,0c0.1-0.1,0.1-0.1,0.1-0.2c0-0.1,0-0.2-0.1-0.2
			C259.4,850.7,259.3,850.7,259.2,850.7 M259.2,851.5c-0.1,0-0.3,0-0.3-0.1c-0.1-0.1-0.1-0.2-0.1-0.4c0-0.1,0-0.3,0.1-0.3
			c0.1-0.1,0.2-0.2,0.4-0.1c0.1,0,0.3,0.1,0.3,0.2c0.1,0.1,0.2,0.2,0.1,0.3c0,0.1-0.1,0.3-0.1,0.3
			C259.5,851.5,259.3,851.5,259.2,851.5 M258.7,852.9c-0.4,0-0.9,0.2-1.2,0.5c-0.3,0.3-0.5,0.7-0.5,1.1c0,0.4,0.2,0.8,0.5,1.1
			c0.3,0.3,0.7,0.5,1.2,0.5h1.7v-1.6c0-0.4-0.2-0.8-0.5-1.1C259.6,853.1,259.1,852.9,258.7,852.9 M260.6,856.2h-1.9
			c-0.5,0-0.9-0.2-1.3-0.5c-0.3-0.3-0.5-0.8-0.5-1.2c0-0.5,0.2-0.9,0.5-1.2c0.3-0.3,0.8-0.5,1.3-0.5c0.5,0,0.9,0.2,1.3,0.5
			c0.4,0.3,0.6,0.8,0.6,1.2L260.6,856.2z M257,852.9c-0.5,0.4-0.7,1-0.7,1.6c0,0.6,0.2,1.2,0.7,1.6c0.5,0.4,1.1,0.7,1.7,0.6h3.1
			v-0.5h-0.7v-2c0-0.5-0.3-1-0.7-1.4c-0.5-0.4-1.1-0.7-1.7-0.7C258.1,852.2,257.5,852.5,257,852.9 M261.9,856.9h-3.2
			c-0.7,0-1.3-0.2-1.8-0.7c-0.5-0.4-0.8-1.1-0.7-1.7c0-0.7,0.3-1.3,0.7-1.7c0.5-0.5,1.1-0.7,1.8-0.7c0.7,0,1.3,0.2,1.8,0.7
			c0.4,0.4,0.7,0.9,0.8,1.5v1.8h0.7L261.9,856.9z"/>
		<rect id="Rectangle_9" x="261.5" y="856.2" class="st0" width="2.8" height="0.6"/>
		<path id="Path_112" class="st0" d="M261.6,856.7h2.6v-0.5h-2.6V856.7z M264.4,856.9h-2.9v-0.8h2.9V856.9z"/>
		<rect id="Rectangle_10" x="263.9" y="856.2" class="st0" width="2.8" height="0.6"/>
		<path id="Path_113" class="st0" d="M264,856.7h2.6v-0.5H264V856.7z M266.8,856.9h-2.9v-0.8h2.9V856.9z"/>
		<rect id="Rectangle_11" x="266.4" y="856.2" class="st0" width="2.8" height="0.6"/>
		<path id="Path_114" class="st0" d="M266.4,856.7h2.6v-0.5h-2.6V856.7z M269.2,856.9h-2.9v-0.8h2.9V856.9z"/>
		<rect id="Rectangle_12" x="268.8" y="856.2" class="st0" width="2.8" height="0.6"/>
		<path id="Path_115" class="st0" d="M268.9,856.7h2.6v-0.5h-2.6V856.7z M271.6,856.9h-2.9v-0.8h2.9V856.9z"/>
		<path id="Path_116" class="st0" d="M274.2,853.5c0.6,0,1.3,0.2,1.7,0.7c0.9,0.8,1,2.2,0.2,3.1c0,0.1-0.1,0.1-0.2,0.2
			c-1,0.9-2.5,0.9-3.5,0c-0.2-0.2-0.4-0.4-0.5-0.7h-0.8v-0.6h0.6c-0.1-0.7,0.1-1.5,0.7-2C273,853.7,273.6,853.5,274.2,853.5
			 M274.2,854.1c-0.5,0-0.9,0.2-1.2,0.5c-0.6,0.6-0.7,1.6-0.1,2.2c0,0,0.1,0.1,0.1,0.1c0.7,0.6,1.8,0.6,2.5,0
			c0.3-0.3,0.5-0.7,0.5-1.2c0-0.5-0.2-0.9-0.5-1.2C275.1,854.3,274.7,854.1,274.2,854.1"/>
		<path id="Path_117" class="st0" d="M274.2,854.2c-0.4,0-0.9,0.2-1.2,0.5c-0.3,0.3-0.5,0.7-0.5,1.1c0,0.4,0.2,0.8,0.5,1.1
			c0.7,0.6,1.7,0.6,2.3,0c0.6-0.6,0.7-1.5,0.1-2.1c0,0-0.1-0.1-0.1-0.1C275.1,854.4,274.7,854.2,274.2,854.2 M274.2,857.5
			c-0.5,0-0.9-0.2-1.3-0.5c-0.7-0.6-0.7-1.7-0.1-2.3c0,0,0.1-0.1,0.1-0.1c0.3-0.3,0.8-0.5,1.3-0.5c0.5,0,0.9,0.2,1.3,0.5
			c0.4,0.3,0.5,0.8,0.5,1.2c0,0.5-0.2,0.9-0.5,1.2C275.2,857.4,274.7,857.5,274.2,857.5 M271.3,856.7h0.8l0,0
			c0.1,0.2,0.3,0.5,0.5,0.6c0.9,0.9,2.4,0.9,3.3,0c0.9-0.8,1-2.1,0.2-3c0-0.1-0.1-0.1-0.2-0.2c-0.5-0.4-1.1-0.7-1.7-0.7
			c-0.6,0-1.2,0.2-1.7,0.7c-0.5,0.4-0.7,1-0.7,1.6c0,0.1,0,0.2,0,0.3l0,0.1h-0.6L271.3,856.7z M274.2,858.2c-0.7,0-1.3-0.2-1.8-0.7
			c-0.2-0.2-0.4-0.4-0.5-0.6h-0.8v-0.8h0.6c0-0.1,0-0.2,0-0.3c0-0.7,0.3-1.3,0.7-1.7c1-0.9,2.6-0.9,3.6,0c0.9,0.9,1,2.3,0.2,3.3
			c-0.1,0.1-0.1,0.1-0.2,0.2C275.5,858,274.9,858.2,274.2,858.2"/>
		<path id="Path_118" class="st0" d="M278.1,856.2h0.7v0.6h-1.4v-6.9h0.7L278.1,856.2z"/>
		<path id="Path_119" class="st0" d="M277.4,856.7h1.2v-0.5H278V850h-0.5V856.7z M278.8,856.9h-1.5v-7h0.8v6.2h0.7L278.8,856.9z"/>
		<path id="Path_120" class="st0" d="M281.4,853.5c0.6,0,1.3,0.2,1.7,0.7c0.6,0.5,0.8,1.3,0.7,2h0.6v0.6h-0.8
			c-0.1,0.2-0.3,0.5-0.5,0.7c-0.5,0.4-1.1,0.7-1.7,0.7c-0.6,0-1.3-0.2-1.7-0.7c-0.2-0.2-0.4-0.4-0.5-0.7h-0.8v-0.6h0.6
			c-0.1-0.7,0.2-1.5,0.7-2C280.1,853.7,280.8,853.5,281.4,853.5 M281.4,854.2c-0.5,0-0.9,0.2-1.2,0.5c-0.6,0.6-0.7,1.6-0.1,2.2
			c0,0,0.1,0.1,0.1,0.1c0.7,0.6,1.8,0.6,2.5,0c0.3-0.3,0.5-0.7,0.5-1.2c0-0.5-0.2-0.9-0.5-1.2C282.3,854.3,281.9,854.1,281.4,854.2"
			/>
		<path id="Path_121" class="st0" d="M281.4,854.2c-0.4,0-0.9,0.2-1.2,0.5c-0.3,0.3-0.5,0.7-0.5,1.1c0,0.4,0.2,0.8,0.5,1.1
			c0.7,0.6,1.7,0.6,2.3,0c0.6-0.6,0.7-1.5,0.1-2.1c0,0-0.1-0.1-0.1-0.1C282.3,854.4,281.8,854.2,281.4,854.2 M281.4,857.5
			c-0.5,0-0.9-0.2-1.3-0.5c-0.7-0.6-0.7-1.7-0.1-2.3c0,0,0.1-0.1,0.1-0.1c0.3-0.3,0.8-0.5,1.3-0.5c0.5,0,0.9,0.2,1.3,0.5
			c0.4,0.3,0.6,0.8,0.5,1.2c0,0.5-0.2,0.9-0.5,1.2C282.3,857.4,281.9,857.5,281.4,857.5 M278.5,856.7h0.8l0,0
			c0.1,0.2,0.3,0.5,0.5,0.6c0.4,0.4,1,0.7,1.7,0.7c0.6,0,1.2-0.2,1.7-0.7c0.2-0.2,0.4-0.4,0.5-0.6l0,0h0.7v-0.5h-0.6l0-0.1
			c0-0.1,0-0.2,0-0.3c0-0.6-0.2-1.2-0.7-1.6c-0.9-0.9-2.4-0.9-3.3,0c-0.5,0.4-0.7,1-0.7,1.6c0,0.1,0,0.2,0,0.3l0,0.1h-0.6
			L278.5,856.7z M281.4,858.2c-0.7,0-1.3-0.2-1.8-0.7c-0.2-0.2-0.4-0.4-0.5-0.6h-0.8v-0.8h0.6c0-0.1,0-0.2,0-0.3
			c0-0.7,0.3-1.3,0.7-1.7c1-0.9,2.6-0.9,3.6,0c0.5,0.4,0.8,1.1,0.7,1.7c0,0.1,0,0.2,0,0.3h0.6v0.8h-0.8c-0.1,0.2-0.3,0.5-0.5,0.6
			C282.7,858,282.1,858.2,281.4,858.2"/>
		<rect id="Rectangle_13" x="284.1" y="856.2" class="st0" width="2.8" height="0.6"/>
		<path id="Path_122" class="st0" d="M284.2,856.7h2.6v-0.5h-2.6V856.7z M286.9,856.9H284v-0.8h2.9V856.9z"/>
		<rect id="Rectangle_14" x="286.5" y="856.2" class="st0" width="2.8" height="0.6"/>
		<path id="Path_123" class="st0" d="M286.6,856.7h2.6v-0.5h-2.6L286.6,856.7z M289.3,856.9h-2.9v-0.8h2.9V856.9z"/>
		<path id="Path_124" class="st0" d="M290.9,852.4v3c0,0.2,0.1,0.4,0.2,0.6c0.2,0.2,0.5,0.2,0.8,0.2h0.9v0.6h-0.9
			c-0.5,0-1-0.2-1.4-0.5c-0.4,0.4-0.9,0.6-1.5,0.5h-0.2v-0.6h0.2c0.3,0,0.6,0,0.9-0.2c0.2-0.2,0.2-0.4,0.2-0.6v-3L290.9,852.4z
			 M290,850.6c0.2,0,0.4,0.2,0.4,0.4c0,0.1,0,0.2-0.1,0.3c-0.1,0.1-0.2,0.1-0.3,0.1c-0.1,0-0.2,0-0.3-0.1c-0.1-0.1-0.1-0.2-0.1-0.3
			C289.6,850.8,289.8,850.6,290,850.6 M290.5,849.6c0.2,0,0.4,0.2,0.4,0.4c0,0.1,0,0.2-0.1,0.3c-0.1,0.1-0.2,0.1-0.3,0.1
			c-0.1,0-0.2,0-0.3-0.1c-0.1-0.1-0.1-0.2-0.1-0.3c0-0.1,0-0.2,0.1-0.3C290.3,849.6,290.4,849.6,290.5,849.6 M291.1,850.6
			c0.1,0,0.2,0,0.3,0.1c0.1,0.1,0.1,0.2,0.1,0.3c0,0.1,0,0.2-0.1,0.3c-0.1,0.1-0.2,0.1-0.3,0.1c-0.1,0-0.2,0-0.3-0.1
			c-0.1-0.1-0.1-0.2-0.1-0.3c0-0.1,0-0.2,0.1-0.3C290.9,850.7,291,850.6,291.1,850.6"/>
		<path id="Path_125" class="st0" d="M290.5,849.7c-0.1,0-0.2,0-0.2,0.1c-0.1,0.1-0.1,0.1-0.1,0.2c0,0.1,0,0.2,0.1,0.2
			c0.1,0.1,0.3,0.1,0.5,0c0.1-0.1,0.1-0.1,0.1-0.2c0-0.1,0-0.2-0.1-0.2C290.7,849.7,290.6,849.7,290.5,849.7 M290.5,850.5
			c-0.1,0-0.3,0-0.4-0.1c-0.1-0.1-0.1-0.2-0.1-0.4c0-0.1,0-0.3,0.1-0.3c0.1-0.1,0.2-0.2,0.4-0.1c0.1,0,0.3,0.1,0.3,0.2
			c0.1,0.1,0.2,0.2,0.1,0.3c0,0.1-0.1,0.3-0.1,0.3C290.8,850.4,290.7,850.5,290.5,850.5 M290,850.7c-0.2,0-0.3,0.2-0.3,0.3
			c0,0.1,0,0.2,0.1,0.2c0.1,0.1,0.3,0.1,0.5,0c0.1-0.1,0.1-0.1,0.1-0.2c0-0.1,0-0.2-0.1-0.2C290.1,850.7,290.1,850.7,290,850.7
			 M290,851.5c-0.1,0-0.3,0-0.4-0.1c-0.1-0.1-0.1-0.2-0.1-0.3c0-0.3,0.2-0.5,0.5-0.5c0.3,0,0.5,0.2,0.5,0.5c0,0.1-0.1,0.3-0.1,0.3
			C290.2,851.5,290.1,851.5,290,851.5 M291.1,850.7c-0.1,0-0.2,0-0.2,0.1c-0.1,0.1-0.1,0.1-0.1,0.2c0,0.1,0,0.2,0.1,0.2
			c0.1,0.1,0.3,0.1,0.5,0c0.1-0.1,0.1-0.1,0.1-0.2c0-0.1,0-0.2-0.1-0.2C291.3,850.7,291.2,850.7,291.1,850.7 M291.1,851.5
			c-0.1,0-0.3,0-0.4-0.1c-0.1-0.1-0.1-0.2-0.1-0.3c0-0.1,0-0.3,0.1-0.3c0.1-0.1,0.2-0.2,0.4-0.1c0.1,0,0.3,0.1,0.3,0.2
			c0.1,0.1,0.2,0.2,0.1,0.3c0,0.1-0.1,0.3-0.1,0.3C291.4,851.5,291.2,851.5,291.1,851.5 M290.5,856.1L290.5,856.1
			c0.4,0.4,0.9,0.6,1.4,0.6h0.8v-0.5h-0.8c-0.3,0-0.6-0.1-0.8-0.2c-0.2-0.2-0.3-0.4-0.2-0.7v-2.9h-0.5v2.9c0,0.2-0.1,0.5-0.2,0.7
			c-0.3,0.2-0.6,0.3-0.9,0.2H289v0.5h0.1C289.6,856.8,290.1,856.6,290.5,856.1L290.5,856.1z M292.9,856.9h-0.9c-0.5,0-1-0.2-1.4-0.5
			c-0.4,0.4-0.9,0.6-1.5,0.5h-0.2v-0.8h0.2c0.3,0,0.6,0,0.8-0.2c0.1-0.2,0.2-0.4,0.2-0.6v-3h0.9v3c0,0.2,0.1,0.4,0.2,0.5
			c0.2,0.2,0.5,0.2,0.7,0.2h0.9L292.9,856.9z"/>
		<path id="Path_126" class="st0" d="M294.8,849.9v5.6c0,0.3-0.1,0.6-0.3,0.8c-0.2,0.3-0.4,0.4-0.7,0.5c-0.1,0-0.6,0-1.4,0v-0.6
			c0.4,0,0.7,0,0.8,0c0.3,0,0.5-0.1,0.7-0.3c0.1-0.1,0.2-0.3,0.2-0.5v-5.4H294.8z"/>
		<path id="Path_127" class="st0" d="M292.5,856.2v0.5c0.8,0,1.2,0,1.3,0c0.3,0,0.5-0.2,0.6-0.4c0.2-0.2,0.3-0.5,0.2-0.8V850h-0.5
			v5.4c0,0.2-0.1,0.4-0.2,0.5c-0.2,0.2-0.5,0.3-0.7,0.3C293.2,856.2,292.9,856.2,292.5,856.2 M292.5,856.9L292.5,856.9l-0.1-0.8h0.1
			c0.4,0,0.7,0,0.8,0c0.2,0,0.5-0.1,0.6-0.3c0.1-0.1,0.1-0.3,0.2-0.4v-5.5h0.8v5.6c0,0.3-0.1,0.6-0.3,0.9c-0.2,0.3-0.4,0.5-0.8,0.5
			C293.8,856.9,293.6,856.9,292.5,856.9"/>
		<rect id="Rectangle_15" x="295.5" y="849.9" class="st0" width="0.7" height="6.9"/>
		<path id="Path_128" class="st0" d="M295.6,856.7h0.5V850h-0.5V856.7z M296.3,856.9h-0.8v-7h0.8V856.9z"/>
		<path id="Path_129" class="st0" d="M299.1,852.8c0.5-0.4,1.1-0.7,1.7-0.7c0.6,0,1.3,0.2,1.7,0.7c0.4,0.4,0.7,0.9,0.7,1.5v1.9h0.7
			v0.6h-3.2c-0.6,0-1.3-0.2-1.7-0.7c-0.5-0.4-0.7-1-0.7-1.7C298.4,853.8,298.7,853.2,299.1,852.8 M300.9,852.8
			c-0.5,0-0.9,0.2-1.2,0.5c-0.3,0.3-0.5,0.7-0.5,1.2c0,0.4,0.2,0.9,0.5,1.2c0.3,0.3,0.8,0.5,1.2,0.5h1.8v-1.7c0-0.5-0.2-0.9-0.5-1.2
			C301.8,853,301.3,852.8,300.9,852.8 M300.3,850.6c0.2,0,0.4,0.2,0.4,0.4c0,0.1,0,0.2-0.1,0.3c-0.1,0.1-0.2,0.1-0.3,0.1
			c-0.1,0-0.2,0-0.3-0.1c-0.1-0.1-0.1-0.2-0.1-0.3C299.9,850.8,300,850.6,300.3,850.6 M301.4,850.6c0.1,0,0.2,0,0.3,0.1
			c0.1,0.1,0.1,0.2,0.1,0.3c0,0.1,0,0.2-0.1,0.3c-0.1,0.1-0.2,0.1-0.3,0.1c-0.1,0-0.2,0-0.3-0.1c-0.1-0.1-0.1-0.2-0.1-0.3
			c0-0.1,0-0.2,0.1-0.3C301.2,850.7,301.3,850.6,301.4,850.6"/>
		<path id="Path_130" class="st0" d="M300.3,850.7c-0.1,0-0.2,0-0.2,0.1c-0.1,0.1-0.1,0.1-0.1,0.2c0,0.1,0,0.2,0.1,0.2
			c0.1,0.1,0.3,0.1,0.5,0c0.1-0.1,0.1-0.1,0.1-0.2c0-0.1,0-0.2-0.1-0.2C300.4,850.7,300.4,850.7,300.3,850.7 M300.3,851.5
			c-0.1,0-0.3,0-0.4-0.1c-0.1-0.1-0.1-0.2-0.1-0.3c0-0.1,0-0.3,0.1-0.3c0.1-0.1,0.2-0.2,0.4-0.1c0.1,0,0.3,0.1,0.3,0.2
			c0.1,0.1,0.2,0.2,0.1,0.3c0,0.1-0.1,0.3-0.1,0.4C300.5,851.5,300.4,851.5,300.3,851.5 M301.4,850.7c-0.1,0-0.2,0-0.2,0.1
			c-0.1,0.1-0.1,0.1-0.1,0.2c0,0.1,0,0.2,0.1,0.2c0.1,0.1,0.3,0.1,0.5,0c0.1-0.1,0.1-0.1,0.1-0.2c0-0.1,0-0.2-0.1-0.2
			C301.6,850.7,301.5,850.7,301.4,850.7 M301.4,851.5c-0.1,0-0.3,0-0.4-0.1c-0.1-0.1-0.1-0.2-0.1-0.4c0-0.1,0-0.3,0.1-0.3
			c0.1-0.1,0.2-0.2,0.4-0.1c0.1,0,0.3,0.1,0.3,0.2c0.1,0.1,0.2,0.2,0.1,0.3c0,0.1-0.1,0.3-0.1,0.4
			C301.6,851.5,301.5,851.5,301.4,851.5 M300.9,852.9c-0.4,0-0.9,0.2-1.2,0.5c-0.3,0.3-0.5,0.7-0.5,1.1c0,0.4,0.2,0.8,0.5,1.1
			c0.3,0.3,0.7,0.5,1.2,0.5h1.7v-1.6c0-0.4-0.2-0.8-0.5-1.1C301.7,853.1,301.3,852.9,300.9,852.9 M302.7,856.2h-1.9
			c-0.5,0-0.9-0.2-1.3-0.5c-0.3-0.3-0.5-0.8-0.5-1.2c0-0.5,0.2-0.9,0.5-1.2c0.3-0.3,0.8-0.5,1.3-0.5c0.5,0,0.9,0.2,1.3,0.5
			c0.4,0.3,0.6,0.8,0.6,1.2L302.7,856.2z M299.2,852.9c-0.5,0.4-0.7,1-0.7,1.6c0,0.6,0.2,1.2,0.7,1.6c0.5,0.4,1.1,0.7,1.7,0.6h3.1
			v-0.5h-0.7v-2c0-0.5-0.3-1-0.7-1.4c-0.5-0.4-1.1-0.7-1.7-0.7C300.2,852.2,299.6,852.5,299.2,852.9 M304.1,856.9h-3.2
			c-0.7,0-1.3-0.2-1.8-0.7c-0.5-0.4-0.8-1.1-0.7-1.7c0-0.7,0.3-1.3,0.7-1.7l0,0c0.5-0.5,1.1-0.7,1.8-0.7c0.7,0,1.3,0.2,1.8,0.7
			c0.4,0.4,0.7,0.9,0.8,1.5v1.8h0.7L304.1,856.9z"/>
		<rect id="Rectangle_16" x="303.7" y="856.2" class="st0" width="2.8" height="0.6"/>
		<path id="Path_131" class="st0" d="M303.8,856.7h2.6v-0.5h-2.6V856.7z M306.5,856.9h-2.9v-0.8h2.9V856.9z"/>
		<rect id="Rectangle_17" x="306.1" y="856.2" class="st0" width="2.8" height="0.6"/>
		<path id="Path_132" class="st0" d="M306.2,856.7h2.6v-0.5h-2.6V856.7z M309,856.9H306v-0.8h2.9V856.9z"/>
		<path id="Path_133" class="st0" d="M311.4,852.4v3c0,0.3-0.1,0.7-0.4,0.9c-0.4,0.4-0.9,0.6-1.5,0.5h-1v-0.6h1c0.3,0,0.6,0,0.9-0.2
			c0.2-0.2,0.2-0.4,0.2-0.6v-3L311.4,852.4z M309.8,857.4c0.2,0,0.4,0.2,0.4,0.4c0,0.1,0,0.2-0.1,0.3c-0.1,0.1-0.2,0.1-0.3,0.1
			c-0.1,0-0.2,0-0.3-0.1c-0.1-0.1-0.1-0.2-0.1-0.3c0-0.1,0-0.2,0.1-0.3C309.5,857.5,309.6,857.4,309.8,857.4 M310.9,857.4
			c0.1,0,0.2,0,0.3,0.1c0.1,0.1,0.1,0.2,0.1,0.3c0,0.1,0,0.2-0.1,0.3c-0.1,0.1-0.2,0.1-0.3,0.1c-0.1,0-0.2,0-0.3-0.1
			c-0.1-0.1-0.1-0.2-0.1-0.3C310.5,857.6,310.7,857.4,310.9,857.4"/>
		<path id="Path_134" class="st0" d="M308.6,856.7h0.9c0.5,0.1,1-0.1,1.4-0.5c0.2-0.2,0.3-0.5,0.3-0.9v-2.9h-0.6v2.9
			c0,0.2-0.1,0.5-0.2,0.7c-0.3,0.2-0.6,0.3-0.9,0.2h-0.9L308.6,856.7z M309.6,856.9h-1.1v-0.8h1.1c0.3,0,0.6,0,0.8-0.2
			c0.1-0.2,0.2-0.4,0.2-0.6v-3h0.9v3c0,0.4-0.1,0.7-0.4,1C310.7,856.7,310.1,856.9,309.6,856.9 M309.8,857.5c-0.1,0-0.2,0-0.2,0.1
			c-0.1,0.1-0.1,0.1-0.1,0.2c0,0.1,0,0.2,0.1,0.2c0.1,0.1,0.3,0.1,0.5,0c0.1-0.1,0.1-0.1,0.1-0.2c0-0.1,0-0.2-0.1-0.2
			C309.9,857.6,309.8,857.5,309.8,857.5 M309.8,858.4c-0.1,0-0.3,0-0.4-0.1c-0.1-0.1-0.1-0.2-0.1-0.3c0-0.1,0-0.3,0.1-0.3
			c0.1-0.1,0.2-0.2,0.4-0.1c0.1,0,0.3,0.1,0.3,0.1c0.1,0.1,0.1,0.2,0.1,0.3c0,0.1-0.1,0.3-0.1,0.3
			C310,858.3,309.9,858.4,309.8,858.4 M310.9,857.5c-0.2,0-0.3,0.2-0.3,0.3c0,0.1,0,0.2,0.1,0.2c0.1,0.1,0.3,0.1,0.5,0
			c0.1-0.1,0.1-0.1,0.1-0.2c0-0.1,0-0.2-0.1-0.2C311.1,857.6,311,857.5,310.9,857.5 M310.9,858.4c-0.1,0-0.3,0-0.4-0.1
			c-0.1-0.1-0.1-0.2-0.1-0.3c0-0.3,0.2-0.5,0.5-0.5c0.1,0,0.3,0.1,0.3,0.2c0.1,0.1,0.1,0.2,0.1,0.3c0,0.1-0.1,0.3-0.1,0.3
			C311.1,858.3,311,858.4,310.9,858.4"/>
		<path id="Path_135" class="st0" d="M314.3,856.2h0.5v0.6h-0.5v0.1c0,0.3-0.1,0.5-0.2,0.8c-0.2,0.3-0.5,0.5-0.9,0.6
			c-0.4,0-0.8,0.1-1.2,0.1v-0.6c0,0,0.1,0,0.1,0s0.1,0,0.2,0h0.3c0.3,0,0.5-0.1,0.8-0.2c0.2-0.1,0.4-0.4,0.4-0.6v-4.5h0.7
			L314.3,856.2z"/>
		<path id="Path_136" class="st0" d="M312,857.7v0.5c0.4,0,0.8,0,1.2,0c0.3,0,0.7-0.2,0.8-0.5c0.1-0.2,0.2-0.5,0.2-0.7v-0.2h0.5
			v-0.5h-0.5v-3.8h-0.5v4.4c0,0.3-0.2,0.6-0.4,0.7c-0.2,0.1-0.5,0.2-0.8,0.2h-0.3C312.1,857.7,312,857.7,312,857.7L312,857.7
			 M311.9,858.4L311.9,858.4l-0.1-0.8h0.1c0,0,0.1,0,0.1,0s0.1,0,0.1,0h0.3c0.3,0,0.5-0.1,0.7-0.2c0.2-0.1,0.4-0.3,0.4-0.6v-4.6h0.8
			v3.9h0.5v0.8h-0.5v0c0,0.3-0.1,0.6-0.2,0.8c-0.2,0.3-0.6,0.6-1,0.6C312.7,858.4,312.3,858.4,311.9,858.4"/>
		<path id="Path_137" class="st0" d="M317.5,852.2c0.6,0,1.3,0.2,1.7,0.7c0.5,0.4,0.7,1,0.7,1.7c0,0.6-0.3,1.2-0.7,1.7
			c-0.5,0.4-1.1,0.6-1.7,0.6h-3v-0.6h1.3c-0.5-0.4-0.7-1-0.7-1.6c0-0.6,0.3-1.2,0.7-1.7C316.2,852.4,316.8,852.2,317.5,852.2
			 M317.5,852.8c-0.5,0-0.9,0.2-1.2,0.5c-0.6,0.6-0.7,1.6-0.1,2.3c0,0,0.1,0.1,0.1,0.1c0.7,0.6,1.8,0.6,2.5,0
			c0.3-0.3,0.5-0.7,0.5-1.2c0-0.5-0.2-0.9-0.5-1.2C318.4,853,317.9,852.8,317.5,852.8 M316.9,850.6c0.1,0,0.2,0,0.3,0.1
			c0.1,0.1,0.1,0.2,0.1,0.3c0,0.1,0,0.2-0.1,0.3c-0.1,0.1-0.2,0.1-0.3,0.1c-0.1,0-0.2,0-0.3-0.1c-0.1-0.1-0.1-0.2-0.1-0.3
			c0-0.1,0-0.2,0.1-0.3C316.6,850.7,316.8,850.6,316.9,850.6 M318,850.6c0.2,0,0.4,0.2,0.4,0.4c0,0.1,0,0.2-0.1,0.3
			c-0.1,0.1-0.2,0.1-0.3,0.1c-0.1,0-0.2,0-0.3-0.1c-0.1-0.1-0.1-0.2-0.1-0.3C317.6,850.8,317.8,850.6,318,850.6"/>
		<path id="Path_138" class="st0" d="M316.9,850.7c-0.1,0-0.2,0-0.2,0.1c-0.1,0.1-0.1,0.1-0.1,0.2c0,0.1,0,0.2,0.1,0.2
			c0.1,0.1,0.3,0.1,0.5,0c0.1-0.1,0.1-0.1,0.1-0.2c0-0.1,0-0.2-0.1-0.2C317,850.7,317,850.7,316.9,850.7 M316.9,851.5
			c-0.1,0-0.3,0-0.4-0.1c-0.1-0.1-0.1-0.2-0.1-0.3c0-0.1,0-0.3,0.1-0.3c0.1-0.1,0.2-0.2,0.4-0.1c0.1,0,0.3,0.1,0.3,0.2
			c0.1,0.1,0.2,0.2,0.1,0.3c0,0.1-0.1,0.3-0.1,0.3C317.1,851.5,317,851.5,316.9,851.5 M318,850.7c-0.2,0-0.3,0.1-0.3,0.3
			c0,0.1,0,0.2,0.1,0.2c0.1,0.1,0.1,0.1,0.2,0.1c0.1,0,0.2,0,0.2-0.1c0.1-0.1,0.1-0.1,0.1-0.2c0-0.1,0-0.2-0.1-0.2
			C318.2,850.7,318.1,850.7,318,850.7 M318,851.5c-0.1,0-0.3,0-0.4-0.1c-0.1-0.1-0.1-0.2-0.1-0.3c0-0.3,0.2-0.5,0.5-0.5
			c0.1,0,0.3,0.1,0.3,0.2c0.1,0.1,0.2,0.2,0.1,0.3c0,0.1-0.1,0.3-0.1,0.4C318.2,851.5,318.1,851.5,318,851.5 M317.5,852.9
			c-0.4,0-0.9,0.2-1.2,0.5c-0.6,0.6-0.7,1.5-0.1,2.1c0,0,0.1,0.1,0.1,0.1c0.7,0.6,1.7,0.6,2.4,0c0.3-0.3,0.5-0.7,0.5-1.1
			c0-0.4-0.2-0.8-0.5-1.1C318.3,853.1,317.9,852.9,317.5,852.9 M317.4,856.2c-0.5,0-0.9-0.2-1.3-0.5c-0.7-0.6-0.7-1.7-0.1-2.4
			c0,0,0.1-0.1,0.1-0.1c0.7-0.7,1.9-0.7,2.6,0c0.4,0.3,0.6,0.8,0.5,1.2c0,0.5-0.2,0.9-0.6,1.2C318.4,856.1,317.9,856.2,317.4,856.2
			 M314.5,856.7h2.9c0.6,0,1.2-0.2,1.7-0.6c0.5-0.4,0.7-1,0.7-1.6c0-0.6-0.3-1.2-0.7-1.6c-0.9-0.9-2.4-0.9-3.4,0
			c-0.5,0.4-0.7,1-0.7,1.6c0,0.6,0.2,1.2,0.7,1.6l0.1,0.1h-1.4L314.5,856.7z M317.4,856.9h-3.1v-0.8h1.1c-0.4-0.4-0.6-1-0.6-1.6
			c0-0.7,0.3-1.3,0.7-1.7c1-0.9,2.6-0.9,3.6,0c0.5,0.4,0.8,1.1,0.8,1.7c0,0.7-0.3,1.3-0.8,1.7C318.7,856.7,318.1,856.9,317.4,856.9"
			/>
		<path id="Path_139" class="st0" d="M322.9,852.8c0.5-0.4,1.1-0.7,1.7-0.7c0.6,0,1.3,0.2,1.7,0.7c0.4,0.4,0.7,0.9,0.7,1.5v1.9h0.7
			v0.6h-3.2c-0.6,0-1.3-0.2-1.7-0.7c-0.5-0.4-0.7-1-0.7-1.7C322.2,853.8,322.4,853.2,322.9,852.8 M324.6,852.8
			c-0.5,0-0.9,0.2-1.2,0.5c-0.3,0.3-0.5,0.7-0.5,1.2c0,0.4,0.2,0.9,0.5,1.2c0.3,0.3,0.8,0.5,1.2,0.5h1.8v-1.7c0-0.5-0.2-0.9-0.5-1.2
			C325.5,853,325.1,852.8,324.6,852.8 M324,850.6c0.2,0,0.4,0.2,0.4,0.4c0,0.1,0,0.2-0.1,0.3c-0.1,0.1-0.2,0.1-0.3,0.1
			c-0.1,0-0.2,0-0.3-0.1c-0.1-0.1-0.1-0.2-0.1-0.3C323.6,850.8,323.8,850.6,324,850.6 M325.2,850.6c0.1,0,0.2,0,0.3,0.1
			c0.1,0.1,0.1,0.2,0.1,0.3c0,0.1,0,0.2-0.1,0.3c-0.1,0.1-0.2,0.1-0.3,0.1c-0.1,0-0.2,0-0.3-0.1c-0.1-0.1-0.1-0.2-0.1-0.3
			c0-0.1,0-0.2,0.1-0.3C324.9,850.7,325,850.6,325.2,850.6"/>
		<path id="Path_140" class="st0" d="M324,850.7c-0.1,0-0.2,0-0.2,0.1c-0.1,0.1-0.1,0.1-0.1,0.2c0,0.1,0,0.2,0.1,0.2
			c0.1,0.1,0.1,0.1,0.2,0.1c0.1,0,0.2,0,0.2-0.1c0.1-0.1,0.1-0.1,0.1-0.2c0-0.1,0-0.2-0.1-0.2C324.2,850.7,324.1,850.7,324,850.7
			 M324,851.5c-0.1,0-0.3,0-0.4-0.1c-0.1-0.1-0.1-0.2-0.1-0.4c0-0.1,0-0.3,0.1-0.3c0.1-0.1,0.2-0.2,0.4-0.1c0.1,0,0.3,0.1,0.3,0.2
			c0.1,0.1,0.1,0.2,0.1,0.3c0,0.1-0.1,0.3-0.1,0.4C324.3,851.5,324.1,851.5,324,851.5 M325.2,850.7c-0.1,0-0.2,0-0.2,0.1
			c-0.1,0.1-0.1,0.1-0.1,0.2c0,0.1,0,0.2,0.1,0.2c0.1,0.1,0.3,0.1,0.5,0c0.1-0.1,0.1-0.1,0.1-0.2c0-0.1,0-0.2-0.1-0.2
			C325.3,850.7,325.2,850.7,325.2,850.7 M325.1,851.5c-0.1,0-0.3,0-0.4-0.1c-0.1-0.1-0.1-0.2-0.1-0.4c0-0.1,0-0.3,0.1-0.3
			c0.1-0.1,0.2-0.2,0.4-0.1c0.1,0,0.3,0.1,0.3,0.2c0.1,0.1,0.2,0.2,0.1,0.3c0,0.1-0.1,0.3-0.1,0.3
			C325.4,851.5,325.3,851.5,325.1,851.5 M324.6,852.9c-0.4,0-0.9,0.2-1.2,0.5c-0.3,0.3-0.5,0.7-0.5,1.1c0,0.4,0.2,0.8,0.5,1.1
			c0.3,0.3,0.7,0.5,1.2,0.5h1.7v-1.6c0-0.4-0.2-0.8-0.5-1.1C325.5,853.1,325.1,852.9,324.6,852.9 M326.5,856.2h-1.9
			c-0.5,0-0.9-0.2-1.3-0.5c-0.3-0.3-0.5-0.8-0.5-1.2c0-0.5,0.2-0.9,0.5-1.2c0.3-0.3,0.8-0.5,1.3-0.5c0.5,0,0.9,0.2,1.3,0.5
			c0.4,0.3,0.6,0.8,0.6,1.2L326.5,856.2z M322.9,852.9c-0.5,0.4-0.7,1-0.7,1.6c0,0.6,0.2,1.2,0.7,1.6c0.5,0.4,1.1,0.7,1.7,0.6h3.1
			v-0.5H327v-2c0-0.5-0.3-1-0.7-1.4C325.4,852,323.9,852,322.9,852.9 M327.8,856.9h-3.2c-0.7,0-1.3-0.2-1.8-0.7
			c-0.5-0.4-0.8-1.1-0.7-1.7c0-0.7,0.3-1.3,0.7-1.7c1-0.9,2.6-0.9,3.6,0c0.4,0.4,0.7,0.9,0.8,1.5v1.8h0.7V856.9z"/>
		<rect id="Rectangle_18" x="327.4" y="856.2" class="st0" width="2.8" height="0.6"/>
		<path id="Path_141" class="st0" d="M327.5,856.7h2.6v-0.5h-2.6V856.7z M330.3,856.9h-2.9v-0.8h2.9V856.9z"/>
		<rect id="Rectangle_19" x="329.9" y="856.2" class="st0" width="2.8" height="0.6"/>
		<path id="Path_142" class="st0" d="M329.9,856.7h2.6v-0.5h-2.6V856.7z M332.7,856.9h-2.9v-0.8h2.9V856.9z"/>
		<path id="Path_143" class="st0" d="M336.3,850.6h-2.2c-0.1,0-0.3,0-0.4,0.1c-0.1,0.1-0.2,0.2-0.2,0.4c0,0.6,0,1.2,0.1,1.8
			c0.1,0.1,0.2,0.2,0.4,0.2h1.9c0.4,0,0.7,0.1,1,0.3c0.2,0.2,0.3,0.5,0.3,0.7c0,0.4,0,0.8,0,1.3c0,0.4-0.1,0.8-0.4,1.1
			c-0.3,0.2-0.6,0.3-1,0.3h-3.5v-0.6h3.5c0.4,0,0.7-0.3,0.6-0.7c0,0,0,0,0,0c0.1-0.5,0-1-0.1-1.5c-0.1-0.1-0.3-0.2-0.5-0.2H334
			c-0.4,0-0.9-0.2-1.1-0.6c-0.1-0.7-0.2-1.3-0.1-2c0-0.7,0.5-1.2,1.2-1.2c0,0,0,0,0,0h2.3L336.3,850.6z"/>
		<path id="Path_144" class="st0" d="M332.4,856.7h3.4c0.3,0,0.7-0.1,0.9-0.3c0.3-0.3,0.4-0.6,0.4-1c0-0.5,0-0.9,0-1.3
			c0-0.3-0.1-0.5-0.3-0.7c-0.2-0.2-0.6-0.3-0.9-0.3H334c-0.2,0-0.3-0.1-0.4-0.2c0,0-0.1-0.1-0.1-1.8c0-0.2,0.1-0.3,0.2-0.4
			c0.1-0.1,0.3-0.2,0.4-0.2h2.2V850h-2.2c-0.6,0-1.1,0.5-1.2,1.1c0,0,0,0,0,0c0,0.7,0,1.3,0.1,2c0.2,0.4,0.6,0.6,1,0.6h1.8
			c0.2,0,0.4,0.1,0.5,0.2c0.1,0.1,0.2,0.3,0.2,1.6c0,0.2-0.1,0.4-0.2,0.6c-0.1,0.1-0.3,0.2-0.5,0.2h-3.4V856.7z M335.8,856.9h-3.6
			v-0.8h3.6c0.3,0,0.6-0.3,0.6-0.6c0,0,0,0,0,0c0-1.2-0.1-1.4-0.1-1.5c-0.1-0.1-0.3-0.2-0.4-0.2H334c-0.5,0-0.9-0.2-1.1-0.6
			c-0.1-0.7-0.2-1.4-0.1-2.1c0-0.7,0.6-1.3,1.3-1.3c0,0,0,0,0,0h2.3v0.9h-2.3c-0.1,0-0.2,0-0.3,0.1c-0.1,0.1-0.1,0.2-0.1,0.3
			c0,0.6,0,1.1,0.1,1.7c0.1,0.1,0.2,0.1,0.3,0.1h1.9c0.4,0,0.7,0.1,1,0.4c0.2,0.2,0.3,0.5,0.4,0.8c0,0.4,0,0.8,0,1.3
			c0,0.4-0.1,0.8-0.4,1.1C336.6,856.8,336.2,856.9,335.8,856.9"/>
		<path id="Path_145" class="st0" d="M340.1,856.2h0.5v0.6h-0.5v0.1c0,0.3-0.1,0.5-0.2,0.8c-0.2,0.3-0.5,0.5-0.9,0.6
			c-0.2,0,0.2,0.1-0.4,0.1l-0.8-0.6c0,0,0.1,0,0.1,0s0.1,0,0.2,0h0.3c0.3,0,0.5-0.1,0.8-0.2c0.2-0.1,0.4-0.4,0.4-0.6v-4.5h0.7
			L340.1,856.2z"/>
		<path id="Path_146" class="st0" d="M337.8,857.7l0.8,0.5c0.7,0,0.2,0,0.4,0c0.3,0,0.7-0.2,0.8-0.5c0.1-0.2,0.2-0.5,0.2-0.7v-0.2
			h0.5v-0.5H340v-3.8h-0.5v4.4c0,0.3-0.2,0.6-0.4,0.7c-0.2,0.1-0.5,0.2-0.8,0.2H338C337.9,857.7,337.9,857.7,337.8,857.7
			L337.8,857.7 M338.5,858.4L338.5,858.4l-0.9-0.8h0.1c0,0,0.1,0,0.1,0s0.1,0,0.1,0h0.3c0.3,0,0.5-0.1,0.7-0.2
			c0.2-0.1,0.4-0.3,0.3-0.6v-4.6h0.8v3.9h0.5v0.8h-0.5v0c0,0.3-0.1,0.6-0.2,0.8c-0.2,0.3-0.6,0.6-1,0.6
			C338.8,858.4,339.1,858.4,338.5,858.4"/>
		<path id="Path_147" class="st0" d="M346.6,852.3v2.9c0,0.4-0.1,0.8-0.4,1.1c-0.3,0.3-0.7,0.5-1.1,0.5c-0.5-0.7-1.4-0.8-2.1-0.3
			c-0.1,0.1-0.2,0.2-0.3,0.3c-0.4,0-0.8-0.2-1.1-0.5l-0.1-0.1c-0.3,0.3-0.7,0.5-1.1,0.5h-0.2v-0.6h0.2c0.2,0,0.4-0.1,0.5-0.3
			c0.1-0.1,0.2-0.3,0.2-0.5v-3.1h0.7v2.5c0,0.3,0,0.6,0.1,0.9c0.1,0.3,0.4,0.5,0.7,0.5c0.2,0,0.4-0.1,0.6-0.3
			c0.2-0.2,0.2-0.4,0.2-0.6v-3h0.7v3c0,0.2,0.1,0.4,0.2,0.6c0.3,0.3,0.8,0.3,1.2,0c0,0,0,0,0,0c0.2-0.2,0.2-0.4,0.2-0.6v-3
			L346.6,852.3z M343.4,850.6c0.1,0,0.2,0,0.3,0.1c0.1,0.1,0.1,0.2,0.1,0.3c0,0.1,0,0.2-0.1,0.3c-0.1,0.1-0.2,0.1-0.3,0.1
			c-0.1,0-0.2,0-0.3-0.1c-0.1-0.1-0.1-0.2-0.1-0.3c0-0.1,0-0.2,0.1-0.3C343.2,850.7,343.3,850.6,343.4,850.6 M343.9,849.6
			c0.1,0,0.2,0,0.3,0.1c0.1,0.1,0.1,0.2,0.1,0.3c0,0.1,0,0.2-0.1,0.3c-0.1,0.1-0.2,0.1-0.3,0.1c-0.1,0-0.2,0-0.3-0.1
			c-0.1-0.1-0.1-0.2-0.1-0.3C343.5,849.8,343.7,849.6,343.9,849.6 M344.5,850.6c0.2,0,0.4,0.2,0.4,0.4c0,0.1,0,0.2-0.1,0.3
			c-0.1,0.1-0.2,0.1-0.3,0.1c-0.1,0-0.2,0-0.3-0.1c-0.1-0.1-0.1-0.2-0.1-0.3C344.1,850.8,344.3,850.6,344.5,850.6"/>
		<path id="Path_148" class="st0" d="M343.9,849.7c-0.2,0-0.3,0.2-0.3,0.3c0,0.1,0,0.2,0.1,0.2c0.1,0.1,0.3,0.1,0.5,0
			c0.1-0.1,0.1-0.1,0.1-0.2c0-0.1,0-0.2-0.1-0.2C344.1,849.7,344,849.7,343.9,849.7 M343.9,850.5c-0.1,0-0.3,0-0.3-0.1
			c-0.1-0.1-0.1-0.2-0.1-0.3c0-0.3,0.2-0.5,0.5-0.5c0.1,0,0.3,0.1,0.3,0.2c0.1,0.1,0.1,0.2,0.1,0.3c0,0.1-0.1,0.3-0.1,0.3
			C344.2,850.4,344.1,850.5,343.9,850.5 M343.4,850.7c-0.1,0-0.2,0-0.2,0.1c-0.1,0.1-0.1,0.1-0.1,0.2c0,0.1,0,0.2,0.1,0.2
			c0.1,0.1,0.3,0.1,0.5,0c0.1-0.1,0.1-0.1,0.1-0.2c0-0.1,0-0.2-0.1-0.2C343.6,850.7,343.5,850.7,343.4,850.7 M343.4,851.5
			c-0.1,0-0.3,0-0.4-0.1c-0.1-0.1-0.1-0.2-0.1-0.3c0-0.1,0.1-0.3,0.1-0.3c0.1-0.1,0.2-0.2,0.4-0.1c0.1,0,0.3,0.1,0.3,0.2
			c0.1,0.1,0.2,0.2,0.1,0.3c0,0.1-0.1,0.3-0.1,0.3C343.6,851.5,343.5,851.5,343.4,851.5 M344.5,850.7c-0.2,0-0.3,0.2-0.3,0.3
			c0,0.1,0,0.2,0.1,0.2c0.1,0.1,0.3,0.1,0.5,0c0.1-0.1,0.1-0.1,0.1-0.2c0-0.1,0-0.2-0.1-0.2C344.7,850.7,344.6,850.7,344.5,850.7
			 M344.5,851.5c-0.1,0-0.3,0-0.4-0.1c-0.1-0.1-0.1-0.2-0.1-0.3c0-0.3,0.2-0.5,0.5-0.5c0.1,0,0.3,0.1,0.3,0.2
			c0.1,0.1,0.2,0.2,0.1,0.3c0,0.1-0.1,0.3-0.1,0.3C344.8,851.5,344.7,851.5,344.5,851.5 M343.9,856.1L343.9,856.1
			c0.3,0.4,0.7,0.6,1.2,0.6c0.4,0,0.8-0.2,1-0.4c0.3-0.3,0.4-0.7,0.4-1.1v-2.9H346v2.9c0,0.2-0.1,0.5-0.2,0.7
			c-0.3,0.4-0.9,0.4-1.3,0c0,0,0,0,0,0c-0.2-0.2-0.3-0.4-0.2-0.7v-2.9h-0.6v2.9c0,0.2-0.1,0.5-0.3,0.7c-0.2,0.2-0.4,0.3-0.6,0.3
			c-0.3,0-0.7-0.2-0.8-0.5c-0.1-0.3-0.1-0.6-0.1-0.9v-2.4h-0.5v3c0,0.2-0.1,0.4-0.2,0.6c-0.1,0.2-0.4,0.3-0.6,0.3h-0.1v0.5h0.1
			c0.4,0,0.8-0.2,1-0.5l0.1-0.1l0.1,0.2c0.3,0.3,0.6,0.4,1,0.4C343.2,856.7,343.6,856.5,343.9,856.1L343.9,856.1z M345.1,856.9
			c-0.6-0.7-1.6-0.7-2.2-0.1c-0.1,0-0.1,0.1-0.1,0.1c-0.4,0-0.8-0.2-1.1-0.5l0,0c-0.3,0.3-0.7,0.5-1.1,0.5h-0.3v-0.8h0.3
			c0.2,0,0.4-0.1,0.5-0.2c0.1-0.1,0.2-0.3,0.2-0.5v-3.1h0.9v2.6c0,0.3,0,0.6,0.1,0.9c0.1,0.3,0.4,0.4,0.6,0.4c0.2,0,0.4-0.1,0.5-0.2
			c0.1-0.2,0.2-0.4,0.2-0.6v-3.1h0.9v3.1c0,0.2,0.1,0.4,0.2,0.6c0.3,0.3,0.7,0.3,1,0c0,0,0,0,0,0c0.1-0.2,0.2-0.4,0.2-0.6v-3.1h0.9
			v3c0,0.4-0.2,0.9-0.5,1.2C346,856.7,345.6,856.9,345.1,856.9"/>
	</g>
</g>
</svg>
