<svg id="Group_8511" data-name="Group 8511" xmlns="http://www.w3.org/2000/svg" width="315.783" height="88.644" viewBox="0 0 315.783 88.644">
  <path id="Path_2292" data-name="Path 2292" d="M-522.12,227.343c0,12.637.026,25.275-.036,37.914-.007,1.418.366,1.761,1.792,1.758q33.882-.069,67.763,0c1.378,0,1.672-.374,1.67-1.68q-.062-37.992,0-75.986c0-1.31-.3-1.682-1.672-1.679q-33.88.069-67.763,0c-1.43,0-1.8.343-1.79,1.759.06,12.637.036,25.276.036,37.914m76-44.322c-.039.577-.115,1.155-.117,1.732q-.008,42.454.036,84.91c0,1.617-.39,2-2.036,2q-38.335-.085-76.669-.009c-1.433,0-1.876-.29-1.873-1.794q.077-42.534.039-85.07c0-.479.026-.958.041-1.437.7-.014,1.406-.038,2.108-.038q37.9,0,75.8-.014c.671,0,1.411.264,2.015-.283Z" transform="translate(526.782 -183.021)" fill="#5c8b72"/>
  <path id="Path_2293" data-name="Path 2293" d="M-446.792,183.021c-.6.548-1.344.282-2.017.283q-37.9.023-75.8.014c-.7,0-1.406.024-2.11.038-.012-.112-.024-.223-.038-.335Z" transform="translate(526.799 -183.021)" fill="#5c8b72"/>
  <path id="Path_2294" data-name="Path 2294" d="M-433.316,210.992a28.425,28.425,0,0,0-.211-3.184,3.24,3.24,0,0,0-2.4-2.925,3.72,3.72,0,0,0-4.02,1.018,5.691,5.691,0,0,0-.805,6.023c.73,1.8,2.41,2.1,4.164,2.165,3.227.113,3.227.122,3.273-3.1m47.47,4.573c-2.968,3.447-7.538,3.438-10.13.053-1.112,1.735-2.8,2.192-4.753,2.189-12.188-.019-24.375,0-36.563-.019-2.474,0-4.878-.321-6.7-2.422-1.229,1.983-3.083,2.51-5.258,2.446s-4.333-.043-6.5,0c-.848.017-1.116-.266-1.112-1.1q.039-11.118,0-22.236c0-.906.275-1.162,1.195-1.183,3.624-.079,3.624-.112,3.624,3.414,0,5.332.029,10.665-.026,16-.01,1.076.211,1.452,1.4,1.444,4.243-.026,4.743-.475,4.846-4.624.079-3.2,1.289-5.862,4.252-7.4a9.884,9.884,0,0,1,9.632.07,6.226,6.226,0,0,1,3.009,4.533,27.839,27.839,0,0,1,.273,6.219c-.01.87.185,1.26,1.155,1.183,1.976-.156,3.972.218,5.943-.2.036-1.856.087-3.713.1-5.569.017-1.921.038-3.84-.012-5.759-.021-.839.136-1.21,1.13-1.232,3.646-.086,3.646-.127,3.646,3.43,0,2.719.033,5.44-.019,8.157-.017.9.247,1.212,1.179,1.178,1.785-.065,3.577-.074,5.361,0,.991.043,1.14-.367,1.131-1.21-.041-3.358.021-6.719-.04-10.076-.019-1.056.2-1.49,1.4-1.483,3.421.021,3.421-.036,3.421,3.308,0,2.721.053,5.441-.027,8.159-.031,1.083.342,1.435,1.372,1.287a5.817,5.817,0,0,1,.812-.005c4,0,4.635-.633,4.64-4.666,0-1.653.034-3.308-.015-4.959-.024-.769.242-.965,1.011-1,3.694-.161,3.675-.187,3.7,3.466a27.449,27.449,0,0,0,.182,5.105c.316,1.619,1.136,2.383,2.563,2.329a2.35,2.35,0,0,0,2.341-2.565c.115-2.607.144-5.227.043-7.834-.055-1.42.285-1.938,1.833-1.861,2.712.132,2.709.033,2.721,2.678.009,2.134-.055,4.271.091,6.4a3.365,3.365,0,0,0,4.441,2.9c.767-.218.58-.815.613-1.3a39.669,39.669,0,0,0-.687-10.971c-.194-.917-.028-1.148.9-1.308,3.545-.615,3.526-.652,4.151,2.817a49.575,49.575,0,0,1,.137,13.375c-.057.637-.218,1.107-1.054,1.085-2.489-.065-4.981-.024-7.467-.12a4.548,4.548,0,0,1-3.879-2.123" transform="translate(576.88 -175.677)" fill="#5c8b72"/>
  <path id="Path_2295" data-name="Path 2295" d="M-340.486,206.395c0-1.118.012-2.235-.005-3.352-.007-.4.1-.8-.4-1.1a4.672,4.672,0,0,0-6.786,2.731c-.942,3.782.944,6.089,5.085,6.219,2.11.067,2.11.067,2.111-1.94q0-1.277,0-2.554m4.568,1.478c0,2.5.074,5.009-.019,7.51a7.346,7.346,0,0,1-4.921,6.889c-3.466,1.432-7.1,1.141-10.715.712-.455-.055-.685-.271-.663-.726.01-.213.034-.426.04-.639.074-2.556.065-2.491,2.649-2.221a14.524,14.524,0,0,0,6.114-.242,4.005,4.005,0,0,0,2.941-3.464c.106-.786-.1-1.174-1.021-1.128a20.349,20.349,0,0,1-5.012-.259c-3.989-.791-6.013-3.316-6.051-7.495-.041-4.621,2.328-7.829,6.465-8.729,3.212-.7,6.338-.144,9.453.635.793.2.809.7.805,1.324-.014,2.611-.005,5.222-.005,7.833Z" transform="translate(651.611 -172.458)" fill="#5c8b72"/>
  <path id="Path_2296" data-name="Path 2296" d="M-369.982,207.617a14.135,14.135,0,0,0-.251-3.481,3.19,3.19,0,0,0-2.439-2.51,3.833,3.833,0,0,0-3.876,1.061,5.338,5.338,0,0,0-.827,5.708c.675,1.787,2.252,2.331,4.018,2.46,3.375.249,3.375.239,3.375-3.237m-.383,6.968a32.4,32.4,0,0,1-5.982-.252c-4-.759-6.12-3.347-6.228-7.563a8.366,8.366,0,0,1,6.427-8.669,11.931,11.931,0,0,1,4.183-.268c4.4.551,6.489,2.99,6.681,7.929.1,2.551-.015,5.11.034,7.664.019.92-.318,1.215-1.222,1.176-1.3-.058-2.6-.015-3.893-.017" transform="translate(630.114 -172.465)" fill="#5c8b72"/>
  <path id="Path_2297" data-name="Path 2297" d="M-389.579,205.577c0,3.624-.04,7.249.024,10.871.019,1.042-.266,1.38-1.347,1.366q-6.5-.08-12.993,0c-1.106.015-1.372-.352-1.337-1.373.1-2.858-.256-2.29,2.266-2.328,2.22-.034,4.446-.1,6.657.026,1.507.089,2.01-.244,1.978-1.857-.117-5.807-.005-11.618-.077-17.425-.017-1.281.352-1.61,1.622-1.581,3.207.074,3.208.012,3.208,3.184Z" transform="translate(613.879 -175.671)" fill="#5c8b72"/>
  <path id="Path_2298" data-name="Path 2298" d="M-453.581,220.059c-.977,3.028-1.94,5.732-2.7,8.488-.318,1.154-1.026.992-1.825,1.018-.838.027-1.49.043-1.8-1.045a63.907,63.907,0,0,0-2.748-7.62c-.192,1.3-.4,2.6-.572,3.905q-.24,1.818-.415,3.648c-.069.728-.282,1.121-1.171,1.133-1.93.024-1.959.079-1.675-1.809q.85-5.68,1.766-11.35c.1-.627.034-1.528,1.138-1.287.963.208,2.268-.707,2.774,1.032.829,2.843,1.847,5.634,2.872,8.706,1.02-3.059,2.02-5.828,2.855-8.646.525-1.775,1.883-.925,2.911-1.088,1.15-.182.93.769,1.032,1.383q.96,5.9,1.871,11.819c.072.472.469,1.366-.6,1.172-.795-.142-2.079.831-2.347-.776-.462-2.779-.877-5.565-1.365-8.682" transform="translate(569.896 -160.049)" fill="#5c8b72"/>
  <path id="Path_2299" data-name="Path 2299" d="M-354.753,207.36c0-2.661.043-5.321-.022-7.98-.024-1.006.213-1.387,1.323-1.39,3.5-.015,3.5-.064,3.5,3.376,0,4.576.05,9.153-.012,13.727-.1,7.45-5.562,8.595-10.838,7.958-.661-.081-.925-.419-.812-1.08a14.471,14.471,0,0,0,.232-1.9c.026-.714.321-.81,1.013-.755,4.746.374,5.618-.436,5.618-5.093V207.36" transform="translate(645.117 -172.297)" fill="#5c8b72"/>
  <path id="Path_2300" data-name="Path 2300" d="M-366.727,207.362c0-2.717.029-5.435-.017-8.15-.014-.86.175-1.195,1.147-1.215,3.631-.076,3.663-.117,3.622,3.438-.057,5,.3,10.02-.165,15.008-.4,4.283-3.042,6.562-7.4,6.739-.649.026-1.3.019-1.948,0-2.166-.048-2.12-.1-2.07-2.281.033-1.466.549-1.73,1.955-1.49,3.227.551,4.786-.788,4.86-4.061.062-2.662.014-5.327.014-7.991" transform="translate(636.569 -172.304)" fill="#5c8b72"/>
  <path id="Path_2301" data-name="Path 2301" d="M-455.182,207.59c0,2.5.026,5.009-.005,7.513-.074,6.029-4.884,9.544-10.845,7.967-.611-.163-.973-.385-.786-1.088a3.634,3.634,0,0,0,.165-1.263c-.146-1.408.542-1.5,1.732-1.315,3.473.542,5-.784,5.038-4.388.05-4.583.012-9.165.012-13.748,0-3.354,0-3.311,3.445-3.275,1.02.01,1.286.321,1.265,1.286-.058,2.769-.021,5.541-.021,8.312" transform="translate(569.715 -172.299)" fill="#5c8b72"/>
  <path id="Path_2302" data-name="Path 2302" d="M-363.631,205.426c0-3.624.029-7.247-.021-10.871-.012-.97.276-1.263,1.281-1.272,3.5-.029,3.5-.07,3.5,3.347,0,6.5-.038,13,.031,19.5.014,1.291-.263,1.739-1.662,1.693-3.128-.1-3.129-.022-3.129-3.128v-9.273" transform="translate(643.676 -175.671)" fill="#5c8b72"/>
  <path id="Path_2303" data-name="Path 2303" d="M-388.023,205.595c0,3.624-.039,7.249.026,10.873.019,1.061-.3,1.351-1.366,1.351-3.349,0-3.349.041-3.349-3.21,0-6.61.033-13.219-.029-19.828-.012-1.205.316-1.528,1.533-1.5,3.184.067,3.186.005,3.186,3.2Z" transform="translate(622.831 -175.672)" fill="#5c8b72"/>
  <path id="Path_2304" data-name="Path 2304" d="M-368.086,218.693c2.683-1.962,3.677-1.979,6.137-.081.572.441.635-.058.846-.252a4.2,4.2,0,0,1,3.582-1.112,2.584,2.584,0,0,1,2.41,2.24,45.412,45.412,0,0,1,.182,7.821c-.009,1.248-1.124.6-1.753.716-.651.124-1.135,0-1.105-.881.057-1.758.055-3.521,0-5.278-.027-.851.187-2.007-1.044-2.2-1.31-.211-1.979.774-2.312,1.828a14.928,14.928,0,0,0-.22,5.086c.043,1.234-.376,1.478-1.559,1.512-1.33.039-1.325-.594-1.3-1.54.046-1.758.033-3.519-.005-5.277-.015-.7-.112-1.447-1-1.624a1.768,1.768,0,0,0-1.809.826,3.833,3.833,0,0,0-.786,2.386c.014,1.226-.076,2.458.024,3.677.1,1.164-.233,1.536-1.492,1.559-1.33.024-1.473-.484-1.444-1.572.069-2.664.041-5.332.01-8-.01-.743.06-1.275,1.015-1.121.73.118,1.924-.481,1.62,1.289" transform="translate(638.601 -158.53)" fill="#5c8b72"/>
  <path id="Path_2305" data-name="Path 2305" d="M-399.033,211.564c-1.821.577-2.345-.606-2.789-2.329-1.222-4.726-2.606-9.412-3.981-14.1-.319-1.08-.263-1.521,1.078-1.665,3.255-.35,3.248-.438,4.1,2.609q1.854,6.592,3.7,13.183c.644,2.3.642,2.3-2.108,2.3" transform="translate(613.356 -175.655)" fill="#5c8b72"/>
  <path id="Path_2306" data-name="Path 2306" d="M-427.544,217.36a11.748,11.748,0,0,0,1.572-.012c1.04-.139,1.54.254,1.828,1.265.458,1.6,1.092,3.157,1.789,5.115.745-2.123,1.337-3.855,1.964-5.577.237-.654,2.633-1.183,3.095-.7.213.223.07.487-.024.73-1.627,4.164-3.174,8.361-4.915,12.478a4.041,4.041,0,0,1-4.533,2.626c-.91-.081-1.229-.424-1.109-1.3.1-.7.026-1.277,1.162-1.2,1.976.141,3.2-1.773,2.5-3.725-1.008-2.8-2.067-5.589-3.105-8.384a1.837,1.837,0,0,1-.227-1.324" transform="translate(597.637 -158.484)" fill="#5c8b72"/>
  <path id="Path_2307" data-name="Path 2307" d="M-410.894,222.835c-.007-1.215-.051-2.367-1.253-2.973a2.06,2.06,0,0,0-2.632.527,4.3,4.3,0,0,0-.127,4.655,2,2,0,0,0,2.474.625c1.282-.524,1.523-1.682,1.538-2.834m2.951-.312c-.014,3.447-2.232,5.762-5.524,5.766-3.234,0-5.007-1.88-5.006-5.316s2.214-5.733,5.531-5.766c3.22-.031,5.012,1.874,5,5.316" transform="translate(604.393 -158.525)" fill="#5c8b72"/>
  <path id="Path_2308" data-name="Path 2308" d="M-344.07,223.565c0,.96,0,1.919,0,2.879,0,1.49-.869,2.058-2.321,1.584-.6-.2-.477-.639-.481-1.035-.017-1.866.014-3.732-.029-5.6-.017-.718.046-1.588-.987-1.759a1.989,1.989,0,0,0-2.026,1.044c-.824,1.19-.651,2.546-.658,3.871,0,.585,0,1.172,0,1.758,0,1.675-.693,2.159-2.352,1.727-.508-.132-.539-.426-.539-.817q0-4.478,0-8.954c0-.355-.087-.867.465-.829.757.05,1.885-.493,2.2.335.414,1.1.717.359,1.054.134a4.349,4.349,0,0,1,2.455-.7,2.838,2.838,0,0,1,3.21,3c.041,1.118.009,2.238.009,3.358" transform="translate(650.978 -158.524)" fill="#5c8b72"/>
  <path id="Path_2309" data-name="Path 2309" d="M-382.463,221.463c.331-.762,1.612.652,1.624-.767.007-.877-.762-1.39-1.694-1.358-.968.033-1.849.575-1.78,1.488.077,1.033,1.16.182,1.851.637m3.842,3.977c.419,2.323.422,2.34-1.662,2.7a8.091,8.091,0,0,1-4-.154,5.369,5.369,0,0,1-1.438-.688c-1.868-1.354-2.388-4.992-1.112-7.5a4.968,4.968,0,0,1,6.066-2.362,4.74,4.74,0,0,1,2.88,5.3c-.191.594-.62.494-1.025.5-1.512.014-3.028.057-4.537-.01-1.212-.053-1.227.512-.886,1.363a2.429,2.429,0,0,0,2.31,1.456,8.675,8.675,0,0,0,3.406-.611" transform="translate(626.561 -158.541)" fill="#5c8b72"/>
  <path id="Path_2310" data-name="Path 2310" d="M-355.342,221.367c.491-.457,1.639.561,1.689-.663.036-.869-.711-1.38-1.66-1.378-1.1,0-1.929.707-1.852,1.6.069.8,1.179.136,1.823.443m.348,6.923c-1.986-.053-3.854-.489-4.7-2.479a6.626,6.626,0,0,1,.6-6.837,4.67,4.67,0,0,1,4.932-1.658,4.41,4.41,0,0,1,3.49,5.148c-.137.709-.517.8-1.124.784-1.516-.027-3.033.036-4.547-.022-1.118-.045-1.143.465-.834,1.269a2.381,2.381,0,0,0,2.1,1.528,7.882,7.882,0,0,0,2.726-.275c.359-.077,1.006-.692,1.1.223.064.644.6,1.543-.534,1.864a10.193,10.193,0,0,1-3.2.455" transform="translate(646.033 -158.53)" fill="#5c8b72"/>
  <path id="Path_2311" data-name="Path 2311" d="M-397.733,218.6a5.613,5.613,0,0,1,2.494-1.317c2.51-.419,4,.728,4.048,3.22.036,2.13-.082,4.266.039,6.389.076,1.327-.705,1.1-1.516,1.169-.989.082-1.317-.23-1.28-1.236.067-1.859.021-3.725-.058-5.584-.027-.654-.036-1.464-.99-1.607a1.955,1.955,0,0,0-1.931.937,4.161,4.161,0,0,0-.76,2.556,29.863,29.863,0,0,0,.031,3.351c.182,1.456-.493,1.651-1.742,1.6-.942-.04-1.191-.333-1.176-1.215.048-2.716.007-5.433.026-8.149,0-.575-.276-1.427.836-1.293.805.1,2.081-.613,1.981,1.178" transform="translate(617.216 -158.532)" fill="#5c8b72"/>
  <path id="Path_2312" data-name="Path 2312" d="M-449.083,218.635a5.605,5.605,0,0,1,2.553-1.361c2.508-.405,3.981.743,4.02,3.249.033,2.129-.062,4.262.034,6.387.052,1.136-.522,1.176-1.37,1.142-.766-.031-1.5.137-1.423-1.088a51.352,51.352,0,0,0,0-5.268c-.034-.795.113-1.864-1.068-2.048a2.077,2.077,0,0,0-2.237,1.488c-.795,1.729-.419,3.572-.393,5.359.017,1.25-.324,1.615-1.607,1.593-1.131-.019-1.346-.41-1.325-1.4.053-2.662.01-5.325.024-7.987,0-.584-.249-1.452.846-1.272.776.127,2.159-.774,1.943,1.2" transform="translate(580.442 -158.533)" fill="#5c8b72"/>
  <path id="Path_2313" data-name="Path 2313" d="M-374.326,224.57c0-.692-.022-1.384.005-2.075.033-.79.07-1.528-1.118-1.339-.87.139-.809-.488-.755-1.016.048-.5-.331-1.349.712-1.207,1.347.182,1.109-.675,1.176-1.464.06-.7-.5-1.708.716-1.981,2.324-.518,2.225-.9,2.123,1.449-.058,1.329.01,2.312,1.79,1.991.956-.172.812.566.834,1.14.027.633.007,1.257-.894,1.087-1.686-.321-1.84.613-1.722,1.888a14.677,14.677,0,0,1,.005,2.232c-.082,1.358.124,2.395,1.916,2.022.64-.134.736.3.683.766-.064.572.3,1.251-.635,1.578-2.759.968-4.791-.326-4.836-3.153-.01-.639,0-1.277,0-1.916" transform="translate(634.668 -160.037)" fill="#5c8b72"/>
  <path id="Path_2314" data-name="Path 2314" d="M-410.021,225.867c0-.8.007-1.6,0-2.395-.012-.9.323-1.955-1.337-1.825-.812.065-.393-.809-.462-1.263-.074-.484-.058-1.032.694-.92.994.148,1.068-.383,1.15-1.181.307-2.975,1.84-4.113,4.927-3.924.958.058,1.183.441,1.1,1.293-.069.743-.017,1.363-1.162,1.078a1.475,1.475,0,0,0-1.9,1.064c-.266.942-.426,1.862,1.117,1.665.795-.1,1.277.019,1.282,1.054s-.364,1.344-1.31,1.19c-1.032-.166-1.279.288-1.246,1.248.072,2.02-.053,4.048.05,6.066.062,1.224-.664,1.088-1.425,1.073-.73-.015-1.583.223-1.492-1.03.077-1.059.015-2.129.015-3.193" transform="translate(609.125 -160.579)" fill="#5c8b72"/>
  <path id="Path_2315" data-name="Path 2315" d="M-435.063,224.705c0-.745-.031-1.492.009-2.235.045-.822.022-1.5-1.143-1.31-.843.134-.805-.484-.767-1.026.034-.527-.257-1.325.757-1.2,1.243.158,1-.657,1.1-1.378.091-.7-.524-1.6.637-2.041,2.025-.769,2.274-.663,2.2,1.516-.045,1.267.015,2.223,1.718,1.9.887-.17.91.427.915,1.075.007.706-.015,1.334-.994,1.159-1.406-.251-1.8.366-1.638,1.656a17.084,17.084,0,0,1,.015,2.551c-.034,1.286.208,2.276,1.887,1.941.618-.122.752.244.714.742-.048.639.292,1.481-.779,1.626-2.546.345-4.942.225-4.633-3.38.046-.529.007-1.064.007-1.6" transform="translate(591.131 -160.046)" fill="#5c8b72"/>
  <path id="Path_2316" data-name="Path 2316" d="M-394.231,217.467a2.769,2.769,0,0,1,.364-.12c2.712-.113,2.712-.112,3.586,2.364.477,1.354.958,2.709,1.512,4.273.527-1.511,1-2.875,1.481-4.235.917-2.568.92-2.566,3.907-2.319-1.274,3.356-2.511,6.677-3.8,9.98-.383.984-1.315.434-2,.536-.6.091-1.14.036-1.411-.709-1.181-3.243-2.41-6.47-3.646-9.769" transform="translate(621.764 -158.45)" fill="#5c8b72"/>
  <path id="Path_2317" data-name="Path 2317" d="M-341.686,229.807c-2.6.024-3.445-.705-3.558-2.99-.076-1.543-.026-3.093-.014-4.638,0-.573.007-1.121-.819-1-.954.139-1.016-.4-1.02-1.135s.081-1.234,1.028-1.131c1.152.124.688-.778.81-1.315.16-.7-.46-1.608.654-2.07,1.948-.809,2.268-.651,2.2,1.5-.043,1.262,0,2.237,1.722,1.912,1.071-.2.86.6.906,1.215.055.707-.115,1.188-.951,1.016-1.614-.331-1.787.548-1.67,1.792a17.19,17.19,0,0,1,.007,2.4c-.063,1.311.215,2.274,1.875,1.957.618-.118.8.194.721.7-.089.565.393,1.363-.568,1.6a10.47,10.47,0,0,1-1.318.191" transform="translate(655.539 -160.049)" fill="#5c8b72"/>
  <path id="Path_2318" data-name="Path 2318" d="M-378.944,228.269a6.264,6.264,0,0,1-1.2-.1c-1.039-.256-.589-1.109-.6-1.729-.017-.743.5-.644,1.018-.506a4.219,4.219,0,0,0,.966.1c.819.021,1.8.1,2.012-.887.206-.956-.75-1.131-1.445-1.4-2.3-.9-2.954-1.754-2.75-3.543.189-1.643,1.523-2.74,3.7-2.954a12.47,12.47,0,0,1,2.1.048c1.195.089.654.982.7,1.576.079.918-.5.675-1.051.573a4.541,4.541,0,0,0-1.445-.043c-.477.069-.961.268-1.044.848s.323.86.79,1.064c.491.216.994.41,1.487.623a2.853,2.853,0,0,1,2.031,2.779,3.182,3.182,0,0,1-2.156,3.08,7.03,7.03,0,0,1-3.1.477" transform="translate(631.254 -158.519)" fill="#5c8b72"/>
  <path id="Path_2319" data-name="Path 2319" d="M-435.369,219.591a6.519,6.519,0,0,0-2.395-.175c-.472.136-.951.312-1,.9-.048.5.3.774.709.96.587.266,1.183.515,1.78.762a2.743,2.743,0,0,1,1.871,2.566,3.091,3.091,0,0,1-1.634,2.927,7.3,7.3,0,0,1-4.729.664c-1.227-.17-.6-1.172-.664-1.8-.082-.875.572-.482,1-.427a4.841,4.841,0,0,0,.644.077c.85-.005,1.948.221,2.238-.8.333-1.174-.863-1.262-1.62-1.567-2.067-.833-2.7-1.648-2.549-3.375.134-1.583,1.284-2.628,3.3-2.982a7.237,7.237,0,0,1,.963-.1c2.369-.084,2.455.015,2.1,2.376" transform="translate(587.718 -158.532)" fill="#5c8b72"/>
  <path id="Path_2320" data-name="Path 2320" d="M-403.889,222.274c0-2.022.072-4.048-.027-6.065-.058-1.179.6-1.119,1.4-1.1.821.015,1.567-.151,1.54,1.16-.082,4.094-.067,8.193-.01,12.289.019,1.442-.984.894-1.67.992-.8.113-1.3-.015-1.257-1.049.086-2.072.026-4.149.026-6.224" transform="translate(614.821 -160.034)" fill="#5c8b72"/>
  <path id="Path_2321" data-name="Path 2321" d="M-428.574,218.406c.209-.149.419-.3.63-.453.659-.472,1.5-1.1,2.161-.606.546.4.149,1.4.125,2.132-.01.287-.1.479-.465.486-2.22.041-2.345,1.675-2.443,3.243a27.66,27.66,0,0,0,.005,3.828c.1,1.262-.731,1.027-1.451,1.025s-1.517.23-1.485-1.027c.074-2.87.021-5.745.024-8.619,0-.467-.087-1.133.661-.949.721.175,1.965-.827,2.115.807-.165.117-.161.245-.029.385.051-.084.1-.168.151-.251" transform="translate(595.061 -158.553)" fill="#5c8b72"/>
  <path id="Path_2322" data-name="Path 2322" d="M-455.167,222.774c0-1.488.07-2.98-.024-4.463-.07-1.13.614-1.025,1.322-.977.671.046,1.559-.347,1.53.961-.064,2.922-.053,5.847,0,8.77.021,1.2-.8.9-1.432.889-.611-.007-1.473.352-1.409-.875.074-1.432.017-2.87.017-4.305" transform="translate(578.079 -158.452)" fill="#5c8b72"/>
  <path id="Path_2323" data-name="Path 2323" d="M-444.727,222.613c0-1.435.055-2.872-.015-4.3-.07-1.456.992-.874,1.665-.972.772-.112,1.3-.029,1.269,1.026q-.116,4.3,0,8.6c.036,1.287-.79.97-1.482.992-.748.022-1.535.18-1.456-1.047.089-1.428.021-2.867.021-4.3" transform="translate(585.562 -158.456)" fill="#5c8b72"/>
  <path id="Path_2324" data-name="Path 2324" d="M-355.175,198.469a2.461,2.461,0,0,1-2.477-2.4,2.484,2.484,0,0,1,2.546-2.5,2.431,2.431,0,0,1,2.391,2.486,2.451,2.451,0,0,1-2.46,2.422" transform="translate(647.975 -175.469)" fill="#5c8b72"/>
  <path id="Path_2325" data-name="Path 2325" d="M-422.9,196.19a2.454,2.454,0,0,1-2.5,2.4,2.465,2.465,0,0,1-2.286-2.458,2.354,2.354,0,0,1,2.513-2.333,2.311,2.311,0,0,1,2.278,2.393" transform="translate(597.787 -175.301)" fill="#5c8b72"/>
  <path id="Path_2326" data-name="Path 2326" d="M-428.749,193.8a2.279,2.279,0,0,1,2.479,2.359,2.429,2.429,0,0,1-2.317,2.432,2.464,2.464,0,0,1-2.508-2.415,2.407,2.407,0,0,1,2.347-2.376" transform="translate(595.348 -175.301)" fill="#5c8b72"/>
  <path id="Path_2327" data-name="Path 2327" d="M-430.162,196.128a2.489,2.489,0,0,1-2.3,2.451,2.383,2.383,0,0,1-2.491-2.388,2.261,2.261,0,0,1,2.268-2.395,2.312,2.312,0,0,1,2.52,2.331" transform="translate(592.586 -175.301)" fill="#5c8b72"/>
  <path id="Path_2328" data-name="Path 2328" d="M-433.578,196.159a2.459,2.459,0,0,1-2.486,2.412,2.365,2.365,0,0,1-2.261-2.426,2.241,2.241,0,0,1,2.444-2.35,2.318,2.318,0,0,1,2.3,2.364" transform="translate(590.168 -175.301)" fill="#5c8b72"/>
  <path id="Path_2329" data-name="Path 2329" d="M-372.331,196.1a2.376,2.376,0,0,1-2.372,2.484,2.456,2.456,0,0,1-2.347-2.377,2.312,2.312,0,0,1,2.4-2.415,2.226,2.226,0,0,1,2.314,2.309" transform="translate(634.075 -175.301)" fill="#5c8b72"/>
  <path id="Path_2330" data-name="Path 2330" d="M-378.031,193.8a2.213,2.213,0,0,1,2.3,2.48,2.353,2.353,0,0,1-2.389,2.3,2.36,2.36,0,0,1-2.3-2.542,2.191,2.191,0,0,1,2.383-2.237" transform="translate(631.664 -175.3)" fill="#5c8b72"/>
  <path id="Path_2331" data-name="Path 2331" d="M-434.3,191.109a2.2,2.2,0,0,1,2.177,2.311,2.127,2.127,0,0,1-2.347,2.106,2.026,2.026,0,0,1-2.067-2.2,2.113,2.113,0,0,1,2.237-2.216" transform="translate(591.446 -177.226)" fill="#5c8b72"/>
  <path id="Path_2332" data-name="Path 2332" d="M-443.143,217.991c-1.064-.069-1.754-.618-1.766-1.667a1.535,1.535,0,0,1,1.739-1.648c1.088,0,1.749.518,1.754,1.617s-.676,1.595-1.727,1.7" transform="translate(585.45 -160.338)" fill="#5c8b72"/>
  <path id="Path_2333" data-name="Path 2333" d="M-453.6,217.987c-1.114-.076-1.758-.578-1.763-1.677s.628-1.624,1.715-1.633a1.562,1.562,0,0,1,1.761,1.631,1.644,1.644,0,0,1-1.713,1.679" transform="translate(577.958 -160.337)" fill="#5c8b72"/>
  <path id="Path_2334" data-name="Path 2334" d="M-493.039,205.4a11.643,11.643,0,0,1,.851,8.6,20.8,20.8,0,0,0-3.042-5.819c-1.22,1.826-1.42,5.218-.457,6.873a.8.8,0,0,1,.082.589c-1.013,2.887-.244,5.881-.419,8.813-.163,2.705-.045,5.448-.422,8.161-.076.541.323.7.706.936a5.351,5.351,0,0,1,1.873,1.269h-7.24c.089-.2.112-.366.175-.383,2.559-.75,2.292-2.59,1.921-4.57-.537-2.87-.13-5.807-.216-8.7a37.848,37.848,0,0,0-.321-5.239c-.16-.93.788-.973.783-1.663a16.61,16.61,0,0,0-.978-6.324,15.851,15.851,0,0,0-3.109,6.346,11.164,11.164,0,0,1,.944-9.124c-1.986.379-2.024.426-5.871,7.326a12.973,12.973,0,0,1,2.709-9.7c-1.966.112-3.613,1.636-5.807,5.268-1.013-2.786.827-6.015,5.083-8.782-2.043-.206-3.739.63-5.521,1.162.886-2.393,2.692-3.364,7.532-4.089-.678-1.19-.755-1.215-3.854-1.3,2.235-2.135,4.87-1.861,8.667.961.515-.819.081-1.408-.439-1.928-.857-.858-.1-.747.453-.781l.381.1c-.007-.132-.012-.264-.017-.4-.168-.294-.086-.632.245-.448.776.431,1.306-.1,2.206-.472-.906,1.409-.014,1.368,1,1.279-.445.572-.779.954-1.056,1.373-.239.362-.46.829-.017,1.145s.615-.247.863-.453c2.6-2.156,5.181-2.352,8.027-.414a21.074,21.074,0,0,0-2.278.144,2.43,2.43,0,0,0-2.01,1.207c3.092.266,6,.824,7.895,3.831-2.007-.11-3.636-1.205-5.757-.894a10.186,10.186,0,0,1,4.257,3.574,9.128,9.128,0,0,1,1.2,5.512c-1.517-2.46-2.928-4.726-5.6-5.726-.134-.2-.376-.3-.529-.156-.227.208.1.306.2.45a12.034,12.034,0,0,1,2.472,9.412c-1.148-2.874-2.161-5.817-5.328-7.213l-.378-.069c.05.1.1.206.148.309" transform="translate(537.865 -176.525)" fill="#5c8b72"/>
  <path id="Path_2335" data-name="Path 2335" d="M-519.36,215.992c3.939-2.13,7.93-1.978,11.981-.8a56.039,56.039,0,0,1,13.625,6.24,3.163,3.163,0,0,0,3.864.034,52.79,52.79,0,0,1,14.86-6.588,15.508,15.508,0,0,1,9.409.343c.527.2,1.145.306,1.463,1.039-6.688-1.22-12.339,1.423-17.916,4.319-2.28,1.181-4.518,2.444-6.913,3.746,1.9,1.19,3.606,2.218,5.265,3.313.639.424,1.032.47,1.607-.139a5.4,5.4,0,0,1,3.014-1.768,1.531,1.531,0,0,1,1.7.632.809.809,0,0,1-.1,1.035c-.469.513-.918.381-1.565.141-.838-.307-.857.754-1.275,1.174-.318.319-.319.664.2.809,1.524.419,2.577,2.106,4.527,1.492.654-.206.525.52.3.872a2.847,2.847,0,0,1-3.2,1.339,6.761,6.761,0,0,1-1.818-.651c-1.233-.673-2.192-1.014-3.493.216-1,.946-2.745.578-4.156.755-.694.087-.989-.609-.778-1.267a.935.935,0,0,1,1.433-.582c1.529,1.054,1.715-.616,2.156-1.147.487-.587-.573-.807-.992-1.047-1.9-1.1-3.723-3.248-5.685-3.1-2.02.153-3.919,2.053-5.836,3.241-.35.216-1.334.34-.7,1.054.45.508.764,1.576,1.79,1.152.618-.259,1.123-.436,1.567.148a.92.92,0,0,1,.067,1.184,1.321,1.321,0,0,1-1.62.347c-1.459-.513-3.323.045-4.364-1.612-.288-.46-.685-.05-1,.081-.9.364-1.756.827-2.673,1.131a3.041,3.041,0,0,1-3.67-1.248c-.117-.23-.292-.491-.1-.738s.464-.151.74-.1c.69.141,4.207-1.2,4.434-1.732.288-.666-.421-1.008-.642-1.511-.125-.282-.292-.7-.791-.249a.933.933,0,0,1-1.427-.124.9.9,0,0,1-.155-1.04,1.276,1.276,0,0,1,1.354-.687,5.062,5.062,0,0,1,3.342,1.778c.474.482.853.688,1.5.261,1.7-1.123,3.443-2.187,5.44-3.442-7.967-4.03-15.159-9.477-24.765-8.31" transform="translate(532.1 -160.596)" fill="#5c8b72"/>
</svg>
