<svg id="Group_8525" data-name="Group 8525" xmlns="http://www.w3.org/2000/svg" width="468.828" height="72.189" viewBox="0 0 468.828 72.189">
  <path id="Path_2525" data-name="Path 2525" d="M-141.6,310.432a2.713,2.713,0,0,1,2.273,1.107l-.991.467a1.116,1.116,0,0,0-.525-.525,1.258,1.258,0,0,0-.7-.117,1.4,1.4,0,0,0-.874.233.71.71,0,0,0-.35.582c0,.35.292.584.932.817l.815.29a3.088,3.088,0,0,1,1.457.817,1.621,1.621,0,0,1,.467,1.164,1.879,1.879,0,0,1-.759,1.574,3.05,3.05,0,0,1-1.923.64,3.015,3.015,0,0,1-1.806-.524,2.219,2.219,0,0,1-.874-1.457l1.281-.233a1.591,1.591,0,0,0,.292.817,1.408,1.408,0,0,0,1.107.465,1.8,1.8,0,0,0,.99-.292,1.108,1.108,0,0,0,.409-.815.73.73,0,0,0-.058-.348.583.583,0,0,0-.233-.292,1.221,1.221,0,0,0-.35-.233c-.173-.058-.348-.175-.524-.234l-.815-.29c-1.166-.408-1.691-.992-1.691-1.749a1.535,1.535,0,0,1,.7-1.282,2.446,2.446,0,0,1,1.747-.582" transform="translate(572.609 -265.856)" fill="#5c8b72"/>
  <path id="Path_2526" data-name="Path 2526" d="M-136.421,311.432h-2.913v1.689h2.8v.934h-2.8v3.2h-1.282V310.5h4.2Z" transform="translate(575.358 -265.808)" fill="#5c8b72"/>
  <g id="Group_8513" data-name="Group 8513" transform="translate(440.568 44.691)">
    <path id="Path_2527" data-name="Path 2527" d="M-137.222,317.259V310.5h1.749a8.846,8.846,0,0,1,1.981.175,3.168,3.168,0,0,1,1.4.7,2.918,2.918,0,0,1,1.282,2.5,2.972,2.972,0,0,1-1.341,2.506,5.219,5.219,0,0,1-1.4.7,8.5,8.5,0,0,1-1.981.175Zm1.224-.932h.582a8.368,8.368,0,0,0,1.4-.117,5.255,5.255,0,0,0,.99-.465,2.091,2.091,0,0,0,.932-1.808,2.088,2.088,0,0,0-.932-1.806,3.96,3.96,0,0,0-2.446-.64h-.584v4.836Z" transform="translate(137.222 -310.499)" fill="#5c8b72"/>
  </g>
  <path id="Path_2528" data-name="Path 2528" d="M-127.8,315.822h-3.553l-.932,1.632h-1.341l4.137-7.227,3.962,7.227h-1.4Zm-.524-.932-1.224-2.331-1.282,2.331Z" transform="translate(580.369 -266.002)" fill="#5c8b72"/>
  <g id="Group_8514" data-name="Group 8514" transform="translate(0 0)">
    <path id="Path_2529" data-name="Path 2529" d="M-125.814,292.873c-15.616-10.255-45.391,23.716-45.391,23.716v1.222L-162,308.9c18.005-15.732,26.454-6.7,26.454-6.7,12.994,14.043-39.388,47.956-39.388,47.956l.173.465c11.364-4.427,34.845-23.89,34.845-23.89,26.979-24.765,14.1-33.854,14.1-33.854" transform="translate(550.767 -279.82)" fill="#5c8b72"/>
    <path id="Path_2530" data-name="Path 2530" d="M-95.325,296.023v-.467s-19.171,6.526-33.621,14.1c0,0-1.224-9.731,16.314-14.859l-.115-.932s-24.183,5.186-24.823,21.21c0,0-25.987,19.229-16.664,31.465,0,0,7.458,9.381,29.192-3.146,0,0,14.567-8.914,19.694-13.168l-.115-1.049s-27.97,23.308-37.7,9.264c-9.788-13.985,41.955-40.846,47.839-42.42" transform="translate(564.153 -277.726)" fill="#5c8b72"/>
    <path id="Path_2531" data-name="Path 2531" d="M-137.785,284.464a6.7,6.7,0,0,0-6.7,6.7,6.7,6.7,0,0,0,6.7,6.7,6.7,6.7,0,0,0,6.7-6.7,6.666,6.666,0,0,0-6.7-6.7" transform="translate(572.585 -284.464)" fill="#5c8b72"/>
    <path id="Path_2532" data-name="Path 2532" d="M-393.3,301.6c-.292-.292-.582-.582-.582-1.806a4.578,4.578,0,0,1,4.544-4.2,7.9,7.9,0,0,1,2.506.64l-.584,1.165a4.453,4.453,0,0,0-1.981-.525c-1.514,0-3.263,1.282-3.263,2.506a2.268,2.268,0,0,0,.408,1.689c.467.642,1.4.525,2.738.525h2.973l-.7,1.282h-6.641V301.6Z" transform="translate(393.878 -276.486)" fill="#5c8b72"/>
  </g>
  <rect id="Rectangle_16817" data-name="Rectangle 16817" width="2.796" height="22.084" transform="translate(10.08 4.311)" fill="#5c8b72"/>
  <g id="Group_8515" data-name="Group 8515" transform="translate(15.849 10.372)">
    <path id="Path_2533" data-name="Path 2533" d="M-365.708,302.627c0,8.974-3.672,9.906-10.138,10.023-.817.057-3.088-.058-3.088-.058s-.759-1.049-1.808-2.8c5.011,0,9.5.467,10.78-1.456.582-.875,1.4-2.156,1.4-5.536,0-5.186-1.981-9.673-6.643-9.556-3.088.058-6.7,1.4-6.7,7.283,0,2.565,1.341,3.146,3.613,3.146h7.575l-1.923,2.8h-4.2c-5.769,0-7.809-.7-7.809-5.943a9.762,9.762,0,0,1,9.5-10.023c6.875,0,9.439,6.526,9.439,12.121" transform="translate(384.645 -290.506)" fill="#5c8b72"/>
    <path id="Path_2534" data-name="Path 2534" d="M-370.755,306.457l-1.4-2.8h10.722c2.971,0,4.721.232,5.769-1.107.7-.874.932-1.691.932-3.73,0-2.621-3.555-5.419-6.877-5.419-4.66,0-5.943,2.8-7.283,6.351h-2.971s.409-1.514.7-2.446a9.482,9.482,0,0,1,9.5-6.7c5.594,0,9.848,4.836,9.848,9.148a10.461,10.461,0,0,1-.932,3.905h3.088v2.8Z" transform="translate(393.596 -290.433)" fill="#5c8b72"/>
  </g>
  <path id="Path_2535" data-name="Path 2535" d="M-355.53,306.263V286.976h2.8v22.084H-359.9v-2.8Z" transform="translate(418.226 -282.664)" fill="#5c8b72"/>
  <rect id="Rectangle_16818" data-name="Rectangle 16818" width="2.796" height="22.084" transform="translate(69.281 4.311)" fill="#5c8b72"/>
  <g id="Group_8516" data-name="Group 8516" transform="translate(74.932 10.372)">
    <path id="Path_2536" data-name="Path 2536" d="M-331.23,302.627c0,8.974-3.672,9.906-10.138,10.023-.817.057-3.088-.058-3.088-.058s-.759-1.049-1.807-2.8c5.011,0,9.5.467,10.78-1.456.582-.875,1.4-2.156,1.4-5.536,0-5.186-1.981-9.673-6.643-9.556-3.088.058-6.7,1.4-6.7,7.283,0,2.565,1.341,3.146,3.613,3.146h7.517l-1.923,2.8h-4.2c-5.769,0-7.809-.7-7.809-5.943a9.762,9.762,0,0,1,9.5-10.023c6.992,0,9.5,6.526,9.5,12.121" transform="translate(350.226 -290.506)" fill="#5c8b72"/>
    <path id="Path_2537" data-name="Path 2537" d="M-332.162,301.6c-.292-.292-.582-.582-.582-1.806a4.578,4.578,0,0,1,4.544-4.2,7.9,7.9,0,0,1,2.506.64l-.584,1.165a4.231,4.231,0,0,0-1.981-.525c-1.514,0-3.263,1.282-3.263,2.506a2.268,2.268,0,0,0,.409,1.689c.467.642,1.4.525,2.738.525h2.973l-.7,1.282h-6.641V301.6Z" transform="translate(362.753 -286.857)" fill="#5c8b72"/>
  </g>
  <rect id="Rectangle_16819" data-name="Rectangle 16819" width="2.796" height="22.084" transform="translate(115.021 4.311)" fill="#5c8b72"/>
  <g id="Group_8517" data-name="Group 8517" transform="translate(120.381 4.579)">
    <path id="Path_2538" data-name="Path 2538" d="M-322.35,308.8l-1.4-2.8h10.722c2.971,0,4.719.233,5.768-1.107.7-.874.932-1.689.932-3.73,0-2.621-3.553-5.418-6.875-5.418-4.662,0-5.943,2.8-7.283,6.351h-2.971s.407-1.516.7-2.448a9.48,9.48,0,0,1,9.5-6.7c5.594,0,9.848,4.837,9.848,9.149a10.461,10.461,0,0,1-.932,3.9h3.088v2.8Zm10.2-19.811a1.945,1.945,0,0,1-1.631,2.156,1.872,1.872,0,0,1-2.156-1.631,1.911,1.911,0,0,1,1.631-2.156,1.912,1.912,0,0,1,2.156,1.631" transform="translate(323.749 -286.98)" fill="#5c8b72"/>
    <path id="Path_2539" data-name="Path 2539" d="M-311.46,306.152h2.8c-.7-.642-1.166-1.224-1.166-3.905a8.633,8.633,0,0,1,3.088-6.351H-309.6l2.506-2.8H-298c5.594,0,9.848,4.836,9.848,9.148,0,2.681-.525,3.263-1.166,3.905h2.8v2.8H-311.46Zm20.451-4.837c0-2.621-3.32-5.419-8.04-5.419-3.322,0-7.982,2.8-7.982,5.419,0,2.039.058,2.855.757,3.73,1.049,1.339,4.254,1.107,7.225,1.107s6.293.232,7.342-1.107c.642-.875.7-1.691.7-3.73m-7.924-12.528a1.945,1.945,0,0,1-1.633,2.156,1.87,1.87,0,0,1-2.154-1.631,1.911,1.911,0,0,1,1.631-2.156,1.843,1.843,0,0,1,2.156,1.631" transform="translate(332.555 -287.131)" fill="#5c8b72"/>
  </g>
  <path id="Path_2540" data-name="Path 2540" d="M-293.2,306.239V287.01h2.8v19.229h3.555v2.855l-10.663-.058v-2.8Z" transform="translate(462.933 -282.64)" fill="#5c8b72"/>
  <path id="Path_2541" data-name="Path 2541" d="M-287.562,306.263V286.976h2.8v22.084h-7.108v-2.8Z" transform="translate(466.971 -282.664)" fill="#5c8b72"/>
  <g id="Group_8518" data-name="Group 8518" transform="translate(193.217 4.066)">
    <path id="Path_2542" data-name="Path 2542" d="M-261.332,293.37v13.053h2.214v2.8h-17.83a6.332,6.332,0,0,1-3.555-2.5c-.755-1.341-.815-1.574-.815-4.2,0-4.312,4.254-9.149,9.848-9.149a9.846,9.846,0,0,1,7.167,2.973l.058-2.973Zm-17.131,8.159c0,2.039-.175,2.913.525,3.787,1.049,1.341,3.437,1.049,6.41,1.049h6.351c2.329-.058,1.049-4.546,1.049-4.546-1.282-3.553-2.565-5.709-7.227-5.709-3.378.058-7.108,2.8-7.108,5.419m6.585-13.053a1.945,1.945,0,0,1-1.632,2.156A1.869,1.869,0,0,1-275.665,289a1.912,1.912,0,0,1,1.631-2.156,1.881,1.881,0,0,1,2.156,1.631m4.139,0a1.948,1.948,0,0,1-1.632,2.156A1.871,1.871,0,0,1-271.528,289a1.911,1.911,0,0,1,1.631-2.156,1.948,1.948,0,0,1,2.158,1.631" transform="translate(281.318 -286.833)" fill="#5c8b72"/>
    <path id="Path_2543" data-name="Path 2543" d="M-256,295.59c1.806,1.806,2.156,4.254,1.689,6.818a4.531,4.531,0,0,1-.991,1.981c-.932,1.339-2.388,2.8-3.787,1.981-2.273-1.341-4.779-2.74-4.779-2.74l.409-3.088c.175,0,3.73,2.623,4.952,2.856,0,0,1.574-.117,1.574-2.973a3.732,3.732,0,0,0-4.02-3.9c-2.448,0-3.088,1.107-3.555,3.146-.409,1.749-.117,3.263-1.864,4.137a4.05,4.05,0,0,1-1.864.292H-269v-2.8h.759c.523,0,1.107.058,1.107-.409,0-2.913,1.164-6.992,6.7-6.992A6.409,6.409,0,0,1-256,295.59" transform="translate(290.148 -281.768)" fill="#5c8b72"/>
  </g>
  <path id="Path_2544" data-name="Path 2544" d="M-251.781,309.06h-7.167V286.976h2.8v19.287h4.37Z" transform="translate(490.565 -282.664)" fill="#5c8b72"/>
  <g id="Group_8519" data-name="Group 8519" transform="translate(237.618 10.547)">
    <path id="Path_2545" data-name="Path 2545" d="M-255.452,303.659h2.8c-.7-.64-1.166-1.222-1.166-3.9a8.633,8.633,0,0,1,3.088-6.351h-2.855l2.5-2.8h9.091c5.593,0,9.846,4.836,9.846,9.148,0,2.681-.524,3.263-1.166,3.9h2.8v2.8h-24.94ZM-235,298.824c0-2.623-3.322-5.419-8.04-5.419-3.322,0-7.984,2.8-7.984,5.419,0,2.039.058,2.855.757,3.728,1.049,1.341,4.254,1.107,7.227,1.107s6.293.233,7.342-1.107c.64-.874.7-1.689.7-3.728" transform="translate(255.452 -290.608)" fill="#5c8b72"/>
  </g>
  <path id="Path_2546" data-name="Path 2546" d="M-237.164,306.263V286.976h2.8v22.084h-7.167v-2.8Z" transform="translate(503.043 -282.664)" fill="#5c8b72"/>
  <rect id="Rectangle_16820" data-name="Rectangle 16820" width="2.796" height="22.084" transform="translate(272.463 4.311)" fill="#5c8b72"/>
  <g id="Group_8520" data-name="Group 8520" transform="translate(285.516 4.066)">
    <path id="Path_2547" data-name="Path 2547" d="M-207.563,293.37v13.053h2.214v2.8h-17.83a6.332,6.332,0,0,1-3.555-2.5c-.757-1.341-.815-1.574-.815-4.2,0-4.312,4.254-9.149,9.846-9.149a9.85,9.85,0,0,1,7.168,2.973l.058-2.973Zm-17.131,8.159c0,2.039-.175,2.913.525,3.787,1.049,1.341,3.437,1.049,6.41,1.049h6.351c2.329-.058,1.049-4.546,1.049-4.546-1.282-3.553-2.565-5.709-7.227-5.709-3.378.058-7.108,2.8-7.108,5.419m6.585-13.053a1.946,1.946,0,0,1-1.632,2.156A1.872,1.872,0,0,1-221.9,289a1.914,1.914,0,0,1,1.632-2.156,1.881,1.881,0,0,1,2.156,1.631m4.079,0a1.945,1.945,0,0,1-1.631,2.156A1.871,1.871,0,0,1-217.818,289a1.912,1.912,0,0,1,1.631-2.156,1.881,1.881,0,0,1,2.156,1.631" transform="translate(227.549 -286.833)" fill="#5c8b72"/>
    <path id="Path_2548" data-name="Path 2548" d="M-210.915,305.072v-8.682h2.8v8.682h3.553v2.8l-10.663-.058v-2.8h4.312Zm-.815-12.121c-.233-.233-.409-.409-.409-1.282a3.3,3.3,0,0,1,3.263-3.03,5.631,5.631,0,0,1,1.808.467l-.409.815a2.842,2.842,0,0,0-1.4-.408c-1.107,0-2.331.99-2.331,1.806,0,.642.058.934.292,1.165.35.467,1.049.409,1.981.409h2.156l-.524.874h-4.837v-.815Z" transform="translate(236.379 -285.538)" fill="#5c8b72"/>
    <path id="Path_2549" data-name="Path 2549" d="M-205.485,301.836v-8.682h2.8v8.682h3.553v2.8l-10.662-.058v-2.8h4.31Zm.642,6.176a1.947,1.947,0,0,1-1.632,2.156,1.872,1.872,0,0,1-2.156-1.631A1.913,1.913,0,0,1-207,306.382a1.912,1.912,0,0,1,2.156,1.631m4.079,0a1.945,1.945,0,0,1-1.631,2.156,1.871,1.871,0,0,1-2.156-1.631,1.911,1.911,0,0,1,1.631-2.156,1.912,1.912,0,0,1,2.156,1.631" transform="translate(240.271 -282.303)" fill="#5c8b72"/>
    <path id="Path_2550" data-name="Path 2550" d="M-193.736,290.6l2.8-1.282v2.273c5.534,0,9.846,4.836,9.846,9.148,0,2.681-.524,3.263-1.166,3.9h2.8v2.8H-204.4v-2.8h2.8c-.7-.64-1.166-1.222-1.166-3.9,0-3.67,3.322-7.865,9.031-8.914Zm0,3.962c-3.2-.058-6.235,3.03-6.235,5.186,0,2.039.117,2.8.759,3.728.874,1.166,5.476,1.107,5.476,1.107Zm9.848,5.186c0-2.448-3.962-5.361-7.05-5.361v10.2c3.088,0,5.361.117,6.293-1.107.64-.874.757-1.689.757-3.728" transform="translate(244.138 -285.052)" fill="#5c8b72"/>
  </g>
  <path id="Path_2551" data-name="Path 2551" d="M-186.179,306.263V286.976h2.8v22.084h-7.167v-2.8Z" transform="translate(539.577 -282.664)" fill="#5c8b72"/>
  <rect id="Rectangle_16821" data-name="Rectangle 16821" width="2.796" height="22.084" transform="translate(359.982 4.311)" fill="#5c8b72"/>
  <g id="Group_8521" data-name="Group 8521" transform="translate(0.757 41.663)">
    <path id="Path_2552" data-name="Path 2552" d="M-382.075,312.661-384.348,314a3.3,3.3,0,0,0-1.224-1.4,3.067,3.067,0,0,0-1.514-.409,3.048,3.048,0,0,0-1.923.642,1.984,1.984,0,0,0-.759,1.631c0,.874.642,1.633,1.981,2.156l1.807.759a7.485,7.485,0,0,1,3.263,2.213,4.94,4.94,0,0,1,1.049,3.2,5.709,5.709,0,0,1-1.691,4.2,5.8,5.8,0,0,1-4.2,1.691,5.779,5.779,0,0,1-3.962-1.4,6.562,6.562,0,0,1-1.923-4.02l2.8-.64a4.742,4.742,0,0,0,.642,2.213,2.82,2.82,0,0,0,2.5,1.166,2.9,2.9,0,0,0,2.156-.874,2.936,2.936,0,0,0,.874-2.214,2.722,2.722,0,0,0-.175-.99,2.254,2.254,0,0,0-.465-.815,5.045,5.045,0,0,0-.815-.7c-.35-.233-.759-.408-1.165-.642l-1.749-.757c-2.5-1.049-3.787-2.623-3.787-4.662a4.361,4.361,0,0,1,1.574-3.437,5.776,5.776,0,0,1,3.962-1.4,5.637,5.637,0,0,1,5.011,3.146" transform="translate(393.437 -308.176)" fill="#5c8b72"/>
    <path id="Path_2553" data-name="Path 2553" d="M-375.556,313.869h2.68v11.537h-2.68v-1.222a5.072,5.072,0,0,1-3.555,1.572,5.046,5.046,0,0,1-3.962-1.747,6.338,6.338,0,0,1-1.572-4.429,6.046,6.046,0,0,1,1.572-4.312,5.011,5.011,0,0,1,3.9-1.747,4.912,4.912,0,0,1,3.613,1.689Zm-6.351,5.711a3.907,3.907,0,0,0,.874,2.68,2.933,2.933,0,0,0,2.331,1.049,3.115,3.115,0,0,0,2.39-.99,4.042,4.042,0,0,0,.932-2.68,3.769,3.769,0,0,0-.932-2.681,2.975,2.975,0,0,0-2.39-1.049,3.022,3.022,0,0,0-2.331,1.049,3.966,3.966,0,0,0-.874,2.623" transform="translate(399.737 -305.306)" fill="#5c8b72"/>
    <path id="Path_2554" data-name="Path 2554" d="M-372.019,313.724v6.643c0,1.923.757,2.855,2.273,2.855s2.273-.932,2.273-2.855v-6.643h2.68v6.7a7.11,7.11,0,0,1-.35,2.388,3.855,3.855,0,0,1-1.164,1.632,5.223,5.223,0,0,1-3.438,1.166,5.114,5.114,0,0,1-3.438-1.166,3.876,3.876,0,0,1-1.166-1.632,6.242,6.242,0,0,1-.348-2.388v-6.7Z" transform="translate(406.864 -305.16)" fill="#5c8b72"/>
    <path id="Path_2555" data-name="Path 2555" d="M-357.362,308.735h2.68v20.044h-2.68v-1.224a4.971,4.971,0,0,1-3.555,1.572,5.131,5.131,0,0,1-3.962-1.747,6.338,6.338,0,0,1-1.572-4.429,6.144,6.144,0,0,1,1.572-4.312,5.011,5.011,0,0,1,3.9-1.747,5.132,5.132,0,0,1,3.672,1.689v-9.846Zm-6.351,14.275a3.907,3.907,0,0,0,.874,2.68,2.933,2.933,0,0,0,2.331,1.049,3.114,3.114,0,0,0,2.389-.99,4.042,4.042,0,0,0,.932-2.68,3.769,3.769,0,0,0-.932-2.681,2.975,2.975,0,0,0-2.389-1.049,3.022,3.022,0,0,0-2.331,1.049,3.965,3.965,0,0,0-.874,2.623" transform="translate(412.774 -308.735)" fill="#5c8b72"/>
    <path id="Path_2556" data-name="Path 2556" d="M-356.913,311.637a1.674,1.674,0,0,1,.525-1.224,1.673,1.673,0,0,1,1.224-.525,1.673,1.673,0,0,1,1.222.525,1.674,1.674,0,0,1,.525,1.224,1.672,1.672,0,0,1-.525,1.222,1.673,1.673,0,0,1-1.222.525,1.673,1.673,0,0,1-1.224-.525,1.672,1.672,0,0,1-.525-1.222m3.088,16.373h-2.68V316.473h2.68Z" transform="translate(419.609 -307.909)" fill="#5c8b72"/>
  </g>
  <path id="Path_2557" data-name="Path 2557" d="M-337.547,312.375h-6.41v4.37h6.176v2.621h-6.176v8.741H-346.7V309.752h9.148Z" transform="translate(427.688 -266.343)" fill="#5c8b72"/>
  <g id="Group_8522" data-name="Group 8522" transform="translate(94.221 41.663)">
    <path id="Path_2558" data-name="Path 2558" d="M-338.989,319.522a5.6,5.6,0,0,1,1.806-4.254,6.117,6.117,0,0,1,4.37-1.747,6.158,6.158,0,0,1,4.429,1.747,5.985,5.985,0,0,1,1.806,4.37,5.767,5.767,0,0,1-1.806,4.37,6.159,6.159,0,0,1-4.429,1.747,5.758,5.758,0,0,1-4.37-1.806,5.8,5.8,0,0,1-1.806-4.429m2.738.058a3.722,3.722,0,0,0,.932,2.738,3.169,3.169,0,0,0,2.506.99,3.371,3.371,0,0,0,2.5-.99,3.755,3.755,0,0,0,.932-2.68,3.669,3.669,0,0,0-.932-2.681,3.21,3.21,0,0,0-2.5-1.047,3.216,3.216,0,0,0-2.506,1.047,3.534,3.534,0,0,0-.932,2.623" transform="translate(338.989 -305.306)" fill="#5c8b72"/>
    <path id="Path_2559" data-name="Path 2559" d="M-329.621,319.522a5.6,5.6,0,0,1,1.806-4.254,6.117,6.117,0,0,1,4.37-1.747,5.93,5.93,0,0,1,4.37,1.747,5.985,5.985,0,0,1,1.806,4.37,5.767,5.767,0,0,1-1.806,4.37,6.159,6.159,0,0,1-4.429,1.747,5.758,5.758,0,0,1-4.37-1.806,5.971,5.971,0,0,1-1.747-4.429m2.738.058a3.722,3.722,0,0,0,.932,2.738,3.17,3.17,0,0,0,2.506.99,3.371,3.371,0,0,0,2.5-.99,3.754,3.754,0,0,0,.932-2.68,3.669,3.669,0,0,0-.932-2.681,3.21,3.21,0,0,0-2.5-1.047,3.216,3.216,0,0,0-2.506,1.047,3.534,3.534,0,0,0-.932,2.623" transform="translate(345.702 -305.306)" fill="#5c8b72"/>
    <path id="Path_2560" data-name="Path 2560" d="M-310.891,308.735h2.68v20.044h-2.68v-1.224a4.971,4.971,0,0,1-3.555,1.572,5.131,5.131,0,0,1-3.962-1.747,6.338,6.338,0,0,1-1.572-4.429,6.144,6.144,0,0,1,1.572-4.312,5.011,5.011,0,0,1,3.9-1.747,5.132,5.132,0,0,1,3.672,1.689v-9.846Zm-6.351,14.275a3.907,3.907,0,0,0,.874,2.68,2.933,2.933,0,0,0,2.331,1.049,3.114,3.114,0,0,0,2.389-.99,4.041,4.041,0,0,0,.932-2.68,3.769,3.769,0,0,0-.932-2.681,2.975,2.975,0,0,0-2.389-1.049,3.022,3.022,0,0,0-2.331,1.049,3.965,3.965,0,0,0-.874,2.623" transform="translate(352.61 -308.735)" fill="#5c8b72"/>
    <path id="Path_2561" data-name="Path 2561" d="M-297.561,318.032l3.32,4.02.117-.117c.35-.407.7-.757.99-1.164.292-.35.642-.759.932-1.107l1.808,1.864c-.233.292-.525.7-.874,1.107s-.817.874-1.282,1.456l3.38,4.2h-3.438l-1.806-2.271a7.35,7.35,0,0,1-5.244,2.621,5.816,5.816,0,0,1-4.139-1.572,5.157,5.157,0,0,1-1.689-3.905,5.333,5.333,0,0,1,2.623-4.544l1.222-.817.058-.058.175-.115a5.6,5.6,0,0,1-1.806-3.847,4.084,4.084,0,0,1,1.224-3.03,4.507,4.507,0,0,1,3.2-1.166,4.52,4.52,0,0,1,3.146,1.107,3.7,3.7,0,0,1,1.224,2.855,3.528,3.528,0,0,1-.7,2.156,13.7,13.7,0,0,1-2.446,2.331m-2.156,1.574-.175.117a13.723,13.723,0,0,0-2.331,1.864,2.251,2.251,0,0,0-.582,1.514,2.88,2.88,0,0,0,.932,2.1,3.125,3.125,0,0,0,2.1.932q1.573,0,3.67-2.1Zm.582-3.555.233-.175a7.438,7.438,0,0,0,.932-.757l.524-.525a1.675,1.675,0,0,0,.35-1.107,1.627,1.627,0,0,0-.465-1.164,1.922,1.922,0,0,0-1.282-.467,1.918,1.918,0,0,0-1.282.467,1.431,1.431,0,0,0-.525,1.106,2.606,2.606,0,0,0,.642,1.574l.7.815c.058.117.058.175.175.233" transform="translate(362.996 -308.127)" fill="#5c8b72"/>
    <path id="Path_2562" data-name="Path 2562" d="M-288.615,328.108V309.753h3.845a14.414,14.414,0,0,1,4.37.524,8.52,8.52,0,0,1,3.146,1.807A8.761,8.761,0,0,1-274.4,318.9a8.585,8.585,0,0,1-2.971,6.818,8.653,8.653,0,0,1-3.146,1.806,13.683,13.683,0,0,1-4.312.525h-3.787Zm2.738-2.623h1.282a9.424,9.424,0,0,0,3.088-.409,6.5,6.5,0,0,0,2.273-1.339,6.3,6.3,0,0,0,2.039-4.837,6.507,6.507,0,0,0-2.039-4.894,7.778,7.778,0,0,0-5.361-1.691h-1.282Z" transform="translate(375.086 -308.006)" fill="#5c8b72"/>
    <path id="Path_2563" data-name="Path 2563" d="M-277.787,313.846h2.681v1.049a4.583,4.583,0,0,1,1.281-1.049,2.742,2.742,0,0,1,1.4-.292,4.269,4.269,0,0,1,2.214.7l-1.224,2.446a2.629,2.629,0,0,0-1.457-.523c-1.456,0-2.213,1.107-2.213,3.322v6h-2.681Z" transform="translate(382.845 -305.282)" fill="#5c8b72"/>
    <path id="Path_2564" data-name="Path 2564" d="M-268.454,313.724v6.643c0,1.923.757,2.855,2.273,2.855s2.273-.932,2.273-2.855v-6.643h2.68v6.7a7.11,7.11,0,0,1-.35,2.388,3.857,3.857,0,0,1-1.164,1.632,5.223,5.223,0,0,1-3.438,1.166,5.114,5.114,0,0,1-3.438-1.166,3.875,3.875,0,0,1-1.166-1.632,6.242,6.242,0,0,1-.348-2.388v-6.7Z" transform="translate(387.612 -305.16)" fill="#5c8b72"/>
    <path id="Path_2565" data-name="Path 2565" d="M-251.241,325.092a11.2,11.2,0,0,1-.058,1.456,6.243,6.243,0,0,1-.175,1.107,4.69,4.69,0,0,1-1.107,2.214,5.387,5.387,0,0,1-4.312,1.808,5.688,5.688,0,0,1-3.787-1.224,5.152,5.152,0,0,1-1.808-3.555h2.681a3.573,3.573,0,0,0,.524,1.341,2.975,2.975,0,0,0,2.448,1.107c1.981,0,2.913-1.224,2.913-3.613V324.1a4.876,4.876,0,0,1-3.67,1.631,4.946,4.946,0,0,1-3.847-1.689,6.487,6.487,0,0,1-1.514-4.312,6.72,6.72,0,0,1,1.4-4.312,4.924,4.924,0,0,1,4.022-1.864,4.5,4.5,0,0,1,3.612,1.631V313.9h2.681Zm-2.565-5.478a3.907,3.907,0,0,0-.874-2.68,2.933,2.933,0,0,0-2.331-1.049,2.854,2.854,0,0,0-2.389,1.106,4.152,4.152,0,0,0-.815,2.623,3.981,3.981,0,0,0,.815,2.565,2.855,2.855,0,0,0,2.389,1.107,2.966,2.966,0,0,0,2.448-1.107,4.33,4.33,0,0,0,.757-2.565" transform="translate(393.474 -305.281)" fill="#5c8b72"/>
  </g>
  <path id="Path_2566" data-name="Path 2566" d="M-235.954,324.164h-7.869l-2.038,4.429h-2.973l9.093-19.519L-231,328.593h-3.03Zm-1.107-2.621-2.738-6.235-2.856,6.235Z" transform="translate(497.813 -266.829)" fill="#5c8b72"/>
  <g id="Group_8523" data-name="Group 8523" transform="translate(270.015 50.227)">
    <path id="Path_2567" data-name="Path 2567" d="M-233.9,313.724v6.643c0,1.923.757,2.855,2.273,2.855s2.273-.932,2.273-2.855v-6.643h2.68v6.7a7.111,7.111,0,0,1-.35,2.388,3.856,3.856,0,0,1-1.164,1.632,5.226,5.226,0,0,1-3.438,1.166,5.115,5.115,0,0,1-3.438-1.166,3.876,3.876,0,0,1-1.166-1.632,6.236,6.236,0,0,1-.35-2.388v-6.7Z" transform="translate(236.579 -313.724)" fill="#5c8b72"/>
  </g>
  <path id="Path_2568" data-name="Path 2568" d="M-224.441,317.972v9.089h-2.68v-9.089h-1.107v-2.448h1.107v-4.312h2.68v4.312h2.1v2.448Z" transform="translate(512.578 -265.297)" fill="#5c8b72"/>
  <g id="Group_8524" data-name="Group 8524" transform="translate(293.789 41.661)">
    <path id="Path_2569" data-name="Path 2569" d="M-222.729,308.734h2.681v9.439a4.455,4.455,0,0,1,3.146-1.282,4.093,4.093,0,0,1,3.146,1.282,5.4,5.4,0,0,1,.991,3.555v7.108h-2.681V321.96a3.777,3.777,0,0,0-.465-2.039,1.98,1.98,0,0,0-1.574-.64,2.227,2.227,0,0,0-1.981.874,6.113,6.113,0,0,0-.582,3.03v5.594h-2.681Z" transform="translate(222.729 -308.734)" fill="#5c8b72"/>
    <path id="Path_2570" data-name="Path 2570" d="M-214.514,319.522a5.6,5.6,0,0,1,1.806-4.254,6.117,6.117,0,0,1,4.37-1.747,5.93,5.93,0,0,1,4.37,1.747,5.978,5.978,0,0,1,1.806,4.37,5.767,5.767,0,0,1-1.806,4.37,6.159,6.159,0,0,1-4.429,1.747,5.758,5.758,0,0,1-4.37-1.806,5.971,5.971,0,0,1-1.747-4.429m2.738.058a3.722,3.722,0,0,0,.932,2.738,3.17,3.17,0,0,0,2.506.99,3.371,3.371,0,0,0,2.5-.99,3.754,3.754,0,0,0,.932-2.68,3.669,3.669,0,0,0-.932-2.681,3.21,3.21,0,0,0-2.5-1.047,3.216,3.216,0,0,0-2.506,1.047,3.786,3.786,0,0,0-.932,2.623" transform="translate(228.616 -305.304)" fill="#5c8b72"/>
    <path id="Path_2571" data-name="Path 2571" d="M-204.738,313.846h2.68v1.049a4.609,4.609,0,0,1,1.282-1.049,2.742,2.742,0,0,1,1.4-.292,4.269,4.269,0,0,1,2.214.7l-1.224,2.446a2.634,2.634,0,0,0-1.457-.523c-1.456,0-2.156,1.107-2.156,3.322v6h-2.68V313.846Z" transform="translate(235.621 -305.28)" fill="#5c8b72"/>
    <path id="Path_2572" data-name="Path 2572" d="M-198.492,311.637a1.679,1.679,0,0,1,.524-1.224,1.676,1.676,0,0,1,1.224-.525,1.676,1.676,0,0,1,1.224.525,1.672,1.672,0,0,1,.524,1.224,1.671,1.671,0,0,1-.524,1.222,1.676,1.676,0,0,1-1.224.525,1.676,1.676,0,0,1-1.224-.525,1.677,1.677,0,0,1-.524-1.222m3.088,16.373h-2.68V316.473h2.68Z" transform="translate(240.097 -307.907)" fill="#5c8b72"/>
  </g>
  <path id="Path_2573" data-name="Path 2573" d="M-190.7,317.972v9.089h-2.68v-9.089h-1.107v-2.448h1.107v-4.312h2.68v4.312h2.1v2.448Z" transform="translate(536.756 -265.297)" fill="#5c8b72"/>
  <path id="Path_2574" data-name="Path 2574" d="M-184.481,323.105l-5.186-9.381h3.088l3.555,6.643,3.263-6.643h3.03l-9.208,17.83h-3.03Z" transform="translate(540.21 -263.497)" fill="#5c8b72"/>
  <rect id="Rectangle_16822" data-name="Rectangle 16822" width="362.432" height="0.874" transform="translate(0.057 37.118)" fill="#5c8b72"/>
</svg>
