<svg xmlns="http://www.w3.org/2000/svg" width="222.208" height="120.247" viewBox="0 0 222.208 120.247">
  <g id="Group_8527" data-name="Group 8527" transform="translate(0)">
    <path id="Path_2606" data-name="Path 2606" d="M-675.751,288.406a7.273,7.273,0,0,0,4.2.587,15.264,15.264,0,0,1,2.716.06c5.854.743,8.665,5.641,6.458,11.2-.134.336-.29.664-.544,1.246h6.863c2.135,0,4.271.041,6.4-.021,2.01-.057,2.182-.294,2.177-2.257-.009-2.741,0-5.483-.012-8.224,0-1.064.179-1.983,1.5-2.012,1.363-.031,1.693.833,1.686,2.012q-.026,3.95,0,7.9c.017,2.42.2,2.6,2.518,2.6q8.247,0,16.495-.007c1.816,0,2.365-.426,2.4-2.223.074-3.867.041-7.738.024-11.607a3.918,3.918,0,0,0-.791-2.24c-.724-1.045-.41-1.729.845-1.969,1.76-.335,3.1.85,3.15,2.925.063,2.686.026,5.375.024,8.063,0,1.612.06,3.229-.038,4.836-.185,3.028-1.969,4.714-4.951,4.722-6.353.019-12.72.254-19.051-.11-2.75-.158-5.428.209-8.142.134-2.774-.077-5.551,0-8.327-.024-1.43-.01-2.894.189-4.238-.546a.721.721,0,0,0-.46-.079c-6.071,1.358-12.224.354-18.335.613-3.143.132-6.3.06-9.446,0-1.092-.022-1.581.283-1.464,1.44a5.794,5.794,0,0,1-.9,3.692,4.332,4.332,0,0,1-4.259,1.988,3.728,3.728,0,0,1-3.428-1.818c.445-.62.863-.187,1.238-.156,3.122.258,4.228-.74,4.207-3.893-.028-4.3-.079-8.6-.118-12.895,0-.376.017-.754,0-1.128-.069-1.22.237-2.225,1.665-2.209,1.454.015,1.627,1.1,1.62,2.273-.017,2.9.046,5.807-.041,8.706-.038,1.219.347,1.545,1.535,1.536,7.525-.048,15.054-.081,22.58,0,4.92.053,5.591-3.332,4.648-6.986-.446-1.735-1.938-2.316-3.488-2.705a19.451,19.451,0,0,0-4.618-.316c-1.96-.021-2.666-.958-2.29-3.1" transform="translate(833.49 -259.789)" fill="#5c8b72"/>
    <path id="Path_2607" data-name="Path 2607" d="M-736.36,295.32h-.012a8.658,8.658,0,0,0,.014,1.447c.148.852-.546,2.118.414,2.482a3.977,3.977,0,0,0,3.679-.463,3.634,3.634,0,0,0,1.342-2.3,10.877,10.877,0,0,0-.069-4.63,2.883,2.883,0,0,0-3.107-2.419c-1.433.167-2.18,1.073-2.252,2.824-.043,1.018-.009,2.039-.009,3.059m26.516-9a7.324,7.324,0,0,0,4.2.572c2.484-.1,4.923.082,7.038,1.614,2.477,1.792,3.426,5.452,2.338,8.9-1.009,3.193-2.781,4.479-6.356,4.489-8.011.021-16.035.285-24.023-.134-3.2-.168-6.435-.067-9.572-.029-5.586.069-11.187-.012-16.779.163-.793.026-1.014.361-.985,1.08a7.6,7.6,0,0,1-.475,3.322,4.807,4.807,0,0,1-7.428,1.7c-.309-.283-.669-.554-.613-1.071.654-.252,1.245.146,1.871.179,2.187.112,3.471-1.018,3.476-3.217q.021-7.5-.038-15c-.007-1.056.282-1.857,1.406-1.965,1.3-.125,1.813.637,1.807,1.876-.014,3.011.04,6.023-.031,9.033-.028,1.138.191,1.62,1.469,1.595,3.843-.082,7.69-.072,11.532.007,1.262.026,1.524-.453,1.476-1.6-.082-1.931-.057-3.871,0-5.805.094-3.352,1.586-4.884,4.906-5.131,4.456-.331,6.434,1.282,7.009,5.754a13.752,13.752,0,0,1-.352,5.591c-.242.851-.007,1.166.884,1.164,7.956-.022,15.913.024,23.869-.05a3.761,3.761,0,0,0,4.058-3.538c.374-3.134-.61-5.048-3-5.852a16.668,16.668,0,0,0-5.386-.551c-1.99-.005-2.656-.9-2.293-3.088" transform="translate(790.622 -257.689)" fill="#5c8b72"/>
    <path id="Path_2608" data-name="Path 2608" d="M-675.087,311.778h-.019c0-.694.019-1.389-.005-2.082a1.559,1.559,0,0,0-1.363-1.7,1.761,1.761,0,0,0-2.141,1.227,5.909,5.909,0,0,0,.062,4.233c.527,1.282,1.648,1.444,2.8,1.26s.52-1.181.651-1.818a5.806,5.806,0,0,0,.012-1.121m12.476,2.983c.694,0,1.389.007,2.082,0,1.959-.022,3.112-.893,3.356-2.518a3.5,3.5,0,0,0-2.281-3.972,5.4,5.4,0,0,0-6.818,4.075c-.293,2.194-.108,2.41,2.06,2.415q.8,0,1.6,0m21.555-7.122a13.706,13.706,0,0,0,.009,3.279c-.024.851-.093,1.706-.058,2.556.027.738.209,1.432,1.224,1.205q.641-.005,1.279-.014c2.362.208,2.535.069,2.553-2.2.015-2.247.014-4.5.009-6.743a2.5,2.5,0,0,0-.882-2.283c-.095-1.011.633-1.162,1.339-1.178a1.586,1.586,0,0,1,1.651,1.457,18.856,18.856,0,0,1,.12,2.892c0,2.31.016,4.624-.063,6.933-.027.826.184,1.234,1.023,1.217.108,0,.215,0,.321.007,3.4.149,3.509.048,3.526-3.394.008-1.773-.009-3.548.014-5.323a4.365,4.365,0,0,0-.472-2.175c-.235-.438-.81-.874-.1-1.358a1.569,1.569,0,0,1,1.811-.043,2.3,2.3,0,0,1,.992,2.089c.009,2.848.065,5.7-.029,8.547-.076,2.285-1.287,3.447-3.55,3.512a23.143,23.143,0,0,1-4.453-.275c-1.419-.23-2.886.427-4.381.3-4.968-.433-9.944.271-14.909-.019-5.524-.323-11.041.271-16.558-.01-1.387-.07-2.187.232-2.23,1.886a2.683,2.683,0,0,1-2.189,2.808,3.614,3.614,0,0,1-3.861-1.1c.692-.391,1.27-.107,1.8-.151a1.975,1.975,0,0,0,1.967-1.576c.357-1.435.053-1.818-1.427-1.84-3.181-.051-4.341-1.143-4.566-4.321a13.624,13.624,0,0,1-.017-1.61c.184-3.685,2.118-5.206,5.733-4.484a2.906,2.906,0,0,1,2.551,2.692,28.522,28.522,0,0,1,.118,4.346c-.022,1.042.36,1.43,1.408,1.408,2.657-.058,2.784.764,2.741-2.712-.026-1.989,0-3.979-.005-5.967a4.154,4.154,0,0,0-.384-2.034c-.247-.46-.925-.98-.063-1.462a1.541,1.541,0,0,1,2.156.333,3.7,3.7,0,0,1,.618,2.449c-.01,1.171,0,2.343,0,3.454.568.221.7-.149.906-.362,2.69-2.784,5.131-2.671,8.293-1.154,1.751.839,2.657,3.455,2.046,5.993-.342,1.42.1,1.6,1.32,1.569,2.668-.07,5.338-.022,8.01-.026,2.333-.005,2.336-.007,2.345-2.281q.008-2.258-.005-4.516c0-.656-.015-1.3.608-1.734l1.559.285.113.534.041.6" transform="translate(848.903 -246.308)" fill="#5c8b72"/>
    <path id="Path_2609" data-name="Path 2609" d="M-766.93,285.136c.016-2.64-.772-3.78-2.487-3.862a2.753,2.753,0,0,0-3.232,2.916,30.591,30.591,0,0,0,1.066,7.8c1.15,5.493.345,10.447-3.594,14.677a7.58,7.58,0,0,0-1.919,3.667c-.386,1.9.244,3.591,1.919,4.089,3.794,1.126,6.616,3.588,9.316,6.3a6.328,6.328,0,0,0,3.6,1.952c2.123.3,3.589-.671,3.768-2.486.182-1.861-.805-2.819-3.105-2.968a12.116,12.116,0,0,1-2.853-.3,1.778,1.778,0,0,1-1.468-2,1.779,1.779,0,0,1,1.864-1.632c.846-.077,1.7-.134,2.535-.288a1.84,1.84,0,0,0,1.593-2.22,1.709,1.709,0,0,0-1.964-1.663,14.135,14.135,0,0,0-1.581.2c-1.576.23-3.095.839-4.733.675-2.537-.256-3.586-2.352-2.219-4.494a6.841,6.841,0,0,1,1.962-2.094,30.661,30.661,0,0,0,4.343-3.55,12.686,12.686,0,0,0,3.811-5.476c.33-1.152.462-2.441-.838-3.143-1.244-.671-2.118.074-2.846,1.047a5.684,5.684,0,0,1-.431.477c-.774.836-1.656,1.463-2.808.827-1.1-.6-.984-1.638-.759-2.693a39,39,0,0,0,1.056-5.754m3.661,29.94c1.006.759,2.179.436,3.238.771,2.34.74,3.426,2.108,3.213,4.3a4.45,4.45,0,0,1-4.049,4.278,7.832,7.832,0,0,1-5.715-2.087,14.472,14.472,0,0,1-1.631-1.548,16.2,16.2,0,0,0-6.871-4.533c-3.464-1.181-4.64-4.219-3.207-7.634a16,16,0,0,1,2.647-4.01,12.736,12.736,0,0,0,2.789-10.236c-.422-3.352-1.535-6.6-1.437-10.028a4.62,4.62,0,0,1,2.954-4.546,4.23,4.23,0,0,1,5.908,3.56,15.855,15.855,0,0,1-.458,5.594c-.177.934-.384,1.864-.6,2.9.942.021,1.2-.661,1.6-1.075a3.738,3.738,0,0,1,4.477-1.057,3.928,3.928,0,0,1,1.885,4.4,11.836,11.836,0,0,1-2.917,5.3,38.042,38.042,0,0,1-6,5.315c-.93.693-2.275,1.5-1.727,2.753.6,1.377,2.123.845,3.3.582a15.961,15.961,0,0,1,4.269-.573,3.147,3.147,0,0,1,3.253,2.729,3.529,3.529,0,0,1-2.12,4.214,12.389,12.389,0,0,1-2.807.627" transform="translate(778.887 -262.582)" fill="#5c8b72"/>
    <path id="Path_2610" data-name="Path 2610" d="M-746.313,307.259c0-.453.007-.776,0-1.1-.052-2.261-.879-3.062-3.026-2.934-1.945.117-2.928,1.317-2.748,3.351a17.054,17.054,0,0,0,1.073,3.534c.678,2.185.232,4.079-1.1,4.758-1.569.8-3.3.05-4.652-2.024-.292-.45-.517-.942-.8-1.392a14.7,14.7,0,0,0-1.1-1.581,2.953,2.953,0,0,0-3.61-.906,3.341,3.341,0,0,0-1.608,3.569,5.125,5.125,0,0,0,1.468,2.63,25.286,25.286,0,0,0,5.261,3.919c6.775,4.089,13.1,8.684,17.646,15.374a10.077,10.077,0,0,0,3,2.872c2.1,1.311,4.118,1.03,5.193-.724,1.219-1.99.666-4.013-1.509-5.316-1.054-.63-2.22-1.08-3.237-1.758-1.634-1.088-1.694-2.714-.252-4.03.276-.252.59-.467.843-.742a2.033,2.033,0,0,0,.611-2.334,1.921,1.921,0,0,0-2-1.03c-.534-.005-1.068.009-1.6-.012a8.232,8.232,0,0,1-8.232-8.471c-.038-1.943.273-3.855.39-5.653m1.7-.625c-.1,1.054-.23,2.391-.367,3.727a9.784,9.784,0,0,0,.63,5.684,5.93,5.93,0,0,0,5.158,3.529c.853.043,1.708.033,2.561.088a3.611,3.611,0,0,1,3.418,2.235,3.441,3.441,0,0,1-.934,3.828,6.62,6.62,0,0,1-.932.877c-.9.671-.664,1.222.163,1.689,1.07.6,2.194,1.111,3.232,1.759a5.319,5.319,0,0,1,1.782,7.441c-1.353,2.369-4.295,3-7.016,1.5a15.231,15.231,0,0,1-5.014-4.9c-3.416-4.913-8.04-8.4-12.948-11.6a69.94,69.94,0,0,1-7.575-5.1c-2.075-1.775-3.654-3.823-2.922-6.827a4.432,4.432,0,0,1,3.249-3.447,4.251,4.251,0,0,1,4.578,1.583,33.722,33.722,0,0,1,2.319,3.469c.522.807,1.147,1.591,2.189,1.164,1.133-.463.75-1.571.565-2.4-.278-1.248-.968-2.379-1.145-3.679-.455-3.335,1.121-5.5,4.228-5.766,3-.256,4.739,1.516,4.781,5.141" transform="translate(788.435 -246.834)" fill="#5c8b72"/>
    <path id="Path_2611" data-name="Path 2611" d="M-736.944,319.984c-1.993-.093-3.11,1.157-2.831,2.963a7.282,7.282,0,0,0,1.118,2.647c1.54,2.539,1.361,3.086-1.284,4.425-2.013,1.02-2.226,2.637-.575,4.213a12.766,12.766,0,0,0,3.533,2.182c5.941,2.789,10.3,7,12.261,13.466a7.382,7.382,0,0,0,1.183,2.269,2.539,2.539,0,0,0,4.542-.4,9.225,9.225,0,0,0,.9-3.895,9.937,9.937,0,0,1,3.74-7.853,26.64,26.64,0,0,0,3.016-3.107,6.183,6.183,0,0,0,1.385-2.518,3.252,3.252,0,0,0-1.964-4.182,2.98,2.98,0,0,0-4.192,1.749c-.682,1.571-1.148,3.239-1.852,4.8-1.474,3.277-4.587,3.8-7.3,1.425-3.234-2.824-5.024-6.473-6.334-10.454a26.986,26.986,0,0,0-2.168-5.364c-.76-1.289-1.724-2.343-3.179-2.367m28.761,13.53c-.005,2.1-1.236,3.613-2.446,5.114a11.523,11.523,0,0,1-2.02,2.056,9.692,9.692,0,0,0-3.921,7.879,12.328,12.328,0,0,1-.671,3.3,4.235,4.235,0,0,1-3.665,3.165,4.347,4.347,0,0,1-4.2-2.134,20.388,20.388,0,0,1-2-4.554,17.266,17.266,0,0,0-8.056-9.009c-1.622-.924-3.289-1.77-4.9-2.716a9.1,9.1,0,0,1-1.883-1.475c-2.12-2.18-1.675-5.244,1.088-6.5,1.512-.685,1.516-1.315.616-2.444a6.123,6.123,0,0,1-1.026-2.341,4.389,4.389,0,0,1,1.531-4.889,4.781,4.781,0,0,1,5.279.148,8.6,8.6,0,0,1,2.834,3.818c1.392,3.189,2.168,6.624,3.9,9.685a16.929,16.929,0,0,0,3.709,4.384c1.78,1.559,3.7,1.133,4.64-1.066.676-1.572,1.1-3.26,1.835-4.8,1.361-2.848,3.869-3.684,6.672-2.35a4.716,4.716,0,0,1,2.681,4.724" transform="translate(804.406 -234.81)" fill="#5c8b72"/>
    <path id="Path_2612" data-name="Path 2612" d="M-728.294,305.078c-2.25-.019-3.284,1.323-2.68,3.517a10.95,10.95,0,0,0,1.418,2.88,33.119,33.119,0,0,1,4.375,9.628,8.914,8.914,0,0,0,5.062,6.274,26.478,26.478,0,0,0,3.741,1.42,6.592,6.592,0,0,1,5.144,6.55c.039.7.064,1.4.069,2.094a8.2,8.2,0,0,0,.424,3.016,2.261,2.261,0,0,0,2.444,1.681,2.117,2.117,0,0,0,2-2.3c0-.592-.005-1.183-.012-1.773a4.652,4.652,0,0,1,2.865-4.616,11.518,11.518,0,0,0,1.83-.989c1.123-.8,1.044-1.66-.182-2.333a9.376,9.376,0,0,0-2.738-.862,25.164,25.164,0,0,1-6.8-2.292,8.6,8.6,0,0,1-4.885-6.737c-.151-1.063-.287-2.132-.354-3.2-.292-4.674-.4-4.765-4.92-3.646-2.247.558-3.613-.424-3.812-2.793-.076-.908.005-1.828-.055-2.738-.134-1.974-.989-2.762-2.934-2.777m20.207,38.74a4.545,4.545,0,0,1-4.588-4.3c-.16-1.548-.1-3.1-.275-4.659a4.877,4.877,0,0,0-3.787-4.446,23.948,23.948,0,0,1-4.755-1.878,10.145,10.145,0,0,1-5.042-6.372,38.775,38.775,0,0,0-4.64-10.212,16.026,16.026,0,0,1-1.274-2.592,4.576,4.576,0,0,1,.994-5.074,4.245,4.245,0,0,1,4.767-.846,4.37,4.37,0,0,1,2.9,4.079c.095,1.014.021,2.044.127,3.055.122,1.135.7,1.533,1.888,1.165,5.021-1.55,6.346-.627,6.767,4.588.026.321.1.639.11.96.158,5.886,2.094,7.858,8.307,9.754,1.528.465,3.105.769,4.64,1.212,1.474.424,2.688,1.272,2.832,2.915s-1.1,2.455-2.321,3.179a9.578,9.578,0,0,1-1.02.458,3.158,3.158,0,0,0-2.151,3.385,6.994,6.994,0,0,1-.383,3.323,3.457,3.457,0,0,1-3.1,2.305" transform="translate(811.902 -245.68)" fill="#5c8b72"/>
    <path id="Path_2613" data-name="Path 2613" d="M-669.247,287.644a13.716,13.716,0,0,0,1.847.184c1.449-.077,2.11-.826,2.118-2.45.021-3.332,0-6.664,0-10,0-.872-.076-1.883,1.2-1.827,1.184.055,1.178.987,1.167,1.9-.021,1.933.029,3.869,0,5.8-.012.815.264,1.14,1.111,1.126,2.721-.041,5.443-.022,8.166-.017,1.481,0,2.118-.728,2.053-2.214-.058-1.341-.022-2.686-.014-4.029.005-.772.209-1.4,1.154-1.4.9.009,1.205.575,1.217,1.368.026,1.505.051,3.009.032,4.513-.014,1.051.211,1.823,1.481,1.761,1.217-.06,2.652.153,2.783-1.629.118-1.6.06-3.222.034-4.834-.016-.913.165-1.68,1.241-1.648,1.009.031,1.119.867,1.1,1.644a28.619,28.619,0,0,0,.036,4.5c.143,1.018.369,1.912,1.665,1.96,1.322.05,2.51-.122,2.9-1.645a6.717,6.717,0,0,0-.846-5.85c-.2-.28-.735-.491-.4-.9a1.531,1.531,0,0,1,1-.415,2.131,2.131,0,0,1,2.293,1.4,8.505,8.505,0,0,1-.345,7.321,4.536,4.536,0,0,1-5.673,1.631,3.244,3.244,0,0,0-3.045.055,7.057,7.057,0,0,1-4.554.014c-.355-.091-.76-.419-1.038-.324-3.55,1.207-7.2.35-10.792.542-1.138.06-1.583.292-1.622,1.514-.052,1.584-.656,2.989-2.415,3.382a3.273,3.273,0,0,1-3.855-1.449" transform="translate(857.452 -266.84)" fill="#5c8b72"/>
    <path id="Path_2614" data-name="Path 2614" d="M-705.079,292.716c-.074,2.254.117,4.515-.165,6.765-.371,2.992-2.015,4.508-4.983,4.525-3.308.017-6.617-.012-9.927.007-.972.007-1.761-.191-1.717-1.361.041-1.126.891-1.138,1.741-1.152,3.323-.057,3.327-.065,3.337-3.366.005-1.773.012-3.546-.017-5.32a4.494,4.494,0,0,0-1.075-3.282c-.623-.63-.366-1,.247-1.366a2.433,2.433,0,0,1,3.588,1.174,6.237,6.237,0,0,1,.445,2.517c-.024,2.795.022,5.591-.027,8.384-.017.985.316,1.286,1.289,1.294,3.157.029,3.989-.74,4.006-3.943.015-2.795.009-5.589.01-8.384,0-1.514.019-3.028-1.167-4.216-.517-.517-.134-.853.294-1.147,1.667-1.147,3.629-.117,3.955,2.108a64.847,64.847,0,0,1,.167,6.763" transform="translate(819.742 -259.802)" fill="#5c8b72"/>
    <path id="Path_2615" data-name="Path 2615" d="M-679.662,280.487h-.015c0-.7,0-1.39,0-2.086a1.7,1.7,0,0,0-1.449-1.839,1.8,1.8,0,0,0-2.156,1.241,6.012,6.012,0,0,0,.124,4.539c.561,1.248,1.773,1.341,2.887,1.136,1.083-.2.451-1.224.6-1.871a5.286,5.286,0,0,0,.014-1.121m20.434-6.471-.846.1a9.766,9.766,0,0,0-4.015,0,1.706,1.706,0,0,0-1.464,1.8c.029.984.35,1.778,1.528,1.806.216,0,.431,0,.647,0,.563-.007,1.093,0,1.6.021l.273.015a4.228,4.228,0,0,1,1.253.263l.141.051a3.618,3.618,0,0,1,2.468,4.418c-.328,2-1.3,2.764-3.593,2.781-2.235.015-4.472-.038-6.707.015-2.721.065-5.481-.333-8.2.029l-.723.014a24.862,24.862,0,0,0-4.022-.088c-1.662.1-3.445.192-4.3-1.614a8.808,8.808,0,0,1-.122-6.878c.642-1.814,2.324-1.862,3.857-2.11l1.085.069c2.319.7,2.91,1.468,2.944,3.861.017,1.171.074,2.347-.005,3.51.07,1.15.791,1.438,1.655,1.39,4.7.021,9.264.024,13.961.057a1.717,1.717,0,0,0,1.921-1.713,1.651,1.651,0,0,0-1.612-1.988c-.954-.094-1.914-.11-2.872-.148-2.242-.088-3.341-1.16-3.44-3.375-.1-2.256.982-3.723,3.076-3.979,1.105-.136,2.237-.065,3.358-.089a6.547,6.547,0,0,0,2.534-.2c.52-.221.814-.017.891.532a3.4,3.4,0,0,1-1.275,1.452" transform="translate(845.488 -267.992)" fill="#5c8b72"/>
    <path id="Path_2616" data-name="Path 2616" d="M-743.756,304.734a2.113,2.113,0,0,0-2.24,1.852,2.987,2.987,0,0,0,2.005,3.732c3.3,1.3,5.749,3.22,6.77,6.863a3.125,3.125,0,0,0,4.441,1.789,3.048,3.048,0,0,0,.929-4.588,4.282,4.282,0,0,1-.431-4.751c.891-1.813-.269-3.291-2.305-3.261a9.922,9.922,0,0,0-1.749.137,6.122,6.122,0,0,1-5.013-.965,4.942,4.942,0,0,0-2.407-.807m9.349,16.119a4.13,4.13,0,0,1-4.23-2.74,18.8,18.8,0,0,1-.812-1.928,4.735,4.735,0,0,0-2.486-2.98,27.584,27.584,0,0,1-3.836-1.979,4.636,4.636,0,0,1-1.967-4.18c.131-2.815,2.127-4.328,4.937-3.85a1.728,1.728,0,0,1,.613.17c2.468,1.557,5.089,1.662,7.937,1.334a3.725,3.725,0,0,1,3.612,5.212,3.886,3.886,0,0,0,.325,3.838c1.9,3.514-.141,7.115-4.092,7.1" transform="translate(801.203 -245.659)" fill="#5c8b72"/>
    <path id="Path_2617" data-name="Path 2617" d="M-690.742,318.782c.288-.16.383-.256.474-.254,2.822.087,3.172-.591,3.126-3.859-.041-2.843-.017-5.685-.024-8.53,0-.778-.034-1.468,1.114-1.5,1.219-.031,1.1.757,1.109,1.49.021,1.986-.007,3.97.021,5.955,0,.441-.186.987.4,1.27,1.67.809,5-.85,5.253-2.685a6.32,6.32,0,0,0-1.018-4.748c-.208-.285-.642-.542-.369-.954a1.245,1.245,0,0,1,1.138-.47,2.3,2.3,0,0,1,2.16,1.847,8.524,8.524,0,0,1-.144,5.68,4.61,4.61,0,0,1-4.2,2.951,8.465,8.465,0,0,1-1.756,0c-1.081-.113-1.509.263-1.478,1.423a3.489,3.489,0,0,1-5.047,3.095,4.71,4.71,0,0,1-.755-.711" transform="translate(842.049 -244.664)" fill="#5c8b72"/>
    <path id="Path_2618" data-name="Path 2618" d="M-647.537,294.384c0,2.36.007,4.719,0,7.079,0,1.186.148,2.528-1.632,2.516-1.7-.012-1.526-1.3-1.529-2.429-.01-4.29-.031-8.581,0-12.871a4.66,4.66,0,0,0-1.123-3.572c-.718-.714-.215-1,.3-1.325,1.773-1.116,3.852.168,3.943,2.558.1,2.678.024,5.363.024,8.044Z" transform="translate(869.679 -259.799)" fill="#5c8b72"/>
    <path id="Path_2619" data-name="Path 2619" d="M-705.423,294.224c0,2.413.012,4.829,0,7.242-.007,1.176.17,2.559-1.624,2.513-1.634-.043-1.552-1.325-1.554-2.463-.012-4.238-.021-8.476,0-12.716a4.983,4.983,0,0,0-1.078-3.749c-.659-.7-.072-1.063.445-1.344,1.775-.966,3.617.194,3.766,2.472.122,1.869.039,3.754.047,5.632,0,.8,0,1.608,0,2.413" transform="translate(828.268 -259.807)" fill="#5c8b72"/>
    <path id="Path_2620" data-name="Path 2620" d="M-716.741,280.978c.747.021,1.548-.033,1.859.879a1.151,1.151,0,0,1-.371,1.439c-.518.333-.9.036-1.141-.469-.2-.422-.486-.755-.975-.64-.548.129-.666.63-.75,1.119a1.983,1.983,0,0,0,1.8,2.51,10.429,10.429,0,0,0,1.428-.01.724.724,0,0,1,.81.615c.074.532-.256.776-.747.824-1.639.158-3.268.376-4.9.635-.932.148-.894-.681-.451-1.143a1.274,1.274,0,0,0,.28-1.53c-.776-2.474.572-4.236,3.159-4.228" transform="translate(820.739 -261.517)" fill="#5c8b72"/>
    <path id="Path_2621" data-name="Path 2621" d="M-681.449,312.905c-.167.731-.542,1.289-1.377,1.236-.778-.05-1.322-.474-1.243-1.332a1.245,1.245,0,0,1,1.339-1.279c.834.024,1.186.578,1.281,1.375" transform="translate(846.826 -239.625)" fill="#5c8b72"/>
    <path id="Path_2622" data-name="Path 2622" d="M-683.369,312.828c-.132.706-.47,1.306-1.3,1.3a1.148,1.148,0,0,1-1.274-1.16,1.238,1.238,0,0,1,1.193-1.43c.81-.045,1.289.407,1.38,1.289" transform="translate(845.489 -239.62)" fill="#5c8b72"/>
    <path id="Path_2623" data-name="Path 2623" d="M-654.656,271.146c1.382.6,1.48,1.5.622,2.63-.948.3-1.756.089-2-.925-.256-1.04.417-1.547,1.382-1.7" transform="translate(866.878 -268.563)" fill="#5c8b72"/>
    <path id="Path_2624" data-name="Path 2624" d="M-657.547,304.744a1.5,1.5,0,0,1-.034-2.523c.978-.072,1.9.014,1.857,1.317-.038,1.188-.91,1.27-1.823,1.207" transform="translate(865.327 -246.309)" fill="#5c8b72"/>
    <path id="Path_2625" data-name="Path 2625" d="M-652.193,273.757c-.76.1-1.464.058-1.845-.762-.359-.774.142-1.275.572-1.8a1.763,1.763,0,0,1,1.954.941l-.2,1.239-.479.381" transform="translate(868.263 -268.532)" fill="#5c8b72"/>
    <path id="Path_2626" data-name="Path 2626" d="M-683.209,271.192c1.009,1.011.939,1.905-.285,2.676l-.64-.021a1.8,1.8,0,0,1-1.02-1.7c.355-.924,1.124-.99,1.945-.951" transform="translate(846.053 -268.536)" fill="#5c8b72"/>
    <path id="Path_2627" data-name="Path 2627" d="M-658.192,302.25c.491.594.949,1.2.347,1.979a1.17,1.17,0,0,1-1.411.434c-.882-.319-.934-1.054-.836-1.842.163-.2.328-.407.493-.611l1.408.04" transform="translate(863.987 -246.303)" fill="#5c8b72"/>
    <path id="Path_2628" data-name="Path 2628" d="M-681.374,271.184c1.133,1.449,1,2.01-.623,2.692l-.97-.438a1.706,1.706,0,0,1,.414-2.221l1.179-.033" transform="translate(847.438 -268.535)" fill="#5c8b72"/>
    <path id="Path_2629" data-name="Path 2629" d="M-652.8,271.622c-1.2.742-2.007.512-2.3-.956l.69-1.025,1.3.062h0c.2.427.393.855.591,1.281-.091.213-.18.426-.271.639" transform="translate(867.585 -269.641)" fill="#5c8b72"/>
    <path id="Path_2630" data-name="Path 2630" d="M-666.9,298.879a1.826,1.826,0,0,1-2.01,1.72,1.686,1.686,0,0,1-1.8-1.835,1.8,1.8,0,0,1,1.912-1.936c1.145.01,1.844.723,1.893,2.051" transform="translate(856.408 -250.16)" fill="#5c8b72"/>
  </g>
</svg>
